<?xml version="1.0" encoding="utf-8"?>
<!-- Generator: Adobe Illustrator 23.0.2, SVG Export Plug-In . SVG Version: 6.00 Build 0)  -->
<svg version="1.1" id="Layer_1" xmlns="http://www.w3.org/2000/svg" xmlns:xlink="http://www.w3.org/1999/xlink" x="0px" y="0px"
	 viewBox="0 0 986.8 334.1" style="enable-background:new 0 0 986.8 334.1;" xml:space="preserve">
<style type="text/css">
	.st0{fill:none;stroke:#E98A26;stroke-width:7;stroke-linejoin:round;stroke-miterlimit:10;}
	.st1{fill:#E96D26;}
	.st2{fill:#E98A26;}
	.st3{fill:none;stroke:#E98A26;stroke-width:7;stroke-miterlimit:10;}
	.st4{fill:none;stroke:#E98A26;stroke-width:7;stroke-linecap:round;stroke-miterlimit:10;}
	.st5{fill:#F6AD17;stroke:#FFFFFF;stroke-miterlimit:10;}
	.st6{fill:#F6AD17;}
	.st7{fill:#B5B5B5;}
	.st8{fill:none;stroke:#E96D26;stroke-width:7;stroke-linecap:round;stroke-miterlimit:10;}
</style>
<path class="st0" d="M496.7,223.3c-4.8-0.7-9.2,0.2-13,2.2c-1.7,0.9-3.7,0.9-5.5,0l-24.3-12.6c-3.1-1.6-5.6-4-7.3-7l-31.3-54.5
	c-3.3-5.8-8.3-10.3-14.3-13.1l-20.8-9.6c-10.4-4.9-22.5-4.9-33,0l-21.1,10c-5.8,2.8-10.7,7.3-13.9,12.9l-31.5,54.7
	c-1.7,3-4.2,5.4-7.3,7l-24.3,12.6c-1.7,0.9-3.8,0.9-5.5,0c-3.8-2-8.3-2.9-13-2.2c-9.1,1.4-16.3,9-17.3,18.2
	c-1.3,12.5,8.4,23,20.6,23l0,0c-1.8,3.2-2.8,7-2.8,11c0,12.5,10.2,22.7,22.7,22.7h98.1c9.6,0,17.7-5.9,21.1-14.3l91.2,11.7
	c12.4,1.6,23.8-7.2,25.4-19.6c0.6-4.5-0.2-8.8-2-12.6c1.9,0.5,3.8,0.9,5.8,0.9c12.2,0,21.9-10.5,20.6-23
	C513,232.3,505.8,224.7,496.7,223.3z M294,236.2c3-1.6,5.5-3.9,7.2-6.9l15.9-27.2v30.1c-9.7,1.5-17.6,9.3-18.9,19.5l0,0
	c-0.1,0.5-0.1,0.9-0.1,1.4h-36.7L294,236.2z M410.2,243.2v-41.4l15.9,27.1c1.7,2.9,4.2,5.3,7.2,6.9l26.5,13.8L410.2,243.2z"/>
<g>
	<g>
		<path class="st1" d="M37.5,54.5c-1-0.5-2-0.8-3.2-0.8h-4.2v13.7h4.3c1.2,0,2.3-0.3,3.2-0.8c1-0.5,1.7-1.3,2.2-2.3s0.8-2.1,0.8-3.4
			v-0.7c0-1.3-0.3-2.4-0.8-3.4C39.2,55.8,38.5,55,37.5,54.5z M37.7,61c0,1.3-0.3,2.4-0.9,3.1c-0.6,0.7-1.4,1.1-2.5,1.1h-1.4V56h1.4
			c1.1,0,2,0.4,2.5,1.1c0.6,0.7,0.9,1.8,0.9,3.2V61z"/>
		<path class="st1" d="M44,53.2c-0.5,0-0.8,0.1-1.1,0.4c-0.3,0.3-0.4,0.6-0.4,1s0.1,0.8,0.4,1c0.3,0.3,0.6,0.4,1.1,0.4
			c0.5,0,0.8-0.1,1.1-0.4s0.4-0.6,0.4-1s-0.1-0.7-0.4-1C44.8,53.3,44.4,53.2,44,53.2z"/>
		<rect x="42.6" y="57.2" class="st1" width="2.7" height="10.2"/>
		<path class="st1" d="M55.8,60.6c0-1.1-0.4-2-1.1-2.7C54,57.3,53,57,51.7,57c-0.8,0-1.6,0.1-2.2,0.4c-0.7,0.3-1.2,0.7-1.5,1.2
			c-0.4,0.5-0.5,1-0.5,1.6h2.6c0-0.4,0.1-0.7,0.4-0.9c0.3-0.2,0.6-0.3,1.1-0.3s0.9,0.1,1.1,0.4c0.2,0.3,0.4,0.7,0.4,1.1v0.6h-1.3
			c-1.5,0-2.7,0.3-3.5,0.9c-0.8,0.6-1.2,1.4-1.2,2.5c0,0.9,0.3,1.6,1,2.2s1.5,0.9,2.5,0.9c1.1,0,1.9-0.4,2.6-1.1
			c0.1,0.4,0.1,0.7,0.3,0.9h2.8v-0.2C56,66.7,55.9,66,55.9,65L55.8,60.6L55.8,60.6z M53.1,64.5c-0.2,0.3-0.4,0.5-0.8,0.7
			c-0.3,0.2-0.7,0.3-1.1,0.3c-0.4,0-0.7-0.1-1-0.3s-0.4-0.5-0.4-0.8v-0.2c0.1-0.9,0.8-1.4,2.2-1.4h1L53.1,64.5L53.1,64.5z"/>
		<path class="st1" d="M63.1,57c-1.1,0-1.9,0.4-2.6,1.2l-0.1-1h-2.5v14.1h2.7v-4.8c0.6,0.7,1.5,1.1,2.5,1.1c1.2,0,2.2-0.5,2.9-1.4
			c0.7-0.9,1.1-2.2,1.1-3.8v-0.1c0-1.6-0.3-2.9-1-3.8C65.4,57.6,64.4,57,63.1,57z M62.4,65.4c-0.9,0-1.4-0.3-1.8-1v-4.2
			c0.3-0.7,0.9-1,1.8-1c0.6,0,1.1,0.3,1.5,0.8c0.3,0.5,0.5,1.2,0.5,2.2C64.4,64.3,63.7,65.4,62.4,65.4z"/>
		<path class="st1" d="M74.2,57c-1.1,0-2,0.4-2.7,1.3v-5.4h-2.7v14.5h2.7v-7.2c0.4-0.6,0.9-0.9,1.7-0.9c0.6,0,1,0.1,1.3,0.4
			c0.3,0.3,0.4,0.7,0.4,1.3v6.5h2.7V61C77.5,58.3,76.4,57,74.2,57z"/>
		<path class="st1" d="M82.3,58.4l-0.1-1.2h-2.6v10.2h2.7v-6.7c0.3-0.7,1-1,2-1c0.3,0,0.6,0,1,0.1v-2.6c-0.3-0.1-0.5-0.1-0.8-0.1
			C83.6,57,82.8,57.5,82.3,58.4z"/>
		<path class="st1" d="M94.6,60.6c0-1.1-0.4-2-1.1-2.7c-0.7-0.6-1.7-0.9-3-0.9c-0.8,0-1.6,0.1-2.2,0.4c-0.7,0.3-1.2,0.7-1.5,1.2
			c-0.4,0.5-0.5,1-0.5,1.6H89c0-0.4,0.1-0.7,0.4-0.9S90,59,90.5,59s0.9,0.1,1.1,0.4c0.2,0.3,0.4,0.7,0.4,1.1v0.6h-1.3
			c-1.5,0-2.7,0.3-3.5,0.9c-0.8,0.6-1.2,1.4-1.2,2.5c0,0.9,0.3,1.6,1,2.2c0.7,0.6,1.5,0.9,2.5,0.9c1.1,0,1.9-0.4,2.6-1.1
			c0.1,0.4,0.1,0.7,0.3,0.9h2.8v-0.2c-0.3-0.5-0.4-1.2-0.4-2.2v-4.4H94.6z M91.9,64.5c-0.2,0.3-0.4,0.5-0.8,0.7s-0.7,0.3-1.1,0.3
			s-0.7-0.1-1-0.3c-0.2-0.2-0.4-0.5-0.4-0.8v-0.2c0.1-0.9,0.8-1.4,2.2-1.4h1v1.7H91.9z"/>
		<path class="st1" d="M103.1,58.2c-0.6-0.8-1.5-1.2-2.6-1.2c-1.3,0-2.3,0.5-3,1.4c-0.7,1-1.1,2.2-1.1,3.8v0.1
			c0,1.6,0.4,2.9,1.1,3.8c0.8,1,1.7,1.4,3,1.4c1,0,1.9-0.4,2.5-1.1v0.5c0,0.7-0.2,1.3-0.6,1.6c-0.4,0.4-1,0.6-1.7,0.6
			c-1,0-1.8-0.4-2.5-1.1L97,69.7c0.4,0.5,0.9,0.9,1.6,1.2s1.4,0.4,2.2,0.4c1,0,1.8-0.2,2.6-0.5c0.7-0.3,1.3-0.8,1.7-1.5
			s0.6-1.4,0.6-2.3v-9.8h-2.5L103.1,58.2z M102.9,64.5c-0.4,0.6-1,0.9-1.8,0.9c-0.6,0-1.2-0.3-1.5-0.8c-0.4-0.5-0.6-1.3-0.6-2.2
			c0-1.1,0.2-1.9,0.6-2.4s0.9-0.8,1.5-0.8c0.8,0,1.4,0.3,1.8,0.9V64.5z"/>
		<path class="st1" d="M119.1,57c-1.3,0-2.3,0.5-3.1,1.6c-0.5-1-1.4-1.6-2.7-1.6c-1.2,0-2.2,0.4-2.9,1.3l-0.1-1.1h-2.6v10.2h2.7
			v-7.2c0.3-0.6,0.9-1,1.7-1c0.6,0,1,0.1,1.2,0.4c0.2,0.3,0.3,0.7,0.3,1.3v6.5h2.7v-7c0.3-0.8,0.9-1.2,1.7-1.2c0.6,0,1,0.1,1.2,0.4
			c0.2,0.3,0.3,0.7,0.3,1.3v6.5h2.7v-6.5c0-1.3-0.3-2.3-0.8-2.9C121,57.3,120.2,57,119.1,57z"/>
		<path class="st1" d="M132.7,60.6c0-1.1-0.4-2-1.1-2.7c-0.7-0.6-1.7-0.9-3-0.9c-0.8,0-1.6,0.1-2.2,0.4c-0.7,0.3-1.2,0.7-1.5,1.2
			c-0.4,0.5-0.5,1-0.5,1.6h2.7c0-0.4,0.1-0.7,0.4-0.9s0.6-0.3,1.1-0.3s0.9,0.1,1.1,0.4c0.2,0.3,0.4,0.7,0.4,1.1v0.6h-1.3
			c-1.5,0-2.7,0.3-3.5,0.9c-0.8,0.6-1.2,1.4-1.2,2.5c0,0.9,0.3,1.6,1,2.2c0.7,0.6,1.5,0.9,2.5,0.9c1.1,0,1.9-0.4,2.6-1.1
			c0.1,0.4,0.1,0.7,0.3,0.9h2.8v-0.2c-0.3-0.5-0.4-1.2-0.4-2.2v-4.4H132.7z M130,64.5c-0.2,0.3-0.4,0.5-0.8,0.7
			c-0.4,0.2-0.7,0.3-1.1,0.3c-0.4,0-0.7-0.1-1-0.3c-0.2-0.2-0.4-0.5-0.4-0.8v-0.2c0.1-0.9,0.8-1.4,2.2-1.4h1v1.7H130z"/>
		<path class="st1" d="M138.3,65.1c-0.1-0.2-0.2-0.4-0.2-0.8v-5.1h1.7v-2h-1.7v-2.5h-2.7v2.5h-1.5v2h1.5v5.5c0,1.9,1,2.9,2.9,2.9
			c0.6,0,1.1-0.1,1.7-0.2v-2.1c-0.2,0-0.5,0.1-0.8,0.1C138.7,65.4,138.4,65.3,138.3,65.1z"/>
		<rect x="141.5" y="57.2" class="st1" width="2.7" height="10.2"/>
		<path class="st1" d="M142.9,53.2c-0.5,0-0.8,0.1-1.1,0.4c-0.3,0.3-0.4,0.6-0.4,1s0.1,0.8,0.4,1s0.6,0.4,1.1,0.4s0.8-0.1,1.1-0.4
			c0.3-0.3,0.4-0.6,0.4-1s-0.1-0.7-0.4-1C143.7,53.3,143.3,53.2,142.9,53.2z"/>
		<path class="st1" d="M149.3,59.9c0.3-0.5,0.8-0.7,1.4-0.7c0.5,0,0.9,0.2,1.2,0.5s0.5,0.8,0.5,1.3h2.6c0-1.2-0.4-2.2-1.2-2.9
			S152,57,150.7,57c-1.5,0-2.6,0.5-3.4,1.4s-1.3,2.2-1.3,3.8v0.2c0,1.6,0.4,2.9,1.3,3.8s2,1.4,3.5,1.4c0.8,0,1.5-0.2,2.1-0.5
			s1.2-0.8,1.5-1.3c0.4-0.6,0.6-1.2,0.6-1.9h-2.6c0,0.5-0.2,0.8-0.5,1.1s-0.7,0.4-1.2,0.4c-0.7,0-1.1-0.2-1.5-0.7
			c-0.3-0.5-0.5-1.2-0.5-2.3v-0.2C148.8,61.1,148.9,60.4,149.3,59.9z"/>
	</g>
	<g>
		<path class="st1" d="M59.4,87.5c0.6-0.2,1.1-0.6,1.4-1.1c0.3-0.5,0.5-1.1,0.5-1.8c0-1.2-0.4-2.2-1.3-2.8s-2.1-1-3.8-1h-4.8v13.7
			h5.3c1.6,0,2.8-0.4,3.6-1c0.8-0.7,1.3-1.7,1.3-3c0-0.8-0.2-1.4-0.6-2C60.6,88.1,60.1,87.7,59.4,87.5z M54.3,83.2h2
			c0.8,0,1.4,0.1,1.7,0.4c0.4,0.3,0.5,0.7,0.5,1.3c0,1.1-0.7,1.7-2.1,1.7h-2.1L54.3,83.2L54.3,83.2z M58.2,91.9
			c-0.4,0.3-0.9,0.5-1.6,0.5h-2.4v-3.7h2.6c1.3,0,2,0.7,2,1.9C58.8,91.1,58.6,91.5,58.2,91.9z"/>
		<path class="st1" d="M66.2,85.6l-0.1-1.2h-2.6v10.2h2.7v-6.7c0.3-0.7,1-1,2-1c0.3,0,0.6,0,1,0.1v-2.6c-0.3-0.1-0.5-0.1-0.8-0.1
			C67.5,84.2,66.8,84.7,66.2,85.6z"/>
		<path class="st1" d="M79.5,89.3c0-1.6-0.4-2.9-1.2-3.7s-1.9-1.3-3.3-1.3c-0.9,0-1.8,0.2-2.5,0.7c-0.7,0.4-1.3,1.1-1.7,1.9
			c-0.4,0.8-0.6,1.7-0.6,2.7v0.3c0,1.5,0.5,2.8,1.4,3.7s2.2,1.4,3.7,1.4c0.8,0,1.6-0.2,2.3-0.5s1.3-0.8,1.7-1.4L78,91.6
			c-0.6,0.8-1.4,1.1-2.5,1.1c-0.7,0-1.2-0.2-1.7-0.6c-0.4-0.4-0.7-0.9-0.8-1.6h6.5L79.5,89.3L79.5,89.3z M76.8,88.5H73
			c0.1-0.7,0.3-1.2,0.6-1.6c0.3-0.4,0.8-0.5,1.3-0.5c0.6,0,1,0.2,1.3,0.5s0.5,0.8,0.5,1.4L76.8,88.5L76.8,88.5z"/>
		<path class="st1" d="M85.3,88.4c-1.5,0-2.7,0.3-3.5,0.9c-0.8,0.6-1.2,1.4-1.2,2.5c0,0.9,0.3,1.6,1,2.2s1.5,0.9,2.5,0.9
			c1.1,0,1.9-0.4,2.6-1.1c0.1,0.4,0.1,0.7,0.3,0.9h2.8v-0.2c-0.3-0.5-0.4-1.2-0.4-2.2v-4.4c0-1.1-0.4-2-1.1-2.7
			c-0.7-0.6-1.7-0.9-3-0.9c-0.8,0-1.6,0.1-2.2,0.4c-0.7,0.3-1.2,0.7-1.5,1.2c-0.4,0.5-0.5,1-0.5,1.6h2.7c0-0.4,0.1-0.7,0.4-0.9
			c0.3-0.2,0.6-0.3,1.1-0.3s0.9,0.1,1.1,0.4c0.2,0.3,0.4,0.7,0.4,1.1v0.6H85.3z M86.6,91.7c-0.2,0.3-0.4,0.5-0.8,0.7
			c-0.3,0.2-0.7,0.3-1.1,0.3c-0.4,0-0.7-0.1-1-0.3s-0.4-0.5-0.4-0.8v-0.2c0.1-0.9,0.8-1.4,2.2-1.4h1v1.7H86.6z"/>
		<path class="st1" d="M94.9,94.8c0.6,0,1.1-0.1,1.7-0.2v-2.1c-0.2,0-0.5,0.1-0.8,0.1c-0.4,0-0.7-0.1-0.8-0.2s-0.2-0.4-0.2-0.8v-5.2
			h1.7v-2h-1.7v-2.5h-2.7v2.5h-1.5v2h1.5v5.5C92,93.8,93,94.8,94.9,94.8z"/>
		<path class="st1" d="M106.7,94.6v-6.5c0-2.6-1.2-3.9-3.4-3.9c-1.1,0-2,0.4-2.7,1.3v-5.4h-2.7v14.5h2.7v-7.2
			c0.4-0.6,0.9-0.9,1.7-0.9c0.6,0,1,0.1,1.3,0.4c0.3,0.3,0.4,0.7,0.4,1.3v6.5h2.7V94.6z"/>
		<path class="st1" d="M111.4,80.8c-0.3-0.3-0.6-0.4-1.1-0.4s-0.8,0.1-1.1,0.4c-0.3,0.3-0.4,0.6-0.4,1s0.1,0.8,0.4,1
			c0.3,0.3,0.6,0.4,1.1,0.4s0.8-0.1,1.1-0.4s0.4-0.6,0.4-1C111.8,81.4,111.6,81,111.4,80.8z"/>
		<rect x="108.9" y="84.4" class="st1" width="2.7" height="10.2"/>
		<path class="st1" d="M122.6,94.6V88c0-1.3-0.3-2.2-0.8-2.8s-1.3-1-2.4-1c-1.2,0-2.2,0.5-2.9,1.4l-0.1-1.2h-2.6v10.2h2.7v-7.2
			c0.4-0.7,1-1,1.7-1c0.6,0,1,0.1,1.3,0.4c0.3,0.3,0.4,0.7,0.4,1.3v6.5H122.6z"/>
		<path class="st1" d="M130.3,95.9c-0.4,0.4-1,0.6-1.7,0.6c-1,0-1.8-0.4-2.5-1.1l-1.2,1.7c0.4,0.5,0.9,0.9,1.6,1.2
			c0.7,0.3,1.4,0.4,2.2,0.4c1,0,1.8-0.2,2.6-0.5c0.7-0.3,1.3-0.8,1.7-1.5s0.6-1.4,0.6-2.3v-10h-2.5l-0.1,1c-0.6-0.8-1.5-1.2-2.6-1.2
			c-1.3,0-2.3,0.5-3,1.4s-1.1,2.2-1.1,3.8v0.1c0,1.6,0.4,2.9,1.1,3.8s1.7,1.4,3,1.4c1,0,1.9-0.4,2.5-1.1v0.5
			C130.9,95,130.7,95.5,130.3,95.9z M129.1,92.6c-0.6,0-1.2-0.3-1.5-0.8c-0.4-0.5-0.6-1.3-0.6-2.2c0-1.1,0.2-1.9,0.6-2.4
			c0.4-0.5,0.9-0.8,1.5-0.8c0.8,0,1.4,0.3,1.8,0.9v4.3C130.5,92.3,129.9,92.6,129.1,92.6z"/>
	</g>
</g>
<g>
	<g>
		<path class="st2" d="M472.7,138.2c-1.8,0-2.7-0.8-2.7-2.3h-2.8c0,0.9,0.2,1.7,0.7,2.3c0.5,0.7,1.1,1.2,2,1.6
			c0.9,0.4,1.8,0.6,2.9,0.6c1.5,0,2.7-0.3,3.6-1s1.3-1.6,1.3-2.8c0-1.1-0.4-2-1.1-2.7s-1.9-1.3-3.5-1.8c-0.9-0.3-1.5-0.5-2-0.8
			c-0.4-0.3-0.7-0.7-0.7-1.1c0-0.5,0.2-0.9,0.6-1.2s0.9-0.4,1.6-0.4s1.3,0.2,1.7,0.5c0.4,0.3,0.6,0.8,0.6,1.5h2.8
			c0-0.8-0.2-1.6-0.6-2.2c-0.4-0.6-1-1.1-1.8-1.5s-1.6-0.5-2.6-0.5s-1.9,0.2-2.6,0.5c-0.8,0.3-1.4,0.8-1.8,1.4
			c-0.4,0.6-0.6,1.2-0.6,2c0,1.4,0.8,2.6,2.3,3.4c0.6,0.3,1.3,0.6,2.3,0.9c1,0.3,1.7,0.6,2,0.9s0.6,0.7,0.6,1.2s-0.2,0.9-0.6,1.1
			S473.3,138.2,472.7,138.2z"/>
		<path class="st2" d="M482,133c0.4-0.6,0.9-0.9,1.7-0.9c0.6,0,1,0.1,1.3,0.4c0.3,0.3,0.4,0.7,0.4,1.3v6.5h2.7v-6.5
			c0-2.6-1.2-3.9-3.4-3.9c-1.1,0-2,0.4-2.7,1.3v-5.4h-2.7v14.4h2.7V133z"/>
		<path class="st2" d="M494.6,140.4c1.5,0,2.6-0.5,3.5-1.4s1.3-2.2,1.3-3.8v-0.7c-0.1-1.4-0.6-2.6-1.5-3.4c-0.9-0.8-2-1.3-3.4-1.3
			c-1,0-1.8,0.2-2.6,0.7c-0.7,0.4-1.3,1-1.7,1.8c-0.4,0.8-0.6,1.7-0.6,2.7v0.1c0,1.6,0.4,2.9,1.3,3.8
			C491.9,139.9,493.1,140.4,494.6,140.4z M493,132.8c0.4-0.5,0.9-0.8,1.5-0.8c0.7,0,1.2,0.3,1.6,0.8s0.6,1.3,0.6,2.2
			c0,1.1-0.2,1.9-0.6,2.4s-0.9,0.8-1.5,0.8c-0.7,0-1.2-0.3-1.6-0.8s-0.5-1.3-0.5-2.2C492.5,134.1,492.7,133.3,493,132.8z"/>
		<path class="st2" d="M503.8,133.5c0.3-0.7,1-1,2-1c0.3,0,0.6,0,1,0.1V130c-0.3-0.1-0.5-0.1-0.8-0.1c-1,0-1.7,0.5-2.3,1.4l-0.1-1.2
			H501v10.1h2.7L503.8,133.5L503.8,133.5z"/>
		<path class="st2" d="M509.1,137.5c0,1.9,1,2.9,2.9,2.9c0.6,0,1.1-0.1,1.7-0.2v-2.1c-0.2,0-0.5,0.1-0.8,0.1c-0.4,0-0.7-0.1-0.8-0.2
			s-0.2-0.4-0.2-0.8v-5.1h1.7v-2h-1.7v-2.5h-2.7v2.5h-1.5v2h1.5v5.4H509.1z"/>
		<rect x="515.1" y="133.2" class="st2" width="5.3" height="2.2"/>
		<path class="st2" d="M526.1,137.9c-0.1-0.2-0.2-0.4-0.2-0.8V132h1.7v-2h-1.7v-2.5h-2.7v2.5h-1.5v2h1.5v5.5c0,1.9,1,2.9,2.9,2.9
			c0.6,0,1.1-0.1,1.7-0.2v-2.1c-0.2,0-0.5,0.1-0.8,0.1C526.5,138.2,526.2,138.1,526.1,137.9z"/>
		<path class="st2" d="M533.5,129.8c-0.9,0-1.8,0.2-2.5,0.7c-0.7,0.4-1.3,1.1-1.7,1.9s-0.6,1.7-0.6,2.7v0.3c0,1.5,0.5,2.8,1.4,3.7
			c0.9,0.9,2.2,1.4,3.7,1.4c0.8,0,1.6-0.2,2.3-0.5c0.7-0.3,1.3-0.8,1.7-1.4l-1.3-1.5c-0.6,0.8-1.4,1.1-2.5,1.1
			c-0.7,0-1.2-0.2-1.7-0.6c-0.4-0.4-0.7-0.9-0.8-1.6h6.5v-1.1c0-1.6-0.4-2.9-1.2-3.7C536,130.3,534.9,129.8,533.5,129.8z
			 M535.4,134.1h-3.8c0.1-0.7,0.3-1.2,0.6-1.6c0.3-0.4,0.8-0.6,1.3-0.6c0.6,0,1,0.2,1.3,0.5s0.5,0.8,0.5,1.4v0.3H535.4z"/>
		<path class="st2" d="M542.2,131.2l-0.1-1.2h-2.6v10.2h2.7v-6.7c0.3-0.7,1-1,2-1c0.3,0,0.6,0,1,0.1V130c-0.3-0.1-0.5-0.1-0.8-0.1
			C543.5,129.8,542.8,130.3,542.2,131.2z"/>
		<path class="st2" d="M558,129.8c-1.3,0-2.3,0.5-3.1,1.6c-0.5-1-1.4-1.6-2.7-1.6c-1.2,0-2.2,0.4-2.9,1.3l-0.1-1.1h-2.6v10.2h2.7
			V133c0.3-0.6,0.9-1,1.7-1c0.6,0,1,0.1,1.2,0.4c0.2,0.3,0.3,0.7,0.3,1.3v6.5h2.7v-7c0.3-0.8,0.9-1.2,1.7-1.2c0.6,0,1,0.1,1.2,0.4
			c0.2,0.3,0.3,0.7,0.3,1.3v6.5h2.7v-6.5c0-1.3-0.3-2.3-0.8-2.9C559.9,130.1,559.1,129.8,558,129.8z"/>
	</g>
	<g>
		<polygon class="st2" points="475.8,162.6 472.2,152.7 468.5,152.7 468.5,166.4 471.4,166.4 471.4,162.7 471.1,156.2 474.8,166.4 
			476.7,166.4 480.4,156.2 480.2,162.7 480.2,166.4 483,166.4 483,152.7 479.3,152.7 		"/>
		<path class="st2" d="M489.7,156c-0.9,0-1.8,0.2-2.5,0.7c-0.7,0.4-1.3,1.1-1.7,1.9c-0.4,0.8-0.6,1.7-0.6,2.7v0.3
			c0,1.5,0.5,2.8,1.4,3.7s2.2,1.4,3.7,1.4c0.8,0,1.6-0.2,2.3-0.5s1.3-0.8,1.7-1.4l-1.3-1.5c-0.6,0.8-1.4,1.1-2.5,1.1
			c-0.7,0-1.2-0.2-1.7-0.6c-0.4-0.4-0.7-0.9-0.8-1.6h6.5v-1.1c0-1.6-0.4-2.9-1.2-3.7C492.2,156.5,491.1,156,489.7,156z M491.5,160.3
			h-3.8c0.1-0.7,0.3-1.2,0.6-1.6c0.3-0.4,0.8-0.6,1.3-0.6c0.6,0,1,0.2,1.3,0.5s0.5,0.8,0.5,1.4v0.3H491.5z"/>
		<path class="st2" d="M501.8,157.1c-0.6-0.7-1.5-1.1-2.5-1.1c-1.2,0-2.2,0.5-2.9,1.4s-1.1,2.2-1.1,3.8c0,1.7,0.4,3,1.1,3.9
			c0.7,0.9,1.7,1.4,2.9,1.4c1.1,0,1.9-0.4,2.6-1.3l0.1,1.1h2.5v-14.5h-2.7L501.8,157.1L501.8,157.1z M501.8,163.3
			c-0.3,0.7-0.9,1.1-1.8,1.1c-0.6,0-1.1-0.3-1.5-0.8c-0.3-0.5-0.5-1.2-0.5-2.2c0-2.1,0.7-3.2,2-3.2c0.8,0,1.4,0.4,1.8,1.1V163.3z"/>
		<rect x="506.7" y="156.2" class="st2" width="2.7" height="10.2"/>
		<path class="st2" d="M508.1,152.2c-0.5,0-0.8,0.1-1.1,0.4c-0.3,0.3-0.4,0.6-0.4,1s0.1,0.8,0.4,1c0.3,0.3,0.6,0.4,1.1,0.4
			s0.8-0.1,1.1-0.4c0.3-0.3,0.4-0.6,0.4-1s-0.1-0.7-0.4-1C508.9,152.3,508.6,152.2,508.1,152.2z"/>
		<path class="st2" d="M515.2,164.1c-0.1-0.2-0.2-0.4-0.2-0.8v-5.1h1.7v-2H515v-2.5h-2.7v2.5h-1.5v2h1.5v5.5c0,1.9,1,2.9,2.9,2.9
			c0.6,0,1.1-0.1,1.7-0.2v-2.1c-0.2,0-0.5,0.1-0.8,0.1C515.6,164.4,515.3,164.3,515.2,164.1z"/>
		<path class="st2" d="M526.5,159.6c0-1.1-0.4-2-1.1-2.7c-0.7-0.6-1.7-0.9-3-0.9c-0.8,0-1.6,0.1-2.2,0.4s-1.2,0.7-1.5,1.2
			c-0.4,0.5-0.5,1-0.5,1.6h2.7c0-0.4,0.1-0.7,0.4-0.9c0.3-0.2,0.6-0.3,1.1-0.3s0.9,0.1,1.1,0.4c0.2,0.3,0.4,0.7,0.4,1.1v0.6h-1.3
			c-1.5,0-2.7,0.3-3.5,0.9c-0.8,0.6-1.2,1.4-1.2,2.5c0,0.9,0.3,1.6,1,2.2s1.5,0.9,2.5,0.9c1.1,0,1.9-0.4,2.6-1.1
			c0.1,0.4,0.1,0.7,0.3,0.9h2.8v-0.2c-0.3-0.5-0.4-1.2-0.4-2.2v-4.4H526.5z M523.8,163.5c-0.2,0.3-0.4,0.5-0.8,0.7s-0.7,0.3-1.1,0.3
			c-0.4,0-0.7-0.1-1-0.3s-0.4-0.5-0.4-0.8v-0.2c0.1-0.9,0.8-1.4,2.2-1.4h1L523.8,163.5L523.8,163.5z"/>
		<path class="st2" d="M532.1,164.1c-0.1-0.2-0.2-0.4-0.2-0.8v-5.1h1.7v-2h-1.7v-2.5h-2.7v2.5h-1.5v2h1.5v5.5c0,1.9,1,2.9,2.9,2.9
			c0.6,0,1.1-0.1,1.7-0.2v-2.1c-0.2,0-0.5,0.1-0.8,0.1C532.5,164.4,532.2,164.3,532.1,164.1z"/>
		<path class="st2" d="M536.6,152.2c-0.5,0-0.8,0.1-1.1,0.4c-0.3,0.3-0.4,0.6-0.4,1s0.1,0.8,0.4,1c0.3,0.3,0.6,0.4,1.1,0.4
			s0.8-0.1,1.1-0.4c0.3-0.3,0.4-0.6,0.4-1s-0.1-0.7-0.4-1C537.5,152.3,537.1,152.2,536.6,152.2z"/>
		<rect x="535.3" y="156.2" class="st2" width="2.7" height="10.2"/>
		<path class="st2" d="M548,157.3c-0.9-0.8-2-1.3-3.4-1.3c-1,0-1.8,0.2-2.6,0.7c-0.7,0.4-1.3,1-1.7,1.8s-0.6,1.7-0.6,2.7v0.1
			c0,1.6,0.4,2.9,1.3,3.8c0.9,0.9,2.1,1.4,3.5,1.4c1.5,0,2.6-0.5,3.5-1.4s1.3-2.2,1.3-3.8v-0.7C549.4,159.3,548.9,158.1,548,157.3z
			 M546.2,163.6c-0.4,0.5-0.9,0.8-1.5,0.8c-0.7,0-1.2-0.3-1.6-0.8c-0.4-0.5-0.5-1.3-0.5-2.2c0-1.1,0.2-1.9,0.5-2.4
			c0.4-0.5,0.9-0.8,1.5-0.8c0.7,0,1.2,0.3,1.6,0.8c0.4,0.5,0.6,1.3,0.6,2.2C546.8,162.3,546.6,163.1,546.2,163.6z"/>
		<path class="st2" d="M559.1,157c-0.5-0.6-1.3-1-2.4-1c-1.2,0-2.2,0.5-2.9,1.4l-0.1-1.2h-2.6v10.2h2.7v-7.2c0.4-0.7,1-1,1.7-1
			c0.6,0,1,0.1,1.3,0.4c0.3,0.3,0.4,0.7,0.4,1.3v6.5h2.7v-6.6C559.9,158.6,559.6,157.6,559.1,157z"/>
	</g>
</g>
<path class="st3" d="M303.5,82.5l9.2,4c7.2,16.9,24,28.8,43.6,28.8c26.1,0,47.3-21.2,47.3-47.3s-21.2-47.3-47.3-47.3
	c-20.7,0-38.3,13.3-44.7,31.8c-1.6,4.7-2.5,9.8-2.6,15.1l-7.3,12C301,80.7,301.9,82.1,303.5,82.5z"/>
<path class="st4" d="M383.5,241.1l26.6,2.1"/>
<path class="st4" d="M317.2,232.2l18.6,5.6"/>
<line class="st4" x1="291.2" y1="252.8" x2="308.2" y2="253"/>
<line class="st4" x1="373.1" y1="283.9" x2="356.2" y2="279.5"/>
<ellipse transform="matrix(0.866 -0.5 0.5 0.866 -3.4398 180.7476)" class="st2" cx="335.6" cy="96.8" rx="5.2" ry="7.5"/>
<g>
	<path class="st5" d="M866.5,246.6c44.6,0,80.9-36.3,80.9-80.9c0-39.3-28.2-72.2-65.5-79.4v-4.8c11.3-1.1,20.2-10.6,20.2-22.2
		c0-12.3-10-22.3-22.3-22.3h-26.7c-12.3,0-22.3,10-22.3,22.3c0,11.6,8.9,21.2,20.2,22.2v4.8c-37.2,7.2-65.5,40.1-65.5,79.4
		C785.6,210.3,821.9,246.6,866.5,246.6z M838.8,59.2c0-7.9,6.4-14.3,14.3-14.3h26.7c7.9,0,14.3,6.4,14.3,14.3
		c0,7.2-5.3,13.1-12.2,14.2v-3.6c0-2.2-1.8-4-4-4h-23c-2.2,0-4,1.8-4,4v3.6C844.1,72.3,838.8,66.4,838.8,59.2z M802.8,161.7h-6.1
		c2-35.4,30.4-63.8,65.8-65.8v6.4c0,2.2,1.8,4,4,4s4-1.8,4-4v-6.4c35.4,2,63.8,30.4,65.8,65.8H931c-2.2,0-4,1.8-4,4s1.8,4,4,4h5.3
		c-2,35.4-30.4,63.8-65.8,65.8v-5c0-2.2-1.8-4-4-4s-4,1.8-4,4v5c-35.4-2-63.8-30.4-65.8-65.8h6.1c2.2,0,4-1.8,4-4
		S805,161.7,802.8,161.7z"/>
	<path class="st5" d="M866.7,174.5l40.3-39.3c1.8-1.7,1.8-4.6,0.1-6.4s-4.6-1.8-6.4-0.1l-34.5,33.6l-23.7-19.7
		c-1.9-1.6-4.8-1.3-6.3,0.6c-1.6,1.9-1.3,4.7,0.6,6.3L866.7,174.5z"/>
	<g>
		<path class="st6" d="M840.9,274.3c-1.5,0-2.7,0.5-3.5,1.5s-1.2,2.4-1.2,4.2v2.5c0,1.8,0.4,3.2,1.2,4.2s2,1.5,3.5,1.5
			s2.7-0.5,3.5-1.5s1.2-2.4,1.2-4.2V280c0-1.8-0.4-3.2-1.2-4.2S842.4,274.3,840.9,274.3z M842.5,283c0,1-0.1,1.7-0.4,2.1
			c-0.3,0.5-0.6,0.7-1.2,0.7c-0.6,0-1-0.2-1.2-0.7s-0.4-1.2-0.4-2.2v-3.5c0-0.9,0.1-1.6,0.4-2s0.6-0.7,1.2-0.7c0.6,0,1,0.2,1.2,0.7
			c0.3,0.5,0.4,1.2,0.4,2.2V283z"/>
		<polygon class="st6" points="787.8,276.6 787.8,278.9 790.9,278 790.9,288 794,288 794,274.5 793.7,274.5 		"/>
		<path class="st6" d="M802.8,274.3c-1.5,0-2.7,0.5-3.5,1.5s-1.2,2.4-1.2,4.2v2.5c0,1.8,0.4,3.2,1.2,4.2s2,1.5,3.5,1.5
			s2.7-0.5,3.5-1.5s1.2-2.4,1.2-4.2V280c0-1.8-0.4-3.2-1.2-4.2S804.3,274.3,802.8,274.3z M804.4,283c0,1-0.1,1.7-0.4,2.1
			c-0.3,0.5-0.6,0.7-1.2,0.7c-0.6,0-1-0.2-1.2-0.7s-0.4-1.2-0.4-2.2v-3.5c0-0.9,0.1-1.6,0.4-2s0.6-0.7,1.2-0.7c0.6,0,1,0.2,1.2,0.7
			c0.3,0.5,0.4,1.2,0.4,2.2V283z"/>
		<path class="st6" d="M818.9,274.3c-1.5,0-2.7,0.5-3.5,1.5s-1.2,2.4-1.2,4.2v2.5c0,1.8,0.4,3.2,1.2,4.2s2,1.5,3.5,1.5
			s2.7-0.5,3.5-1.5s1.2-2.4,1.2-4.2V280c0-1.8-0.4-3.2-1.2-4.2S820.4,274.3,818.9,274.3z M820.5,283c0,1-0.1,1.7-0.4,2.1
			c-0.3,0.5-0.6,0.7-1.2,0.7c-0.6,0-1-0.2-1.2-0.7s-0.4-1.2-0.4-2.2v-3.5c0-0.9,0.1-1.6,0.4-2s0.6-0.7,1.2-0.7c0.6,0,1,0.2,1.2,0.7
			c0.3,0.5,0.4,1.2,0.4,2.2V283z"/>
		<path class="st6" d="M829.9,274.3c-1.5,0-2.7,0.5-3.5,1.5s-1.2,2.4-1.2,4.2v2.5c0,1.8,0.4,3.2,1.2,4.2s2,1.5,3.5,1.5
			s2.7-0.5,3.5-1.5s1.2-2.4,1.2-4.2V280c0-1.8-0.4-3.2-1.2-4.2S831.4,274.3,829.9,274.3z M831.5,283c0,1-0.1,1.7-0.4,2.1
			c-0.3,0.5-0.6,0.7-1.2,0.7c-0.6,0-1-0.2-1.2-0.7s-0.4-1.2-0.4-2.2v-3.5c0-0.9,0.1-1.6,0.4-2s0.6-0.7,1.2-0.7c0.6,0,1,0.2,1.2,0.7
			c0.3,0.5,0.4,1.2,0.4,2.2V283z"/>
		<rect x="847.8" y="281" class="st6" width="5.6" height="2.4"/>
		<polygon class="st6" points="864.1,279.9 859.3,279.9 859.3,274.5 856,274.5 856,288 859.3,288 859.3,282.4 864.1,282.4 
			864.1,288 867.3,288 867.3,274.5 864.1,274.5 		"/>
		<path class="st6" d="M873.7,277.8c-1,0-1.8,0.2-2.6,0.6c-0.7,0.4-1.3,1-1.7,1.8s-0.6,1.7-0.6,2.7v0.5c0.1,1.5,0.5,2.6,1.4,3.5
			s2,1.3,3.5,1.3s2.7-0.5,3.5-1.4c0.9-0.9,1.3-2.2,1.3-3.7V283c0-1.6-0.4-2.9-1.3-3.8C876.4,278.3,875.2,277.8,873.7,277.8z
			 M875.4,283.2c0,1.7-0.6,2.6-1.7,2.6c-0.6,0-1-0.2-1.3-0.7c-0.3-0.4-0.4-1.1-0.4-2v-0.6c0.1-1.6,0.7-2.3,1.7-2.3
			c1.2,0,1.7,0.9,1.7,2.7V283.2z"/>
		<path class="st6" d="M885.8,285c-0.3,0.5-0.8,0.8-1.5,0.8c-0.8,0-1.3-0.4-1.3-1.3V278h-3.1v6.5c0,1.2,0.3,2.1,0.9,2.8
			c0.6,0.6,1.4,1,2.5,1s2-0.4,2.7-1.3l0.1,1.1h2.9V278h-3.2L885.8,285L885.8,285z"/>
		<path class="st6" d="M893.7,279.3l-0.1-1.3h-2.9v10.1h3.1v-6.4c0.3-0.6,0.9-0.9,1.9-0.9l1,0.1l0.1-2.9c-0.2-0.1-0.5-0.1-0.9-0.1
			C895,277.8,894.3,278.3,893.7,279.3z"/>
		<path class="st6" d="M912.6,280.9c0.4-0.6,0.6-1.4,0.6-2.3c0-1.3-0.5-2.3-1.4-3s-2.2-1.1-3.8-1.1h-5.3V288h3.3v-4.8h1.8l2.4,4.8
			h3.5v-0.1l-2.8-5.5C911.7,282.1,912.3,281.6,912.6,280.9z M909.5,280.3c-0.3,0.3-0.8,0.5-1.4,0.5H906v-3.7h2.1
			c0.6,0,1.1,0.2,1.4,0.5c0.3,0.3,0.5,0.8,0.5,1.4S909.8,279.9,909.5,280.3z"/>
		<path class="st6" d="M920.9,285c-0.3,0.5-0.8,0.8-1.5,0.8c-0.8,0-1.3-0.4-1.3-1.3V278H915v6.5c0,1.2,0.3,2.1,0.9,2.8
			c0.6,0.6,1.4,1,2.5,1s2-0.4,2.7-1.3l0.1,1.1h2.9V278h-3.2V285z"/>
		<rect x="925.9" y="273.8" class="st6" width="3.1" height="14.3"/>
		<path class="st6" d="M935.5,277.8c-1,0-1.9,0.2-2.6,0.6s-1.3,1-1.7,1.8s-0.6,1.7-0.6,2.7v0.3c0,1.5,0.5,2.7,1.4,3.6
			c1,0.9,2.2,1.4,3.7,1.4c0.8,0,1.6-0.2,2.3-0.5s1.3-0.7,1.7-1.3l-1.4-1.7c-0.6,0.7-1.3,1-2.3,1c-0.6,0-1.1-0.2-1.5-0.5
			s-0.6-0.8-0.7-1.3h6.2v-1.1c0-1.6-0.4-2.8-1.2-3.7C938.1,278.2,937,277.8,935.5,277.8z M937.1,282h-3.2c0.2-1.2,0.7-1.8,1.6-1.8
			c0.5,0,0.9,0.1,1.1,0.4c0.3,0.3,0.4,0.7,0.4,1.2v0.2H937.1z"/>
	</g>
</g>
<polygon class="st7" points="688.2,162.9 674,162.9 674,148.7 661.8,148.7 661.8,162.9 647.3,162.9 647.3,175.1 661.8,175.1 
	661.8,189.6 674,189.6 674,175.1 688.2,175.1 "/>
<g>
	<path class="st8" d="M217.3,37.7c-20.9,0-37.8,16.9-37.8,37.8s16.9,37.8,37.8,37.8h81"/>
	<path class="st8" d="M220.5,66.4c-8.4,0-15.1,6.8-15.1,15.1s6.8,15.1,15.1,15.1h55.2"/>
	<path class="st8" d="M210.5,37.6c3.7-10.4,13.4-18,25.1-18.5c15.5-0.7,28.6,11.2,29.4,26.7"/>
	<path class="st8" d="M245.5,64.6c-0.6-7.4-7.2-12.9-14.6-12.2c-6.3,0.6-11.2,5.4-12.1,11.4"/>
	<path class="st8" d="M249.1,65.9"/>
	<path class="st8" d="M264.9,40.9c8.8-1.4,17.1,4.7,18.5,13.5c0.9,5.5-1.2,10.8-5,14.4"/>
	<path class="st8" d="M209.4,38.3c5.3-1.2,10.5-0.9,15.3,0.6"/>
	<path class="st8" d="M247.5,61.3c5.5,0,10,4.5,10,10c0,3.8-2.1,7.1-5.3,8.8"/>
	<path class="st8" d="M214,67.8c4.8-2.8,10.9-1.1,13.7,3.7"/>
</g>
<path class="st4" d="M348.2,59.9c0.7,4.2-2.4,8.3-7,9.1c-4.6,0.8-8.9-1.9-9.7-6.2"/>
<g>
	<path class="st6" d="M810.3,291.6l-1.6-0.7l0.3-0.6c0.4-0.8,0.7-1.6,0.7-2.3v-2.3h2.5l0,2c0,0.7-0.2,1.4-0.5,2.2
		C811.3,290.6,810.9,291.2,810.3,291.6z"/>
</g>
</svg>
