<?xml version="1.0" encoding="utf-8"?>
<!-- Generator: Adobe Illustrator 21.0.2, SVG Export Plug-In . SVG Version: 6.00 Build 0)  -->
<svg version="1.1" id="Layer_1" xmlns="http://www.w3.org/2000/svg" xmlns:xlink="http://www.w3.org/1999/xlink" x="0px" y="0px"
	 viewBox="0 0 173.9 228.9" style="enable-background:new 0 0 173.9 228.9;" xml:space="preserve">
<style type="text/css">
	.st0{fill:#FFFFFF;}
	.st1{fill:#262838;}
</style>
<path class="st0" d="M147.5,83.3h-7.4l-0.1,0c-1-7.4-7.3-13-14.9-13h-13.6C109,64.2,103,59.9,96,59.9H82.1V23.3
	c0-8.2-6.6-14.8-14.8-14.8c-8.2,0-14.8,6.6-14.8,14.8v86.9l-23.8-24c-2.3-1.9-5.1-3-8.1-3h-0.2c-5.3,0-10.1,3.4-11.9,8.4L7.7,94
	c-0.8,2.2-0.5,4.5,0.8,6.5l44,85.5c3.5,5.5,5.4,11.8,5.4,18.3v18h88.3l13.4-48.8c4.6-13.4,7-27.5,7-41.7v-29.6
	C166.5,91.7,158,83.3,147.5,83.3z"/>
<path class="st1" d="M52.5,136.8c-2.8,0-5-2.2-5-5V23.3c0-10.9,8.9-19.8,19.8-19.8s19.8,8.9,19.8,19.8v80.2c0,2.8-2.2,5-5,5
	s-5-2.2-5-5V23.3c0-5.4-4.4-9.8-9.8-9.8c-5.4,0-9.8,4.4-9.8,9.8v108.4C57.5,134.5,55.2,136.8,52.5,136.8z"/>
<path class="st1" d="M149.9,227.3H52.9v-23c0-5.6-1.6-10.9-4.6-15.6l-0.2-0.4L4.1,103c-1.9-3.2-2.4-7.1-1.1-10.6L3.8,90
	c2.5-7,9.1-11.7,16.6-11.7h0.2c4.1,0,8.2,1.5,11.3,4.1l0.3,0.3l23.8,24c1.9,2,1.9,5.1,0,7.1c-2,1.9-5.1,1.9-7.1,0L25.3,89.9
	c-1.3-1.1-3-1.7-4.7-1.7h-0.2c-3.2,0-6.1,2-7.1,5.1l-0.8,2.4c-0.2,0.7-0.2,1.5,0.2,2.1l0.2,0.4l43.9,85.2c4,6.2,6.1,13.4,6.1,20.8
	v13h79.5l12.5-45.4c4.4-12.9,6.7-26.4,6.7-40.1v-29.6c0-7.7-6.2-13.9-13.9-13.9h-7.4c-2.8,0-5-2.2-5-5s2.2-5,5-5h7.4
	c13.2,0,23.9,10.7,23.9,23.9v29.6c0,14.7-2.4,29.3-7.2,43.2L149.9,227.3z"/>
<path class="st1" d="M112.8,107.7c-2.8,0-5-2.2-5-5v-26c0-6.5-5.3-11.8-11.8-11.8H82.1c-2.8,0-5-2.2-5-5s2.2-5,5-5H96
	c12,0,21.8,9.8,21.8,21.8v26C117.8,105.4,115.6,107.7,112.8,107.7z"/>
<path class="st1" d="M140.1,116.5c-2.8,0-5-2.2-5-5V85.3c0-5.5-4.5-10-10-10h-13.6c-2.8,0-5-2.2-5-5s2.2-5,5-5h13.6
	c11.1,0,20,9,20,20v26.1C145.1,114.2,142.9,116.5,140.1,116.5z"/>
</svg>
