<?xml version="1.0" encoding="utf-8"?>
<!-- Generator: Adobe Illustrator 23.0.1, SVG Export Plug-In . SVG Version: 6.00 Build 0)  -->
<svg version="1.1" id="Layer_1" xmlns="http://www.w3.org/2000/svg" xmlns:xlink="http://www.w3.org/1999/xlink" x="0px" y="0px"
	 viewBox="0 0 71 57" style="enable-background:new 0 0 71 57;" xml:space="preserve">
<style type="text/css">
	.st0{opacity:0.3;fill:#F89E75;}
	.st1{opacity:0.3;}
	.st2{fill:#769AD5;}
	.st3{opacity:0.8;}
	.st4{opacity:0.32;}
	.st5{fill:#18469D;}
	.st6{fill:#F89E75;}
</style>
<circle class="st0" cx="26.25" cy="30" r="25.5"/>
<g class="st1">
	<polygon class="st2" points="51.5,26.5 51.5,31.5 23.5,41.5 23.5,26.5 37.5,26.5 37.5,24.5 44,27 	"/>
</g>
<g class="st3">
	<path d="M37,2v24H13V2H37 M38,1H12v26h26V1L38,1z"/>
</g>
<g class="st3">
	<path d="M69,2v24H45V2H69 M70,1H44v26h26V1L70,1z"/>
</g>
<g class="st4">
	<path class="st5" d="M26.25,28c1.1,0,2,0.9,2,2s-0.9,2-2,2s-2-0.9-2-2S25.15,28,26.25,28 M26.25,27c-1.66,0-3,1.34-3,3s1.34,3,3,3
		s3-1.34,3-3S27.91,27,26.25,27L26.25,27z"/>
</g>
<path class="st6" d="M26.25,28.5c0.83,0,1.5,0.67,1.5,1.5s-0.67,1.5-1.5,1.5s-1.5-0.67-1.5-1.5S25.42,28.5,26.25,28.5 M26.25,27.5
	c-1.38,0-2.5,1.12-2.5,2.5s1.12,2.5,2.5,2.5s2.5-1.12,2.5-2.5S27.63,27.5,26.25,27.5L26.25,27.5z"/>
<path class="st6" d="M26.25,29c-0.55,0-1,0.45-1,1s0.45,1,1,1s1-0.45,1-1S26.8,29,26.25,29L26.25,29z"/>
<circle class="st2" cx="51.5" cy="29.5" r="2.5"/>
</svg>
