<?xml version="1.0" encoding="utf-8"?>
<!-- Generator: Adobe Illustrator 23.0.1, SVG Export Plug-In . SVG Version: 6.00 Build 0)  -->
<svg version="1.1" id="Layer_1" xmlns="http://www.w3.org/2000/svg" xmlns:xlink="http://www.w3.org/1999/xlink" x="0px" y="0px"
	 viewBox="0 0 127 205.9" style="enable-background:new 0 0 127 205.9;" xml:space="preserve">
<style type="text/css">
	.st0{fill:#E7CFDB;}
	.st1{fill:#B58EA2;}
	.st2{fill:none;}
	.st3{fill:#FFCFD9;}
	.st4{fill:#261E17;}
	.st5{fill:#F7B4BE;}
	.st6{fill:#FFE78D;}
	.st7{fill:#FF6658;}
	.st8{fill:#EF524B;}
	.st9{fill:#4C3625;}
	.st10{fill:#FFFFFF;}
	.st11{fill:#FFD37D;}
	.st12{fill:#84C16F;}
</style>
<g>
	<g>
		<ellipse class="st0" cx="57.2" cy="192.7" rx="51.2" ry="10.6"/>
		<ellipse class="st1" cx="57.2" cy="191" rx="36.7" ry="7.4"/>
	</g>
	<path class="st2" d="M53.3,181.4c2.3,0,4.5,0,6.7,0.1v-14.8c-3.1,0.3-6.2,0.4-9.4,0.4c-1.1,0-2.2,0-3.3-0.1v14.4
		C49.3,181.4,51.3,181.4,53.3,181.4z"/>
	<path class="st0" d="M47.4,181.5v0.8l0.1,0.8c1.9-0.1,3.8-0.1,5.8-0.1c2.3,0,4.5,0,6.6,0.1l0-0.2v-1.4c-2.2-0.1-4.4-0.1-6.7-0.1
		C51.3,181.4,49.3,181.4,47.4,181.5z"/>
	<path class="st3" d="M29.7,191.4l18.5,0c0,0,0,0,0,0l-2.2-6.7c0-0.1,0-0.2-0.1-0.2l-0.3-1.8c0-0.1,0-0.2,0-0.3v-19.9c0,0,0,0,0,0
		v6.9c-6.9,0.7-15.8-1.7-15.8-1.7v-7.1c0,0,0,0,0,0L29.7,191.4z"/>
	<path class="st4" d="M28.1,190.3c0,1.5,1.2,2.8,2.8,2.8h16c0.9,0,1.7-0.4,2.3-1.2c0.5-0.7,0.7-1.7,0.4-2.5l-1.9-5.7l-0.1-0.6
		l-0.1-0.8v-0.8v-16.3c-0.9,0-1.8-0.1-2.8-0.1v17.4c0,0.1,0,0.1,0,0.2l0.3,1.6c0,0.1,0,0.1,0.1,0.2l1.9,5.9c0,0,0,0,0,0l-16,0
		l0-26.9c-0.9-0.2-1.8-0.4-2.8-0.6v20v2.2V190.3z"/>
	<path class="st3" d="M61.6,182.8c0,0.1,0,0.2,0,0.3l-0.3,1.8c0,0.1,0,0.2-0.1,0.3l-2.2,6l18.9,0c0,0,0,0,0,0v-29.9c0,0,0,0-0.1,0
		v4.5c0,0-9.2,3.4-16.3,2.8v-4.4c0,0,0,0,0,0V182.8z"/>
	<path class="st4" d="M76.5,163.9v26.4c0,0,0,0,0,0l-15.9,0l1.9-5.3c0-0.1,0-0.1,0.1-0.2l0.3-1.6c0-0.1,0-0.2,0-0.2v-16.6
		c-0.9,0.1-1.8,0.2-2.8,0.3v14.8v1.4l0,0.2l-0.2,1.1l-1.8,5.2c-0.3,0.9-0.2,1.8,0.4,2.5c0.5,0.7,1.4,1.2,2.3,1.2h15.9
		c1.5,0,2.8-1.2,2.8-2.8v-5.1v-2.3v-19.7C78.3,163.4,77.4,163.7,76.5,163.9z"/>
	<path class="st5" d="M44.6,171v-6v-0.2c0,0-8.1-0.5-13.7-1.5v0.1v6.1C30.9,169.5,38.6,171.6,44.6,171z"/>
	<path class="st5" d="M76.5,167.9v-3.9v-0.4c-8.5,2.1-13.7,2.4-13.7,2.4v0.5v3.9C68.7,170.9,76.5,167.9,76.5,167.9z"/>
	<path class="st6" d="M111.8,72.2c-1.3,0.2-2.6,0.4-3.9,0.7c-2.6,9.5-7.8,18.1-15.2,24.9c-1.4,1.3-2.9,2.5-4.4,3.6
		c5.5-1.6,10.5-4.6,14.5-8.8C108.1,87,111.3,79.9,111.8,72.2z"/>
	<path class="st6" d="M83.7,112.6c4.3,3.2,9.4,5.3,14.9,6.1c7.6,1.1,15.3-0.5,21.8-4.6c-5.1-5.7-12.1-9.4-19.7-10.4
		c-4.5-0.6-9-0.3-13.3,0.9c-0.1,2.9-1.4,5.6-3.7,7.9C83.7,112.6,83.7,112.6,83.7,112.6z"/>
	<path class="st7" d="M100.3,150.3l-19-33.2l-0.1,0.1l-57.4,3.4c0,0-0.1-0.1-0.1-0.1L6.7,150.3c-0.2,0.5-0.1,1.1,0.1,1.6
		c0.3,0.6,1,1.1,1.7,1.3c0.1,0,0.3,0.1,0.4,0.2l0.7,0.4c24.4,14.3,64.1,14.1,88.4-0.4c0.1-0.1,0.3-0.1,0.4-0.2
		c0.8-0.2,1.4-0.6,1.7-1.3C100.4,151.4,100.5,150.9,100.3,150.3z"/>
	<path class="st8" d="M64.9,131l2.9,1.4c3.4,1.6,7.4-0.1,8.8-3.7l4.1-9.2c0.3-0.7,0.5-1.5,0.6-2.2l-5.3,7c-1.6,2.3-4.3,3.6-7,3.6
		c-1.2,0-2.5-0.3-3.7-0.8C65.4,128.4,65.2,129.7,64.9,131z"/>
	<path class="st8" d="M25.9,127.2c3.7,4.9,3.7,8.7,13.6,9.5l7.2-0.1c3.9,1.9,6,2.2,7.6,2.2c5-0.1,9.2-3.4,10.6-7.9
		c0.4-1.2,0.5-2.6,0.5-3.9c-0.4-0.2-0.8-0.4-1.2-0.7l-1.3-0.9c-0.8,1.8-1.9,3.4-3.4,4.7c-2.3,1.9-5.2,3-8.1,3c-0.6,0-1.1,0-1.7-0.1
		c-2.1-0.3-4.4-1.3-7.5-3.4l-5.4-0.6c-0.1,0-0.1,0-0.2,0c-7.5-1.8-10.4-4.8-12.7-8.4l-0.9,1.9L25.9,127.2z"/>
	<path class="st3" d="M93.9,25.2c-2.3-2.5-4.7-4.7-7.3-6.6L62.7,9.3c-1.2-0.1-2.3-0.2-3.5-0.3c-0.7,0-1.5,0-2.2,0
		c-12.5,0-24.5,4.6-33.8,13.2c-9.8,9-15.6,21.4-16.1,34.7c-0.7,17,7.2,32.4,19.8,42c0.8-0.1,1.6,0,2.6,0.4c0.8-0.4,1.9-0.2,3.6,0.6
		c1.6,0.8,3.7,1.3,6.1,1.8c0.2-3.6,1.8-6.8,4.5-9.1l-2.7-2.3c-1.1-0.9-1.7-2.3-1.7-3.7c0-1.4,0.6-2.8,1.6-3.7c1.8-1.7,4.9-1.7,6.8,0
		l8.2,7.2c0.2,0.1,0.4,0.3,0.7,0.4c0.4,0.2,0.9,0.4,1.3,0.6l0.3-0.9c0.4-1.3,1.4-2.4,2.7-3c1.3-0.6,2.8-0.6,4.1,0
		c2.3,1,3.5,3.8,2.6,6.3l-2.8,8.5c6.4-0.8,13.1-2.4,16.7-4.4c3.7-2.1,5.4,0.6,4.1,1.8c0.1,0.1,0.3,0.3,0.4,0.4
		c1.6-1.2,3.2-2.4,4.7-3.8c9.8-9,15.6-21.4,16.1-34.7C107.6,47.8,102.9,35,93.9,25.2z"/>
	<path class="st9" d="M32.7,34.4c-1.2-1.3-2.7-2-4.5-2.1c-0.1,0-0.2,0-0.3,0c-1.1,0-2.2,0.3-3.2,0.9L22.2,36
		c-0.4,0.8-0.6,1.6-0.7,2.6c-0.2,3.5,2.6,6.5,6.1,6.7c3.5,0.1,6.5-2.6,6.7-6.1v0C34.4,37.4,33.9,35.7,32.7,34.4z"/>
	<path class="st4" d="M36.8,39.4c0.1-2.3-0.7-4.5-2.3-6.2c-1.6-1.7-3.7-2.7-6-2.8c-4.7-0.2-8.8,3.5-9,8.2c-0.2,4.7,3.5,8.8,8.2,9
		c0.1,0,0.2,0,0.4,0C32.8,47.6,36.6,44,36.8,39.4z M27.9,44.9c-3.2-0.1-5.7-2.9-5.6-6.1c0-0.8,0.3-1.6,0.6-2.3
		c-0.2-0.3-0.4-0.7-0.4-1.1c0-1,0.9-1.7,1.8-1.7c0.3,0,0.6,0.1,0.9,0.3c0.9-0.5,1.8-0.8,2.9-0.8c0.1,0,0.2,0,0.3,0
		c1.6,0.1,3,0.7,4.1,1.9c1.1,1.2,1.6,2.7,1.5,4.2v0C33.9,42.5,31.2,45,27.9,44.9z"/>
	<path class="st9" d="M76.2,34.9c-0.7-0.7-1.5-1-2.5-1c-0.2,0-0.4,0-0.6,0.1c-1.9,0.3-4,0.8-5.8,1.7L64,38.5
		c-0.3,0.5-0.5,1.1-0.6,1.7c-0.2,2,0.3,3.9,1.5,5.5c1.2,1.6,3,2.5,4.9,2.8c4.1,0.5,7.8-2.4,8.3-6.5C78.5,39.2,77.7,36.4,76.2,34.9z"
		/>
	<path class="st4" d="M69.2,50.6c0.4,0,0.8,0.1,1.1,0.1c4.6,0,8.7-3.5,9.3-8.2v0c0.4-3.3-0.6-6.7-2.6-8.6c-1.4-1.4-3.2-1.9-5.1-1.6
		c-8.3,1.3-10.5,5-10.8,7.9c-0.3,2.5,0.4,4.9,1.9,6.9C64.5,49.1,66.7,50.3,69.2,50.6z M63.8,40.6c0.1-0.6,0.2-1.1,0.5-1.5
		c-0.1-0.2-0.1-0.5-0.1-0.8c0-1.1,1-2,2.2-2c0.3,0,0.6,0.1,0.9,0.2c1.6-0.8,3.4-1.2,5.1-1.5c0.2,0,0.4,0,0.6,0
		c0.8,0,1.6,0.3,2.2,0.9c1.4,1.3,2.1,3.8,1.8,6.3c-0.4,3.6-3.7,6.2-7.3,5.7c-1.7-0.2-3.3-1.1-4.4-2.5C64.1,44.1,63.6,42.3,63.8,40.6
		z"/>
	<path class="st10" d="M66.2,40.5c1.1,0,2.1-0.8,2.2-2c0-0.8-0.4-1.6-1.1-1.9c-0.3-0.1-0.5-0.2-0.9-0.2c-1.1,0-2.1,0.8-2.2,2
		c0,0.3,0,0.5,0.1,0.8C64.6,39.8,65.3,40.4,66.2,40.5z"/>
	<path class="st10" d="M24.3,37.2c1,0,1.8-0.7,1.8-1.7c0-0.6-0.3-1.2-0.8-1.5c-0.3-0.2-0.5-0.3-0.9-0.3c-1,0-1.8,0.7-1.8,1.7
		c0,0.4,0.1,0.8,0.4,1.1C23.2,36.8,23.7,37.1,24.3,37.2z"/>
	<path class="st5" d="M33.1,99.8c-1.6-0.8-2.8-0.9-3.6-0.6c0.4,0.2,0.9,0.3,1.4,0.6c2,1,5,1.8,8.3,2.3c0-0.2,0-0.4,0-0.6
		C36.9,101.1,34.7,100.6,33.1,99.8z"/>
	<path class="st5" d="M81.7,97.5c-3.6,2.1-10.3,3.6-16.7,4.4l0,0c0,0.1,0,0.2,0,0.3c0,0.2,0,0.4,0,0.6c6.1-0.6,12.1-1.8,15.5-3.5
		c2.1-1.1,3.8-1.2,5-0.4c0.1,0.1,0.3,0.2,0.4,0.3C87.1,98,85.4,95.3,81.7,97.5z"/>
	<path class="st6" d="M39.5,105c-3.9-0.6-7.4-1.5-9.8-2.7c-1.2-0.6-1.9-0.7-2.2-0.7c-0.2,0-0.4,0.1-0.4,0.1c-0.1,0-0.3,0.2-0.4,0.7
		c2.7-0.3,5.4,1,7,3.3l3.3,5c1,0.9,2.2,1.1,4.3,1.3c0.3,0,0.6,0.1,0.9,0.1c0.3-0.3,0.6-0.5,0.9-0.8C41.2,109.5,40,107.4,39.5,105z"
		/>
	<path class="st6" d="M64.4,105.8c0.8,0.6,1.7,1.3,2.9,2.2c0.2,0.2,0.5,0.3,0.9,0.2c0.3,0,0.6-0.2,0.7-0.5l1.3-1.8
		c0,0,0.1-0.1,0.1-0.1c0.4-0.4,0.8-0.8,1.3-1.2c-2.3,0.4-4.7,0.7-7.1,1C64.4,105.7,64.4,105.8,64.4,105.8z"/>
	<path class="st6" d="M79.7,104.2c0,0,0.1,0,0.1,0C79.8,104.2,79.8,104.2,79.7,104.2c0.7,0.4,1.3,0.8,1.9,1.4
		c0.8,0.8,1.4,1.8,1.8,2.9c0.8-1.3,1.2-2.6,1.2-4c0-2.6-0.5-3.1-0.7-3.2c-0.3-0.2-1-0.1-2.3,0.6c-1.2,0.6-2.6,1.1-4.2,1.6
		C78.2,103.5,79,103.8,79.7,104.2z"/>
	<path class="st11" d="M79.7,104.2C79.7,104.2,79.8,104.2,79.7,104.2c0.1,0,0.1,0,0.1,0C79.8,104.2,79.8,104.2,79.7,104.2z"/>
	<path class="st5" d="M89.5,21.7c-1.3-1-2.4-2.1-3.4-3c-1.1,0.2-2.1,0.5-3.2,0.6c0,0,0,0,0,0c-1.5,0.2-3.1,0.3-4.6,0.3
		c-5.3,0-10.5-1.3-15.1-3.8c5.3,4.4,10.8,7.2,18.3,7.2C83.7,23.1,87.5,22.1,89.5,21.7z"/>
	<path class="st12" d="M63.1,12.7c5.6,3.5,12.4,4.8,19.4,3.9v0c6.9-0.9,13.1-4.1,17.6-8.9C93.9,4.1,86,4.2,80.2,5
		C72.6,6,67.1,8.5,63.1,12.7z"/>
	<path class="st4" d="M34.8,57.5c0.4,0.6,1.3,0.8,1.9,0.3l7.5-5.3l7.9,6.7c0.3,0.2,0.6,0.3,0.9,0.3c0.4,0,0.8-0.2,1-0.5
		c0.5-0.6,0.4-1.4-0.2-1.9l-9.5-8.1l-9.3,6.5C34.5,56,34.4,56.9,34.8,57.5z"/>
	<path class="st3" d="M65.7,124.1c1.3,0.9,2.8,1.2,4.3,0.9c1.5-0.3,2.8-1.1,3.7-2.4l6.3-8.3c1.6-2.1,1.5-5.1-0.3-6.8
		c-1-1-2.3-1.5-3.7-1.5c-1.4,0-2.6,0.6-3.6,1.6l-1.2,1.7c-0.6,0.9-1.5,1.4-2.6,1.6c-1.1,0.1-2.1-0.1-2.9-0.8c-1.3-1-2.4-1.8-3.2-2.4
		c-0.7-0.5-1.1-1.4-0.8-2.3c0.4-1.1,0.5-2.2,0.5-3.2c0-0.1,0-0.2,0-0.2l0-0.2c0-0.2,0-0.3,0.1-0.5l2.9-8.8c0.4-1.2-0.1-2.5-1.1-2.9
		c-0.6-0.3-1.2-0.3-1.8,0c-0.6,0.3-1,0.7-1.2,1.3l-0.8,2.6c-0.1,0.4-0.5,0.7-0.9,0.9s-0.9,0.1-1.2-0.2c-0.7-0.5-1.5-0.9-2.3-1.2
		c-0.6-0.2-1.1-0.5-1.5-0.9L46,84.8c-0.9-0.8-2.3-0.9-3.2-0.1c-0.5,0.4-0.7,1-0.7,1.7c0,0.6,0.3,1.2,0.8,1.6l4,3.5v0l2.7,2.3
		c0.6,0.5,0.6,1.4,0.1,1.9c-0.3,0.3-0.7,0.5-1,0.5c-0.3,0-0.6-0.1-0.9-0.3l-1.8-1.6c-2.5,1.9-3.9,4.8-3.9,8c0,2.9,1.2,5.5,3.2,7.4
		c1.3-0.7,2.7-1.2,4.1-1.4c0.1,0,0.2-0.1,0.4-0.1c0.1,0,0.2,0,0.3,0c0.7-0.1,1.3-0.1,2-0.1c0.1,0,0.2,0,0.3,0.1
		c1,0.1,1.9,0.2,2.9,0.5c5.2,1.6,8.9,6.8,8.8,12.3c0,0.6-0.1,1.2-0.2,1.8L65.7,124.1z"/>
	<path class="st4" d="M49.7,108.1c0.1,0,0.2,0,0.3,0C49.8,108.1,49.7,108.1,49.7,108.1z"/>
	<path class="st3" d="M54.2,111.2c-1.3-0.4-2.7-0.5-4-0.4l0,0c-3.6,0.5-6.6,3.2-7.4,6.8c-0.1,0.5-0.2,1-0.2,1.5
		c0,0.7-0.6,1.3-1.4,1.3c0,0,0,0-0.1,0c-0.8,0-1.3-0.7-1.3-1.4c0.1-1.5,0.4-3,1.1-4.3c0,0,0,0-0.1,0c-2.2-0.2-4.3-0.5-6-2.2
		c-0.1-0.1-0.1-0.1-0.2-0.2l-3.4-5.1c-1.1-1.6-3-2.4-4.8-2.1c-1.3,0.2-2.5,1-3.2,2.2c-0.7,1.2-0.9,2.5-0.6,3.8l0.8,2.8
		c0.1,0.4,0.2,0.7,0.4,1c0.3,0.5,0.5,0.9,0.7,1.3c2.5,4.7,4.3,8.1,12.4,10l5.7,0.6c0.2,0,0.4,0.1,0.6,0.2c3.7,2.5,5.4,3,6.6,3.1
		c2.8,0.4,5.6-0.4,7.7-2.2c2.2-1.8,3.4-4.4,3.5-7.3C61.2,116.5,58.3,112.5,54.2,111.2z"/>
	<path class="st4" d="M123.5,113.6c-5.7-6.9-13.6-11.3-22.4-12.6c-1.4-0.2-2.8-0.3-4.1-0.3c2.9-1.7,5.5-3.7,7.9-6.2
		c6.1-6.4,9.6-14.9,9.8-23.8c0-0.4-0.1-0.8-0.4-1c-0.3-0.3-0.6-0.4-1-0.4c-1.5,0.1-3,0.3-4.5,0.6c0.6-2.8,1-5.8,1.1-8.7
		c0.6-14.1-4.3-27.5-13.8-37.9c-1.9-2.1-4-4-6.1-5.7c5.3-1.9,9.9-5.1,13.5-9.3c0.2-0.3,0.4-0.7,0.3-1.1c-0.1-0.4-0.3-0.7-0.6-0.9
		c-7.1-4.9-16.5-4.9-23.1-4C74.2,3,69.6,4.6,65.8,6.9c-2.1-0.4-4.3-0.6-6.5-0.7c-14.1-0.6-27.6,4.3-37.9,13.8
		C11,29.6,5,42.6,4.4,56.7c-0.8,17.6,7.3,33.6,20.1,43.7c-0.5,0.8-0.7,1.8-0.8,2.8c-1.1,0.6-2.1,1.5-2.8,2.6c-1.1,1.8-1.5,4-0.9,6
		l0.8,2.8c0.2,0.6,0.4,1.1,0.7,1.6c0.2,0.4,0.5,0.9,0.7,1.3c0,0,0,0,0,0L4.2,149.1c0,0.1-0.1,0.1-0.1,0.2c-0.5,1.3-0.4,2.8,0.2,4
		c0.7,1.3,1.9,2.2,3.3,2.6l0.5,0.3c6.6,3.9,14.4,6.7,22.6,8.6c0.9,0.2,1.8,0.4,2.8,0.6c0,0,0,0,0,0l13.7,1.7c0,0,0,0,0,0
		c0.9,0.1,1.8,0.1,2.8,0.1c1.1,0,2.2,0.1,3.3,0.1c3.1,0,6.3-0.1,9.4-0.4c0.9-0.1,1.8-0.2,2.8-0.3c0,0,0,0,0,0l13.7-2.5
		c0,0,0,0,0.1,0c0.9-0.2,1.8-0.5,2.8-0.8c6.2-1.8,12.1-4.2,17.2-7.3c1.4-0.4,2.6-1.3,3.3-2.6c0.7-1.2,0.7-2.7,0.2-4
		c0-0.1-0.1-0.1-0.1-0.2l-18.8-32.9c4.3,2.8,9.1,4.6,14.3,5.3c1.7,0.2,3.3,0.4,5,0.4c7.1,0,14.1-2.1,20-6.2c0.3-0.2,0.5-0.6,0.6-0.9
		C123.9,114.3,123.8,113.9,123.5,113.6z M111.8,72.2c-0.5,7.6-3.7,14.8-9,20.4c-4,4.2-9,7.2-14.5,8.8c1.5-1.1,3-2.3,4.4-3.6
		c7.4-6.8,12.6-15.4,15.2-24.9C109.2,72.6,110.5,72.4,111.8,72.2z M80.2,5c5.7-0.8,13.7-0.9,19.9,2.7c-4.5,4.8-10.7,8-17.6,8.9v0
		c-6.9,0.9-13.7-0.4-19.4-3.9C67.1,8.5,72.6,6,80.2,5z M7.1,56.8c0.6-13.3,6.3-25.7,16.1-34.7C32.5,13.6,44.5,9,57,9
		c0.7,0,1.5,0,2.2,0c1.2,0.1,2.4,0.2,3.5,0.3c-1,0.9-1.9,1.8-2.7,2.8c-0.2,0.3-0.4,0.7-0.3,1.1c0.1,0.4,0.3,0.7,0.6,0.9
		c0.9,0.7,1.9,1.2,3,1.8c4.6,2.5,9.7,3.8,15.1,3.8c1.5,0,3-0.1,4.6-0.3c0,0,0,0,0,0c1.1-0.1,2.2-0.4,3.2-0.6c0.2,0,0.3-0.1,0.5-0.1
		c2.6,1.9,5.1,4.1,7.3,6.6c9,9.8,13.7,22.6,13.1,36c-0.6,13.3-6.3,25.7-16.1,34.7c-1.5,1.4-3.1,2.6-4.7,3.8
		c-0.1-0.1-0.2-0.3-0.4-0.4c-0.1-0.1-0.3-0.2-0.4-0.3c-1.2-0.8-2.9-0.6-5,0.4c-3.4,1.7-9.4,2.9-15.5,3.5c0-0.2,0-0.4,0-0.6
		c0-0.1,0-0.2,0-0.3l0,0l2.8-8.5c0.8-2.5-0.3-5.3-2.6-6.3c-1.3-0.6-2.8-0.6-4.1,0c-1.3,0.6-2.3,1.7-2.7,3L58,90.9
		c-0.4-0.2-0.9-0.4-1.3-0.6c-0.3-0.1-0.5-0.2-0.7-0.4l-8.2-7.2c-2-1.7-5-1.8-6.8,0c-1,1-1.6,2.3-1.6,3.7c0,1.4,0.6,2.7,1.7,3.7
		l2.7,2.3c-2.7,2.3-4.3,5.6-4.5,9.1c0,0.2,0,0.4,0,0.6c-3.3-0.5-6.3-1.3-8.3-2.3c-0.5-0.2-0.9-0.4-1.4-0.6c-1-0.4-1.9-0.5-2.6-0.4
		C14.3,89.3,6.4,73.8,7.1,56.8z M55.1,108.6c-0.9-0.3-1.9-0.4-2.9-0.5c-0.1,0-0.2-0.1-0.3-0.1c-0.7,0-1.4,0-2,0.1
		c-0.1,0-0.2,0-0.3,0c-0.1,0-0.2,0-0.4,0.1c-1.4,0.2-2.8,0.7-4.1,1.4c-2-1.9-3.2-4.5-3.2-7.4c0-3.2,1.5-6.1,3.9-8l1.8,1.6
		c0.3,0.2,0.6,0.3,0.9,0.3c0.4,0,0.8-0.2,1-0.5c0.5-0.6,0.4-1.4-0.1-1.9l-2.7-2.3v0l-4-3.5c-0.5-0.4-0.8-1-0.8-1.6
		c0-0.6,0.2-1.2,0.7-1.7c0.8-0.8,2.2-0.7,3.2,0.1l8.2,7.2c0.4,0.4,0.9,0.7,1.5,0.9c0.8,0.3,1.6,0.7,2.3,1.2c0.4,0.3,0.8,0.3,1.2,0.2
		s0.7-0.5,0.9-0.9l0.8-2.6c0.2-0.6,0.6-1.1,1.2-1.3c0.6-0.3,1.2-0.3,1.8,0c1,0.5,1.5,1.8,1.1,2.9l-2.9,8.8c-0.1,0.2-0.1,0.3-0.1,0.5
		l0,0.2c0,0.1,0,0.2,0,0.2c0,1.1-0.2,2.1-0.5,3.2c-0.2,0.9,0.1,1.8,0.8,2.3c0.8,0.6,1.9,1.3,3.2,2.4c0.8,0.7,1.9,0.9,2.9,0.8
		c1.1-0.1,2-0.7,2.6-1.6l1.2-1.7c0.9-1,2.2-1.6,3.6-1.6c1.4,0,2.7,0.5,3.7,1.5c1.8,1.8,1.9,4.7,0.3,6.8l-6.3,8.3
		c-0.9,1.3-2.2,2.1-3.7,2.4c-1.5,0.3-3-0.1-4.3-0.9l-2-1.4c0.1-0.6,0.2-1.2,0.2-1.8C64,115.4,60.3,110.2,55.1,108.6z M42.9,111.3
		c-0.3,0.3-0.6,0.5-0.9,0.8c-0.3,0-0.6-0.1-0.9-0.1c-2.1-0.2-3.3-0.4-4.3-1.3l-3.3-5c-1.5-2.3-4.2-3.6-7-3.3
		c0.1-0.5,0.3-0.7,0.4-0.7c0,0,0.2-0.1,0.4-0.1c0.4,0,1.1,0.1,2.2,0.7c2.4,1.2,5.9,2.1,9.8,2.7C40,107.4,41.2,109.5,42.9,111.3z
		 M64.4,105.7c2.4-0.2,4.8-0.5,7.1-1c-0.5,0.3-0.9,0.7-1.3,1.2c0,0-0.1,0.1-0.1,0.1l-1.3,1.8c-0.2,0.2-0.4,0.4-0.7,0.5
		c-0.3,0-0.6,0-0.9-0.2c-1.1-0.9-2.1-1.6-2.9-2.2C64.4,105.8,64.4,105.7,64.4,105.7z M79.8,104.2C79.8,104.2,79.7,104.2,79.8,104.2
		c-0.8-0.4-1.6-0.7-2.4-0.8c1.6-0.5,3-1,4.2-1.6c1.3-0.7,2.1-0.7,2.3-0.6c0.2,0.1,0.7,0.6,0.7,3.2c0,1.4-0.4,2.7-1.2,4
		c-0.4-1.1-1-2.1-1.8-2.9C81,105,80.4,104.6,79.8,104.2z M23.2,107.3c0.7-1.2,1.9-1.9,3.2-2.2c1.9-0.3,3.8,0.5,4.8,2.1l3.4,5.1
		c0,0.1,0.1,0.1,0.2,0.2c1.7,1.8,3.8,2,6,2.2c0,0,0,0,0.1,0c-0.6,1.3-1,2.8-1.1,4.3c0,0.8,0.6,1.4,1.3,1.4c0,0,0,0,0.1,0
		c0.7,0,1.3-0.6,1.4-1.3c0-0.5,0.1-1,0.2-1.5c0.8-3.6,3.8-6.3,7.4-6.8l0,0c1.3-0.1,2.7,0,4,0.4c4.1,1.3,7,5.3,6.9,9.6
		c-0.1,2.9-1.3,5.4-3.5,7.3c-2.1,1.8-4.9,2.6-7.7,2.2c-1.2-0.2-3-0.7-6.6-3.1c-0.2-0.1-0.4-0.2-0.6-0.2l-5.7-0.6
		c-8.1-1.9-10-5.3-12.4-10c-0.2-0.4-0.5-0.9-0.7-1.3c-0.2-0.3-0.3-0.7-0.4-1l-0.8-2.8C22.3,109.9,22.5,108.5,23.2,107.3z
		 M100.3,150.3c0.2,0.5,0.1,1.1-0.1,1.6c-0.3,0.6-1,1.1-1.7,1.3c-0.1,0-0.3,0.1-0.4,0.2c-24.3,14.5-64,14.7-88.4,0.4l-0.7-0.4
		c-0.1-0.1-0.3-0.1-0.4-0.2c-0.8-0.2-1.4-0.6-1.7-1.3c-0.3-0.5-0.3-1.1-0.1-1.6l17.1-29.8c0,0,0.1,0.1,0.1,0.1
		c2.2,3.6,5.2,6.7,12.7,8.4c0.1,0,0.1,0,0.2,0l5.4,0.6c3.1,2.1,5.4,3.1,7.5,3.4c0.6,0.1,1.1,0.1,1.7,0.1c3,0,5.9-1.1,8.1-3
		c1.5-1.3,2.7-2.9,3.4-4.7l1.3,0.9c0.4,0.3,0.8,0.5,1.2,0.7c1.2,0.6,2.4,0.8,3.7,0.8c2.7,0,5.3-1.3,7-3.6l5.3-7l0.1-0.1L100.3,150.3
		z M98.6,118.8c-5.5-0.8-10.5-2.9-14.9-6.1c0,0,0-0.1,0-0.1c2.3-2.3,3.6-5,3.7-7.9c4.3-1.2,8.8-1.5,13.3-0.9
		c7.6,1.1,14.6,4.8,19.7,10.4C113.9,118.2,106.2,119.8,98.6,118.8z"/>
</g>
</svg>
