<?xml version="1.0" encoding="utf-8"?>
<!-- Generator: Adobe Illustrator 23.0.1, SVG Export Plug-In . SVG Version: 6.00 Build 0)  -->
<svg version="1.1" id="Layer_1" xmlns="http://www.w3.org/2000/svg" xmlns:xlink="http://www.w3.org/1999/xlink" x="0px" y="0px"
	 viewBox="0 0 208.8 148.5" style="enable-background:new 0 0 208.8 148.5;" xml:space="preserve">
<style type="text/css">
	.st0{fill:#FFFFFF;}
	.st1{fill:#2B4B87;}
	.st2{fill:#FFFFFF;stroke:#C1DCEA;stroke-width:0.75;stroke-linejoin:round;stroke-miterlimit:10;}
</style>
<g>
	<g>
		<g>
			<path class="st0" d="M22.8,59c-0.7,0-1.4-0.4-1.8-1c-0.4-0.6-0.4-1.4,0-2l15.3-26.2c0.4-0.6,1-1,1.7-1c0.2,0,0.4,0,0.6,0.1
				c0.9,0.2,1.5,1,1.5,1.9V57c0,1.1-0.9,2-2,2H22.8z M36,55V38.2L26.3,55H36z"/>
			<path class="st1" d="M38.1,29.5c0.1,0,0.2,0,0.4,0.1c0.6,0.2,1,0.7,1,1.3V57c0,0.7-0.6,1.3-1.3,1.3H22.8c-0.5,0-0.9-0.3-1.1-0.7
				c-0.2-0.4-0.2-0.9,0-1.3l15.3-26.2C37.2,29.7,37.6,29.5,38.1,29.5 M25.1,55.7h11.7V35.6L25.1,55.7 M38.1,28.1
				c-0.9,0-1.8,0.5-2.3,1.3L20.4,55.6c-0.5,0.8-0.5,1.9,0,2.7c0.5,0.8,1.4,1.4,2.4,1.4h15.3c1.5,0,2.7-1.2,2.7-2.7V30.8
				c0-1.2-0.8-2.3-2-2.6C38.6,28.1,38.3,28.1,38.1,28.1L38.1,28.1z M27.5,54.3l7.9-13.5v13.5H27.5L27.5,54.3z"/>
		</g>
		<g>
			<path class="st0" d="M38.1,92.3c-1.1,0-2-0.9-2-2v-4c0-0.4,0.3-0.7,0.7-0.7h2.6c0.4,0,0.7,0.3,0.7,0.7v2h15.7v-16
				c0-1.1,0.9-2,2-2h6.6V59h-6.6c-1.1,0-2-0.9-2-2V7.2H39.3l-9,14.5c-0.1,0.2-0.4,0.3-0.6,0.3c-0.1,0-0.2,0-0.4-0.1l-2.3-1.4
				c-0.2-0.1-0.3-0.3-0.3-0.4c0-0.2,0-0.4,0.1-0.5l9.3-14.9c0.2-0.9,1-1.5,2-1.5h19.7c1.1,0,2,0.9,2,2V55h6.6c1.1,0,2,0.9,2,2v15.2
				c0,1.1-0.9,2-2,2h-6.6v16c0,1.1-0.9,2-2,2H38.1z"/>
			<path class="st1" d="M57.8,3.8c0.7,0,1.3,0.6,1.3,1.3v50.5h7.3c0.7,0,1.3,0.6,1.3,1.3v15.2c0,0.7-0.6,1.3-1.3,1.3h-7.3v16.7
				c0,0.7-0.6,1.3-1.3,1.3H38.1c-0.7,0-1.3-0.6-1.3-1.3v-4h2.6v2.7h17.1V72.2c0-0.7,0.6-1.3,1.3-1.3h7.3V58.3h-7.3
				c-0.7,0-1.3-0.6-1.3-1.3V6.5H38.9l-9.2,14.8l-2.3-1.4l9.3-15c0.1-0.6,0.7-1.1,1.3-1.1H57.8 M57.8,2.4H38.1
				c-1.2,0-2.3,0.8-2.6,1.9l-9.2,14.8c-0.2,0.3-0.3,0.7-0.2,1.1c0.1,0.4,0.3,0.7,0.6,0.9l2.3,1.4c0.2,0.1,0.5,0.2,0.7,0.2
				c0.5,0,0.9-0.2,1.2-0.7l8.8-14.2H55V57c0,1.5,1.2,2.7,2.7,2.7h5.9v9.8h-5.9c-1.5,0-2.7,1.2-2.7,2.7v15.3H40.8v-1.3
				c0-0.8-0.6-1.4-1.4-1.4h-2.6c-0.8,0-1.4,0.6-1.4,1.4v4c0,1.5,1.2,2.7,2.7,2.7h19.7c1.5,0,2.7-1.2,2.7-2.7V74.9h5.9
				c1.5,0,2.7-1.2,2.7-2.7V57c0-1.5-1.2-2.7-2.7-2.7h-5.9V5.2C60.5,3.7,59.3,2.4,57.8,2.4L57.8,2.4z"/>
		</g>
		<g>
			<path class="st0" d="M36.7,78.7c-0.4,0-0.7-0.3-0.7-0.7v-3.8H5.2c-1,0-1.9-0.8-2-1.8L2,60.3c0-0.4,0.1-0.9,0.3-1.3l20.2-32.5
				c0.1-0.2,0.4-0.3,0.6-0.3c0.1,0,0.2,0,0.4,0.1l2.3,1.4c0.2,0.1,0.3,0.3,0.3,0.4c0,0.2,0,0.4-0.1,0.5L6.1,60.6L7,70.2h31.1
				c1.1,0,2,0.9,2,2V78c0,0.4-0.3,0.7-0.7,0.7H36.7z"/>
			<path class="st1" d="M23.1,26.9l2.3,1.4l-20,32.1l1,10.4h31.7c0.7,0,1.3,0.6,1.3,1.3V78h-2.6v-4.5H5.2c-0.7,0-1.2-0.5-1.3-1.2
				l-1.2-12c0-0.3,0-0.6,0.2-0.8L23.1,26.9 M23.1,25.5c-0.5,0-0.9,0.2-1.2,0.7L1.7,58.7c-0.3,0.5-0.5,1.1-0.4,1.7l1.2,12
				c0.1,1.4,1.3,2.5,2.7,2.5h30.2V78c0,0.8,0.6,1.4,1.4,1.4h2.6c0.8,0,1.4-0.6,1.4-1.4v-5.8c0-1.5-1.2-2.7-2.7-2.7H7.6l-0.8-8.7
				l19.7-31.7c0.2-0.3,0.3-0.7,0.2-1.1s-0.3-0.7-0.6-0.9l-2.3-1.4C23.6,25.6,23.3,25.5,23.1,25.5L23.1,25.5z"/>
		</g>
		<g>
			<path class="st0" d="M36.7,84.6c-0.4,0-0.7-0.3-0.7-0.7v-3.5c0-0.4,0.3-0.7,0.7-0.7h2.6c0.4,0,0.7,0.3,0.7,0.7v3.5
				c0,0.4-0.3,0.7-0.7,0.7H36.7z"/>
			<path class="st1" d="M39.4,80.4v3.5h-2.6v-3.5H39.4 M39.4,79h-2.6c-0.8,0-1.4,0.6-1.4,1.4v3.5c0,0.8,0.6,1.4,1.4,1.4h2.6
				c0.8,0,1.4-0.6,1.4-1.4v-3.5C40.8,79.6,40.2,79,39.4,79L39.4,79z"/>
		</g>
		<g>
			<path class="st0" d="M26.6,27c-0.1,0-0.2,0-0.4-0.1L24,25.5c-0.2-0.1-0.3-0.3-0.3-0.4c0-0.2,0-0.4,0.1-0.5l1.9-3
				c0.1-0.2,0.4-0.3,0.6-0.3c0.1,0,0.2,0,0.4,0.1l2.3,1.4c0.2,0.1,0.3,0.3,0.3,0.4c0,0.2,0,0.4-0.1,0.5l-1.9,3
				C27,26.9,26.8,27,26.6,27z"/>
			<path class="st1" d="M26.2,21.9l2.3,1.4l-1.9,3l-2.3-1.4L26.2,21.9 M26.2,20.5c-0.5,0-0.9,0.2-1.2,0.7l-1.9,3
				c-0.2,0.3-0.3,0.7-0.2,1.1c0.1,0.4,0.3,0.7,0.6,0.9l2.3,1.4c0.2,0.1,0.5,0.2,0.7,0.2c0.5,0,0.9-0.2,1.2-0.7l1.9-3
				c0.2-0.3,0.3-0.7,0.2-1.1c-0.1-0.4-0.3-0.7-0.6-0.9l-2.3-1.4C26.7,20.6,26.4,20.5,26.2,20.5L26.2,20.5z"/>
		</g>
		<g>
			<path class="st0" d="M104.6,93.4c-10.1,0-18-3.4-23.5-10.1c-5.5-6.6-8.2-16-8.2-27.8V39.9C72.8,28,75.6,18.6,81,12
				C86.6,5.4,94.4,2,104.5,2c10,0,17.9,3.4,23.5,10.1c5.5,6.6,8.2,16,8.2,27.9v15.5c0,11.9-2.8,21.3-8.2,27.9
				C122.4,90,114.5,93.4,104.6,93.4z M104.5,6c-8.8,0-15.6,2.9-20.3,8.6c-4.8,5.8-7.3,14.3-7.3,25.3v15.5c0,10.9,2.5,19.4,7.3,25.2
				c4.8,5.8,11.6,8.7,20.4,8.7c8.7,0,15.5-2.9,20.3-8.6c4.8-5.8,7.3-14.3,7.3-25.3V40c0-10.9-2.5-19.4-7.3-25.3
				C120.1,8.9,113.2,6,104.5,6z"/>
			<path class="st1" d="M104.5,2.7c9.8,0,17.5,3.3,22.9,9.9c5.4,6.5,8.1,15.7,8.1,27.4v15.5c0,11.8-2.7,21-8,27.4
				c-5.4,6.5-13.1,9.8-22.8,9.8c-9.8,0-17.6-3.3-23-9.9c-5.4-6.5-8.1-15.7-8.1-27.4V39.9c0-11.8,2.7-21,8-27.4
				C87,6,94.7,2.7,104.5,2.7 M104.6,90.1c8.9,0,15.9-3,20.8-8.9c4.9-6,7.4-14.6,7.4-25.7V40c0-11.1-2.5-19.7-7.5-25.7
				c-4.9-5.9-11.9-8.9-20.9-8.9c-9,0-16,3-20.9,8.9c-4.9,6-7.4,14.6-7.4,25.7v15.5c0,11,2.5,19.7,7.5,25.7
				C88.5,87.1,95.6,90.1,104.6,90.1 M104.5,1.3c-10.2,0-18.3,3.5-24,10.3c-5.6,6.7-8.4,16.2-8.4,28.3v15.5c0,12,2.8,21.5,8.4,28.3
				c5.7,6.9,13.8,10.4,24.1,10.4c10.2,0,18.2-3.5,23.9-10.3c5.6-6.7,8.4-16.2,8.4-28.3V40c0-12-2.8-21.6-8.4-28.3
				C122.8,4.8,114.7,1.3,104.5,1.3L104.5,1.3z M104.6,88.7c-8.6,0-15.3-2.8-19.9-8.4c-4.7-5.7-7.1-14.1-7.1-24.8V39.9
				c0-10.8,2.4-19.2,7.1-24.9c4.6-5.6,11.3-8.4,19.8-8.4c8.5,0,15.2,2.8,19.8,8.4c4.7,5.7,7.2,14.1,7.2,24.9v15.5
				c0,10.8-2.4,19.2-7.1,24.9C119.7,85.9,113.1,88.7,104.6,88.7L104.6,88.7z"/>
		</g>
		<g>
			<path class="st0" d="M113.1,43.1c-0.4,0-0.7-0.3-0.7-0.7v-3.5c0-0.4,0.3-0.7,0.7-0.7h2.6c0.4,0,0.7,0.3,0.7,0.7v3.5
				c0,0.4-0.3,0.7-0.7,0.7H113.1z"/>
			<path class="st1" d="M115.8,38.9v3.5h-2.6v-3.5H115.8 M115.8,37.5h-2.6c-0.8,0-1.4,0.6-1.4,1.4v3.5c0,0.8,0.6,1.4,1.4,1.4h2.6
				c0.8,0,1.4-0.6,1.4-1.4v-3.5C117.2,38.1,116.5,37.5,115.8,37.5L115.8,37.5z"/>
		</g>
		<g>
			<path class="st0" d="M104.6,78.2c-4.2,0-7.4-1.8-9.4-5.5c-1.8-3.3-2.6-8.1-2.6-14.9V36.1c0.1-6.1,1-10.6,2.7-13.7
				c1.9-3.5,5-5.3,9.2-5.3c4.3,0,7.4,1.9,9.4,5.6c1.7,3.2,2.5,7.7,2.6,13.8c0,0.2-0.1,0.4-0.2,0.5s-0.3,0.2-0.5,0.2h-2.6
				c-0.4,0-0.7-0.3-0.7-0.7c-0.1-5.3-0.8-9.3-2.1-11.9c-1.2-2.4-3.1-3.5-5.8-3.5c-2.7,0-4.4,1-5.6,3.2c-1.4,2.5-2.1,6.5-2.2,11.8
				l0,21.7c0,6,0.7,10.3,2.2,13c1.2,2.3,3.1,3.4,5.8,3.4c2.6,0,4.4-1,5.7-3.3c1.4-2.6,2.2-6.8,2.2-12.5V44.8c0-0.4,0.3-0.7,0.7-0.7
				h2.6c0.4,0,0.7,0.3,0.7,0.7v13.7c0,6.5-0.9,11.3-2.7,14.5C111.8,76.4,108.7,78.2,104.6,78.2z"/>
			<path class="st1" d="M104.5,17.9c4,0,6.9,1.8,8.8,5.2c1.6,3.1,2.5,7.5,2.5,13.4h-2.6c-0.1-5.4-0.8-9.5-2.2-12.2
				c-1.4-2.6-3.5-3.8-6.4-3.8c-2.9,0-4.9,1.2-6.2,3.5c-1.4,2.6-2.2,6.7-2.3,12.1v21.7c0,6.1,0.8,10.6,2.2,13.3
				c1.4,2.5,3.5,3.7,6.4,3.7c2.9,0,4.9-1.2,6.3-3.6c1.5-2.7,2.2-7,2.3-12.8V44.8h2.6v13.7c0,6.4-0.9,11-2.6,14.1
				c-1.8,3.3-4.7,5-8.6,5c-4,0-6.9-1.7-8.8-5.1c-1.7-3.2-2.6-7.9-2.6-14.6V36.1c0.1-6,1-10.4,2.6-13.4
				C97.7,19.5,100.6,17.9,104.5,17.9 M104.5,16.5c-4.4,0-7.8,1.9-9.8,5.6c-1.8,3.2-2.7,7.8-2.8,14l0,21.8c0,6.9,0.9,11.9,2.7,15.2
				c2.1,3.8,5.5,5.8,10,5.8c4.3,0,7.7-2,9.8-5.7c1.8-3.3,2.8-8.1,2.8-14.8l0-13.7c0-0.8-0.6-1.4-1.4-1.4h-2.6
				c-0.8,0-1.4,0.6-1.4,1.4v13.7c0,5.6-0.7,9.7-2.1,12.2c-1.1,2-2.7,2.9-5,2.9c-2.4,0-4.1-1-5.2-3c-1.4-2.5-2.1-6.8-2.1-12.6V36.2
				c0.1-5.2,0.8-9.1,2.1-11.5c1-1.9,2.6-2.8,5-2.8c2.4,0,4.1,1,5.2,3.1c1.3,2.5,2,6.3,2.1,11.6c0,0.8,0.6,1.4,1.4,1.4h2.6
				c0.4,0,0.7-0.1,1-0.4c0.3-0.3,0.4-0.6,0.4-1c-0.1-6.2-1-10.8-2.7-14.1C112.4,18.5,108.9,16.5,104.5,16.5L104.5,16.5z"/>
		</g>
		<g>
			<path class="st0" d="M176.7,92.3c-1.1,0-2-0.9-2-2v-16h-30.9c-1,0-1.9-0.8-2-1.8l-1.2-12c0-0.4,0.1-0.9,0.3-1.3l33.8-54.4
				c0.2-0.9,1-1.5,2-1.5h19.7c1.1,0,2,0.9,2,2v38.4c0,0.4-0.3,0.7-0.7,0.7h-2.6c-0.4,0-0.7-0.3-0.7-0.7V7.2h-16.4l-33.2,53.5
				l0.9,9.5h31.1c1.1,0,2,0.9,2,2v16h15.7v-16c0-1.1,0.9-2,2-2h6.6V59h-6.6c-1.1,0-2-0.9-2-2v-5.2c0-0.4,0.3-0.7,0.7-0.7h2.6
				c0.4,0,0.7,0.3,0.7,0.7V55h6.6c1.1,0,2,0.9,2,2v15.2c0,1.1-0.9,2-2,2h-6.6v16c0,1.1-0.9,2-2,2H176.7z"/>
			<path class="st1" d="M196.4,3.8c0.7,0,1.3,0.6,1.3,1.3v38.4h-2.6V6.5h-17.5l-33.6,54l1,10.4h31.7c0.7,0,1.3,0.6,1.3,1.3v16.7
				h17.1V72.2c0-0.7,0.6-1.3,1.3-1.3h7.3V58.3h-7.3c-0.7,0-1.3-0.6-1.3-1.3v-5.2h2.6v3.9h7.3c0.7,0,1.3,0.6,1.3,1.3v15.2
				c0,0.7-0.6,1.3-1.3,1.3h-7.3v16.7c0,0.7-0.6,1.3-1.3,1.3h-19.7c-0.7,0-1.3-0.6-1.3-1.3V73.5h-31.6c-0.7,0-1.2-0.5-1.3-1.2
				l-1.2-12c0-0.3,0-0.6,0.2-0.8l33.9-54.5c0.1-0.6,0.7-1.1,1.3-1.1H196.4 M196.4,2.4h-19.7c-1.2,0-2.3,0.8-2.6,1.9l-33.8,54.3
				c-0.3,0.5-0.5,1.1-0.4,1.7l1.2,12c0.1,1.4,1.3,2.5,2.7,2.5H174v15.3c0,1.5,1.2,2.7,2.7,2.7h19.7c1.5,0,2.7-1.2,2.7-2.7V74.9h5.9
				c1.5,0,2.7-1.2,2.7-2.7V57c0-1.5-1.2-2.7-2.7-2.7h-5.9v-2.5c0-0.8-0.6-1.4-1.4-1.4h-2.6c-0.8,0-1.4,0.6-1.4,1.4V57
				c0,1.5,1.2,2.7,2.7,2.7h5.9v9.8h-5.9c-1.5,0-2.7,1.2-2.7,2.7v15.3h-14.3V72.2c0-1.5-1.2-2.7-2.7-2.7h-30.4l-0.8-8.7l32.9-52.9
				h15.4v35.7c0,0.8,0.6,1.4,1.4,1.4h2.6c0.8,0,1.4-0.6,1.4-1.4V5.2C199.1,3.7,197.9,2.4,196.4,2.4L196.4,2.4z"/>
		</g>
		<g>
			<path class="st0" d="M161.4,59c-0.7,0-1.4-0.4-1.8-1c-0.4-0.6-0.4-1.4,0-2L175,29.8c0.4-0.6,1-1,1.7-1c0.2,0,0.4,0,0.6,0.1
				c0.9,0.2,1.5,1,1.5,1.9V57c0,1.1-0.9,2-2,2H161.4z M174.7,55V38.2L164.9,55H174.7z"/>
			<path class="st1" d="M176.7,29.5c0.1,0,0.2,0,0.4,0.1c0.6,0.2,1,0.7,1,1.3V57c0,0.7-0.6,1.3-1.3,1.3h-15.3
				c-0.5,0-0.9-0.3-1.1-0.7c-0.2-0.4-0.2-0.9,0-1.3l15.3-26.2C175.8,29.7,176.2,29.5,176.7,29.5 M163.7,55.7h11.7V35.6L163.7,55.7
				 M176.7,28.1c-0.9,0-1.8,0.5-2.3,1.3L159,55.6c-0.5,0.8-0.5,1.9,0,2.7c0.5,0.8,1.4,1.4,2.4,1.4h15.3c1.5,0,2.7-1.2,2.7-2.7V30.8
				c0-1.2-0.8-2.3-2-2.6C177.2,28.1,176.9,28.1,176.7,28.1L176.7,28.1z M166.1,54.3l7.9-13.5v13.5H166.1L166.1,54.3z"/>
		</g>
		<g>
			<path class="st0" d="M195.1,50.1c-0.4,0-0.7-0.3-0.7-0.7v-3.5c0-0.4,0.3-0.7,0.7-0.7h2.6c0.4,0,0.7,0.3,0.7,0.7v3.5
				c0,0.4-0.3,0.7-0.7,0.7H195.1z"/>
			<path class="st1" d="M197.7,45.9v3.5h-2.6v-3.5H197.7 M197.7,44.5h-2.6c-0.8,0-1.4,0.6-1.4,1.4v3.5c0,0.8,0.6,1.4,1.4,1.4h2.6
				c0.8,0,1.4-0.6,1.4-1.4v-3.5C199.1,45.1,198.5,44.5,197.7,44.5L197.7,44.5z"/>
		</g>
	</g>
	<g>
		<path class="st2" d="M38.4,29.5c-0.6-0.2-1.2,0.1-1.5,0.6L21.6,56.3c-0.2,0.4-0.2,0.9,0,1.3c0.2,0.4,0.7,0.7,1.1,0.7h15.3
			c0.7,0,1.3-0.6,1.3-1.3V30.8C39.4,30.2,39,29.7,38.4,29.5z M36.7,55.7H25.1l11.7-20.1V55.7z"/>
		<path class="st2" d="M38.9,6.5h17.5V57c0,0.7,0.6,1.3,1.3,1.3h7.3v12.6h-7.3c-0.7,0-1.3,0.6-1.3,1.3v16.7H39.4v-2.7h-2.6v4
			c0,0.7,0.6,1.3,1.3,1.3h19.7c0.7,0,1.3-0.6,1.3-1.3V73.5h7.3c0.7,0,1.3-0.6,1.3-1.3V57c0-0.7-0.6-1.3-1.3-1.3h-7.3V5.2
			c0-0.7-0.6-1.3-1.3-1.3H38.1c-0.6,0-1.2,0.5-1.3,1.1l-9.3,15l2.3,1.4L38.9,6.5z"/>
		<path class="st2" d="M36.7,78h2.6v-5.8c0-0.7-0.6-1.3-1.3-1.3H6.4l-1-10.4l20-32.1l-2.3-1.4L2.9,59.4c-0.2,0.2-0.2,0.5-0.2,0.8
			l1.2,12c0.1,0.7,0.6,1.2,1.3,1.2h31.6V78z"/>
		<rect x="36.7" y="80.4" class="st2" width="2.6" height="3.5"/>
		<polygon class="st2" points="28.4,23.3 26.2,21.9 24.3,24.9 26.6,26.3 		"/>
		<path class="st2" d="M127.4,82.9c5.3-6.4,8-15.7,8-27.4V40c0-11.7-2.7-20.9-8.1-27.4C122,6,114.3,2.7,104.5,2.7
			C94.7,2.7,87,6,81.6,12.5c-5.3,6.4-8,15.7-8,27.4v15.5c0,11.7,2.7,20.9,8.1,27.4c5.4,6.6,13.2,9.9,23,9.9
			C114.3,92.7,122,89.4,127.4,82.9z M83.6,81.2c-5-6-7.5-14.6-7.5-25.7V39.9c0-11.1,2.5-19.8,7.4-25.7c4.9-5.9,11.9-8.9,20.9-8.9
			s16,3,20.9,8.9c5,6,7.5,14.7,7.5,25.7v15.5c0,11.1-2.5,19.8-7.4,25.7c-4.9,5.9-11.9,8.9-20.8,8.9C95.6,90.1,88.5,87.1,83.6,81.2z"
			/>
		<rect x="113.1" y="38.9" class="st2" width="2.6" height="3.5"/>
		<path class="st2" d="M113.2,72.6c1.7-3.1,2.6-7.7,2.6-14.1V44.8h-2.6v13.7c0,5.9-0.8,10.2-2.3,12.8c-1.4,2.4-3.4,3.6-6.3,3.6
			c-3,0-5.1-1.2-6.4-3.7c-1.5-2.7-2.2-7.2-2.2-13.3V36.2c0.1-5.4,0.9-9.5,2.3-12.1c1.3-2.4,3.3-3.5,6.2-3.5c3,0,5.1,1.3,6.4,3.8
			c1.4,2.7,2.2,6.8,2.2,12.2h2.6c-0.1-5.9-0.9-10.3-2.5-13.4c-1.8-3.5-4.8-5.2-8.8-5.2c-3.9,0-6.8,1.6-8.6,4.9
			c-1.7,3-2.5,7.4-2.6,13.4v21.7c0,6.6,0.8,11.4,2.6,14.6c1.8,3.4,4.8,5.1,8.8,5.1C108.4,77.5,111.3,75.9,113.2,72.6z"/>
		<path class="st2" d="M205,55.7h-7.3v-3.9h-2.6V57c0,0.7,0.6,1.3,1.3,1.3h7.3v12.6h-7.3c-0.7,0-1.3,0.6-1.3,1.3v16.7H178V72.2
			c0-0.7-0.6-1.3-1.3-1.3H145l-1-10.4l33.6-54h17.5v37.1h2.6V5.2c0-0.7-0.6-1.3-1.3-1.3h-19.7c-0.6,0-1.2,0.5-1.3,1.1l-33.9,54.5
			c-0.2,0.2-0.2,0.5-0.2,0.8l1.2,12c0.1,0.7,0.6,1.2,1.3,1.2h31.6v16.7c0,0.7,0.6,1.3,1.3,1.3h19.7c0.7,0,1.3-0.6,1.3-1.3V73.5h7.3
			c0.7,0,1.3-0.6,1.3-1.3V57C206.4,56.3,205.8,55.7,205,55.7z"/>
		<path class="st2" d="M177.1,29.5c-0.6-0.2-1.2,0.1-1.5,0.6l-15.3,26.2c-0.2,0.4-0.2,0.9,0,1.3c0.2,0.4,0.7,0.7,1.1,0.7h15.3
			c0.7,0,1.3-0.6,1.3-1.3V30.8C178,30.2,177.6,29.7,177.1,29.5z M175.4,55.7h-11.7l11.7-20.1V55.7z"/>
		<rect x="195.1" y="45.9" class="st2" width="2.6" height="3.5"/>
	</g>
	<g>
		<g>
			<path class="st0" d="M34.7,144.3c-0.3,0-0.5-0.1-0.6-0.4l-8.8-15.4v15c0,0.4-0.3,0.7-0.7,0.7h-5.8c-0.4,0-0.7-0.3-0.7-0.7v-26.3
				c0-0.4,0.3-0.7,0.7-0.7h6c0.3,0,0.5,0.1,0.6,0.4l8.7,15.4v-15c0-0.4,0.3-0.7,0.7-0.7h5.8c0.4,0,0.7,0.3,0.7,0.7v26.3
				c0,0.4-0.3,0.7-0.7,0.7H34.7z"/>
			<path class="st1" d="M40.7,117.4v26.3h-5.9L24.7,126v17.7h-5.8v-26.3h6l10,17.7v-17.7H40.7 M40.7,116h-5.8
				c-0.8,0-1.4,0.6-1.4,1.4v12.4L26,116.7c-0.2-0.4-0.7-0.7-1.2-0.7h-6c-0.8,0-1.4,0.6-1.4,1.4v26.3c0,0.8,0.6,1.4,1.4,1.4h5.8
				c0.8,0,1.4-0.6,1.4-1.4v-12.4l7.4,13.1c0.2,0.4,0.7,0.7,1.2,0.7h5.9c0.8,0,1.4-0.6,1.4-1.4v-26.3C42.1,116.6,41.4,116,40.7,116
				L40.7,116z"/>
		</g>
		<g>
			<path class="st0" d="M53.7,144.7c-2.9,0-5.3-0.9-7.1-2.7c-1.8-1.8-2.8-4.2-2.9-7.2l0-1.1c0-2.1,0.4-3.9,1.2-5.5
				c0.8-1.6,2-2.9,3.5-3.8c1.5-0.9,3.3-1.3,5.3-1.3c3.1,0,5.6,1,7.4,2.9c1.8,1.9,2.7,4.6,2.7,7.8v0.2c0,3.2-0.9,5.8-2.7,7.7
				C59.2,143.7,56.7,144.7,53.7,144.7z M53.7,128.8c-0.7,0-2.8,0-3,4.3l0,1.1c0,1.8,0.3,3,0.8,3.8c0.5,0.8,1.3,1.1,2.3,1.1
				c0.7,0,3,0,3-4.8l0-0.6C56.7,128.8,54.4,128.8,53.7,128.8z"/>
			<path class="st1" d="M53.7,123.9c2.9,0,5.2,0.9,6.8,2.7c1.7,1.8,2.5,4.3,2.5,7.3v0.2c0,3-0.8,5.4-2.5,7.2
				c-1.7,1.8-3.9,2.6-6.8,2.6c-2.7,0-5-0.8-6.6-2.5c-1.7-1.6-2.6-3.9-2.7-6.7l0-1.1c0-1.9,0.4-3.7,1.1-5.2c0.7-1.5,1.8-2.7,3.2-3.5
				C50.1,124.3,51.8,123.9,53.7,123.9 M53.7,139.9c2.4,0,3.7-1.8,3.7-5.5v-0.6c0-3.8-1.3-5.7-3.8-5.7c-2.3,0-3.5,1.7-3.7,5l0,1.1
				c0,1.9,0.3,3.3,0.9,4.3C51.5,139.4,52.4,139.9,53.7,139.9 M53.7,122.5c-2.1,0-4,0.5-5.7,1.4c-1.6,0.9-2.9,2.3-3.8,4
				c-0.8,1.7-1.3,3.7-1.3,5.8l0,1.1c0.1,3.2,1.2,5.8,3.1,7.7c1.9,1.9,4.5,2.9,7.6,2.9c3.2,0,5.9-1,7.8-3.1c1.9-2,2.9-4.8,2.9-8.2
				v-0.2c0-3.5-1-6.2-2.9-8.3C59.6,123.6,56.9,122.5,53.7,122.5L53.7,122.5z M51.3,133.1c0.2-3.6,1.7-3.6,2.3-3.6
				c0.6,0,2.4,0,2.4,4.3v0.6c-0.1,4.1-1.7,4.1-2.3,4.1c-0.8,0-1.3-0.3-1.7-0.8c-0.5-0.7-0.7-1.8-0.7-3.5L51.3,133.1L51.3,133.1z"/>
		</g>
		<g>
			<path class="st0" d="M53.7,140.6c-1.5,0-2.7-0.6-3.4-1.8c-0.7-1-1-2.6-1-4.6l0-1.1c0.3-4.7,2.5-5.7,4.4-5.7c2,0,4.5,1.1,4.5,6.4
				v0.6C58,139.5,55.7,140.6,53.7,140.6z M53.7,129.4c-1,0-2.2,0.4-2.4,3.7l0,1.1c0,2,0.4,3,0.7,3.5c0.4,0.6,0.9,0.8,1.7,0.8
				c0.6,0,2.3,0,2.4-4.1l0-0.6C56.1,129.4,54.3,129.4,53.7,129.4z"/>
			<path class="st1" d="M53.7,128.1c2.5,0,3.8,1.9,3.8,5.7v0.6c-0.1,3.6-1.3,5.5-3.7,5.5c-1.2,0-2.2-0.5-2.8-1.4
				c-0.6-0.9-0.9-2.3-0.9-4.3l0-1.1C50.1,129.7,51.4,128.1,53.7,128.1 M53.7,139.2c2,0,3-1.6,3.1-4.8v-0.6c0-3.4-1-5-3.1-5
				c-1.9,0-2.9,1.4-3.1,4.3l0,1.1c0,1.8,0.3,3.1,0.8,3.9C51.9,138.8,52.7,139.2,53.7,139.2 M53.7,126.7c-1.8,0-4.8,0.8-5.1,6.3
				c0,0,0,0,0,0.1l0,1.1c0,2.2,0.4,3.9,1.2,5.1c0.9,1.3,2.3,2.1,4,2.1c1.9,0,5-0.9,5.1-6.8l0-0.6C58.8,127.6,55.6,126.7,53.7,126.7
				L53.7,126.7z M52,133.1c0.2-3,1.2-3,1.7-3c0.5,0,1.7,0,1.7,3.6v0.6c0,3.4-1.2,3.4-1.7,3.4c-0.6,0-0.9-0.2-1.1-0.5
				c-0.2-0.3-0.6-1.1-0.6-3.1L52,133.1L52,133.1z"/>
		</g>
		<g>
			<path class="st0" d="M73.4,144.7c-2.2,0-3.9-0.5-5-1.6c-1.1-1.1-1.6-2.7-1.6-4.9v-9.6h-1.9c-0.4,0-0.7-0.3-0.7-0.7v-3.7
				c0-0.4,0.3-0.7,0.7-0.7h1.9v-4.3c0-0.4,0.3-0.7,0.7-0.7H73c0.4,0,0.7,0.3,0.7,0.7v4.3h2.6c0.4,0,0.7,0.3,0.7,0.7v3.7
				c0,0.4-0.3,0.7-0.7,0.7h-2.6v8.8c0,0.6,0.1,1.1,0.3,1.3c0.1,0.1,0.5,0.3,1.3,0.3c0.4,0,0.8,0,1.1-0.1c0,0,0.1,0,0.1,0
				c0.2,0,0.3,0.1,0.5,0.2c0.1,0.1,0.2,0.3,0.2,0.5v3.8c0,0.3-0.2,0.6-0.5,0.7C75.7,144.5,74.5,144.7,73.4,144.7z"/>
			<path class="st1" d="M73,119.3v5h3.3v3.7H73v9.5c0,0.8,0.2,1.4,0.5,1.8c0.3,0.4,0.9,0.6,1.9,0.6c0.5,0,0.9,0,1.2-0.1v3.8
				c-1,0.3-2.1,0.5-3.2,0.5c-2,0-3.6-0.5-4.5-1.4c-1-0.9-1.4-2.4-1.4-4.4V128h-2.6v-3.7h2.6v-5H73 M73,117.9h-5.6
				c-0.8,0-1.4,0.6-1.4,1.4v3.6h-1.2c-0.8,0-1.4,0.6-1.4,1.4v3.7c0,0.8,0.6,1.4,1.4,1.4H66v8.9c0,2.3,0.6,4.2,1.9,5.4
				c1.2,1.2,3.1,1.8,5.5,1.8c1.2,0,2.4-0.2,3.6-0.5c0.6-0.2,1-0.7,1-1.3v-3.8c0-0.4-0.2-0.8-0.5-1c-0.3-0.2-0.6-0.4-0.9-0.4
				c-0.1,0-0.1,0-0.2,0c-0.3,0-0.7,0.1-1.1,0.1c-0.6,0-0.8-0.1-0.8-0.1c0,0-0.1-0.2-0.1-0.8v-8.1h1.9c0.8,0,1.4-0.6,1.4-1.4v-3.7
				c0-0.8-0.6-1.4-1.4-1.4h-1.9v-3.6C74.4,118.5,73.8,117.9,73,117.9L73,117.9z"/>
		</g>
		<g>
			<path class="st0" d="M89.1,144.3c-0.4,0-0.7-0.3-0.7-0.7v-26.3c0-0.4,0.3-0.7,0.7-0.7h17.3c0.4,0,0.7,0.3,0.7,0.7v4.3
				c0,0.4-0.3,0.7-0.7,0.7H95.6v5.5h9.8c0.4,0,0.7,0.3,0.7,0.7v4.3c0,0.4-0.3,0.7-0.7,0.7h-9.8v10c0,0.4-0.3,0.7-0.7,0.7H89.1z"/>
			<path class="st1" d="M106.4,117.4v4.3H94.9v6.9h10.5v4.3H94.9v10.7h-5.8v-26.3H106.4 M106.4,116H89.1c-0.8,0-1.4,0.6-1.4,1.4
				v26.3c0,0.8,0.6,1.4,1.4,1.4h5.8c0.8,0,1.4-0.6,1.4-1.4v-9.3h9.1c0.8,0,1.4-0.6,1.4-1.4v-4.3c0-0.8-0.6-1.4-1.4-1.4h-9.1v-4.1
				h10.1c0.8,0,1.4-0.6,1.4-1.4v-4.3C107.8,116.6,107.2,116,106.4,116L106.4,116z"/>
		</g>
		<g>
			<path class="st0" d="M117.7,144.7c-2.9,0-5.3-0.9-7.1-2.7c-1.8-1.8-2.8-4.2-2.9-7.2l0-1.1c0-2.1,0.4-3.9,1.2-5.5
				c0.8-1.6,2-2.9,3.5-3.8c1.5-0.9,3.3-1.3,5.3-1.3c3.1,0,5.6,1,7.4,2.9c1.8,1.9,2.7,4.6,2.7,7.8v0.2c0,3.2-0.9,5.8-2.7,7.7
				C123.2,143.7,120.7,144.7,117.7,144.7z M117.7,128.8c-0.7,0-2.8,0-3,4.3l0,1.1c0,1.8,0.3,3,0.8,3.8c0.5,0.8,1.3,1.1,2.3,1.1
				c0.7,0,3,0,3-4.8v-0.6C120.7,128.8,118.4,128.8,117.7,128.8z"/>
			<path class="st1" d="M117.7,123.9c2.9,0,5.2,0.9,6.8,2.7c1.7,1.8,2.5,4.3,2.5,7.3v0.2c0,3-0.8,5.4-2.5,7.2
				c-1.7,1.8-3.9,2.6-6.8,2.6c-2.7,0-5-0.8-6.6-2.5c-1.7-1.6-2.6-3.9-2.7-6.7l0-1.1c0-1.9,0.4-3.7,1.1-5.2c0.7-1.5,1.8-2.7,3.2-3.5
				C114.1,124.3,115.8,123.9,117.7,123.9 M117.7,139.9c2.4,0,3.7-1.8,3.7-5.5v-0.6c0-3.8-1.3-5.7-3.8-5.7c-2.3,0-3.5,1.7-3.7,5
				l0,1.1c0,1.9,0.3,3.3,0.9,4.3C115.5,139.4,116.4,139.9,117.7,139.9 M117.7,122.5c-2.1,0-4,0.5-5.7,1.4c-1.6,0.9-2.9,2.3-3.8,4
				c-0.8,1.7-1.3,3.7-1.3,5.8l0,1.1c0.1,3.2,1.2,5.8,3.1,7.7c1.9,1.9,4.5,2.9,7.6,2.9c3.2,0,5.9-1,7.8-3.1c1.9-2,2.9-4.8,2.9-8.2
				v-0.2c0-3.5-1-6.2-2.9-8.3C123.6,123.6,120.9,122.5,117.7,122.5L117.7,122.5z M115.3,133.1c0.2-3.6,1.7-3.6,2.3-3.6
				c0.6,0,2.4,0,2.4,4.3v0.6c-0.1,4.1-1.7,4.1-2.3,4.1c-0.8,0-1.3-0.3-1.7-0.8c-0.5-0.7-0.7-1.8-0.7-3.5L115.3,133.1L115.3,133.1z"
				/>
		</g>
		<g>
			<path class="st0" d="M117.7,140.6c-1.5,0-2.7-0.6-3.4-1.8c-0.7-1-1-2.6-1-4.6l0-1.1c0.3-4.7,2.5-5.7,4.4-5.7c2,0,4.5,1.1,4.5,6.4
				v0.6C122,139.5,119.7,140.6,117.7,140.6z M117.7,129.4c-1,0-2.2,0.4-2.4,3.7l0,1.1c0,2,0.4,3,0.7,3.5c0.4,0.6,0.9,0.8,1.7,0.8
				c0.6,0,2.3,0,2.4-4.1v-0.6C120.1,129.4,118.3,129.4,117.7,129.4z"/>
			<path class="st1" d="M117.7,128.1c2.5,0,3.8,1.9,3.8,5.7v0.6c-0.1,3.6-1.3,5.5-3.7,5.5c-1.2,0-2.2-0.5-2.8-1.4
				c-0.6-0.9-0.9-2.3-0.9-4.3l0-1.1C114.1,129.7,115.4,128.1,117.7,128.1 M117.7,139.2c2,0,3-1.6,3.1-4.8v-0.6c0-3.4-1-5-3.1-5
				c-1.9,0-2.9,1.4-3.1,4.3l0,1.1c0,1.8,0.3,3.1,0.8,3.9C115.9,138.8,116.7,139.2,117.7,139.2 M117.7,126.7c-1.8,0-4.8,0.8-5.1,6.3
				c0,0,0,0,0,0.1l0,1.1c0,2.2,0.4,3.9,1.2,5.1c0.9,1.3,2.3,2.1,4,2.1c1.9,0,5-0.9,5.1-6.8l0-0.6
				C122.8,127.6,119.6,126.7,117.7,126.7L117.7,126.7z M116,133.1c0.2-3,1.2-3,1.7-3c0.5,0,1.7,0,1.7,3.6v0.6c0,3.4-1.2,3.4-1.7,3.4
				c-0.6,0-0.9-0.2-1.1-0.5c-0.2-0.3-0.6-1.1-0.6-3.1L116,133.1L116,133.1z"/>
		</g>
		<g>
			<path class="st0" d="M136.6,144.7c-2.3,0-4.1-0.7-5.3-2c-1.2-1.3-1.8-3.3-1.8-5.7v-12.6c0-0.4,0.3-0.7,0.7-0.7h5.6
				c0.4,0,0.7,0.3,0.7,0.7V137c0,1.5,0.7,2.2,2.1,2.2c1.3,0,2.1-0.4,2.7-1.3v-13.6c0-0.4,0.3-0.7,0.7-0.7h5.6c0.4,0,0.7,0.3,0.7,0.7
				v19.3c0,0.4-0.3,0.7-0.7,0.7h-5.2c-0.4,0-0.7-0.3-0.7-0.6l-0.1-1C140.4,144,138.7,144.7,136.6,144.7z"/>
			<path class="st1" d="M147.7,124.3v19.3h-5.2l-0.2-2.7l-0.5,0.7c-1.3,1.6-2.9,2.4-5.1,2.4c-2.1,0-3.7-0.6-4.7-1.8
				c-1.1-1.2-1.6-3-1.6-5.3v-12.6h5.6V137c0,1.9,1,2.9,2.8,2.9c1.5,0,2.7-0.6,3.3-1.7l0-0.1v-13.8H147.7 M147.7,122.9h-5.6
				c-0.8,0-1.4,0.6-1.4,1.4v13.4c-0.3,0.4-0.8,0.8-2,0.8c-0.9,0-1.4-0.2-1.4-1.5v-12.7c0-0.8-0.6-1.4-1.4-1.4h-5.6
				c-0.8,0-1.4,0.6-1.4,1.4v12.6c0,2.6,0.7,4.7,2,6.2c1.3,1.5,3.3,2.3,5.8,2.3c1.7,0,3.2-0.4,4.5-1.3c0.2,0.6,0.7,1,1.3,1h5.2
				c0.8,0,1.4-0.6,1.4-1.4v-19.3C149.1,123.5,148.4,122.9,147.7,122.9L147.7,122.9z"/>
		</g>
		<g>
			<path class="st0" d="M163.4,144.3c-0.4,0-0.7-0.3-0.7-0.7v-12.3c0-0.9-0.2-1.6-0.5-2c-0.3-0.4-1-0.6-1.9-0.6
				c-1.1,0-1.8,0.4-2.3,1.2v13.7c0,0.4-0.3,0.7-0.7,0.7h-5.6c-0.4,0-0.7-0.3-0.7-0.7v-19.3c0-0.4,0.3-0.7,0.7-0.7h5.2
				c0.4,0,0.7,0.3,0.7,0.6l0.1,1.2c1.4-1.5,3.2-2.2,5.4-2.2c2.2,0,3.9,0.7,5,2c1.1,1.3,1.6,3.3,1.7,5.8v12.6c0,0.4-0.3,0.7-0.7,0.7
				H163.4z"/>
			<path class="st1" d="M163.1,123.9c2,0,3.5,0.6,4.4,1.7c1,1.2,1.5,3,1.5,5.4v12.6h-5.6v-12.3c0-1.1-0.2-1.9-0.7-2.4
				c-0.5-0.5-1.3-0.8-2.5-0.8c-1.3,0-2.3,0.5-3,1.6l0,0.1v13.9h-5.6v-19.3h5.2l0.3,2.9l0.5-0.7C158.9,124.8,160.7,123.9,163.1,123.9
				 M163.1,122.5c-1.9,0-3.5,0.5-4.9,1.5c-0.1-0.6-0.7-1.1-1.4-1.1h-5.2c-0.8,0-1.4,0.6-1.4,1.4v19.3c0,0.8,0.6,1.4,1.4,1.4h5.6
				c0.8,0,1.4-0.6,1.4-1.4v-13.5c0.4-0.5,0.9-0.7,1.6-0.7c0.8,0,1.3,0.2,1.4,0.3c0.1,0.2,0.4,0.6,0.4,1.5v12.3
				c0,0.8,0.6,1.4,1.4,1.4h5.6c0.8,0,1.4-0.6,1.4-1.4v-12.6c0-2.8-0.7-4.9-1.8-6.3C167.3,123.3,165.5,122.5,163.1,122.5L163.1,122.5
				z"/>
		</g>
		<g>
			<path class="st0" d="M179.7,144.7c-2.5,0-4.5-0.9-6-2.9c-1.4-1.9-2.2-4.6-2.2-8c0-3.2,0.7-5.8,2.1-7.7c1.5-1.9,3.4-2.9,6-2.9
				c1.6,0,3,0.5,4.1,1.6v-8.9c0-0.4,0.3-0.7,0.7-0.7h5.6c0.4,0,0.7,0.3,0.7,0.7v27.7c0,0.4-0.3,0.7-0.7,0.7h-5
				c-0.3,0-0.6-0.3-0.7-0.6l-0.2-1C183.1,144,181.6,144.7,179.7,144.7z M181.4,128.8c-0.6,0-2.5,0-2.8,4.3l0,1.1
				c0,4.9,2.1,4.9,2.7,4.9c1.2,0,2-0.5,2.6-1.4l0-7.5C183.4,129.3,182.6,128.8,181.4,128.8z"/>
			<path class="st1" d="M190.2,115.9v27.7h-5l-0.4-2.6l-0.5,0.6c-1.2,1.6-2.7,2.4-4.6,2.4c-2.3,0-4.1-0.9-5.4-2.6
				c-1.3-1.8-2-4.3-2-7.6c0-3.1,0.7-5.5,2-7.3c1.3-1.8,3.1-2.6,5.5-2.6c1.7,0,3.1,0.7,4.3,2l0.6,0.7v-10.7H190.2 M181.3,139.9
				c1.5,0,2.6-0.6,3.3-1.9l0-7.8l0-0.1c-0.6-1.3-1.7-2-3.2-2c-2.1,0-3.3,1.7-3.5,5l0,1.2C177.9,138,179,139.9,181.3,139.9
				 M190.2,114.5h-5.6c-0.8,0-1.4,0.6-1.4,1.4v7.5c-1-0.6-2.2-0.9-3.4-0.9c-2.8,0-5,1.1-6.6,3.2c-1.5,2-2.3,4.7-2.3,8.1
				c0,3.6,0.8,6.4,2.3,8.4c1.6,2.1,3.8,3.2,6.5,3.2c1.6,0,3-0.5,4.1-1.3c0.2,0.6,0.7,1,1.3,1h5c0.8,0,1.4-0.6,1.4-1.4v-27.7
				C191.6,115.1,191,114.5,190.2,114.5L190.2,114.5z M181.3,138.5c-0.5,0-2,0-2-4.3l0-1.1c0.2-3.6,1.5-3.6,2.1-3.6
				c0.9,0,1.5,0.3,1.9,1l0,7.1C182.8,138.2,182.2,138.5,181.3,138.5L181.3,138.5z"/>
		</g>
		<g>
			<path class="st0" d="M181.3,140.6c-1.9,0-4.1-1.1-4.1-6.4l0-1.2c0.2-4.7,2.4-5.7,4.2-5.7c1.8,0,3.1,0.8,3.9,2.4
				c0,0,0,0.1,0.1,0.1l0,0.1c0,0.1,0,0.1,0,0.2l0,7.8c0,0.1,0,0.2-0.1,0.3C184.4,139.8,183.1,140.6,181.3,140.6z M181.4,129.4
				c-0.5,0-1.9,0-2.1,3.7l0,1.1c0,4.3,1.5,4.3,2.1,4.3c0.9,0,1.5-0.3,1.9-1v-7.1C182.8,129.7,182.3,129.4,181.4,129.4z"/>
			<path class="st1" d="M181.4,128.1c1.5,0,2.6,0.7,3.2,2l0,0.1l0,7.8c-0.6,1.3-1.7,1.9-3.3,1.9c-2.3,0-3.4-1.9-3.4-5.7l0-1.2
				C178.1,129.7,179.2,128.1,181.4,128.1 M181.3,139.2c1.2,0,2.1-0.5,2.6-1.5v-7.5c-0.5-1-1.4-1.5-2.6-1.5c-1.7,0-2.6,1.4-2.8,4.3
				l0,1.1C178.5,137.6,179.5,139.2,181.3,139.2 M181.4,126.7c-1.7,0-4.6,0.8-4.9,6.3c0,0,0,0,0,0l0,1.2c0,6.2,3,7.1,4.8,7.1
				c2,0,3.6-0.9,4.5-2.7c0.1-0.2,0.2-0.4,0.2-0.6l0-7.8c0-0.1,0-0.2,0-0.3l0-0.1c0-0.1-0.1-0.2-0.1-0.3
				C185,127.7,183.4,126.7,181.4,126.7L181.4,126.7z M181.3,137.8c-0.3,0-1.4,0-1.4-3.6l0-1.1c0.2-3,1.1-3,1.4-3
				c0.6,0,1,0.2,1.2,0.5v6.7C182.3,137.6,182,137.8,181.3,137.8L181.3,137.8z"/>
		</g>
	</g>
	<g>
		<polygon class="st2" points="18.8,117.4 18.8,143.6 24.7,143.6 24.7,126 34.7,143.6 40.7,143.6 40.7,117.4 34.8,117.4 34.8,135 
			24.8,117.4 		"/>
		<path class="st2" d="M53.7,123.9c-1.9,0-3.6,0.4-5,1.2c-1.4,0.8-2.5,2-3.2,3.5c-0.7,1.5-1.1,3.2-1.1,5.2l0,1.1
			c0.1,2.8,1,5.1,2.7,6.7c1.7,1.6,3.9,2.5,6.6,2.5c2.8,0,5.1-0.9,6.8-2.6c1.7-1.8,2.5-4.2,2.5-7.2v-0.2c0-3.1-0.8-5.6-2.5-7.3
			C58.8,124.8,56.5,123.9,53.7,123.9z M57.4,134.4c-0.1,3.6-1.3,5.5-3.7,5.5c-1.2,0-2.2-0.5-2.8-1.4c-0.6-0.9-0.9-2.3-0.9-4.3l0-1.1
			c0.2-3.3,1.4-5,3.7-5c2.5,0,3.8,1.9,3.8,5.7V134.4z"/>
		<path class="st2" d="M53.7,128.1c-2.3,0-3.5,1.7-3.7,5l0,1.1c0,1.9,0.3,3.3,0.9,4.3c0.6,1,1.6,1.4,2.8,1.4c2.4,0,3.7-1.8,3.7-5.5
			v-0.6C57.4,130,56.2,128.1,53.7,128.1z M56.8,134.4c0,3.2-1.1,4.8-3.1,4.8c-1,0-1.8-0.4-2.3-1.1c-0.5-0.8-0.8-2.1-0.8-3.9l0-1.1
			c0.2-2.9,1.2-4.3,3.1-4.3c2.1,0,3.1,1.7,3.1,5V134.4z"/>
		<path class="st2" d="M73.5,139.2c-0.3-0.4-0.5-0.9-0.5-1.8V128h3.3v-3.7H73v-5h-5.6v5h-2.6v3.7h2.6v10.3c0,2,0.5,3.4,1.4,4.4
			c1,0.9,2.5,1.4,4.5,1.4c1.1,0,2.2-0.2,3.2-0.5v-3.8c-0.4,0-0.8,0.1-1.2,0.1C74.4,139.8,73.8,139.6,73.5,139.2z"/>
		<polygon class="st2" points="94.9,132.9 105.4,132.9 105.4,128.6 94.9,128.6 94.9,121.7 106.4,121.7 106.4,117.4 89.1,117.4 
			89.1,143.6 94.9,143.6 		"/>
		<path class="st2" d="M117.7,123.9c-1.9,0-3.6,0.4-5,1.2c-1.4,0.8-2.5,2-3.2,3.5c-0.7,1.5-1.1,3.2-1.1,5.2l0,1.1
			c0.1,2.8,1,5.1,2.7,6.7c1.7,1.6,3.9,2.5,6.6,2.5c2.8,0,5.1-0.9,6.8-2.6c1.7-1.8,2.5-4.2,2.5-7.2v-0.2c0-3.1-0.8-5.6-2.5-7.3
			C122.8,124.8,120.5,123.9,117.7,123.9z M121.4,134.4c-0.1,3.6-1.3,5.5-3.7,5.5c-1.2,0-2.2-0.5-2.8-1.4c-0.6-0.9-0.9-2.3-0.9-4.3
			l0-1.1c0.2-3.3,1.4-5,3.7-5c2.5,0,3.8,1.9,3.8,5.7V134.4z"/>
		<path class="st2" d="M117.7,128.1c-2.3,0-3.5,1.7-3.7,5l0,1.1c0,1.9,0.3,3.3,0.9,4.3c0.6,1,1.6,1.4,2.8,1.4c2.4,0,3.7-1.8,3.7-5.5
			v-0.6C121.4,130,120.2,128.1,117.7,128.1z M120.8,134.4c0,3.2-1.1,4.8-3.1,4.8c-1,0-1.8-0.4-2.3-1.1c-0.5-0.8-0.8-2.1-0.8-3.9
			l0-1.1c0.2-2.9,1.2-4.3,3.1-4.3c2.1,0,3.1,1.7,3.1,5V134.4z"/>
		<path class="st2" d="M138.7,139.9c-1.8,0-2.8-1-2.8-2.9v-12.7h-5.6v12.6c0,2.3,0.5,4.1,1.6,5.3c1.1,1.2,2.7,1.8,4.7,1.8
			c2.2,0,3.8-0.8,5.1-2.4l0.5-0.7l0.2,2.7h5.2v-19.3h-5.6v13.8l0,0.1C141.4,139.3,140.2,139.9,138.7,139.9z"/>
		<path class="st2" d="M163.1,123.9c-2.3,0-4.1,0.8-5.4,2.6l-0.5,0.7l-0.3-2.9h-5.2v19.3h5.6v-13.9l0-0.1c0.7-1.1,1.7-1.6,3-1.6
			c1.2,0,2,0.3,2.5,0.8c0.5,0.5,0.7,1.4,0.7,2.4v12.3h5.6v-12.6c0-2.4-0.5-4.2-1.5-5.4C166.5,124.5,165,123.9,163.1,123.9z"/>
		<path class="st2" d="M179.8,123.9c-2.4,0-4.2,0.9-5.5,2.6c-1.3,1.8-2,4.2-2,7.3c0,3.3,0.7,5.8,2,7.6c1.3,1.8,3.1,2.6,5.4,2.6
			c1.9,0,3.4-0.8,4.6-2.4l0.5-0.6l0.4,2.6h5v-27.7h-5.6v10.7l-0.6-0.7C182.9,124.6,181.5,123.9,179.8,123.9z M184.6,130.2l0,7.8
			c-0.6,1.3-1.7,1.9-3.3,1.9c-2.3,0-3.4-1.9-3.4-5.7l0-1.2c0.2-3.3,1.3-5,3.5-5c1.5,0,2.6,0.7,3.2,2L184.6,130.2z"/>
		<path class="st2" d="M181.4,128.1c-2.1,0-3.3,1.7-3.5,5l0,1.2c0,3.8,1.2,5.7,3.4,5.7c1.5,0,2.6-0.6,3.3-1.9l0-7.8l0-0.1
			C183.9,128.7,182.9,128.1,181.4,128.1z M183.9,137.7c-0.5,1-1.4,1.5-2.6,1.5c-1.9,0-2.8-1.6-2.8-5l0-1.1c0.1-2.9,1.1-4.3,2.8-4.3
			c1.2,0,2.1,0.5,2.6,1.5V137.7z"/>
	</g>
</g>
</svg>
