<?xml version="1.0" encoding="utf-8"?>
<!-- Generator: Adobe Illustrator 23.0.1, SVG Export Plug-In . SVG Version: 6.00 Build 0)  -->
<svg version="1.1" id="Layer_1" xmlns="http://www.w3.org/2000/svg" xmlns:xlink="http://www.w3.org/1999/xlink" x="0px" y="0px"
	 viewBox="0 0 30 30.1" style="enable-background:new 0 0 30 30.1;" xml:space="preserve">
<style type="text/css">
	.st0{fill-rule:evenodd;clip-rule:evenodd;fill:#77787B;}
</style>
<path class="st0" d="M15,0.3C6.8,0.3,0.2,7,0.2,15.2c0,6.6,4.3,12.1,10.2,14.1c0.7,0.1,1-0.3,1-0.7c0-0.4,0-1.3,0-2.5
	c-4.1,0.9-5-2-5-2c-0.7-1.7-1.7-2.2-1.7-2.2C3.3,21,4.8,21,4.8,21C6.3,21.1,7,22.5,7,22.5c1.3,2.3,3.5,1.6,4.3,1.2
	c0.1-1,0.5-1.6,0.9-2c-3.3-0.4-6.8-1.7-6.8-7.4c0-1.6,0.6-3,1.5-4C6.9,10,6.4,8.5,7.2,6.5c0,0,1.2-0.4,4.1,1.5
	c1.2-0.3,2.5-0.5,3.7-0.5c1.3,0,2.5,0.2,3.7,0.5c2.8-1.9,4.1-1.5,4.1-1.5c0.8,2,0.3,3.6,0.1,3.9c1,1,1.5,2.4,1.5,4
	c0,5.7-3.5,7-6.8,7.3c0.5,0.5,1,1.4,1,2.8c0,2,0,3.6,0,4.1c0,0.4,0.3,0.9,1,0.7c5.9-2,10.2-7.5,10.2-14.1C29.9,7,23.2,0.3,15,0.3z"
	/>
</svg>
