<?xml version="1.0" encoding="utf-8"?>
<!-- Generator: Adobe Illustrator 23.0.1, SVG Export Plug-In . SVG Version: 6.00 Build 0)  -->
<svg version="1.1" id="Layer_1" xmlns="http://www.w3.org/2000/svg" xmlns:xlink="http://www.w3.org/1999/xlink" x="0px" y="0px"
	 viewBox="0 0 30 30.1" style="enable-background:new 0 0 30 30.1;" xml:space="preserve">
<style type="text/css">
	.st0{fill:#77787B;}
	.st1{clip-path:url(#SVGID_2_);fill:#FFFFFF;}
	.st2{clip-path:url(#SVGID_2_);}
	.st3{fill:#005E93;}
	.st4{clip-path:url(#SVGID_4_);fill:#FFFFFF;}
	.st5{clip-path:url(#SVGID_4_);}
</style>
<circle class="st0" cx="15" cy="15.1" r="14.9"/>
<g>
	<defs>
		<circle id="SVGID_1_" cx="15" cy="15.1" r="14.9"/>
	</defs>
	<clipPath id="SVGID_2_">
		<use xlink:href="#SVGID_1_"  style="overflow:visible;"/>
	</clipPath>
	<rect x="6.4" y="5.4" class="st1" width="18.1" height="19.7"/>
	<g class="st2">
		<g>
			<path class="st0" d="M24.7,2.7H5.4c-0.9,0-1.7,0.7-1.7,1.6v19.4c0,0.9,0.8,1.6,1.7,1.6h19.3c0.9,0,1.7-0.7,1.7-1.6V4.4
				C26.4,3.5,25.6,2.7,24.7,2.7z M10.4,22.1H7.1V11.3h3.4V22.1z M8.7,9.8c-1.1,0-2-0.9-2-2c0-1.1,0.9-2,2-2c1.1,0,1.9,0.9,1.9,2
				C10.7,8.9,9.8,9.8,8.7,9.8z M23,22.1h-3.4v-5.3c0-1.3,0-2.9-1.7-2.9c-1.8,0-2,1.4-2,2.8v5.4h-3.4V11.3h3.2v1.5h0
				c0.4-0.9,1.5-1.7,3.2-1.7c3.4,0,4,2.2,4,5.2V22.1z"/>
		</g>
	</g>
</g>
<circle class="st3" cx="15" cy="15.1" r="14.9"/>
<g>
	<defs>
		<circle id="SVGID_3_" cx="15" cy="15.1" r="14.9"/>
	</defs>
	<clipPath id="SVGID_4_">
		<use xlink:href="#SVGID_3_"  style="overflow:visible;"/>
	</clipPath>
	<rect x="6.4" y="5.4" class="st4" width="18.1" height="19.7"/>
	<g class="st5">
		<g>
			<path class="st3" d="M24.7,2.7H5.4c-0.9,0-1.7,0.7-1.7,1.6v19.4c0,0.9,0.8,1.6,1.7,1.6h19.3c0.9,0,1.7-0.7,1.7-1.6V4.4
				C26.4,3.5,25.6,2.7,24.7,2.7z M10.4,22.1H7.1V11.3h3.4V22.1z M8.7,9.8c-1.1,0-2-0.9-2-2c0-1.1,0.9-2,2-2c1.1,0,1.9,0.9,1.9,2
				C10.7,8.9,9.8,9.8,8.7,9.8z M23,22.1h-3.4v-5.3c0-1.3,0-2.9-1.7-2.9c-1.8,0-2,1.4-2,2.8v5.4h-3.4V11.3h3.2v1.5h0
				c0.4-0.9,1.5-1.7,3.2-1.7c3.4,0,4,2.2,4,5.2V22.1z"/>
		</g>
	</g>
</g>
</svg>
