<?xml version="1.0" encoding="utf-8"?>
<!-- Generator: Adobe Illustrator 23.0.1, SVG Export Plug-In . SVG Version: 6.00 Build 0)  -->
<svg version="1.1" id="Layer_1" xmlns="http://www.w3.org/2000/svg" xmlns:xlink="http://www.w3.org/1999/xlink" x="0px" y="0px"
	 viewBox="0 0 405.8 93.2" style="enable-background:new 0 0 405.8 93.2;" xml:space="preserve">
<style type="text/css">
	.st0{fill:none;stroke:#000000;stroke-width:4;stroke-linecap:round;stroke-linejoin:round;stroke-miterlimit:10;}
</style>
<g>
	<path class="st0" d="M32,80.5v1.1c0,3.1,2.5,5.7,5.7,5.7h10.4c3.1,0,5.7-2.5,5.7-5.7V62.3c0-0.9,0.2-1.8,0.6-2.6l5.9-11.5"/>
	<line class="st0" x1="32" y1="74.3" x2="32" y2="74.9"/>
	<path class="st0" d="M63.4,42.2L76.9,16c1.9-3.8-0.8-8.3-5-8.3H61.2c-2.3,0-4.3,1.4-5.2,3.5L44.8,37.5c-0.7,1.7-3.1,1.7-3.9,0
		L30.1,11.2c-0.9-2.1-2.9-3.5-5.2-3.5H14.3c-4.2,0-7,4.5-5,8.2l22.2,43.5c0.4,0.8,0.6,1.7,0.6,2.6v6.5"/>
	<path class="st0" d="M88.7,19.4c-3.4,3.7-6.1,8-8,12.8c-1.9,4.9-2.9,9.9-2.9,15.1c0,5.2,0.9,10.2,2.7,15c1.8,4.9,4.4,9.2,7.7,12.9
		c3.3,3.8,7.3,6.8,12,9.1c4.7,2.3,9.8,3.5,15.5,3.5c5.6,0,10.8-1.1,15.5-3.4c4.7-2.2,8.7-5.2,12.1-8.9s6-8,7.9-12.8
		c1.9-4.8,2.9-9.8,2.9-15.1c0-5.1-0.9-10-2.7-14.9c-1.8-4.9-4.4-9.2-7.7-13c-3.3-3.8-7.3-6.9-12-9.2c-4.7-2.3-9.8-3.5-15.5-3.5
		c-5.6,0-10.7,1.1-15.4,3.3c-2.5,1.2-4.8,2.6-6.9,4.2 M130.8,55.7c-0.1,0.5-0.3,0.9-0.4,1.4 M127.5,62.7c-1.2,1.6-2.6,3-4.3,4
		c-2,1.2-4.4,1.8-7.2,1.8c-2.7,0-5-0.6-7.1-1.8c-2-1.2-3.7-2.8-5-4.7c-1.3-1.9-2.3-4.2-3-6.7c-0.6-2.5-1-5.1-1-7.8
		c0-2.6,0.3-5.2,1-7.7c0.6-2.5,1.6-4.7,2.9-6.7c1.3-2,2.9-3.6,4.9-4.8c2-1.2,4.3-1.8,7.1-1.8c2.7,0,5,0.6,7.1,1.7
		c2,1.2,3.7,2.7,5,4.6c1.3,1.9,2.3,4.1,3,6.6c0.7,2.5,1,5.1,1,7.8c0,0.7,0,1.5-0.1,2.2"/>
	<path class="st0" d="M233.9,53.1c0.1-1.5,0.2-2.9,0.2-4.4V13.4c0-3.1-2.5-5.7-5.7-5.7h-10.5c-3.1,0-5.7,2.5-5.7,5.7v20"/>
	<path class="st0" d="M178.5,82.9c1.1,0.7,2.2,1.3,3.3,1.8c4.5,2.1,10,3.2,16.3,3.2c6.1,0,11.4-1,16-3c4.5-2,8.3-4.8,11.3-8.3
		c3-3.5,5.2-7.7,6.6-12.5c0.4-1.3,0.7-2.7,1-4.1"/>
	<path class="st0" d="M212.3,46.6v2c0,2.6-0.3,5.1-0.8,7.5c-0.5,2.4-1.3,4.5-2.5,6.3c-1.1,1.8-2.6,3.3-4.4,4.4s-4,1.7-6.5,1.7
		c-2.5,0-4.7-0.5-6.4-1.6c-1.8-1.1-3.2-2.5-4.3-4.4c-1.1-1.8-1.9-4-2.5-6.4c-0.5-2.4-0.8-4.9-0.8-7.6V13.4c0-3.1-2.5-5.7-5.7-5.7
		H168c-3.1,0-5.7,2.5-5.7,5.7v35.2c0,5.3,0.7,10.3,2,15.1c1.3,4.7,3.5,8.9,6.4,12.5c0.7,0.8,1.4,1.6,2.1,2.3"/>
	<line class="st0" x1="212.3" y1="39.9" x2="212.3" y2="40.5"/>
	<path class="st0" d="M246.5,38.5v43.1c0,3.1,2.5,5.7,5.7,5.7h10.5c3.1,0,5.7-2.5,5.7-5.7V54.1c0-2,2.5-2.8,3.7-1.3l26.2,32.4
		c1.1,1.3,2.7,2.1,4.4,2.1h9c3.1,0,5.7-2.5,5.7-5.7v-9.4"/>
	<line class="st0" x1="246.5" y1="31.8" x2="246.5" y2="32.3"/>
	<path class="st0" d="M277,24.8L265.3,9.9c-1.1-1.4-2.7-2.2-4.4-2.2h-8.6c-3.1,0-5.7,2.5-5.7,5.7v11.8"/>
	<path class="st0" d="M317.3,65V13.4c0-3.1-2.5-5.7-5.7-5.7h-10.5c-3.1,0-5.7,2.5-5.7,5.7v28.7c0,2-2.5,2.9-3.7,1.3l-10.2-12.9"/>
	<path class="st0" d="M332.2,26.1c-0.9,1.6-1.8,3.3-2.5,5.1c-2,4.8-3,10-3,15.6c0,5.5,1,10.8,2.9,15.7c1.9,5,4.6,9.3,7.9,13.1
		c3.3,3.7,7.2,6.7,11.6,8.9c4.4,2.2,9.1,3.3,14,3.3c5.2,0,9.8-1.5,14-4.4c1.4-1,3.3,0,3.3,1.7v0c0,1.2,0.9,2.1,2.1,2.1h10.3
		c3.1,0,5.7-2.5,5.7-5.7V68.2"/>
	<path class="st0" d="M349,44.8c0.2-2,0.5-3.9,1-5.6c0.8-2.6,1.9-4.8,3.2-6.7c1.4-1.9,3-3.3,4.9-4.4c1.9-1,4-1.6,6.2-1.6
		c3.1,0,6,1,8.7,2.9c1.2,0.8,2.3,1.8,3.2,2.9c2,2.3,5.3,2.8,7.8,0.9l7.3-5.6c2.5-1.9,3-5.4,1.1-7.9c-0.7-0.9-1.4-1.7-2.1-2.5
		c-2.1-2.1-4.4-4-7-5.5c-2.6-1.5-5.5-2.7-8.5-3.5c-3.1-0.8-6.3-1.2-9.6-1.2c-5.4,0-10.4,1-15.1,3.1c-4.7,2.1-8.8,4.9-12.3,8.4
		c-0.5,0.5-1,1.1-1.5,1.7"/>
	<path class="st0" d="M398.5,54.6v-4c0-3.1-2.5-5.7-5.7-5.7h-21.4c-3.1,0-5.7,2.5-5.7,5.7v4.3c0,3.1,2.5,5.7,5.7,5.7h3.2
		c2,0,2.9,2.5,1.3,3.7c-1,0.8-2.1,1.5-3.2,2.1c-2.5,1.3-5.1,2-7.8,2c-2.4,0-4.6-0.5-6.6-1.5c-2-1-3.7-2.4-5.1-4.3
		c-1.4-1.8-2.5-4-3.3-6.6c-0.4-1.4-0.7-2.9-0.9-4.5"/>
	<line class="st0" x1="398.5" y1="61.4" x2="398.5" y2="61.3"/>
</g>
</svg>
