<?xml version="1.0" encoding="utf-8"?>
<!-- Generator: Adobe Illustrator 23.0.2, SVG Export Plug-In . SVG Version: 6.00 Build 0)  -->
<svg version="1.1" id="Layer_1" xmlns="http://www.w3.org/2000/svg" xmlns:xlink="http://www.w3.org/1999/xlink" x="0px" y="0px"
	 viewBox="0 0 744.5 171" style="enable-background:new 0 0 744.5 171;" xml:space="preserve">
<style type="text/css">
	.st0{fill:#00E1FF;}
	.st1{fill:#2240AC;}
</style>
<g>
	
		<image style="overflow:visible;opacity:0.75;" width="821" height="273" xlink:href="41CE6CF2D93C812D.png"  transform="matrix(1 0 0 1 -34.2517 -52.8)">
	</image>
	<g>
		<g>
			<g>
				<path class="st0" d="M72.2,118.4c-2.2,0-4-1.8-4-4v-5.2c0-0.9-0.2-1.9-0.7-2.7L28.2,29.3c-2.5-4.9-2-10.6,1.4-15
					c2.6-3.5,6.9-5.5,11.5-5.5l18.5,0c5.7,0,10.8,3.4,13,8.7l19,45.8l19.4-45.9c2.2-5.2,7.3-8.6,13-8.6h19c5.5,0,10.3,3.1,12.7,8
					c1.9,3.9,1.8,8.7-0.3,12.8l-23.2,45c-0.7,1.4-2.1,2.2-3.6,2.2c-1.4,0-2.7-0.7-3.5-1.9c-0.7-1.2-0.8-2.7-0.1-4l23.4-45.3
					c1.1-2,0.9-4.5-0.5-6.3c-1.1-1.5-3-2.4-5.1-2.4h-18.7c-2.4,0-4.6,1.4-5.5,3.7L98.6,67.2c-1.2,2.9-4,4.7-7.1,4.7l-0.2,0
					c-3.1-0.1-5.8-2-7-4.8L65,20.6c-0.9-2.3-3.1-3.7-5.5-3.7H40.7c-2.3,0-4.2,1.1-5.3,3.2c-0.9,1.7-0.9,3.9,0,5.8l38.7,75.9
					c1.4,2.7,2.1,5.7,2.1,8.7v4C76.2,116.6,74.4,118.4,72.2,118.4z"/>
				<path class="st1" d="M41,9.3l18.5,0c5.5,0,10.4,3.3,12.6,8.4l19.3,46.6c0,0.1,0,0.1,0.1,0.1h0c0.1,0,0.1,0,0.1-0.1l19.8-46.7
					c2.1-5,7-8.3,12.5-8.3h19c5.2,0,9.9,2.9,12.3,7.7c1.9,3.9,1.7,8.5-0.3,12.3l-23.2,45c-0.6,1.2-1.8,1.9-3.2,1.9
					c-2.7,0-4.4-2.8-3.2-5.2l23.4-45.3c1.1-2.2,0.9-4.8-0.6-6.9c-1.3-1.7-3.3-2.6-5.5-2.6l-18.7,0c-2.6,0-5,1.6-6,4L98.1,67
					c-1.1,2.7-3.8,4.4-6.7,4.4c-0.1,0-0.1,0-0.2,0c-2.9-0.1-5.4-1.8-6.5-4.5L65.5,20.4c-1-2.4-3.4-4-6-4H40.7
					c-2.4,0-4.5,1.3-5.7,3.4c-1.1,1.9-1,4.3,0,6.2l38.7,75.9c1.3,2.6,2,5.5,2,8.4v4c0,2-1.6,3.5-3.5,3.5c-2,0-3.5-1.6-3.5-3.5v-5.2
					c0-1-0.2-2-0.7-2.9L28.6,29c-2.4-4.7-1.9-10.2,1.3-14.4C32.5,11.2,36.7,9.3,41,9.3 M41,8.3c-4.7,0-9.2,2.1-11.9,5.7
					c-3.4,4.5-4,10.5-1.4,15.5L67,106.6c0.4,0.8,0.6,1.6,0.6,2.5v5.2c0,2.5,2,4.5,4.5,4.5c2.5,0,4.5-2,4.5-4.5v-4
					c0-3.1-0.7-6.2-2.1-8.9L35.9,25.5c-0.9-1.7-0.9-3.7,0-5.3c1-1.8,2.8-2.9,4.8-2.9h18.8c2.2,0,4.2,1.3,5.1,3.4l19.3,46.6
					c1.2,3,4.1,5,7.4,5.1c0.1,0,0.2,0,0.2,0c3.3,0,6.3-2,7.6-5l19.8-46.7c0.9-2,2.9-3.4,5.1-3.4l18.7,0c1.9,0,3.6,0.8,4.7,2.2
					c1.3,1.7,1.4,3.9,0.5,5.8l-23.4,45.3c-0.7,1.4-0.7,3.1,0.2,4.4c0.8,1.4,2.3,2.2,3.9,2.2c1.7,0,3.3-0.9,4-2.5l23.2-45
					c2.2-4.2,2.3-9.2,0.3-13.2c-2.5-5.1-7.5-8.3-13.2-8.3h-19c-5.9,0-11.1,3.5-13.4,8.9L91.5,62L73,17.3c-2.3-5.5-7.6-9-13.5-9
					L41,8.3L41,8.3z"/>
			</g>
			<g>
				<path class="st0" d="M72.2,134c-2.2,0-4-1.8-4-4v-0.2c0-2.2,1.8-4,4-4c2.2,0,4,1.8,4,4v0.2C76.2,132.1,74.4,134,72.2,134z"/>
				<path class="st1" d="M72.2,126.2c2,0,3.5,1.6,3.5,3.5v0.2c0,2-1.6,3.5-3.5,3.5c-2,0-3.5-1.6-3.5-3.5v-0.2
					C68.6,127.8,70.2,126.2,72.2,126.2 M72.2,125.2c-2.5,0-4.5,2-4.5,4.5v0.2c0,2.5,2,4.5,4.5,4.5c2.5,0,4.5-2,4.5-4.5v-0.2
					C76.7,127.2,74.7,125.2,72.2,125.2L72.2,125.2z"/>
			</g>
			<g>
				<path class="st0" d="M220.7,159c-10.6,0-20.5-2.2-29.3-6.6c-8.7-4.3-16.3-10.1-22.5-17.1c-6.2-7-11-15.1-14.4-24.2
					c-3.4-9-5.1-18.4-5.1-28c0-9.7,1.8-19.2,5.3-28.3c3.5-9,8.6-17.1,15-24l0.2-0.2l0.1-0.1c0.2-0.2,0.3-0.3,0.5-0.4
					c0.7-0.5,1.5-0.8,2.4-0.8c2.2,0,4,1.8,4,4c0,1.1-0.5,2.2-1.3,3c-5.7,6.1-10.2,13.3-13.3,21.4c-3.2,8.1-4.8,16.6-4.8,25.3
					c0,8.6,1.5,17.1,4.6,25.2c3.1,8.1,7.4,15.4,12.9,21.7c5.5,6.3,12.2,11.4,20,15.2c7.7,3.8,16.3,5.7,25.7,5.7
					c9.3,0,17.9-1.9,25.7-5.6c7.8-3.7,14.6-8.7,20.2-14.9c5.6-6.2,10-13.4,13.2-21.4c3.2-8,4.8-16.5,4.8-25.2c0-8.5-1.5-16.9-4.5-25
					c-3-8.1-7.3-15.4-12.9-21.8c-5.5-6.3-12.2-11.5-20-15.3c-7.7-3.8-16.3-5.7-25.7-5.7c-9.3,0-17.9,1.8-25.6,5.5
					c-3.4,1.6-6.7,3.5-9.8,5.7c-0.7,0.5-1.5,0.7-2.3,0.7c-1.1,0-2.2-0.5-3-1.3c-0.8-0.9-1.2-2-1.1-3.2c0.1-1.2,0.8-2.2,1.7-2.9
					c3.5-2.4,7.2-4.6,11-6.4c8.8-4.1,18.5-6.2,29-6.2c10.6,0,20.5,2.2,29.3,6.6c8.7,4.3,16.3,10.1,22.5,17.2
					c6.2,7.1,11,15.3,14.3,24.3c3.3,9,5,18.4,5,27.8c0,9.7-1.8,19.2-5.3,28.2c-3.5,9-8.5,17-14.8,23.9c-6.3,6.9-13.9,12.5-22.7,16.7
					C241,156.9,231.2,159,220.7,159z"/>
				<path class="st1" d="M221.5,8.5c10.6,0,20.3,2.2,29.1,6.5c8.7,4.3,16.2,10.1,22.3,17.1c6.1,7,10.9,15.2,14.3,24.1
					c3.3,9,5,18.3,5,27.6c0,9.7-1.8,19.1-5.3,28c-3.5,8.9-8.5,16.9-14.7,23.7c-6.2,6.9-13.8,12.4-22.5,16.6
					c-8.8,4.2-18.5,6.3-28.9,6.3c-10.6,0-20.4-2.2-29.1-6.5c-8.7-4.3-16.2-10-22.3-17c-6.1-7-11-15.1-14.4-24
					c-3.4-9-5.1-18.3-5.1-27.9c0-9.7,1.8-19.1,5.3-28.1c3.5-9,8.5-17,14.9-23.9c0.1-0.1,0.1-0.1,0.2-0.2c0,0,0.1-0.1,0.1-0.1
					c0,0,0,0,0,0c0.1-0.1,0.2-0.2,0.4-0.3c0.6-0.5,1.3-0.7,2.1-0.7c2,0,3.5,1.6,3.5,3.5c0,1-0.4,1.9-1.1,2.6
					c-5.7,6.2-10.3,13.5-13.5,21.6c-3.2,8.2-4.8,16.7-4.8,25.5c0,8.7,1.6,17.2,4.6,25.4c3.1,8.2,7.5,15.5,13,21.8
					c5.6,6.3,12.3,11.5,20.2,15.3c7.7,3.8,16.5,5.8,25.9,5.8c9.3,0,18.1-1.9,25.9-5.6c7.9-3.8,14.7-8.8,20.3-15
					c5.6-6.2,10.1-13.5,13.3-21.6c3.2-8.1,4.8-16.6,4.8-25.4c0-8.5-1.5-17-4.5-25.2c-3-8.2-7.4-15.5-12.9-21.9
					c-5.6-6.4-12.3-11.6-20.1-15.4c-7.7-3.8-16.5-5.8-25.9-5.8c-9.4,0-18,1.9-25.8,5.5c-3.5,1.7-6.8,3.6-9.9,5.7
					c-0.6,0.4-1.3,0.7-2.1,0.7c-1,0-1.9-0.4-2.6-1.1c-1.5-1.6-1.2-4.1,0.6-5.3c3.4-2.4,7.1-4.5,10.9-6.3
					C201.4,10.6,211.1,8.5,221.5,8.5 M221.5,7.5c-10.6,0-20.4,2.1-29.2,6.3c-3.9,1.8-7.6,4-11.1,6.4c-1.1,0.8-1.8,2-1.9,3.3
					c-0.1,1.3,0.3,2.6,1.2,3.6c0.9,0.9,2.1,1.4,3.3,1.4c0.9,0,1.9-0.3,2.6-0.8c3.1-2.2,6.4-4.1,9.8-5.7c7.6-3.6,16.2-5.4,25.4-5.4
					c9.3,0,17.9,1.9,25.5,5.7c7.7,3.8,14.4,8.9,19.8,15.2c5.5,6.3,9.8,13.6,12.8,21.6c3,8.1,4.5,16.4,4.5,24.8
					c0,8.6-1.6,17.1-4.7,25c-3.2,8-7.6,15.1-13.1,21.2c-5.5,6.1-12.3,11-20,14.7c-7.7,3.7-16.2,5.5-25.4,5.5
					c-9.3,0-17.9-1.9-25.5-5.7c-7.7-3.8-14.4-8.9-19.9-15.1c-5.5-6.2-9.8-13.5-12.9-21.5c-3-8-4.6-16.5-4.6-25
					c0-8.6,1.6-17.1,4.7-25.1c3.1-8,7.6-15.2,13.2-21.3c0.9-0.9,1.4-2,1.4-3.3c0-2.5-2-4.5-4.5-4.5c-1,0-1.9,0.3-2.7,0.9
					c-0.2,0.1-0.3,0.2-0.4,0.4l0,0l0,0c-0.1,0-0.1,0.1-0.2,0.1l-0.2,0.2c-6.4,6.9-11.5,15.1-15.1,24.2c-3.6,9.1-5.4,18.7-5.4,28.5
					c0,9.6,1.7,19.1,5.2,28.2c3.4,9.1,8.3,17.3,14.5,24.3c6.3,7.1,13.9,12.9,22.6,17.2c8.9,4.4,18.8,6.6,29.5,6.6
					c10.6,0,20.4-2.2,29.4-6.4c8.8-4.2,16.5-9.9,22.8-16.8c6.3-6.9,11.3-15,14.9-24c3.6-9,5.4-18.6,5.4-28.4c0-9.5-1.7-18.9-5-28
					c-3.4-9.1-8.2-17.3-14.4-24.4c-6.3-7.2-13.9-13-22.6-17.4C242.1,9.7,232.2,7.5,221.5,7.5L221.5,7.5z"/>
			</g>
			<g>
				<path class="st0" d="M221.1,124.7c-5.5,0-10.4-1.3-14.6-3.7c-4.1-2.4-7.5-5.6-10.2-9.5c-2.7-3.8-4.6-8.2-5.9-13.1
					c-1.2-4.7-1.8-9.7-1.8-14.8c0-4.9,0.6-9.9,1.8-14.6c1.2-4.8,3.1-9.3,5.7-13.1c2.6-4,6-7.2,10-9.7c4.1-2.5,9.1-3.8,14.7-3.8
					c5.5,0,10.3,1.2,14.5,3.6c4.1,2.3,7.5,5.5,10.2,9.4c2.6,3.7,4.5,8.1,5.8,13c1.3,4.8,1.9,9.8,1.9,14.8l0,0.2c0,2.3-1.8,4.2-4,4.2
					c0,0,0,0,0,0c-0.1,0-0.2,0-0.3,0c-2.1-0.2-3.8-1.9-3.8-4.1v-0.2c0-4.4-0.6-8.7-1.6-12.7c-1.1-4-2.6-7.5-4.7-10.5
					c-2-2.9-4.5-5.2-7.5-6.9c-2.9-1.7-6.5-2.5-10.5-2.5c-4.1,0-7.7,0.9-10.5,2.6c-3,1.8-5.5,4.2-7.4,7.2c-2.1,3.1-3.6,6.7-4.6,10.7
					c-1,4.1-1.6,8.3-1.6,12.6c0,4.4,0.5,8.7,1.6,12.8c1,3.9,2.6,7.5,4.7,10.5c2,2.9,4.6,5.4,7.7,7.2c2.9,1.7,6.4,2.6,10.4,2.6
					c4.1,0,7.7-0.9,10.6-2.7c1.7-1,3.2-2.3,4.6-3.7c0.8-0.8,1.8-1.3,2.9-1.3c0.7,0,1.5,0.2,2.1,0.6c1.1,0.6,1.8,1.7,1.9,2.9
					c0.2,1.2-0.2,2.4-1.1,3.3c-1.9,1.9-3.9,3.6-6.2,5C231.7,123.4,226.7,124.7,221.1,124.7z"/>
				<path class="st1" d="M220.9,42.8c5.4,0,10.2,1.2,14.3,3.5c4,2.3,7.4,5.4,10,9.2c2.5,3.7,4.5,8,5.8,12.8
					c1.3,4.7,1.9,9.7,1.9,14.7c0,0.1,0,0.1,0,0.2c0,2-1.6,3.7-3.5,3.7c-0.1,0-0.2,0-0.3,0c-1.9-0.1-3.3-1.7-3.3-3.6
					c0-0.1,0-0.1,0-0.2c0-4.4-0.6-8.8-1.7-12.9c-1.1-4-2.7-7.6-4.8-10.6c-2-2.9-4.6-5.3-7.7-7.1c-3-1.7-6.6-2.6-10.7-2.6
					c-4.2,0-7.8,0.9-10.8,2.7c-3,1.8-5.6,4.3-7.6,7.4c-2.1,3.2-3.7,6.8-4.7,10.8c-1,4.1-1.6,8.4-1.6,12.7c0,4.4,0.5,8.8,1.6,12.9
					c1,4,2.6,7.6,4.7,10.7c2.1,3,4.7,5.5,7.8,7.3c3,1.8,6.6,2.7,10.7,2.7c4.2,0,7.9-0.9,10.9-2.8c1.7-1.1,3.3-2.3,4.7-3.8
					c0.7-0.7,1.6-1.1,2.6-1.1c0.6,0,1.3,0.2,1.8,0.5h0c1.9,1.2,2.3,3.8,0.7,5.5c-1.8,1.9-3.8,3.6-6.1,5c-4.1,2.5-9,3.8-14.6,3.8
					c-5.4,0-10.2-1.2-14.3-3.7c-4-2.4-7.4-5.5-10-9.4c-2.6-3.8-4.6-8.1-5.8-13c-1.2-4.7-1.8-9.6-1.8-14.7c0-4.9,0.6-9.8,1.8-14.5
					c1.2-4.8,3.1-9.2,5.6-13c2.6-3.9,5.9-7.1,9.9-9.5C210.5,44.1,215.3,42.8,220.9,42.8 M220.9,41.8c-5.7,0-10.7,1.3-15,3.8
					c-4.1,2.5-7.5,5.8-10.2,9.8c-2.6,3.9-4.5,8.4-5.8,13.3c-1.2,4.8-1.8,9.7-1.8,14.7c0,5.1,0.6,10.1,1.8,14.9
					c1.2,4.9,3.2,9.4,5.9,13.3c2.7,4,6.2,7.2,10.4,9.7c4.3,2.5,9.3,3.8,14.8,3.8c5.7,0,10.8-1.3,15.1-3.9c2.3-1.4,4.4-3.1,6.3-5.1
					c0.9-1,1.4-2.4,1.2-3.7c-0.2-1.4-1-2.6-2.2-3.3c-0.7-0.4-1.5-0.7-2.3-0.7c-1.2,0-2.4,0.5-3.3,1.4c-1.3,1.4-2.8,2.6-4.5,3.6
					c-2.8,1.7-6.3,2.6-10.3,2.6c-3.9,0-7.3-0.9-10.2-2.5c-3-1.8-5.5-4.1-7.5-7c-2.1-3-3.6-6.5-4.6-10.3c-1-4-1.5-8.3-1.5-12.7
					c0-4.2,0.5-8.4,1.5-12.5c1-3.9,2.5-7.5,4.6-10.5c1.9-2.9,4.4-5.3,7.3-7.1c2.8-1.7,6.2-2.5,10.3-2.5c3.9,0,7.4,0.8,10.2,2.5
					c3,1.7,5.4,4,7.4,6.8c2,2.9,3.6,6.4,4.6,10.3c1.1,4,1.6,8.3,1.6,12.6l0,0.2c0,2.4,1.8,4.4,4.2,4.6c0.1,0,0.2,0,0.3,0
					c2.5,0,4.5-2.1,4.5-4.7l0-0.2c0-5.1-0.7-10.2-1.9-15c-1.3-4.9-3.3-9.3-5.9-13.1c-2.7-3.9-6.2-7.1-10.3-9.5
					C231.4,43.1,226.4,41.8,220.9,41.8L220.9,41.8z"/>
			</g>
			<g>
				<path class="st0" d="M391.5,73.9c-2.1,0-3.9-1.7-3.9-3.9s1.7-3.9,3.9-3.9h0.3c2.1,0,3.9,1.7,3.9,3.9s-1.7,3.9-3.9,3.9H391.5z"/>
				<path class="st1" d="M391.8,66.7c1.9,0,3.4,1.5,3.4,3.4s-1.5,3.4-3.4,3.4h-0.3c-1.9,0-3.4-1.5-3.4-3.4s1.5-3.4,3.4-3.4H391.8
					 M391.8,65.7h-0.3c-2.4,0-4.4,2-4.4,4.4s2,4.4,4.4,4.4h0.3c2.4,0,4.4-2,4.4-4.4S394.2,65.7,391.8,65.7L391.8,65.7z"/>
			</g>
			<g>
				<path class="st0" d="M366.6,159c-11.8,0-22.1-2-30.6-6c-1.6-0.8-3.3-1.6-4.9-2.5c-1-0.6-1.7-1.5-1.9-2.7c-0.2-1.1,0-2.3,0.7-3.2
					c0.8-1.1,2-1.6,3.2-1.6c0.7,0,1.4,0.2,2.1,0.6c1.4,0.8,2.8,1.5,4.2,2.2c7.4,3.5,16.6,5.3,27.2,5.3c10.2,0,19.2-1.7,26.6-5
					c7.4-3.3,13.6-7.9,18.5-13.6c4.9-5.8,8.6-12.7,10.9-20.7c0.5-1.6,0.9-3.4,1.3-5.1c0.4-1.9,2-3.2,3.9-3.2c1.2,0,2.4,0.6,3.2,1.5
					c0.8,1,1.1,2.2,0.8,3.4c-0.4,1.9-0.9,3.8-1.5,5.7c-2.7,9-6.9,17-12.5,23.6c-5.7,6.7-12.9,12-21.4,15.8
					C388,157.1,378,159,366.6,159z"/>
				<path class="st1" d="M428,103.8c2.3,0,4,2.1,3.5,4.3c-0.4,1.9-0.9,3.8-1.5,5.6c-2.6,9-6.8,16.9-12.4,23.4
					c-5.6,6.6-12.8,11.9-21.2,15.6c-8.4,3.8-18.4,5.7-29.7,5.7c-11.7,0-22-2-30.4-6c-1.7-0.8-3.3-1.6-4.8-2.5
					c-1.8-1.1-2.3-3.5-1-5.1l0.1-0.1c0.7-0.9,1.7-1.4,2.8-1.4c0.6,0,1.2,0.2,1.8,0.5c1.4,0.8,2.8,1.5,4.2,2.2
					c7.5,3.5,16.7,5.3,27.4,5.3c10.3,0,19.3-1.7,26.8-5.1c7.5-3.3,13.8-8,18.7-13.8c4.9-5.8,8.7-12.8,11-20.8
					c0.5-1.7,0.9-3.4,1.3-5.2C424.8,105,426.3,103.8,428,103.8L428,103.8 M428,102.8L428,102.8c-2.2,0-4,1.5-4.4,3.6
					c-0.4,1.8-0.8,3.5-1.3,5.1c-2.3,7.9-6,14.8-10.8,20.5c-4.8,5.7-11,10.2-18.3,13.5c-7.4,3.3-16.3,5-26.4,5
					c-10.5,0-19.6-1.8-26.9-5.2c-1.4-0.7-2.8-1.4-4.2-2.2c-0.7-0.4-1.5-0.6-2.3-0.6c-1.4,0-2.7,0.6-3.6,1.8l-0.1,0.1
					c-0.8,1-1.1,2.3-0.8,3.6c0.3,1.3,1,2.4,2.1,3c1.6,0.9,3.2,1.8,4.9,2.6c8.6,4,18.9,6.1,30.8,6.1c11.4,0,21.6-1.9,30.1-5.8
					c8.6-3.8,15.8-9.2,21.6-15.9c5.7-6.7,9.9-14.7,12.6-23.8c0.5-1.8,1-3.8,1.5-5.7c0.3-1.4,0-2.8-0.9-3.9
					C430.6,103.4,429.3,102.8,428,102.8L428,102.8z"/>
			</g>
			<g>
				<path class="st0" d="M430.1,96c-1.1,0-2.2-0.5-2.9-1.3c-0.8-0.8-1.2-1.9-1.1-3c0.1-2.1,0.2-4.3,0.2-6.4V22.9c0-3.3-2.7-6-6-6
					h-18.6c-3.3,0-6,2.7-6,6V55c0,2.1-1.7,3.9-3.9,3.9h-0.3c-2.1,0-3.9-1.7-3.9-3.9V22.9c0-7.8,6.3-14.1,14.1-14.1h18.6
					c7.8,0,14.1,6.3,14.1,14.1v62.4c0,2.3-0.1,4.7-0.2,7C434,94.4,432.2,96,430.1,96z"/>
				<path class="st1" d="M420.3,9.3c7.5,0,13.6,6.1,13.6,13.6v62.4c0,2.3-0.1,4.7-0.2,6.9c-0.1,1.9-1.7,3.3-3.5,3.3h0
					c-2.1,0-3.7-1.7-3.5-3.8c0.1-2.1,0.2-4.3,0.2-6.5V22.9c0-3.6-2.9-6.5-6.5-6.5h-18.6c-3.6,0-6.5,2.9-6.5,6.5V55
					c0,1.9-1.5,3.4-3.4,3.4h-0.3c-1.9,0-3.4-1.5-3.4-3.4V22.9c0-7.5,6.1-13.6,13.6-13.6H420.3 M420.3,8.3h-18.6
					c-8,0-14.6,6.5-14.6,14.6V55c0,2.4,2,4.4,4.4,4.4h0.3c2.4,0,4.4-2,4.4-4.4V22.9c0-3,2.5-5.5,5.5-5.5h18.6c3,0,5.5,2.5,5.5,5.5
					v62.4c0,2.1-0.1,4.3-0.2,6.4c-0.1,1.3,0.4,2.5,1.2,3.4c0.9,0.9,2,1.4,3.3,1.4c2.4,0,4.4-1.9,4.5-4.2c0.1-2.3,0.2-4.7,0.2-7V22.9
					C434.9,14.8,428.3,8.3,420.3,8.3L420.3,8.3z"/>
			</g>
			<g>
				<path class="st0" d="M321,141.6c-1.1,0-2.1-0.4-2.9-1.2c-1.2-1.2-2.3-2.5-3.3-3.7c-5.5-6.8-9.5-14.7-12.1-23.6
					c-2.5-8.7-3.7-18.1-3.7-27.8V22.9c0-7.8,6.3-14.1,14.1-14.1h18.6c7.8,0,14.1,6.3,14.1,14.1v62.4c0,4.3,0.4,8.6,1.3,12.5
					c0.8,3.8,2.1,7.2,3.9,10.1c1.7,2.7,3.7,4.8,6.3,6.4c2.4,1.5,5.6,2.3,9.3,2.3c3.7,0,6.9-0.8,9.4-2.4c2.6-1.6,4.8-3.8,6.4-6.5
					c1.7-2.8,3-6.2,3.9-10c0.9-3.9,1.3-8.1,1.3-12.4v-0.2c0-2.1,1.7-3.9,3.9-3.9h0.3c2.1,0,3.9,1.7,3.9,3.9v0.2
					c0,4.9-0.5,9.7-1.5,14.2c-1,4.7-2.7,8.9-4.9,12.5c-2.3,3.8-5.3,6.8-9,9.2c-3.8,2.4-8.4,3.6-13.7,3.6c-5.2,0-9.8-1.2-13.5-3.5
					c-3.6-2.2-6.7-5.3-9-9.1c-2.2-3.6-3.9-7.8-4.9-12.6c-1-4.6-1.5-9.3-1.5-14.3V22.9c0-3.3-2.7-6-6-6h-18.6c-3.3,0-6,2.7-6,6v62.4
					c0,9,1.2,17.6,3.4,25.6c2.2,7.8,5.8,14.8,10.6,20.7c0.9,1.1,1.8,2.1,2.9,3.2c1.4,1.4,1.5,3.7,0.3,5.2
					C323.5,141,322.3,141.6,321,141.6L321,141.6z"/>
				<path class="st1" d="M331.7,9.3c7.5,0,13.6,6.1,13.6,13.6v62.4c0,4.4,0.4,8.6,1.3,12.7c0.8,3.9,2.2,7.3,3.9,10.2
					c1.7,2.8,3.8,4.9,6.5,6.6c2.5,1.6,5.7,2.4,9.6,2.4c3.8,0,7-0.8,9.6-2.4c2.7-1.7,4.9-3.9,6.6-6.7c1.8-2.9,3.1-6.3,3.9-10.1
					c0.9-4,1.3-8.2,1.3-12.5v-0.2c0-1.9,1.5-3.4,3.4-3.4h0.3c1.9,0,3.4,1.5,3.4,3.4v0.2c0,4.9-0.5,9.6-1.5,14.1
					c-1,4.6-2.6,8.8-4.8,12.3c-2.3,3.7-5.3,6.7-8.9,9c-3.7,2.3-8.2,3.5-13.4,3.5c-5.2,0-9.6-1.1-13.3-3.4c-3.6-2.2-6.5-5.2-8.8-8.9
					c-2.2-3.6-3.8-7.7-4.8-12.4c-1-4.5-1.5-9.3-1.5-14.1V22.9c0-3.6-2.9-6.5-6.5-6.5h-18.6c-3.6,0-6.5,2.9-6.5,6.5v62.4
					c0,9,1.2,17.7,3.4,25.7c2.2,7.9,5.8,14.9,10.7,20.9c0.9,1.1,1.9,2.2,2.9,3.2c1.2,1.2,1.3,3.2,0.3,4.6v0
					c-0.7,0.9-1.8,1.4-2.8,1.4c-0.9,0-1.8-0.3-2.5-1.1c-1.2-1.2-2.3-2.4-3.3-3.7c-5.4-6.7-9.5-14.6-12-23.4
					c-2.5-8.7-3.7-18-3.7-27.7V22.9c0-7.5,6.1-13.6,13.6-13.6H331.7 M331.7,8.3h-18.6c-8,0-14.6,6.5-14.6,14.6v62.4
					c0,9.8,1.3,19.2,3.7,27.9c2.5,9,6.6,17,12.2,23.8c1,1.3,2.2,2.5,3.4,3.8c0.9,0.9,2,1.4,3.2,1.4c1.4,0,2.8-0.7,3.6-1.8
					c1.4-1.8,1.2-4.3-0.3-5.9c-1-1-2-2.1-2.8-3.2c-4.7-5.8-8.3-12.7-10.5-20.5c-2.3-8-3.4-16.5-3.4-25.5V22.9c0-3,2.5-5.5,5.5-5.5
					h18.6c3,0,5.5,2.5,5.5,5.5v62.4c0,4.9,0.5,9.8,1.5,14.4c1,4.8,2.7,9.1,4.9,12.7c2.4,3.8,5.4,7,9.1,9.2c3.8,2.4,8.5,3.6,13.8,3.6
					c5.3,0,10-1.2,13.9-3.7c3.8-2.4,6.9-5.5,9.2-9.3c2.2-3.7,3.9-7.9,4.9-12.6c1-4.5,1.5-9.3,1.5-14.3v-0.2c0-2.4-2-4.4-4.4-4.4
					h-0.3c-2.4,0-4.4,2-4.4,4.4v0.2c0,4.3-0.4,8.4-1.3,12.3c-0.8,3.7-2.1,7-3.8,9.8c-1.6,2.6-3.7,4.8-6.3,6.4
					c-2.4,1.5-5.5,2.3-9.1,2.3c-3.6,0-6.7-0.7-9-2.2c-2.5-1.6-4.5-3.6-6.2-6.2c-1.7-2.8-3-6.1-3.8-9.9c-0.9-4-1.3-8.1-1.3-12.4V22.9
					C346.3,14.8,339.8,8.3,331.7,8.3L331.7,8.3z"/>
			</g>
			<g>
				<path class="st0" d="M551.9,157.8c-4.3,0-8.3-1.9-11-5.2l-45.8-56.7l0,47.8c0,7.8-6.3,14.1-14.1,14.1h-18.6
					c-7.8,0-14.1-6.3-14.1-14.1V70.9c0-2.2,1.8-4,4-4c2.2,0,4,1.8,4,4v72.8c0,3.3,2.7,6,6,6H481c3.3,0,6-2.7,6-6V95.2
					c0-3.5,2.1-6.6,5.3-7.6c0.8-0.3,1.6-0.4,2.5-0.4c2.3,0,4.5,1.1,6,2.9l46.4,57.4c1.1,1.4,2.8,2.2,4.7,2.2h15.9c3.3,0,6-2.7,6-6
					v-15c0-2.2,1.8-4,4-4s4,1.8,4,4v15c0,7.8-6.3,14.1-14.1,14.1H551.9z"/>
				<path class="st1" d="M452.4,67.4c2,0,3.5,1.6,3.5,3.5v72.8c0,3.6,2.9,6.5,6.5,6.5H481c3.6,0,6.5-2.9,6.5-6.5l0-48.5
					c0-3.2,2-6.2,5-7.2c0.8-0.3,1.5-0.4,2.3-0.4c2.1,0,4.2,1,5.6,2.7l46.4,57.4c1.2,1.5,3.1,2.4,5.1,2.4h15.9c3.6,0,6.5-2.9,6.5-6.5
					v-15c0-2,1.6-3.5,3.5-3.5s3.5,1.6,3.5,3.5v15c0,7.5-6.1,13.6-13.6,13.6h-15.9c-4.1,0-8-1.8-10.6-5l-46.4-57.4c0,0-0.1,0-0.1,0
					c-0.1,0-0.1,0-0.1,0.1l0,0.1v48.8c0,7.5-6.1,13.6-13.6,13.6h-18.6c-7.5,0-13.6-6.1-13.6-13.6V70.9
					C448.8,69,450.4,67.4,452.4,67.4L452.4,67.4 M452.4,66.4c-2.5,0-4.5,2-4.5,4.5v72.8c0,8,6.5,14.6,14.6,14.6H481
					c8,0,14.6-6.5,14.6-14.6V97.3l44.9,55.6c2.8,3.4,6.9,5.4,11.3,5.4h15.9c8,0,14.6-6.5,14.6-14.6v-15c0-2.5-2-4.5-4.5-4.5
					s-4.5,2-4.5,4.5v15c0,3-2.5,5.5-5.5,5.5h-15.9c-1.7,0-3.2-0.7-4.3-2l-46.4-57.4c-1.6-2-3.9-3.1-6.4-3.1c-0.9,0-1.8,0.1-2.6,0.4
					c-3.4,1.1-5.7,4.4-5.7,8.1l0,48.5c0,3-2.5,5.5-5.5,5.5h-18.6c-3,0-5.5-2.5-5.5-5.5V70.9C456.9,68.4,454.9,66.4,452.4,66.4
					L452.4,66.4z"/>
			</g>
			<g>
				<path class="st0" d="M505.9,46.4c-1.2,0-2.4-0.6-3.2-1.5l-20.3-25.7c-1.1-1.4-2.9-2.3-4.7-2.3h-15.3c-3.3,0-6,2.7-6,6v17.3
					c0,2.2-1.8,4-4,4c-2.2,0-4-1.8-4-4V22.9c0-7.8,6.3-14.1,14.1-14.1h15.3c4.3,0,8.4,2,11.1,5.4L509,39.9c0.7,0.9,1,2,0.8,3.1
					c-0.2,1.1-0.8,2.1-1.7,2.7C507.5,46.2,506.7,46.4,505.9,46.4z"/>
				<path class="st1" d="M477.7,9.3c4.2,0,8.1,1.9,10.7,5.2l20.3,25.7c1.3,1.6,0.9,3.9-0.7,5.1v0c-0.6,0.4-1.3,0.6-2,0.6
					c-1.1,0-2.1-0.5-2.8-1.3l-20.3-25.7c-1.2-1.6-3.1-2.5-5.1-2.5h-15.3c-3.6,0-6.5,2.9-6.5,6.5v17.3c0,2-1.6,3.5-3.5,3.5h0
					c-2,0-3.5-1.6-3.5-3.5V22.9c0-7.5,6.1-13.6,13.6-13.6H477.7 M477.7,8.3h-15.3c-8,0-14.6,6.5-14.6,14.6v17.3c0,2.5,2,4.5,4.5,4.5
					c2.5,0,4.5-2,4.5-4.5V22.9c0-3,2.5-5.5,5.5-5.5h15.3c1.7,0,3.3,0.8,4.3,2.1l20.3,25.7c0.9,1.1,2.2,1.7,3.6,1.7
					c0.9,0,1.8-0.3,2.6-0.8c1-0.7,1.7-1.8,1.9-3.1c0.2-1.2-0.1-2.5-0.9-3.5l-20.3-25.7C486.3,10.3,482.2,8.3,477.7,8.3L477.7,8.3z"
					/>
			</g>
			<g>
				<path class="st0" d="M577.8,117.4c-2.2,0-4-1.8-4-4V22.9c0-3.3-2.7-6-6-6h-18.6c-3.3,0-6,2.7-6,6v51c0,3.3-2,6.2-5.2,7.3
					c-0.8,0.3-1.7,0.4-2.6,0.4c-2.4,0-4.6-1.1-6-3L512.2,57c-0.7-0.9-1-2-0.8-3.1c0.2-1.1,0.8-2.1,1.7-2.7c0.7-0.5,1.5-0.7,2.3-0.7
					c1.2,0,2.4,0.6,3.2,1.5l16.5,20.9l0-50c0-7.8,6.3-14.1,14.1-14.1h18.6c7.8,0,14.1,6.3,14.1,14.1v90.5
					C581.9,115.6,580.1,117.4,577.8,117.4z"/>
				<path class="st1" d="M567.8,9.3c7.5,0,13.6,6.1,13.6,13.6v90.5c0,2-1.6,3.5-3.5,3.5s-3.5-1.6-3.5-3.5V22.9
					c0-3.6-2.9-6.5-6.5-6.5h-18.6c-3.6,0-6.5,2.9-6.5,6.5v51c0,3.1-1.9,5.8-4.9,6.8c-0.8,0.3-1.6,0.4-2.4,0.4c-2.2,0-4.2-1-5.6-2.8
					l-17.1-21.7c-1.3-1.6-0.9-3.9,0.7-5.1l0,0c0.6-0.4,1.3-0.6,2-0.6c1.1,0,2.1,0.5,2.8,1.3l17.1,21.7c0,0,0.1,0,0.1,0
					c0.1,0,0.1,0,0.1-0.1l0-51c0-7.5,6.1-13.6,13.6-13.6H567.8 M567.8,8.3h-18.6c-8,0-14.6,6.5-14.6,14.6l0,48.5L519,51.6
					c-0.9-1.1-2.2-1.7-3.6-1.7c-0.9,0-1.8,0.3-2.6,0.8c-1,0.7-1.7,1.8-1.9,3.1c-0.2,1.2,0.1,2.5,0.9,3.5l17.1,21.7
					c1.6,2,3.9,3.1,6.4,3.1c0.9,0,1.9-0.2,2.8-0.5c3.4-1.2,5.5-4.2,5.5-7.8v-51c0-3,2.5-5.5,5.5-5.5h18.6c3,0,5.5,2.5,5.5,5.5v90.5
					c0,2.5,2,4.5,4.5,4.5s4.5-2,4.5-4.5V22.9C582.4,14.8,575.8,8.3,567.8,8.3L567.8,8.3z"/>
			</g>
			<g>
				<path class="st0" d="M452.4,59.6c-2.2,0-4-1.8-4-4c0-2.2,1.8-4.1,4-4.1c2.2,0,4,1.8,4,4C456.4,57.8,454.6,59.6,452.4,59.6z"/>
				<path class="st1" d="M452.4,52c2,0,3.5,1.6,3.5,3.5v0c0,2-1.6,3.5-3.5,3.5h0c-2,0-3.5-1.6-3.5-3.5v0
					C448.8,53.6,450.4,52,452.4,52L452.4,52 M452.4,51c-2.5,0-4.5,2-4.5,4.5c0,2.5,2,4.6,4.5,4.6c2.5,0,4.5-2,4.5-4.5
					C456.9,53,454.9,51,452.4,51L452.4,51z"/>
			</g>
			<g>
				<path class="st0" d="M662.4,124.5c-4.9,0-9.4-1.1-13.5-3.1c-4-2.1-7.5-5-10.4-8.7c-2.8-3.6-5-7.9-6.5-12.9
					c-0.6-2.1-1.2-4.3-1.5-6.7c-0.2-1.1,0.2-2.3,0.9-3.2c0.8-0.9,1.9-1.4,3.1-1.4c2,0,3.7,1.4,4,3.4c0.3,2,0.7,3.8,1.2,5.5
					c1.2,4,3,7.5,5.2,10.3c2.1,2.8,4.7,4.9,7.7,6.4c2.9,1.5,6.2,2.2,9.8,2.2c4.1,0,8.1-1,11.9-3.1c1.4-0.8,2.8-1.7,4.2-2.7l-4.7,0
					c-7.8,0-14.1-6.3-14.1-14.1v-7.7c0-7.8,6.3-14.1,14.1-14.1h37.9c7.8,0,14.1,6.3,14.1,14.1v3.6c0,2.2-1.8,4-4,4s-4-1.8-4-4v-3.6
					c0-3.3-2.7-6-6-6h-37.9c-3.3,0-6,2.7-6,6v7.7c0,3.3,2.7,6,6,6h5.7c3.3,0,6.2,2.1,7.3,5.2c1.1,3.1,0.1,6.5-2.5,8.5
					c-2,1.6-4.1,3-6.3,4.2C673.1,123.1,667.8,124.5,662.4,124.5z"/>
				<path class="st1" d="M711.7,75.2c7.5,0,13.6,6.1,13.6,13.6v3.6c0,2-1.6,3.5-3.5,3.5c-2,0-3.5-1.6-3.5-3.5v-3.6
					c0-3.6-2.9-6.5-6.5-6.5h-37.9c-3.6,0-6.5,2.9-6.5,6.5v7.7c0,3.6,2.9,6.5,6.5,6.5h5.7c3.1,0,5.8,1.9,6.9,4.9c1,2.9,0.1,6.1-2.3,8
					c-2,1.6-4.1,3-6.2,4.1c-4.9,2.7-10.1,4-15.5,4c-4.8,0-9.2-1-13.2-3.1c-4-2-7.4-4.9-10.2-8.5c-2.8-3.6-4.9-7.8-6.4-12.7
					c-0.6-2.1-1.1-4.3-1.5-6.6c-0.3-2.1,1.3-4,3.5-4h0c1.7,0,3.2,1.3,3.5,3c0.3,2,0.7,3.8,1.3,5.6c1.3,4.1,3,7.6,5.3,10.5
					c2.2,2.8,4.8,5,7.8,6.6c3,1.5,6.4,2.3,10,2.3c4.1,0,8.2-1.1,12.1-3.2c1.8-0.9,3.5-2.1,5.2-3.4c0,0,0-0.1,0-0.2l-5.8,0
					c-7.5,0-13.6-6.1-13.6-13.6v-7.7c0-7.5,6.1-13.6,13.6-13.6H711.7 M711.7,74.2h-37.9c-8,0-14.6,6.5-14.6,14.6v7.7
					c0,8,6.5,14.6,14.6,14.6l3.1,0c-0.9,0.6-1.9,1.2-2.9,1.8c-3.7,2-7.7,3-11.6,3c-3.5,0-6.7-0.7-9.6-2.2c-2.9-1.5-5.4-3.6-7.5-6.3
					c-2.2-2.8-3.9-6.2-5.1-10.2c-0.5-1.7-0.9-3.5-1.2-5.5c-0.3-2.2-2.2-3.8-4.5-3.8c-1.3,0-2.6,0.6-3.5,1.6c-0.9,1-1.2,2.3-1,3.6
					c0.4,2.4,0.9,4.7,1.5,6.8c1.5,5,3.8,9.4,6.6,13.1c2.9,3.8,6.5,6.7,10.6,8.8c4.1,2.1,8.7,3.2,13.7,3.2c5.5,0,10.9-1.4,15.9-4.1
					c2.2-1.2,4.3-2.6,6.4-4.2c2.8-2.2,3.8-5.8,2.6-9.1c-1.2-3.4-4.2-5.6-7.8-5.6h-5.7c-3,0-5.5-2.5-5.5-5.5v-7.7
					c0-3,2.5-5.5,5.5-5.5h37.9c3,0,5.5,2.5,5.5,5.5v3.6c0,2.5,2,4.5,4.5,4.5c2.5,0,4.5-2,4.5-4.5v-3.6
					C726.3,80.7,719.8,74.2,711.7,74.2L711.7,74.2z"/>
			</g>
			<g>
				<path class="st0" d="M721.8,112.2c-2.2,0-4-1.8-4-4v-0.4c0-2.2,1.8-4,4-4s4,1.8,4,4v0.4C725.8,110.4,724,112.2,721.8,112.2z"/>
				<path class="st1" d="M721.8,104.2c2,0,3.5,1.6,3.5,3.5v0.4c0,2-1.6,3.5-3.5,3.5c-2,0-3.5-1.6-3.5-3.5v-0.4
					C718.2,105.7,719.8,104.2,721.8,104.2 M721.8,103.2c-2.5,0-4.5,2-4.5,4.5v0.4c0,2.5,2,4.5,4.5,4.5c2.5,0,4.5-2,4.5-4.5v-0.4
					C726.3,105.2,724.3,103.2,721.8,103.2L721.8,103.2z"/>
			</g>
			<g>
				<path class="st0" d="M634.2,81.2c-1.1,0-2.2-0.5-3-1.3c-0.8-0.9-1.1-2-1-3.1c0.4-3.3,1-6.5,1.9-9.4c1.5-5,3.7-9.4,6.4-13
					c2.8-3.8,6.2-6.7,10-8.9c4-2.2,8.3-3.3,13-3.3c6.2,0,12.2,1.9,17.7,5.8c2.4,1.7,4.6,3.6,6.5,5.8c1.2,1.4,3,2.3,4.7,2.3
					c1.3,0,2.5-0.4,3.5-1.2l12.9-9.9c1.3-1,2.1-2.4,2.3-4c0.2-1.5-0.2-3.1-1.1-4.3c-1.1-1.4-2.2-2.7-3.5-4c-3.4-3.5-7.2-6.5-11.5-9
					c-4.3-2.5-9-4.4-14-5.7c-5.1-1.3-10.5-2-16.1-2c-8.9,0-17.4,1.7-25.2,5.1c-7.8,3.4-14.7,8.1-20.5,14c-0.6,0.6-1.1,1.2-1.7,1.8
					c-0.8,0.8-1.8,1.3-3,1.3l0,0c-0.9,0-1.7-0.3-2.4-0.8c-0.9-0.7-1.5-1.7-1.7-2.9c-0.1-1.1,0.3-2.3,1-3.1c0.6-0.7,1.2-1.4,1.9-2
					c6.5-6.6,14.2-11.9,23-15.8c8.8-3.8,18.4-5.8,28.4-5.8c6.3,0,12.3,0.7,18.1,2.2c5.8,1.5,11.2,3.7,16.1,6.6
					c4.9,2.9,9.4,6.4,13.3,10.4c1.4,1.5,2.8,3.1,4.1,4.7c2.2,2.9,3.2,6.6,2.7,10.3c-0.5,3.8-2.4,7.1-5.4,9.4l-12.9,9.9
					c-2.4,1.8-5.3,2.8-8.4,2.8c-4.2,0-8.1-1.8-10.9-5c-1.4-1.7-3.1-3.2-5-4.5c-4.2-2.9-8.4-4.3-13.1-4.3c-3.3,0-6.3,0.7-9.1,2.3
					c-2.8,1.6-5.3,3.8-7.4,6.6c-2.2,2.9-3.9,6.5-5.1,10.6c-0.7,2.4-1.3,5.1-1.6,7.9C638,79.6,636.3,81.2,634.2,81.2z"/>
				<path class="st1" d="M662.8,8.3c6.2,0,12.3,0.7,18,2.2c5.7,1.5,11.1,3.7,16,6.5c4.9,2.9,9.3,6.3,13.2,10.3
					c1.4,1.5,2.8,3.1,4,4.7c2.2,2.8,3.1,6.3,2.6,9.9c-0.5,3.6-2.3,6.8-5.2,9.1l-12.9,9.9c-2.4,1.8-5.2,2.7-8.1,2.7
					c-3.9,0-7.8-1.7-10.5-4.9c-1.5-1.7-3.2-3.2-5.1-4.6c-4.3-3-8.6-4.4-13.4-4.4c-3.4,0-6.4,0.8-9.3,2.3c-2.9,1.6-5.5,3.9-7.6,6.7
					c-2.2,3-3.9,6.6-5.2,10.7c-0.8,2.5-1.3,5.2-1.6,8c-0.2,1.8-1.7,3.1-3.5,3.1c-2.1,0-3.8-1.8-3.5-3.9c0.4-3.3,1-6.4,1.8-9.3
					c1.5-4.9,3.6-9.3,6.3-12.9c2.7-3.7,6.1-6.6,9.9-8.7c3.9-2.1,8.2-3.2,12.7-3.2c6.1,0,12,1.9,17.4,5.7c2.4,1.7,4.5,3.6,6.4,5.7
					c1.4,1.6,3.3,2.4,5.1,2.4c1.3,0,2.6-0.4,3.8-1.3l12.9-9.9c1.4-1.1,2.3-2.6,2.5-4.4c0.2-1.7-0.2-3.3-1.2-4.6
					c-1.1-1.4-2.3-2.8-3.5-4.1c-3.4-3.5-7.3-6.6-11.6-9.1c-4.3-2.5-9.1-4.5-14.2-5.8c-5.1-1.3-10.6-2-16.2-2c-9,0-17.5,1.7-25.4,5.2
					c-7.9,3.4-14.8,8.2-20.6,14.1c-0.6,0.6-1.1,1.2-1.7,1.8c-0.7,0.8-1.6,1.2-2.6,1.2c-0.7,0-1.5-0.2-2.1-0.7l0,0
					c-1.7-1.2-2-3.7-0.5-5.3c0.6-0.7,1.2-1.3,1.9-2c6.4-6.6,14.1-11.8,22.9-15.7C643.3,10.2,652.8,8.3,662.8,8.3 M662.8,7.3
					c-10.1,0-19.7,2-28.6,5.8C625.3,17,617.5,22.3,611,29c-0.6,0.7-1.3,1.3-1.9,2c-0.9,1-1.3,2.2-1.2,3.5c0.1,1.3,0.8,2.5,1.9,3.2
					c0.8,0.6,1.7,0.9,2.7,0.9c1.3,0,2.5-0.5,3.4-1.5c0.6-0.6,1.1-1.2,1.7-1.8c5.7-5.8,12.5-10.5,20.3-13.9c7.7-3.4,16.1-5.1,25-5.1
					c5.5,0,10.9,0.7,15.9,1.9c5,1.3,9.7,3.2,13.9,5.7c4.3,2.5,8.1,5.5,11.4,9c1.2,1.3,2.4,2.6,3.4,4c0.8,1.1,1.2,2.5,1,3.9
					c-0.2,1.5-1,2.8-2.1,3.7l-12.9,9.9c-0.9,0.7-2,1.1-3.2,1.1c-1.6,0-3.2-0.8-4.4-2.1c-1.9-2.2-4.1-4.2-6.6-5.9
					c-5.6-3.9-11.6-5.9-18-5.9c-4.7,0-9.2,1.1-13.2,3.3c-3.9,2.2-7.4,5.2-10.2,9c-2.7,3.7-4.9,8.1-6.5,13.2
					c-0.9,2.9-1.5,6.1-1.9,9.5c-0.1,1.3,0.3,2.6,1.1,3.5c0.9,1,2.1,1.5,3.4,1.5c2.3,0,4.3-1.7,4.5-4c0.3-2.8,0.8-5.4,1.6-7.8
					c1.2-4.1,2.9-7.6,5.1-10.4c2-2.8,4.5-4.9,7.3-6.5c2.7-1.5,5.6-2.2,8.8-2.2c4.5,0,8.7,1.4,12.8,4.2c1.8,1.3,3.5,2.8,4.9,4.4
					c2.8,3.3,7,5.2,11.3,5.2c3.2,0,6.2-1,8.7-2.9l12.9-9.9c3.1-2.4,5.1-5.8,5.6-9.7c0.5-3.8-0.5-7.6-2.8-10.6
					c-1.3-1.6-2.6-3.2-4.1-4.8c-3.9-4.1-8.4-7.6-13.4-10.5c-5-2.9-10.5-5.1-16.3-6.6C675.2,8,669.1,7.3,662.8,7.3L662.8,7.3z"/>
			</g>
			<g>
				<path class="st0" d="M659,158.8c-9.3,0-18.3-2.1-26.6-6.3c-8.2-4.1-15.6-9.7-21.8-16.7c-6.2-6.9-11.1-15.1-14.7-24.3
					c-3.6-9.2-5.4-19.1-5.4-29.4c0-10.4,1.9-20.2,5.6-29.2c1.2-2.8,2.5-5.6,4-8.2c0.7-1.3,2.1-2.1,3.6-2.1c0.8,0,1.7,0.3,2.4,0.8
					c1.7,1.2,2.2,3.5,1.1,5.3c-1.3,2.4-2.5,4.8-3.5,7.3c-3.3,8-5,16.8-5,26.2c0,9.2,1.6,18.1,4.9,26.4c3.2,8.3,7.7,15.7,13.3,21.9
					c5.5,6.2,12,11.2,19.3,14.9c7.2,3.6,14.9,5.4,23,5.4c8.3,0,15.9-2.4,22.6-7c1.3-0.9,2.9-1.4,4.5-1.4c1.3,0,2.5,0.3,3.6,0.9
					c2.5,1.3,4,3.8,4.1,6.5h17.9c3.3,0,6-2.7,6-6v-20.2c0-2.2,1.8-4,4-4s4,1.8,4,4v20.2c0,7.8-6.3,14.1-14.1,14.1h-18.2
					c-4.1,0-7.4-3.2-7.7-7.2C677.8,156.1,668.8,158.8,659,158.8z"/>
				<path class="st1" d="M603.6,43c0.7,0,1.4,0.2,2.1,0.7c1.5,1.1,1.9,3.1,1,4.6c-1.3,2.4-2.5,4.8-3.6,7.4c-3.3,8.1-5,16.9-5,26.3
					c0,9.3,1.7,18.3,4.9,26.6c3.3,8.4,7.8,15.8,13.3,22.1c5.6,6.2,12.1,11.3,19.5,15c7.3,3.6,15.1,5.5,23.2,5.5
					c8.4,0,16.1-2.4,22.9-7.1c1.3-0.9,2.7-1.3,4.2-1.3c1.2,0,2.3,0.3,3.4,0.8c2.4,1.2,3.9,3.7,3.9,6.4v0c0,0.1,0.1,0.2,0.2,0.2h18.2
					c3.6,0,6.5-2.9,6.5-6.5v-20.2c0-2,1.6-3.5,3.5-3.5c2,0,3.5,1.6,3.5,3.5v20.2c0,7.5-6.1,13.6-13.6,13.6h-18.2
					c-4,0-7.2-3.2-7.2-7.2v0c0-0.1,0-0.1-0.1-0.1c0,0-0.1,0-0.1,0c-0.1,0-0.1,0-0.2,0.1c-8,5.5-17.1,8.4-26.9,8.4
					c-9.3,0-18.1-2.1-26.4-6.2c-8.2-4.1-15.5-9.7-21.6-16.6c-6.1-6.9-11.1-15-14.7-24.2c-3.6-9.2-5.4-19-5.4-29.2
					c0-10.3,1.9-20.1,5.5-29c1.2-2.8,2.5-5.6,3.9-8.2C601.1,43.7,602.3,43,603.6,43 M603.6,42c-1.7,0-3.2,0.9-4,2.3
					c-1.5,2.7-2.8,5.5-4,8.3c-3.7,9-5.6,18.9-5.6,29.4c0,10.3,1.8,20.3,5.5,29.5c3.6,9.3,8.6,17.5,14.8,24.5
					c6.2,7,13.6,12.7,21.9,16.8c8.4,4.2,17.4,6.3,26.8,6.3c9.6,0,18.5-2.6,26.4-7.8c0.7,3.9,4.1,6.8,8.1,6.8h18.2
					c8,0,14.6-6.5,14.6-14.6v-20.2c0-2.5-2-4.5-4.5-4.5s-4.5,2-4.5,4.5v20.2c0,3-2.5,5.5-5.5,5.5h-17.4c-0.3-2.8-1.9-5.2-4.4-6.5
					c-1.2-0.6-2.5-0.9-3.9-0.9c-1.7,0-3.4,0.5-4.8,1.5c-6.6,4.6-14.1,6.9-22.3,6.9c-8,0-15.6-1.8-22.8-5.4
					c-7.3-3.6-13.7-8.6-19.2-14.7c-5.5-6.2-9.9-13.5-13.2-21.8c-3.2-8.2-4.8-17.1-4.8-26.2c0-9.3,1.7-18,4.9-26
					c1-2.5,2.2-4.9,3.5-7.3c1.1-2,0.6-4.6-1.3-5.9C605.4,42.3,604.5,42,603.6,42L603.6,42z"/>
			</g>
			<g>
				<path class="st0" d="M82.2,157.8c-7.3,0-13.5-5.7-14-13c-0.2-0.9-0.3-2.2,1.3-3.8c0.7-0.7,1.7-1.2,2.7-1.2c2.1,0,3.9,1.7,4,3.8
					c0.1,0.2,0.1,0.5,0.1,0.7c0,1.3,0.5,2.6,1.5,3.6c1.1,1.1,2.6,1.7,4.1,1.7h18.8c3.3,0,6-2.7,6-6v-32.5c0-3.3,0.8-6.7,2.3-9.6
					l7.9-15.3c0.7-1.4,2.1-2.2,3.6-2.2c1.4,0,2.7,0.7,3.5,1.9c0.7,1.2,0.8,2.7,0.1,4l-7.9,15.3c-0.9,1.8-1.4,3.9-1.4,5.9v32.5
					c0,7.8-6.3,14.1-14.1,14.1H82.2z"/>
				<path class="st1" d="M120.5,84.6c2.7,0,4.4,2.8,3.2,5.2l-7.9,15.3c-1,1.9-1.5,4-1.5,6.1v32.5c0,7.5-6.1,13.6-13.6,13.6H82.2
					c-7.2,0-13-5.5-13.5-12.6c-0.2-1-0.2-2,1.1-3.4c0.6-0.6,1.4-1,2.3-1c0,0,0,0,0,0c1.9,0,3.3,1.5,3.5,3.3c0.1,0.2,0.1,0.4,0.1,0.7
					c0,3.2,2.9,5.9,6.1,5.9h18.8c3.6,0,6.5-2.9,6.5-6.5v-32.5c0-3.3,0.8-6.5,2.3-9.4l7.9-15.3C117.9,85.3,119.2,84.6,120.5,84.6
					L120.5,84.6 M120.5,83.6c-1.7,0-3.3,0.9-4,2.5l-7.9,15.3c-1.6,3-2.4,6.4-2.4,9.9v32.5c0,3-2.5,5.5-5.5,5.5H81.8
					c-1.4,0-2.7-0.6-3.7-1.6c-0.9-0.9-1.4-2.1-1.4-3.3c0-0.3,0-0.5-0.1-0.8c-0.2-2.3-2.1-4.1-4.4-4.2l0,0l-0.1,0
					c-1.1,0-2.2,0.5-3,1.3c-1.3,1.3-1.8,2.7-1.4,4.2c0.6,7.5,7,13.4,14.5,13.4h18.4c8,0,14.6-6.5,14.6-14.6v-32.5
					c0-2,0.5-3.9,1.4-5.7l7.9-15.3c0.7-1.4,0.7-3.1-0.2-4.4C123.5,84.4,122.1,83.6,120.5,83.6L120.5,83.6z"/>
			</g>
			<g>
				<path class="st0" d="M246.8,103.7c-0.7,0-1.5-0.2-2.1-0.6c-1.6-1-2.3-2.9-1.7-4.7c0.3-0.8,0.5-1.7,0.7-2.5
					c0-0.1,0.1-0.3,0.1-0.4c0.5-1.6,2.1-2.7,3.8-2.7c2.2,0,4,1.8,4,4c0,0.2,0,0.3,0,0.4c0,0.2,0,0.4-0.1,0.6
					c-0.3,1.1-0.6,2.1-0.9,3.1C250.1,102.5,248.5,103.7,246.8,103.7L246.8,103.7z"/>
				<path class="st1" d="M247.6,93.2c1.9,0,3.5,1.6,3.5,3.5c0,0.2,0,0.3,0,0.5c0,0.1,0,0.3,0,0.4c0,0,0,0,0,0
					c-0.3,1.1-0.6,2.1-0.9,3.1c-0.5,1.5-1.9,2.4-3.4,2.4c-0.6,0-1.3-0.2-1.8-0.5c-1.4-0.9-2-2.6-1.5-4.1c0.3-0.8,0.5-1.7,0.7-2.6
					l0,0c0-0.1,0.1-0.2,0.1-0.3C244.7,94.2,246,93.2,247.6,93.2 M247.6,92.2c-1.9,0-3.6,1.2-4.3,3.1c-0.1,0.1-0.1,0.3-0.1,0.4
					c-0.2,0.8-0.5,1.7-0.7,2.5c-0.7,2,0.2,4.2,2,5.3c0.7,0.4,1.5,0.7,2.4,0.7c2,0,3.7-1.2,4.3-3.1c0.3-1,0.6-2.1,0.9-3.2
					c0.1-0.2,0.1-0.4,0.1-0.6l0,0c0-0.1,0-0.3,0-0.5C252.1,94.2,250.1,92.2,247.6,92.2L247.6,92.2z"/>
			</g>
		</g>
	</g>
</g>
</svg>
