<?xml version="1.0" encoding="utf-8"?>
<!-- Generator: Adobe Illustrator 23.0.3, SVG Export Plug-In . SVG Version: 6.00 Build 0)  -->
<svg version="1.1" id="Layer_1" xmlns="http://www.w3.org/2000/svg" xmlns:xlink="http://www.w3.org/1999/xlink" x="0px" y="0px"
	 viewBox="0 0 66.4 66.4" style="enable-background:new 0 0 66.4 66.4;" xml:space="preserve">
<style type="text/css">
	.st0{fill:#FACFD9;}
	.st1{fill:#422A20;}
	.st2{fill:#F59BB1;}
	.st3{fill:#86C270;}
</style>
<g>
	<circle class="st0" cx="33.9" cy="35.7" r="28.2"/>
	<path class="st1" d="M33.9,65.9c-16.7,0-30.2-13.6-30.2-30.2S17.2,5.5,33.9,5.5S64.1,19,64.1,35.7S50.5,65.9,33.9,65.9z M33.9,9.5
		C19.4,9.5,7.7,21.3,7.7,35.7c0,14.4,11.8,26.2,26.2,26.2s26.2-11.8,26.2-26.2C60.1,21.3,48.3,9.5,33.9,9.5z"/>
</g>
<g>
	<g>
		<path class="st2" d="M49.9,22.6c1.8-1.3,2.6-1.6,4.1-3.2c-1.4-2.1-4.7-5.5-6.7-6C41,11.7,36,14,32.8,12.4c-0.2-0.1-0.3,0-0.5,0
			c-3.7,4.4-5.1,8.8-6,14.4C34.2,28.1,42.9,27.6,49.9,22.6z"/>
	</g>
</g>
<g>
	<g>
		<ellipse transform="matrix(0.7071 -0.7071 0.7071 0.7071 0.9525 30.3681)" class="st3" cx="37.1" cy="14" rx="15.4" ry="6.5"/>
		<path class="st1" d="M26.5,27c-0.1,0-0.2,0-0.3,0c-1.1,0-2-0.9-2-2c-0.1-6.4,2.4-12.4,6.9-17c4.4-4.4,10.3-6.9,16.6-6.9
			c0.1,0,0.2,0,0.3,0c1.1,0,2,0.9,2,2c0.1,6.4-2.4,12.4-6.9,17l0,0l0,0C38.7,24.5,32.8,27,26.5,27z M46,5.2c-4.5,0.4-8.8,2.4-12,5.6
			s-5.2,7.5-5.6,12c4.5-0.4,8.7-2.4,12-5.6l0,0C43.6,14,45.6,9.8,46,5.2z"/>
	</g>
</g>
</svg>
