<?xml version="1.0" encoding="utf-8"?>
<!-- Generator: Adobe Illustrator 23.0.1, SVG Export Plug-In . SVG Version: 6.00 Build 0)  -->
<svg version="1.1" id="Layer_1" xmlns="http://www.w3.org/2000/svg" xmlns:xlink="http://www.w3.org/1999/xlink" x="0px" y="0px"
	 viewBox="0 0 30 30.1" style="enable-background:new 0 0 30 30.1;" xml:space="preserve">
<style type="text/css">
	.st0{fill:#77787B;}
</style>
<g>
	<path class="st0" d="M15.1,0.1C6.9,0.1,0.2,6.8,0.2,15c0,8.2,6.7,14.9,14.9,14.9C23.3,29.9,30,23.2,30,15C30,6.8,23.3,0.1,15.1,0.1
		z M23.3,22.1c0,1.5-1.2,2.7-2.7,2.7H9.8c-1.5,0-2.7-1.2-2.7-2.7V7.9c0-1.5,1.2-2.7,2.7-2.7h10.8c1.5,0,2.7,1.2,2.7,2.7V22.1z"/>
	<path class="st0" d="M20.6,6.2H9.8C8.8,6.2,8.1,7,8.1,7.9v14.1c0,0.9,0.8,1.7,1.7,1.7h10.8c0.9,0,1.7-0.8,1.7-1.7V7.9
		C22.3,7,21.5,6.2,20.6,6.2z M12,10.1c-0.3-0.2-0.5-0.5-0.5-0.9c0-0.6,0.5-1.1,1.1-1.1s1.1,0.5,1.1,1.1c0,0.4-0.2,0.7-0.5,0.9
		c0.7,0.2,1.1,0.9,1.1,1.6h-3.4C10.8,11,11.3,10.3,12,10.1z M19.5,21.3h-8.6c-0.5,0-0.9-0.4-0.9-0.9s0.4-0.9,0.9-0.9h8.6
		c0.5,0,0.9,0.4,0.9,0.9S19.9,21.3,19.5,21.3z M19.5,18h-8.6c-0.5,0-0.9-0.4-0.9-0.9s0.4-0.9,0.9-0.9h8.6c0.5,0,0.9,0.4,0.9,0.9
		S19.9,18,19.5,18z M19.5,14.8h-8.6c-0.5,0-0.9-0.4-0.9-0.9s0.4-0.9,0.9-0.9h8.6c0.5,0,0.9,0.4,0.9,0.9S19.9,14.8,19.5,14.8z
		 M19.5,10.8h-2.8c-0.5,0-0.9-0.4-0.9-0.9s0.4-0.9,0.9-0.9h2.8c0.5,0,0.9,0.4,0.9,0.9S19.9,10.8,19.5,10.8z"/>
</g>
</svg>
