<?xml version="1.0" encoding="utf-8"?>
<!-- Generator: Adobe Illustrator 23.0.1, SVG Export Plug-In . SVG Version: 6.00 Build 0)  -->
<svg version="1.1" id="Layer_1" xmlns="http://www.w3.org/2000/svg" xmlns:xlink="http://www.w3.org/1999/xlink" x="0px" y="0px"
	 viewBox="0 0 792 185.9" style="enable-background:new 0 0 792 185.9;" xml:space="preserve">
<style type="text/css">
	.st0{fill:#FFFFFF;}
</style>
<g>
	<g>
		<path class="st0" d="M146.7,18.2c-2.6-5.4-7.9-8.7-13.8-8.7h-21.4c-6.2,0-11.7,3.7-14.1,9.3L75.1,71.4c0,0.1,0,0.1-0.2,0.1l0,0
			c-0.1,0-0.1,0-0.2-0.1L53.1,19c-2.4-5.7-7.9-9.5-14.2-9.5H18.1c-4.9,0-9.6,2.1-12.5,6c-3.6,4.8-4.2,11-1.5,16.3l44.3,87
			c0.5,1,0.8,2.2,0.8,3.3v5.9c0,2.2,1.8,4,4,4s4-1.8,4-4v-4.5c0-3.3-0.8-6.6-2.3-9.5L11.3,28.3c-1.1-2.2-1.2-4.8,0-7
			c1.3-2.4,3.7-3.8,6.4-3.8h21.2c3,0,5.6,1.8,6.8,4.5l21.7,52.5c1.2,3,4.1,5,7.3,5.1c3.4,0.1,6.4-1.9,7.7-5L104.8,22
			c1.1-2.7,3.8-4.5,6.7-4.5h21.1c2.4,0,4.8,1,6.2,3c1.7,2.3,1.9,5.2,0.6,7.7l-26.3,51c-1.4,2.7,0.6,5.8,3.6,5.8
			c1.5,0,2.9-0.8,3.6-2.2l26.2-50.7C148.6,27.8,148.8,22.6,146.7,18.2z"/>
	</g>
	<g>
		<path class="st0" d="M57.2,145.5v-0.2c0-2.2-1.8-4-4-4s-4,1.8-4,4v0.2c0,2.2,1.8,4,4,4S57.2,147.7,57.2,145.5z"/>
	</g>
	<g>
		<path class="st0" d="M279.4,35.3c-7-8-15.4-14.5-25.2-19.3c-9.8-4.9-20.9-7.4-32.8-7.4c-11.7,0-22.7,2.3-32.5,7
			c-4.4,2.1-8.5,4.4-12.3,7.2c-2,1.4-2.3,4.2-0.7,6c1.4,1.5,3.6,1.7,5.2,0.5c3.5-2.4,7.2-4.6,11.2-6.5c8.7-4.1,18.5-6.2,29.1-6.2
			c10.7,0,20.5,2.2,29.2,6.5c8.8,4.4,16.4,10.2,22.7,17.4s11.2,15.5,14.6,24.7S293,84,293,93.6c0,9.9-1.8,19.5-5.4,28.6
			s-8.7,17.3-15,24.3s-14,12.6-22.9,16.9c-8.8,4.2-18.6,6.3-29.2,6.3c-10.7,0-20.5-2.2-29.2-6.5c-8.8-4.4-16.5-10.2-22.7-17.3
			c-6.3-7.1-11.2-15.4-14.7-24.6s-5.2-18.8-5.2-28.6c0-9.9,1.8-19.6,5.4-28.8c3.6-9.2,8.7-17.4,15.2-24.3c0.8-0.7,1.3-1.8,1.3-2.9
			c0-2.2-1.8-4-4-4c-0.9,0-1.7,0.3-2.4,0.8c-0.1,0.1-0.3,0.2-0.4,0.3l0,0l-0.1,0.1c-0.1,0.1-0.1,0.1-0.2,0.2
			c-7.2,7.7-12.8,16.8-16.8,26.9s-6,20.8-6,31.7c0,10.7,1.9,21.3,5.7,31.4s9.3,19.2,16.2,27.1s15.4,14.3,25.2,19.2
			s20.9,7.4,32.8,7.4c11.7,0,22.7-2.4,32.6-7.1c9.8-4.7,18.4-11,25.4-18.7s12.6-16.7,16.5-26.7c4-10,6-20.7,6-31.6
			c0-10.6-1.9-21-5.6-31.1C291.8,52.3,286.3,43.2,279.4,35.3z"/>
	</g>
	<g>
		<path class="st0" d="M256.8,92.9c0-0.1,0-0.1,0-0.2c0-5.7-0.7-11.3-2.2-16.6c-1.5-5.4-3.6-10.3-6.5-14.4
			c-2.9-4.3-6.7-7.8-11.3-10.4c-4.6-2.7-10-4-16.1-4c-6.2,0-11.7,1.4-16.3,4.2c-4.4,2.7-8.2,6.3-11.1,10.7c-2.8,4.3-5,9.2-6.4,14.6
			c-1.3,5.3-2,10.8-2,16.3c0,5.7,0.7,11.2,2,16.5c1.4,5.4,3.6,10.3,6.5,14.6c3,4.3,6.8,7.9,11.3,10.6c4.6,2.7,10.1,4.1,16.1,4.1
			c6.2,0,11.8-1.4,16.4-4.3c2.6-1.6,4.9-3.4,6.9-5.6c1.8-1.8,1.3-4.8-0.8-6.2l0,0c-1.6-1-3.7-0.7-5,0.7c-1.6,1.6-3.3,3.1-5.3,4.3
			c-3.4,2.1-7.5,3.1-12.2,3.1c-4.6,0-8.7-1-12.1-3c-3.5-2.1-6.5-4.8-8.8-8.2c-2.4-3.5-4.2-7.5-5.3-12c-1.2-4.7-1.8-9.6-1.8-14.6
			c0-4.9,0.6-9.7,1.8-14.3c1.2-4.5,2.9-8.6,5.3-12.2c2.3-3.4,5.2-6.2,8.6-8.3c3.3-2,7.4-3,12.1-3c4.6,0,8.7,1,12.1,2.9
			c3.5,2,6.4,4.7,8.7,8c2.3,3.4,4.1,7.4,5.4,12c1.2,4.6,1.9,9.5,1.9,14.5c0,0.1,0,0.2,0,0.2c0,2.1,1.6,3.9,3.7,4
			C254.8,97.2,256.8,95.2,256.8,92.9z"/>
	</g>
	<g>
		<path class="st0" d="M413.4,74.2h-0.3c-2.1,0-3.8,1.7-3.8,3.8l0,0c0,2.1,1.7,3.8,3.8,3.8h0.3c2.1,0,3.8-1.7,3.8-3.8l0,0
			C417.2,75.9,415.5,74.2,413.4,74.2z"/>
	</g>
	<g>
		<path class="st0" d="M448.8,125c-2.7,9-6.8,16.9-12.4,23.5c-5.5,6.5-12.6,11.7-21.1,15.5s-18.6,5.7-30.3,5.7c-12,0-22.4-2-30.9-6
			c-1.7-0.8-3.2-1.6-4.8-2.5c-1.7-1-3.9-0.6-5.2,1l-0.1,0.1c-1.4,1.9-0.9,4.6,1.2,5.8c1.7,1,3.6,2,5.4,2.9c9.5,4.5,21,6.8,34.3,6.8
			c12.7,0,24-2.1,33.5-6.4c9.5-4.3,17.6-10.2,23.9-17.6c6.3-7.4,11-16.3,14-26.4c0.6-2.1,1.2-4.2,1.6-6.3c0.6-2.5-1.3-4.9-3.9-4.9
			l0,0c-1.9,0-3.5,1.3-3.9,3.1C449.9,121.2,449.4,123.1,448.8,125z"/>
	</g>
	<g>
		<path class="st0" d="M445.6,9.5h-21c-8.5,0-15.3,6.9-15.3,15.3V61c0,2.1,1.7,3.8,3.8,3.8h0.3c2.1,0,3.8-1.7,3.8-3.8V24.8
			c0-4,3.3-7.3,7.3-7.3h21c4,0,7.3,3.3,7.3,7.3v70.4c0,2.5-0.1,4.9-0.2,7.3c-0.1,2.3,1.7,4.3,4,4.3l0,0c2.1,0,3.9-1.6,4-3.7
			c0.2-2.6,0.2-5.2,0.2-7.8V24.8C460.9,16.4,454,9.5,445.6,9.5z"/>
	</g>
	<g>
		<path class="st0" d="M333.3,147.7c-5.4-6.7-9.5-14.6-12-23.5c-2.6-9.1-3.9-18.8-3.9-29V24.8c0-4,3.3-7.3,7.3-7.3h21
			c4,0,7.3,3.3,7.3,7.3v70.4c0,5.5,0.6,10.9,1.7,15.9c1.1,5.3,3,10,5.4,14c2.6,4.2,5.9,7.6,9.9,10c4.1,2.5,9.2,3.8,15,3.8
			s10.9-1.3,15.1-4c4.1-2.6,7.5-6,10-10.1c2.5-4,4.3-8.7,5.4-13.9c1.1-5,1.7-10.4,1.7-15.8V95c0-2.1-1.7-3.8-3.8-3.8h-0.3
			c-2.1,0-3.8,1.7-3.8,3.8v0.2c0,4.9-0.5,9.7-1.5,14.1c-0.9,4.3-2.4,8.2-4.4,11.4c-1.9,3.1-4.4,5.6-7.4,7.5
			c-2.9,1.8-6.6,2.7-10.9,2.7s-7.9-0.9-10.8-2.7c-3-1.8-5.4-4.3-7.3-7.4c-2-3.3-3.5-7.1-4.4-11.5c-1-4.5-1.5-9.3-1.5-14.3V24.8
			c0-8.5-6.9-15.3-15.3-15.3h-21c-8.5,0-15.3,6.9-15.3,15.3v70.4c0,10.9,1.4,21.4,4.2,31.2c2.8,10,7.4,18.8,13.5,26.4
			c1.2,1.4,2.4,2.8,3.7,4.2c1.7,1.7,4.6,1.5,6-0.4l0,0c1.2-1.6,1.1-3.8-0.3-5.2C335.4,150.2,334.3,149,333.3,147.7z"/>
	</g>
	<g>
		<path class="st0" d="M619.1,161c0,4-3.3,7.3-7.3,7.3h-18c-2.2,0-4.3-1-5.7-2.7l-52.3-64.7c-1.6-2-3.9-3-6.3-3
			c-0.9,0-1.7,0.1-2.6,0.4c-3.4,1.1-5.6,4.5-5.6,8.1V161c0,4-3.3,7.3-7.3,7.3h-21c-4,0-7.3-3.3-7.3-7.3V79c0-2.2-1.8-4-4-4l0,0
			c-2.2,0-4,1.8-4,4v82c0,8.5,6.9,15.3,15.3,15.3h21c8.5,0,15.3-6.9,15.3-15.3v-55v-0.1c0-0.1,0.2-0.1,0.3,0l52.3,64.7
			c2.9,3.6,7.3,5.7,11.9,5.7h18c8.5,0,15.3-6.9,15.3-15.3v-16.9c0-2.2-1.8-4-4-4l0,0c-2.2,0-4,1.8-4,4L619.1,161L619.1,161z"/>
	</g>
	<g>
		<path class="st0" d="M485.7,24.8c0-4,3.3-7.3,7.3-7.3h17.2c2.3,0,4.4,1,5.8,2.8l22.9,29c1.3,1.7,3.7,2,5.4,0.8l0,0
			c1.9-1.3,2.2-3.9,0.8-5.7l-22.9-29c-2.9-3.7-7.3-5.8-12-5.8H493c-8.5,0-15.3,6.9-15.3,15.3v19.5c0,2.2,1.8,4,4,4l0,0
			c2.2,0,4-1.8,4-4V24.8z"/>
	</g>
	<g>
		<path class="st0" d="M611.8,9.5h-21c-8.4,0-15.3,6.9-15.3,15.3v57.5c0,0-0.2,0.1-0.3,0l-19.3-24.4c-1.3-1.7-3.7-2-5.4-0.8l0,0
			c-1.9,1.3-2.2,3.9-0.8,5.7L569,87.2c2.2,2.8,5.8,3.8,9.1,2.7c3.3-1.2,5.5-4.2,5.5-7.7V24.8c0-4,3.3-7.3,7.3-7.3h21
			c4,0,7.3,3.3,7.3,7.3v102c0,2.2,1.8,4,4,4l0,0c2.2,0,4-1.8,4-4v-102C627.1,16.4,620.3,9.5,611.8,9.5z"/>
	</g>
	<g>
		<path class="st0" d="M481.7,57.7L481.7,57.7c-2.2,0-4,1.8-4,4l0,0c0,2.2,1.8,4,4,4l0,0c2.2,0,4-1.8,4-4l0,0
			C485.7,59.4,483.9,57.7,481.7,57.7z"/>
	</g>
	<g>
		<path class="st0" d="M774,83.8h-42.7c-8.5,0-15.3,6.9-15.3,15.3v8.7c0,8.4,6.9,15.3,15.3,15.3h6.5c0.1,0.1,0.1,0.2,0.1,0.2
			c-1.9,1.5-3.8,2.8-5.8,3.8c-4.4,2.4-9,3.6-13.7,3.6c-4.1,0-7.9-0.9-11.3-2.6c-3.4-1.7-6.4-4.2-8.8-7.4c-2.5-3.3-4.5-7.2-5.9-11.8
			c-0.6-2-1.1-4.1-1.4-6.3c-0.3-1.9-2-3.4-3.9-3.4l0,0c-2.4,0-4.3,2.2-4,4.6c0.4,2.6,1,5.1,1.7,7.5c1.7,5.5,4.1,10.3,7.3,14.4
			c3.2,4.1,7.1,7.3,11.5,9.6c4.5,2.3,9.5,3.5,14.9,3.5c6,0,11.9-1.5,17.4-4.5c2.4-1.3,4.8-2.9,7-4.6c2.7-2.2,3.7-5.7,2.6-9
			c-1.2-3.4-4.2-5.5-7.7-5.5h-6.4c-4,0-7.3-3.3-7.3-7.3v-8.7c0-4,3.3-7.3,7.3-7.3H774c4,0,7.3,3.3,7.3,7.3v4c0,2.2,1.8,4,4,4l0,0
			c2.2,0,4-1.8,4-4v-4C789.4,90.6,782.5,83.8,774,83.8z"/>
	</g>
	<g>
		<path class="st0" d="M785.4,124.9L785.4,124.9c2.2,0,4-1.8,4-4v-0.5c0-2.2-1.8-4-4-4l0,0c-2.2,0-4,1.8-4,4v0.5
			C781.4,123.1,783.2,124.9,785.4,124.9z"/>
	</g>
	<g>
		<path class="st0" d="M667.1,38.1c6.5-6.7,14.4-12,23.2-15.9c8.9-3.9,18.5-5.8,28.6-5.8c6.3,0,12.5,0.7,18.3,2.2
			c5.7,1.5,11.1,3.7,16,6.5c4.9,2.9,9.3,6.3,13.1,10.3c1.4,1.5,2.7,3,3.9,4.6c1.1,1.5,1.6,3.3,1.4,5.2c-0.3,2-1.3,3.7-2.8,4.9
			l-14.6,11.1c-3.1,2.3-7.4,1.8-10-1.3c-2.1-2.4-4.5-4.6-7.2-6.5c-6.1-4.3-12.7-6.4-19.6-6.4c-5.1,0-10,1.2-14.3,3.6
			c-4.3,2.4-8,5.7-11.1,9.9c-3,4.1-5.4,9-7.1,14.5c-1,3.3-1.7,6.8-2.1,10.5c-0.3,2.4,1.6,4.4,4,4.4l0,0c2,0,3.7-1.5,4-3.5
			c0.3-3.2,0.9-6.2,1.8-9c1.4-4.7,3.4-8.8,5.9-12.1c2.4-3.2,5.3-5.8,8.6-7.6c3.2-1.8,6.7-2.6,10.5-2.6c5.3,0,10.3,1.6,15.1,5
			c2.1,1.5,4.1,3.2,5.7,5.1c5.4,6.2,14.6,7.3,20.9,2.4l14.6-11.1c3.3-2.5,5.4-6.1,5.9-10.2c0.5-4-0.5-8-3-11.1
			c-1.4-1.8-2.9-3.6-4.5-5.3c-4.3-4.5-9.3-8.4-14.8-11.6s-11.6-5.7-18-7.4c-6.4-1.6-13.2-2.5-20.2-2.5c-11.2,0-21.9,2.2-31.8,6.5
			c-9.8,4.3-18.5,10.2-25.8,17.6c-0.7,0.7-1.4,1.5-2.1,2.3c-1.6,1.8-1.3,4.5,0.6,5.9l0,0c1.6,1.2,3.9,1,5.3-0.6
			C665.8,39.4,666.4,38.8,667.1,38.1z"/>
	</g>
	<g>
		<path class="st0" d="M781.4,161c0,4-3.3,7.3-7.3,7.3h-20.5c-0.1,0-0.2-0.1-0.2-0.2l0,0c0-3-1.7-5.8-4.3-7.2
			c-2.7-1.4-6-1.2-8.6,0.5c-7.7,5.3-16.3,8-25.8,8c-9.2,0-18-2.1-26.2-6.2c-8.3-4.2-15.7-9.8-22-16.9c-6.3-7.1-11.4-15.4-15-24.9
			c-3.7-9.4-5.5-19.5-5.5-30c0-10.6,1.9-20.6,5.6-29.7c1.2-2.9,2.5-5.7,4-8.3c1-1.8,0.5-4-1.1-5.2l0,0c-1.9-1.4-4.7-0.8-5.8,1.3
			c-1.6,2.9-3.1,6-4.4,9.2c-4.1,10.1-6.2,21.1-6.2,32.7c0,11.5,2.1,22.6,6.1,32.9s9.6,19.5,16.5,27.3s15.1,14.1,24.4,18.7
			c9.3,4.7,19.3,7,29.8,7c11.1,0,21.3-3.2,30.3-9.4c0.1,0,0.2-0.1,0.3,0c0.1,0,0.1,0,0.1,0.1l0,0c0,4.5,3.7,8.2,8.2,8.2H774
			c8.5,0,15.3-6.9,15.3-15.3v-22.8c0-2.2-1.8-4-4-4l0,0c-2.2,0-4,1.8-4,4V161H781.4z"/>
	</g>
	<g>
		<path class="st0" d="M107.7,94.4L107.7,94.4c-1.5,0-2.9,0.8-3.6,2.2l-8.9,17.3c-1.7,3.3-2.6,6.9-2.6,10.6V161c0,4-3.3,7.3-7.3,7.3
			H64.1c-3.6,0-6.9-3-6.9-6.6c0-0.3,0-0.5-0.1-0.8c-0.1-2.1-1.8-3.7-3.9-3.7c-1,0-2,0.4-2.7,1.2c-1.5,1.5-1.5,2.7-1.3,3.8
			c0.6,7.9,7.2,14.1,15.3,14.1h20.8c8.5,0,15.3-6.9,15.3-15.3v-36.6c0-2.4,0.6-4.8,1.7-6.9l8.9-17.3
			C112.6,97.5,110.7,94.4,107.7,94.4z"/>
	</g>
	<g>
		<path class="st0" d="M250.9,104.1c-1.8,0-3.2,1.2-3.8,2.7c0,0.1-0.1,0.2-0.1,0.3l0,0c-0.2,1-0.5,2-0.8,2.9
			c-0.6,1.8,0.1,3.7,1.7,4.7c2.2,1.3,5.1,0.3,5.9-2.1c0.4-1.1,0.7-2.3,1-3.5l0,0c0-0.2,0.1-0.3,0-0.5c0-0.2,0.1-0.3,0.1-0.5
			C254.9,105.9,253.1,104.1,250.9,104.1z"/>
	</g>
</g>
</svg>
