<?xml version="1.0" encoding="utf-8"?>
<!-- Generator: Adobe Illustrator 23.0.1, SVG Export Plug-In . SVG Version: 6.00 Build 0)  -->
<svg version="1.1" id="Layer_1" xmlns="http://www.w3.org/2000/svg" xmlns:xlink="http://www.w3.org/1999/xlink" x="0px" y="0px"
	 viewBox="0 0 272.5 266" style="enable-background:new 0 0 272.5 266;" xml:space="preserve">
<style type="text/css">
	.st0{fill:none;stroke:#6D7862;stroke-width:2;stroke-miterlimit:10;stroke-dasharray:12;}
	.st1{fill:#446630;}
	.st2{fill:#FFFFFF;}
	.st3{fill:#9BB360;}
	.st4{fill:#57886E;}
</style>
<line class="st0" x1="78.4" y1="37.4" x2="236.6" y2="196.1"/>
<line class="st0" x1="51.2" y1="57.7" x2="209.5" y2="216.3"/>
<circle class="st1" cx="107.2" cy="158.9" r="23.1"/>
<g>
	<path class="st2" d="M116,152.3c0,1.3-0.3,2.5-0.9,3.6c-0.6,1.1-1.3,2-2.3,2.7c-1,0.7-2.1,1-3.3,1c-1,0-2.1-0.3-3.2-0.9v4.2h-1.9
		v-6.7h1.6c0.3,0.4,0.6,0.7,0.7,0.8c0.3,0.2,0.7,0.3,1.3,0.3c0.9,0,1.6-0.5,2.1-1.4c0.5-0.9,0.8-2.2,0.8-3.8c0-1.5-0.2-2.8-0.6-3.7
		c-0.4-0.9-0.9-1.5-1.5-1.9c-0.6-0.4-1.2-0.5-1.8-0.5c-0.9,0-1.6,0.2-2,0.7c-0.4,0.5-0.7,1.1-0.9,1.7c-0.2,0.5-0.4,0.9-0.6,1.2
		c-0.3,0.3-0.7,0.5-1.2,0.5c-0.5,0-0.9-0.2-1.3-0.6c-0.4-0.4-0.5-0.8-0.5-1.3c0-0.8,0.4-1.5,1.1-2.2c0.7-0.6,1.6-1.1,2.8-1.5
		c1.1-0.4,2.3-0.5,3.6-0.5c1.4,0,2.6,0.2,3.6,0.7c1,0.5,1.9,1.1,2.6,1.9c0.7,0.8,1.2,1.6,1.5,2.6S116,151.3,116,152.3z M108.5,169.5
		c0,0.9-0.3,1.6-0.9,2.2c-0.6,0.6-1.4,0.9-2.2,0.9c-0.9,0-1.6-0.3-2.2-0.9c-0.6-0.6-0.9-1.3-0.9-2.2c0-0.5,0.1-1.1,0.4-1.6
		s0.7-0.9,1.1-1.2c0.5-0.3,1-0.4,1.5-0.4c0.6,0,1.1,0.1,1.6,0.4c0.5,0.3,0.9,0.7,1.1,1.2S108.5,168.9,108.5,169.5z"/>
</g>
<rect x="165.5" y="44.4" class="st3" width="18.8" height="18.8"/>
<rect x="166.2" y="125.1" class="st3" width="18.8" height="18.8"/>
<rect x="228.2" y="135.4" class="st3" width="18.8" height="18.8"/>
<rect x="119.2" y="53.8" class="st3" width="18.8" height="18.8"/>
<polygon class="st4" points="92.5,105.1 79.4,105.1 72.8,116.4 79.4,127.8 92.5,127.8 99.1,116.4 "/>
<polygon class="st4" points="175.5,163.8 162.4,163.8 155.8,175.1 162.4,186.5 175.5,186.5 182.1,175.1 "/>
<polygon class="st4" points="68.6,178.2 55.5,178.2 48.9,189.6 55.5,201 68.6,201 75.2,189.6 "/>
<polygon class="st4" points="208.1,78.7 194.9,78.7 188.4,90.1 194.9,101.5 208.1,101.5 214.7,90.1 "/>
<polygon class="st4" points="39.8,106.2 26.7,106.2 20.1,117.6 26.7,129 39.8,129 46.4,117.6 "/>
</svg>
