<?xml version="1.0" encoding="utf-8"?>
<!-- Generator: Adobe Illustrator 23.0.1, SVG Export Plug-In . SVG Version: 6.00 Build 0)  -->
<svg version="1.1" id="Layer_1" xmlns="http://www.w3.org/2000/svg" xmlns:xlink="http://www.w3.org/1999/xlink" x="0px" y="0px"
	 viewBox="0 0 792 332.4" style="enable-background:new 0 0 792 332.4;" xml:space="preserve">
<style type="text/css">
	.st0{fill:#FFFFFF;}
</style>
<g>
	<path d="M348,269c-5,0-6-0.4-6-1.8c0-0.8,0.2-2.5,0.5-4.7c0.2-1.4,1-7.4,1-7.4l-1.7-0.1c-0.2-0.4-0.3-0.7-0.3-1.1
		c0-1.3,1.1-1.8,4-1.8c2.6,0,2.9,0.5,2.9,1.2c0,0.4-0.1,0.9-0.1,1.4l-1.4,11.3l6.5,0c0.1,0.2,0.2,0.7,0.2,1.1
		C353.6,268.3,352.7,269,348,269z"/>
	<path d="M357.5,269c-1.5,0-2.4-0.6-2.4-1.9c0-0.5,0.1-1.4,0.2-2.1l1-6.1l-1.4,0c-0.2-0.3-0.3-0.7-0.3-1.1c0-1.4,1.2-1.9,4-1.9
		c2.1,0,2.5,0.6,2.3,1.9l-0.7,4.9c-0.2,1.4-0.4,2.4-0.4,2.8c0,0.2,0.1,0.4,0.5,0.4c0.3,0,0.8,0,1.2-0.1c0.3,0.2,0.5,0.6,0.5,1
		C361.8,268.3,360.5,269,357.5,269z M359.7,254.1c-1.2,0-2.2-0.4-2.2-1.9c0-1.3,1-2.4,2.6-2.4c1.5,0,2.1,0.8,2.1,2
		C362.3,253.2,361.4,254.1,359.7,254.1z"/>
	<path d="M372.2,260.1c0.1-0.7-0.2-1.2-1.1-1.2c-0.9,0-1.9,0.4-2.5,1.4l-1.1,8.4c-0.6,0.2-1.6,0.3-2.2,0.3c-1.3,0-2-0.6-2-1.7
		c0-0.3,0.1-0.9,0.2-1.8l0.9-6.5l-1.4,0c-0.2-0.3-0.3-0.7-0.3-1.1c0-1.4,1.2-1.9,4-1.9c1.8,0,2.3,0.4,2.2,1.4l-0.2,1.1
		c1.1-1.8,2.3-2.6,4.7-2.6c2.3,0,3.3,0.9,3.5,2.4c1-1.7,2.4-2.5,4.5-2.5c2.4,0,3.5,1,3.5,3c0,1.5-0.5,3.6-0.8,5.1
		c-0.2,0.8-0.2,1.3-0.2,1.7c0,0.2,0.1,0.3,0.5,0.3c0.3,0,0.7,0,1.1-0.1c0.3,0.2,0.5,0.7,0.5,1.1c0,1.5-1.5,2.1-4.5,2.1
		c-1.5,0-2.3-0.7-2.3-2c0-0.7,0.1-1.4,0.2-2c0.1-0.5,0.9-4.7,0.9-5.2c0-0.6-0.4-0.9-1.2-0.9c-1,0-1.9,0.6-2.4,1.4l-1.1,8.4
		c-0.6,0.2-1.6,0.3-2.2,0.3c-1.3,0-2-0.6-2-1.7c0-0.3,0.1-0.9,0.2-1.8L372.2,260.1z"/>
	<path d="M393.1,263.4c-0.7,0-1.1,0-1.7-0.1c0.1,2,1.3,2.5,2.7,2.5c1.4,0,2.4-0.3,3.6-0.9c0.6,0.2,0.9,0.8,0.9,1.5
		c0,1.4-1.8,2.5-5.6,2.5c-3.5,0-6.1-1.3-6.1-5.3c0-4.8,2.6-7.9,7.3-7.9c3,0,4.7,1.5,4.7,3.6C398.9,262,397.2,263.4,393.1,263.4z
		 M394,258.6c-1.2,0-2.1,1-2.4,2.6c0.5,0.1,0.9,0.1,1.4,0.1c1.6,0,2.2-0.7,2.2-1.6C395.2,259.2,395,258.6,394,258.6z"/>
	<path d="M419.5,256.1l-4.2,0.2l2.2,3.6c0,1-1.1,1.8-2.1,1.8c-0.4,0-0.7-0.1-0.9-0.3l-1.6-4.2l-2.9,3.5c-0.1,0-0.3,0.1-0.4,0.1
		c-1,0-2.1-0.9-2.1-1.9c0-0.2,0-0.4,0.1-0.6l3.4-2.6L407,254c-0.2-0.2-0.3-0.5-0.3-0.8c0-0.9,0.7-2.2,1.8-2.2l3.8,2.5l0.3-4.4
		c0.3-0.4,0.9-0.6,1.4-0.6c1,0,1.8,0.4,2,1.1l-1.2,4.3l4.3-1.2c0.8,0.3,1.2,1.2,1.2,2C420.1,255.2,420,255.8,419.5,256.1z"/>
	<path d="M437.5,258.8c2.6,1.5,3.2,2.9,3.2,4.4c0,3.5-3,5.6-7.2,5.6c-4,0-5.7-1.6-5.7-4.6c0-2.1,1.1-3.9,3.9-4.7
		c-1.5-1-2.1-2.2-2.1-3.7c0-3.2,2.4-5.1,6.3-5.2c3.6,0,5,1.7,5,4C440.9,256.7,439.5,258.2,437.5,258.8z M433.5,260.9
		c-1.3,0.6-1.9,1.6-1.9,2.7c0,1.3,0.7,2.1,2.3,2.1c1.5,0,2.4-0.8,2.4-2C436.3,263,435.9,262.3,433.5,260.9z M435.8,253.7
		c-1.5,0-2.1,0.7-2.1,1.8c0,0.6,0.4,1.4,1.9,2.2c1.2-0.5,2-1.3,2-2.5C437.6,254.3,437,253.6,435.8,253.7z"/>
</g>
<g>
	<path d="M47.4,252c2.6,0,4.3,1.8,4.3,4.4c0,2.6-1.8,4.4-4.4,4.4h-3.1v4.8h-1.7V252H47.4z M44.3,259.2H47c1.9,0,3.1-1.1,3.1-2.9
		c0-1.8-1.1-2.9-3.1-2.9h-2.7V259.2z"/>
	<path d="M53.4,253c0-0.6,0.5-1,1-1c0.6,0,1,0.5,1,1c0,0.6-0.5,1-1,1C53.8,254.1,53.4,253.6,53.4,253z M53.6,255.8h1.6v9.8h-1.6
		V255.8z"/>
	<path d="M57.4,255.8H59v1.6h0c0.5-1.1,1.6-1.7,3.1-1.7c2.1,0,3.4,1.4,3.4,3.6v6.4h-1.6v-6.1c0-1.6-0.7-2.4-2.3-2.4
		c-1.5,0-2.6,1.1-2.6,2.7v5.8h-1.6V255.8z"/>
	<path d="M75.7,262.8c-0.3,1.7-1.9,3-4.1,3c-2.8,0-4.5-1.9-4.5-5c0-3,1.7-5.1,4.4-5.1c2.6,0,4.3,1.9,4.3,4.9v0.6h-7v0.1
		c0,1.9,1.1,3.1,2.9,3.1c1.2,0,2.2-0.6,2.4-1.6H75.7z M68.8,259.9h5.3c0-1.6-1.1-2.8-2.6-2.8C70,257.1,68.9,258.2,68.8,259.9z"/>
	<path d="M77.1,262.8c0-1.7,1.3-2.7,3.5-2.9l2.8-0.2V259c0-1.2-0.8-1.9-2.1-1.9c-1.3,0-2.1,0.6-2.3,1.6h-1.6c0.1-1.7,1.6-3,3.9-3
		c2.3,0,3.7,1.2,3.7,3.2v6.8h-1.6v-1.7h0c-0.6,1.1-1.8,1.9-3.1,1.9C78.4,265.8,77.1,264.6,77.1,262.8z M83.4,261.9v-0.8l-2.6,0.2
		c-1.3,0.1-2.1,0.7-2.1,1.6c0,0.9,0.8,1.5,2,1.5C82.2,264.4,83.4,263.3,83.4,261.9z"/>
	<path d="M96.1,260.7c0,3.1-1.7,5.1-4.2,5.1c-1.4,0-2.5-0.7-3.1-1.8h0v4.9h-1.6v-13.1h1.6v1.7h0c0.6-1.1,1.7-1.8,3.2-1.8
		C94.4,255.6,96.1,257.6,96.1,260.7z M94.4,260.7c0-2.2-1.1-3.6-2.8-3.6c-1.7,0-2.8,1.5-2.8,3.6c0,2.2,1.1,3.6,2.8,3.6
		C93.3,264.3,94.4,262.9,94.4,260.7z"/>
	<path d="M106.7,260.7c0,3.1-1.7,5.1-4.2,5.1c-1.4,0-2.5-0.7-3.1-1.8h0v4.9h-1.6v-13.1h1.6v1.7h0c0.6-1.1,1.7-1.8,3.2-1.8
		C105,255.6,106.7,257.6,106.7,260.7z M105,260.7c0-2.2-1.1-3.6-2.8-3.6c-1.7,0-2.8,1.5-2.8,3.6c0,2.2,1.1,3.6,2.8,3.6
		C103.9,264.3,105,262.9,105,260.7z"/>
	<path d="M108.4,252h1.6v13.6h-1.6V252z"/>
	<path d="M120.4,262.8c-0.3,1.7-1.9,3-4.1,3c-2.8,0-4.5-1.9-4.5-5c0-3,1.7-5.1,4.4-5.1c2.6,0,4.3,1.9,4.3,4.9v0.6h-7v0.1
		c0,1.9,1.1,3.1,2.9,3.1c1.2,0,2.2-0.6,2.4-1.6H120.4z M113.5,259.9h5.3c0-1.6-1.1-2.8-2.6-2.8C114.6,257.1,113.6,258.2,113.5,259.9
		z"/>
	<path d="M121.9,268.3l0.9-4.8h1.7l-1.3,4.8H121.9z"/>
	<path d="M131.3,262c0.2,1.5,1.6,2.3,3.5,2.3c1.8,0,3.2-1,3.2-2.3c0-1.1-0.8-1.9-2.6-2.3l-1.5-0.3c-2.7-0.6-3.9-1.8-3.9-3.8
		c0-2.2,2-3.8,4.8-3.8c2.7,0,4.7,1.6,4.7,3.9h-1.7c-0.2-1.5-1.3-2.4-3.1-2.4c-1.7,0-3,0.8-3,2.2c0,1.1,0.7,1.8,2.6,2.2l1.5,0.3
		c2.8,0.6,4,1.8,4,3.7c0,2.5-2,4.1-5,4.1c-3,0-4.9-1.5-5.1-3.9H131.3z"/>
	<path d="M149.5,265.6H148V264h0c-0.6,1.1-1.6,1.8-3.1,1.8c-2.1,0-3.4-1.4-3.4-3.6v-6.4h1.6v6.1c0,1.6,0.7,2.4,2.3,2.4
		c1.6,0,2.6-1.1,2.6-2.8v-5.8h1.6V265.6z"/>
	<path d="M151.6,266.4h1.7c0.3,0.9,1.3,1.5,2.5,1.5c1.7,0,2.7-1,2.7-2.4v-1.5h0c-0.6,1.1-1.8,1.8-3.1,1.8c-2.5,0-4.1-2-4.1-5
		c0-3.1,1.6-5,4.2-5c1.4,0,2.5,0.7,3.2,1.8h0v-1.6h1.6v9.6c0,2.3-1.7,3.9-4.4,3.9C153.5,269.3,151.8,268.1,151.6,266.4z
		 M158.5,260.7c0-2.2-1.1-3.6-2.8-3.6c-1.7,0-2.8,1.4-2.8,3.6c0,2.2,1.1,3.6,2.8,3.6C157.3,264.2,158.5,262.8,158.5,260.7z"/>
	<path d="M161.8,262.8c0-1.7,1.3-2.7,3.5-2.9l2.8-0.2V259c0-1.2-0.8-1.9-2.1-1.9c-1.3,0-2.1,0.6-2.3,1.6h-1.6c0.1-1.7,1.6-3,3.9-3
		c2.3,0,3.7,1.2,3.7,3.2v6.8h-1.6v-1.7h0c-0.6,1.1-1.8,1.9-3.1,1.9C163.2,265.8,161.8,264.6,161.8,262.8z M168.2,261.9v-0.8
		l-2.6,0.2c-1.3,0.1-2.1,0.7-2.1,1.6c0,0.9,0.8,1.5,2,1.5C167,264.4,168.2,263.3,168.2,261.9z"/>
	<path d="M171.9,255.8h1.5v1.6h0c0.3-1.1,1.2-1.8,2.4-1.8c0.3,0,0.5,0,0.7,0.1v1.6c-0.1,0-0.5-0.1-0.9-0.1c-1.3,0-2.1,0.9-2.1,2.3
		v6.1h-1.6V255.8z"/>
	<path d="M176.7,268.3l0.9-4.8h1.7l-1.3,4.8H176.7z"/>
	<path d="M185.1,265.6V252h1.6l7.4,10.7h0.1V252h1.7v13.6h-1.6l-7.4-10.6h-0.1v10.6H185.1z"/>
	<path d="M206.4,265.6h-1.6V264h0c-0.6,1.1-1.6,1.8-3.1,1.8c-2.1,0-3.4-1.4-3.4-3.6v-6.4h1.6v6.1c0,1.6,0.7,2.4,2.3,2.4
		c1.6,0,2.6-1.1,2.6-2.8v-5.8h1.6V265.6z"/>
	<path d="M210.6,253.4v2.4h1.9v1.3h-1.9v5.8c0,0.9,0.4,1.3,1.2,1.3c0.2,0,0.6,0,0.7,0v1.4c-0.2,0-0.7,0.1-1,0.1
		c-1.8,0-2.5-0.7-2.5-2.6v-5.9h-1.5v-1.3h1.5v-2.4H210.6z"/>
	<path d="M214.3,255.8h1.5v1.6h0c0.5-1,1.5-1.7,2.8-1.7c1.3,0,2.3,0.7,2.7,1.9h0c0.5-1.2,1.7-1.9,3.1-1.9c1.9,0,3.2,1.3,3.2,3.2v6.8
		h-1.6v-6.4c0-1.3-0.7-2.1-2-2.1c-1.3,0-2.2,1-2.2,2.3v6.2h-1.6V259c0-1.2-0.8-1.9-2-1.9c-1.3,0-2.2,1-2.2,2.4v6.1h-1.6V255.8z"/>
	<path d="M237.9,262.8c-0.3,1.7-1.9,3-4.1,3c-2.8,0-4.5-1.9-4.5-5c0-3,1.7-5.1,4.4-5.1c2.6,0,4.3,1.9,4.3,4.9v0.6h-7v0.1
		c0,1.9,1.1,3.1,2.9,3.1c1.2,0,2.2-0.6,2.4-1.6H237.9z M231,259.9h5.3c0-1.6-1.1-2.8-2.6-2.8C232.2,257.1,231.1,258.2,231,259.9z"/>
	<path d="M239.6,266.4h1.7c0.3,0.9,1.3,1.5,2.5,1.5c1.7,0,2.7-1,2.7-2.4v-1.5h0c-0.6,1.1-1.8,1.8-3.1,1.8c-2.5,0-4.1-2-4.1-5
		c0-3.1,1.6-5,4.2-5c1.4,0,2.5,0.7,3.2,1.8h0v-1.6h1.6v9.6c0,2.3-1.7,3.9-4.4,3.9C241.5,269.3,239.8,268.1,239.6,266.4z
		 M246.5,260.7c0-2.2-1.1-3.6-2.8-3.6c-1.7,0-2.8,1.4-2.8,3.6c0,2.2,1.1,3.6,2.8,3.6C245.3,264.2,246.5,262.8,246.5,260.7z"/>
	<path d="M250,268.3l0.9-4.8h1.7l-1.3,4.8H250z"/>
	<path d="M266.7,265.6h-8.2V252h1.7v12.1h6.6V265.6z"/>
	<path d="M268.1,253c0-0.6,0.5-1,1-1c0.6,0,1,0.5,1,1c0,0.6-0.5,1-1,1C268.6,254.1,268.1,253.6,268.1,253z M268.4,255.8h1.6v9.8
		h-1.6V255.8z"/>
	<path d="M272.2,255.8h1.5v1.6h0c0.5-1,1.5-1.7,2.8-1.7c1.3,0,2.3,0.7,2.7,1.9h0c0.5-1.2,1.7-1.9,3.1-1.9c1.9,0,3.2,1.3,3.2,3.2v6.8
		H284v-6.4c0-1.3-0.7-2.1-2-2.1c-1.3,0-2.2,1-2.2,2.3v6.2h-1.6V259c0-1.2-0.8-1.9-2-1.9c-1.3,0-2.2,1-2.2,2.4v6.1h-1.6V255.8z"/>
	<path d="M295.8,262.8c-0.3,1.7-1.9,3-4.1,3c-2.8,0-4.5-1.9-4.5-5c0-3,1.7-5.1,4.4-5.1c2.6,0,4.3,1.9,4.3,4.9v0.6h-7v0.1
		c0,1.9,1.1,3.1,2.9,3.1c1.2,0,2.2-0.6,2.4-1.6H295.8z M288.9,259.9h5.3c0-1.6-1.1-2.8-2.6-2.8C290.1,257.1,289,258.2,288.9,259.9z"
		/>
</g>
<g>
	<path d="M616.2,180.7l4.4-1.7l8.6,7.5l3.5,3.4l0.1,0c-1-1.9-2.4-4.4-3.2-6.7l-2.6-6.7l4.1-1.6l7.4,18.9l-4.4,1.7l-8.6-7.5l-3.5-3.4
		l-0.1,0c1,2,2.4,4.4,3.2,6.6l2.6,6.7l-4.1,1.6L616.2,180.7z"/>
	<path d="M640.2,186.8l-3.5-8.9l4.3-1.7l3.3,8.4c0.8,2.1,1.6,2.5,2.9,2c1.1-0.4,1.5-1.1,1.9-2.6l-3.7-9.5l4.3-1.7l5.6,14.4l-3.5,1.4
		l-1.1-1.9l-0.1,0c-0.6,1.9-1.6,3.3-3.6,4.1C643.8,192.1,641.6,190.4,640.2,186.8z"/>
	<path d="M657.5,180.3l-2.3-5.8l-2,0.8L652,172l2.1-1l-1-4l3.5-1.4l1.5,3.8l3.4-1.4l1.3,3.3l-3.4,1.4l2.3,5.8c0.6,1.6,1.6,2,2.8,1.6
		c0.5-0.2,0.9-0.5,1.3-0.8l1.9,2.8c-0.7,0.5-1.6,1.2-3,1.8C661.1,185.3,658.8,183.6,657.5,180.3z"/>
	<path d="M664.4,167l3.5-1.4l1,1.7l0.1,0c0.7-1.6,1.6-3.2,3.5-3.9c2-0.8,3.6-0.4,4.9,0.9c0.7-1.8,1.7-3.4,3.6-4.2
		c3.1-1.2,5.4,0.4,6.8,4l3.5,8.9l-4.3,1.7l-3.3-8.4c-0.8-2.1-1.6-2.5-2.8-2c-0.7,0.3-1.4,1.1-1.9,2.4l3.8,9.7l-4.3,1.7l-3.3-8.4
		c-0.8-2.1-1.6-2.5-2.8-2c-0.7,0.3-1.4,1.1-1.9,2.4l3.8,9.7l-4.3,1.7L664.4,167z"/>
	<path d="M691.2,164.7c-1.8-4.7,0.4-8.8,3.8-10.2c4.1-1.6,7.3,0.6,8.8,4.5c0.3,0.8,0.5,1.6,0.6,2l-8.6,3.4c1.2,1.9,3,2.3,4.9,1.6
		c1.1-0.4,1.9-1.1,2.7-2.2l2.4,2c-1.1,1.6-2.8,3-4.5,3.6C697.4,171,693.1,169.5,691.2,164.7z M699.9,159.5c-0.6-1.6-1.8-2.4-3.5-1.8
		c-1.3,0.5-2.2,1.9-1.7,3.8L699.9,159.5z"/>
	<path d="M709.7,168.6c-0.5-1.2-0.1-2.4,0.9-3.7l0-0.1c-0.9-0.2-1.8-0.7-2.3-1.9c-0.4-1-0.1-2.3,0.5-3.3l0-0.1
		c-1.3-0.3-2.7-1.3-3.4-3c-1.4-3.4,0.8-6.3,3.9-7.5c0.8-0.3,1.6-0.5,2.4-0.5l5.3-2.1l1.2,3.1l-2.3,0.9c0.4,0.3,0.9,0.9,1.2,1.7
		c1.3,3.3-0.6,5.8-3.8,7.1c-0.5,0.2-1.2,0.4-1.9,0.4c-0.2,0.4-0.3,0.8-0.1,1.3c0.3,0.7,1,0.8,2.6,0.2l2.3-0.9
		c3.5-1.4,5.9-1.1,6.9,1.5c1.2,3-1.1,6.4-6,8.3C713.8,171.2,710.7,171.2,709.7,168.6z M713.3,153.4c-0.6-1.5-1.7-2-2.9-1.6
		c-1.1,0.4-1.6,1.6-1,3.1c0.6,1.6,1.8,2.1,2.9,1.6C713.4,156.1,713.9,155,713.3,153.4z M719.4,163.9c-0.4-0.9-1.2-0.8-2.6-0.3
		l-1.5,0.6c-1,0.4-1.6,0.5-2.1,0.6c-0.4,0.7-0.4,1.2-0.2,1.7c0.4,1.1,1.9,1.2,3.8,0.4C718.7,166.2,719.7,164.9,719.4,163.9z"/>
	<path d="M727,145.8l0.5-3.7l-3.7-0.2l-0.1-2.4l3.6-0.6l-1-3.6l2.2-0.9l1.7,3.3l3.1-2l1.5,1.8l-2.6,2.7l2.9,2.3l-1.3,2l-3.3-1.7
		l-1.3,3.5L727,145.8z"/>
	<path d="M748.1,147.9c2.9-6.3,5-10.7,4-13.3c-0.7-1.8-2.1-2.4-3.7-1.7c-1.3,0.5-2,1.8-2.5,3.2l-3.2-1.4c1-2.6,2.4-4.3,5-5.3
		c3.6-1.4,7-0.1,8.4,3.5c1.2,3.1-0.4,7.5-2.2,11.8c0.9-0.5,2.1-1.1,3-1.4l3.7-1.5l1.4,3.6l-12.9,5.1L748.1,147.9z"/>
</g>
<g>
	<path d="M620.8,141.6c-0.9-0.7-1.7-1-2.5-0.9c-0.8,0.1-2,0.6-3.4,1.4c-1.4,0.9-2.6,1.4-3.6,1.7s-1.9,0.3-2.8,0.1
		c-0.9-0.2-1.7-0.6-2.5-1.2c-1.4-1.1-2.1-2.5-2.2-4.1c-0.1-1.6,0.4-3.2,1.6-4.6c0.8-1,1.8-1.7,2.9-2.1c1.1-0.4,2.2-0.5,3.4-0.3
		c1.1,0.2,2.2,0.7,3.2,1.5l-1.8,2.2c-1.1-0.9-2.1-1.3-3.1-1.2c-1,0-1.9,0.5-2.7,1.5c-0.7,0.9-1,1.7-0.9,2.6c0.1,0.9,0.6,1.7,1.5,2.4
		c0.7,0.6,1.5,0.8,2.5,0.7c0.9-0.1,2-0.6,3.3-1.3c1.9-1.2,3.6-1.9,5-1.9c1.4-0.1,2.8,0.4,4.1,1.5c1.4,1.1,2.1,2.5,2.2,4.1
		c0.1,1.6-0.5,3.2-1.8,4.7c-0.8,1-1.8,1.7-2.9,2.2c-1.1,0.5-2.3,0.7-3.5,0.5c-1.2-0.2-2.3-0.7-3.3-1.5l1.8-2.2
		c1.1,0.9,2.1,1.2,3.2,1.1c1.1-0.1,2-0.7,2.9-1.7c0.8-1,1.1-1.9,1-2.7C622.1,143.1,621.7,142.3,620.8,141.6z"/>
	<path d="M633.2,133c0.3,1.4,0,2.8-1.1,4.1c-0.9,1.2-2,1.7-3.3,1.6c-1.3-0.1-2.7-0.7-4.2-1.9l-8.3-6.8l1.7-2.1l8.2,6.6
		c2,1.6,3.5,1.8,4.4,0.6c1-1.3,1.2-2.6,0.4-4l-9.4-7.7l1.7-2.1l12.7,10.4l-1.6,2L633.2,133z"/>
	<path d="M631.2,123.5c-2-1.6-3.2-3.2-3.6-4.8c-0.4-1.6-0.1-3,1.1-4.4c1.1-1.3,2.4-1.8,4.1-1.6l-1.3-1.3l1.5-1.9l12.9,10.5
		c1.6,1.3,2.5,2.7,2.6,4.2c0.2,1.5-0.3,3-1.5,4.4c-0.5,0.6-1.2,1.2-2.2,1.7c-0.9,0.5-1.8,0.8-2.6,0.8l-0.7-2
		c1.6-0.2,2.8-0.8,3.6-1.8c1.4-1.7,1.2-3.4-0.7-5l-1.7-1.4c0.4,1.5,0.2,2.9-0.8,4.1c-1.1,1.3-2.4,1.9-4,1.9
		c-1.6-0.1-3.3-0.8-5.2-2.3L631.2,123.5z M634.1,122.4c1.4,1.2,2.6,1.8,3.7,1.9c1,0.1,1.9-0.3,2.7-1.2c0.8-1,0.9-2.2,0.3-3.6
		l-6.4-5.2c-1.5-0.3-2.6,0-3.4,1c-0.8,1-1,1.9-0.7,2.9c0.3,1,1.2,2,2.6,3.2L634.1,122.4z"/>
	<path d="M653.5,110.3c-0.4-0.1-0.9-0.4-1.6-0.9c0.5,1.6,0.3,3-0.7,4.2c-0.9,1.2-2,1.8-3.2,1.9c-1.2,0.1-2.4-0.3-3.5-1.3
		c-1.3-1.1-2-2.3-2-3.8c0-1.5,0.5-3,1.8-4.6l1.2-1.5l-1.4-1.1c-0.8-0.6-1.4-0.9-2-0.8c-0.6,0.1-1.2,0.5-1.7,1.1
		c-0.5,0.6-0.7,1.3-0.7,2c0.1,0.7,0.4,1.3,0.9,1.7l-1.7,2.1c-0.7-0.5-1.1-1.2-1.4-2.1c-0.3-0.9-0.3-1.8-0.1-2.7
		c0.2-0.9,0.6-1.8,1.3-2.6c1.1-1.3,2.2-2,3.4-2.2c1.2-0.2,2.4,0.3,3.7,1.3l6.4,5.2c1,0.8,1.9,1.4,2.9,1.7l0.2,0.2L653.5,110.3z
		 M649.6,111.7c0.4-0.5,0.7-1.1,0.8-1.8c0.1-0.7,0-1.3-0.2-1.9l-3-2.5l-1,1.2c-0.8,1-1.2,2-1.2,2.9c0,0.9,0.3,1.7,1.1,2.3
		c0.7,0.6,1.4,0.9,1.9,0.8C648.5,112.8,649,112.4,649.6,111.7z"/>
	<path d="M651.1,91.2c-0.3,0.2-0.6,0.5-0.9,0.9c-0.9,1.1-0.9,2.3-0.1,3.7l9.1,7.4l-1.7,2.1l-12.7-10.4l1.7-2l1.3,1
		c-0.6-1.4-0.4-2.6,0.4-3.6c0.3-0.3,0.5-0.6,0.8-0.7L651.1,91.2z"/>
	<path d="M658.4,80.7l-4,2.7l-1.3-2l4.2-2.5l-4.1-3.2l1.5-1.8l4,3.5l1.6-4.6l2.2,0.9l-1.9,4.5l5.1,0.3l-0.1,2.4l-5.2-0.6l1.6,4.8
		l-2.3,0.6L658.4,80.7z"/>
	<path d="M686,70.5l-1.7,2.1l-14.5-11.8l-1.3,4.9l-2-1.6l2-7.3l0.3-0.3L686,70.5z"/>
	<path d="M695.7,58.6l-1.7,2.1l-14.5-11.8l-1.3,4.9l-2-1.6l2-7.3l0.3-0.3L695.7,58.6z"/>
</g>
<g>
	<path d="M468.7,140.5c-3.8-3.2-4.3-4.2-3.4-5.3c0.5-0.6,1.8-1.8,3.4-3.3c1.1-1,5.6-5.1,5.6-5.1l-1.2-1.2c0.1-0.4,0.2-0.7,0.5-1
		c0.8-1,2-0.6,4.2,1.2c2,1.6,1.9,2.2,1.4,2.8c-0.3,0.3-0.6,0.6-1,1l-8.3,7.7l5,4.2c-0.1,0.3-0.3,0.7-0.5,1
		C473.4,143.6,472.3,143.5,468.7,140.5z"/>
	<path d="M475.9,146.6c-1.2-1-1.5-2-0.6-3c0.3-0.4,1-1,1.5-1.5l4.7-4l-1.1-0.9c0-0.4,0.2-0.7,0.5-1.1c0.9-1,2.1-0.6,4.3,1.1
		c1.6,1.3,1.5,2.1,0.6,2.9l-3.7,3.3c-1.1,1-1.9,1.6-2.2,1.9c-0.1,0.2-0.2,0.4,0.1,0.6c0.2,0.2,0.6,0.5,1,0.6c0.1,0.4,0,0.8-0.3,1.1
		C479.7,148.9,478.2,148.6,475.9,146.6z M487.2,136.7c-0.9-0.7-1.4-1.7-0.4-2.9c0.9-1,2.3-1.2,3.5-0.1c1.1,0.9,1.1,2,0.3,2.9
		C489.8,137.7,488.5,137.8,487.2,136.7z"/>
	<path d="M492.9,149.3c0.5-0.5,0.7-1.1,0-1.7c-0.7-0.6-1.7-0.9-2.9-0.5l-6.2,5.7c-0.6-0.2-1.4-0.8-1.9-1.2c-1-0.9-1.2-1.7-0.4-2.6
		c0.2-0.3,0.7-0.7,1.3-1.2l4.9-4.4l-1.1-0.9c0-0.4,0.2-0.7,0.5-1.1c0.9-1,2.1-0.6,4.3,1.1c1.4,1.2,1.5,1.8,0.7,2.5l-0.8,0.7
		c2-0.7,3.4-0.5,5.3,1c1.7,1.5,1.9,2.8,1.1,4.1c1.9-0.7,3.4-0.4,5,1c1.8,1.5,2,3,0.7,4.5c-1,1.2-2.7,2.4-3.9,3.4
		c-0.7,0.5-1,0.9-1.2,1.2c-0.1,0.2-0.1,0.3,0.2,0.6c0.2,0.2,0.6,0.4,0.9,0.6c0.1,0.4,0,0.8-0.3,1.1c-1,1.1-2.5,0.7-4.8-1.3
		c-1.2-1-1.3-2-0.4-3c0.4-0.5,1-1,1.5-1.4c0.4-0.3,3.7-3,4.1-3.4c0.4-0.4,0.3-1-0.3-1.5c-0.8-0.7-1.8-0.7-2.8-0.5l-6.2,5.7
		c-0.6-0.2-1.4-0.8-1.9-1.2c-1-0.9-1.2-1.7-0.4-2.6c0.2-0.3,0.6-0.7,1.3-1.2L492.9,149.3z"/>
	<path d="M506.6,165.4c-0.6-0.5-0.8-0.7-1.2-1.2c-1.2,1.5-0.6,2.8,0.5,3.7c1,0.9,2,1.3,3.3,1.7c0.3,0.5,0.2,1.2-0.3,1.7
		c-0.9,1.1-3,0.7-5.8-1.7c-2.7-2.2-3.8-4.9-1.2-8c3.1-3.7,7.1-4.3,10.7-1.3c2.3,1.9,2.6,4.2,1.3,5.8
		C512,168.1,509.8,168,506.6,165.4z M510.4,162.3c-0.9-0.8-2.3-0.6-3.5,0.4c0.3,0.3,0.6,0.6,1,1c1.2,1,2.1,0.9,2.7,0.3
		C511,163.5,511.2,162.9,510.4,162.3z"/>
	<path d="M531.6,176.8l-3.3-2.6l-0.6,4.2c-0.7,0.8-2,0.6-2.7,0c-0.3-0.3-0.5-0.6-0.5-0.8l1.5-4.2l-4.5,0.8c-0.1-0.1-0.3-0.1-0.3-0.2
		c-0.8-0.6-1-2-0.3-2.8c0.1-0.1,0.3-0.3,0.4-0.4l4.3,0.2l-2.1-3.8c0-0.3,0.2-0.6,0.4-0.8c0.6-0.7,2-1.2,2.8-0.5l1.3,4.3l3-3.2
		c0.5-0.1,1,0.1,1.4,0.4c0.8,0.6,1.1,1.5,0.8,2.2l-3.7,2.5l4,1.9c0.5,0.8,0.1,1.7-0.4,2.3C532.6,176.6,532.1,176.9,531.6,176.8z"/>
	<path d="M543.6,190.6c1,2.9,0.5,4.2-0.4,5.4c-2.3,2.7-5.9,2.4-9.1-0.3c-3.1-2.6-3.3-4.9-1.4-7.2c1.4-1.6,3.3-2.2,6-1.1
		c-0.5-1.7-0.2-3,0.8-4.1c2.1-2.5,5.2-2.3,8.1,0.1c2.8,2.3,2.8,4.5,1.2,6.3C547.5,191.2,545.5,191.4,543.6,190.6z M539.1,189.6
		c-1.4-0.3-2.5,0-3.2,0.9c-0.8,1-0.8,2.1,0.4,3.1c1.1,1,2.3,1,3.2,0C540,193,540,192.2,539.1,189.6z M545.6,185.5
		c-1.1-1-2.1-0.8-2.8,0c-0.4,0.5-0.5,1.3,0.1,2.9c1.2,0.4,2.3,0.3,3.1-0.6C546.5,187.2,546.5,186.3,545.6,185.5z"/>
</g>
<g>
	<path d="M509.9,30.3c-3.1,1.3-3.2,1.6-2.4,4.1l-1.1,0.5l-4-9.5l1.1-0.5c1,1.9,1.3,2,4.4,0.7l9.5-4c3.1-1.3,3.2-1.6,2.6-3.5l1.1-0.5
		l3.5,8.4c1.1,2.7,1.4,4.4,1.1,5.9c-0.4,1.6-1.3,3-3.3,3.8c-3.8,1.6-7-0.4-8.7-3.5c-0.2-0.3-0.3-0.6-0.4-0.8l-0.4-2.4L509.9,30.3z
		 M514.3,28.4c0,0.4,0.1,0.9,0.3,1.3c0.4,0.9,1.8,2.4,5.6,0.8c3-1.3,3.2-3.3,2.7-4.6c-0.4-0.9-0.6-0.9-1.5-0.6L514.3,28.4z"/>
	<path d="M519.5,40.4c1.8-0.7,1.8-0.8,1.3-2.5l1-0.4c1,1.6,2.3,3.8,3.6,5.7l-10.1,4.3c-1.6,0.7-1.7,0.9-1.2,2.5l-1.1,0.5l-3.3-7.8
		l1.1-0.5c0.8,1.4,1,1.5,2.7,0.8L519.5,40.4z M529.4,41.7c-1.4,0.6-3,0-3.5-1.4c-0.6-1.3,0.1-3,1.4-3.5c1.4-0.6,3,0.1,3.5,1.4
		C531.4,39.6,530.8,41.1,529.4,41.7z"/>
	<path d="M519.8,66.8l-3.1-7.4l1.1-0.5c0.7,1.1,0.8,1.2,2.5,0.5l5.5-2.3c1.7-0.7,2-1.6,1.5-2.6c-0.4-0.8-0.9-1.2-1.6-1.4l-6.9,2.9
		c-1.6,0.7-1.7,0.9-1.5,1.9l-1.1,0.5l-3.2-7.5l1.1-0.5c0.9,1.6,1.1,1.7,2.7,1.1l6.2-2.6c1.7-0.7,1.7-0.8,1.2-2.4l1-0.4
		c1,1.9,2.3,3.8,3.7,5.7l-1.8,0.8l1.2,0.8c1.1,0.7,1.7,1.2,2.1,2.2c1.2,2.8,0.1,4.8-2.1,5.8l-6.3,2.7c-1.6,0.7-1.7,0.9-1.3,2.4
		L519.8,66.8z"/>
	<path d="M528.1,78.3c-3.4-0.7-5-2.8-5.4-3.8c-1.7-4,0-7.7,3.6-9.2c3.9-1.7,8.5,0.1,10.1,3.9c1,2.3,0,5.6-2.7,6.7
		c-1,0.4-1.1,0.3-1.4-0.2c-0.3-0.4-2-3.7-3.3-6.4c-2.6,1.1-3.3,3.8-2.6,5.4c0.5,1.1,1.2,1.8,2.4,2.7L528.1,78.3z M531.7,71.2
		c0.2,0.5,0.4,0.6,0.9,0.3c1.3-0.5,2.3-2,2-2.7c-0.3-0.6-1.6-1.1-4-0.1L531.7,71.2z"/>
	<path d="M534.3,90.6c-1.2,0.5-1.5,1-1.3,1.4c0.1,0.3,0.4,0.6,0.7,0.8l-0.9,0.8l-3.2-2.9c-0.6-1.5-0.2-2.6,0.5-3.2
		c-1.2-0.9-2.6-1.7-2.8-2.2c-1.2-2.8,0.1-5.1,2.3-6c1.6-0.7,2.8-0.2,4.3,1.3c1.2,1.3,2.7,2.9,3.5,3.6l0.8-0.4
		c1.2-0.5,1.7-1.6,1.4-2.4c-0.1-0.3-0.4-0.6-0.7-0.7c-0.6-0.2-1.6,0-2.8,0.2c-0.6,0.1-1.1-0.3-1.3-0.9c-0.3-0.8-0.4-2.5,0.7-2.9
		c0.6-0.2,1.2-0.1,2.1,0.4c1.1,0.6,3.2,2.5,4.4,4.4c0.7,1.7,0.8,2.8,0.5,3.7c-0.3,1.3-1.3,2-2.3,2.4L534.3,90.6z M535.8,84.9
		c-0.5-0.5-0.8-0.8-1.3-1.2c-0.7-0.6-1.5-0.6-2.5-0.2c-1.6,0.7-1.8,2.1-1.6,2.6c0.1,0.2,0.3,0.5,0.6,0.8L535.8,84.9z"/>
	<path d="M525.4,96.7l1.1-0.5c0.9,1.6,1.1,1.6,2.7,1l12.4-5.2c1.6-0.7,1.6-0.7,1-2.6l0.9-0.4c1.1,1.9,2.4,3.5,4,5.8l-1.9,0.8
		l2.1,1.4c0.3,0.2,0.6,0.5,0.8,1.1c1.5,3.6-0.5,6.7-3.4,7.9c-4.3,1.8-8.6-0.4-10.9-4c-0.1-0.2-0.3-1-0.3-1.5l-2.8,1.2
		c-1.6,0.7-1.7,0.9-1,3l-1.1,0.5L525.4,96.7z M536.4,99.4c-0.4,0.8-0.4,1.8-0.2,2.4c0.3,0.6,1.4,1.8,5.8,0c3.5-1.5,3.7-3.6,3.3-4.5
		c-0.2-0.4-0.5-0.9-1.1-1.2L536.4,99.4z"/>
	<path d="M532.1,112.5l1.1-0.5c0.9,1.6,1.1,1.6,2.7,1l12.4-5.2c1.6-0.7,1.6-0.7,1-2.6l0.9-0.4c1.1,1.9,2.4,3.5,4,5.8l-1.9,0.8
		l2.1,1.4c0.3,0.2,0.6,0.5,0.8,1.1c1.5,3.6-0.5,6.7-3.4,7.9c-4.3,1.8-8.6-0.4-10.9-4c-0.1-0.2-0.3-1-0.3-1.5l-2.8,1.2
		c-1.6,0.7-1.7,0.9-1,3l-1.1,0.5L532.1,112.5z M543,115.3c-0.4,0.8-0.4,1.8-0.2,2.4c0.3,0.6,1.4,1.8,5.8,0c3.5-1.5,3.7-3.6,3.3-4.5
		c-0.2-0.4-0.5-0.9-1.1-1.2L543,115.3z"/>
	<path d="M561.8,120.7c1.7-0.7,1.7-0.8,1.1-2.6l1-0.4c0.9,1.5,2.2,3.6,3.7,5.9l-17.1,7.2c-1.6,0.7-1.7,0.9-1.2,2.5l-1.1,0.5
		l-3.3-7.8l1.1-0.5c0.8,1.4,1,1.5,2.7,0.8L561.8,120.7z"/>
	<path d="M556.3,145.1c-3.4-0.7-5-2.8-5.4-3.8c-1.7-4,0-7.7,3.6-9.2c3.9-1.7,8.5,0.1,10.1,3.9c1,2.3,0,5.6-2.7,6.7
		c-1,0.4-1.1,0.3-1.4-0.2c-0.3-0.4-2-3.7-3.3-6.4c-2.6,1.1-3.3,3.8-2.6,5.4c0.5,1.1,1.2,1.8,2.4,2.7L556.3,145.1z M559.9,138.1
		c0.2,0.5,0.4,0.6,0.9,0.3c1.3-0.5,2.3-2,2-2.7c-0.3-0.6-1.6-1.1-4-0.1L559.9,138.1z"/>
	<path d="M570.3,153.2l-4-3l0.7-1.1l4.4,1.9l2-4.7l1.2,0.3l-0.8,4.9l4.9,0.2l0.2,1.2l-4.8,1.1l1.6,4.4l-1.1,0.4l-2.6-3.8l-4,3
		l-0.8-0.8L570.3,153.2z"/>
	<path d="M575.2,169.9c2.2,2.4,4.1,3.8,5.4,3.2c1.3-0.6,1.7-1.9,1.2-3.2c-0.5-1.2-1.8-2-3.5-2.3l0.3-1.2l3.1,0.6
		c1.3,0.5,2.6,1.7,3.3,3.3c1.4,3.4,0.3,5.9-1.8,6.8c-0.7,0.3-1.3,0.2-2.1-0.2c-0.6-0.3-1.2-0.9-2.2-1.8l-0.1,0
		c1,3.1-0.4,5.5-2.4,6.3c-5.4,2.3-10.1-3.4-10.8-5.1c-0.7-1.7-0.7-3.6-0.5-4.4c0.2-0.6,0.6-0.9,1.2-1c0.6-0.1,1.3,0,2,0.4
		c0.4,0.3,0.6,0.7,0.5,1.2c-0.3,1-1.1,3.3-0.6,4.5c0.4,1,1.7,1.6,4.4,0.5c3.1-1.3,3.4-3.5,2.9-4.9c-0.3-0.7-0.8-1.5-1.3-2
		L575.2,169.9z"/>
</g>
<g>
	<rect x="538.2" y="212.4" width="96.1" height="96.1"/>
</g>
<g>
	<rect x="274.2" y="212.2" width="96.1" height="96.1"/>
</g>
<g>
	<path class="st0" d="M277.9,251.1c0-2.9,1.6-4.7,4.1-4.7c2.1,0,3.6,1.3,3.8,3.1h-1.4c-0.3-1.2-1.2-1.9-2.4-1.9
		c-1.6,0-2.7,1.3-2.7,3.4c0,2.1,1.1,3.4,2.7,3.4c1.3,0,2.2-0.6,2.4-1.7h1.4c-0.3,1.9-1.8,3-3.8,3C279.5,255.8,277.9,254,277.9,251.1
		z"/>
	<path class="st0" d="M286.7,252.4c0-2.1,1.2-3.4,3.1-3.4s3.1,1.3,3.1,3.4c0,2.1-1.2,3.4-3.1,3.4S286.7,254.5,286.7,252.4z
		 M291.6,252.4c0-1.5-0.7-2.3-1.7-2.3c-1.1,0-1.8,0.8-1.8,2.3c0,1.5,0.7,2.3,1.8,2.3C290.9,254.7,291.6,253.8,291.6,252.4z"/>
	<path class="st0" d="M299.7,255.7h-1.3v-1.1h0c-0.4,0.8-1,1.2-2,1.2c-1.4,0-2.3-0.9-2.3-2.4v-4.3h1.4v4c0,1,0.5,1.5,1.4,1.5
		c1,0,1.6-0.7,1.6-1.7v-3.8h1.4V255.7z"/>
	<path class="st0" d="M301,249.1h1.3v1.1h0c0.4-0.8,1.1-1.2,2.1-1.2c1.5,0,2.3,0.9,2.3,2.4v4.3h-1.4v-4c0-1-0.5-1.5-1.4-1.5
		c-1,0-1.6,0.7-1.6,1.7v3.8H301V249.1z"/>
	<path class="st0" d="M309.8,247.5v1.6h1.3v1.1h-1.3v3.6c0,0.6,0.3,0.8,0.8,0.8c0.1,0,0.4,0,0.4,0v1.1c-0.2,0-0.5,0.1-0.8,0.1
		c-1.3,0-1.9-0.5-1.9-1.8v-3.8h-1v-1.1h1v-1.6H309.8z"/>
	<path class="st0" d="M314.8,255.7l-3.2-9h1.5l2.5,7.5h0l2.5-7.5h1.5l-3.2,9H314.8z"/>
	<path class="st0" d="M325.2,253.7c-0.2,1.2-1.3,2.1-2.8,2.1c-1.9,0-3.1-1.3-3.1-3.4c0-2.1,1.2-3.4,3.1-3.4c1.8,0,3,1.3,3,3.3v0.5
		h-4.7v0.1c0,1.1,0.7,1.9,1.8,1.9c0.8,0,1.3-0.4,1.5-1H325.2z M320.6,251.7h3.3c0-1-0.7-1.7-1.6-1.7
		C321.3,250,320.7,250.7,320.6,251.7z"/>
	<path class="st0" d="M330.7,251.3c-0.1-0.7-0.7-1.3-1.5-1.3c-1,0-1.7,0.9-1.7,2.3c0,1.4,0.7,2.3,1.8,2.3c0.8,0,1.4-0.5,1.5-1.2h1.3
		c-0.1,1.4-1.3,2.4-2.9,2.4c-1.9,0-3.1-1.3-3.1-3.4c0-2.1,1.2-3.4,3.1-3.4c1.7,0,2.7,1.1,2.9,2.4H330.7z"/>
	<path class="st0" d="M334.7,247.5v1.6h1.3v1.1h-1.3v3.6c0,0.6,0.3,0.8,0.8,0.8c0.1,0,0.4,0,0.4,0v1.1c-0.2,0-0.5,0.1-0.8,0.1
		c-1.3,0-1.9-0.5-1.9-1.8v-3.8h-1v-1.1h1v-1.6H334.7z"/>
	<path class="st0" d="M336.6,252.4c0-2.1,1.2-3.4,3.1-3.4s3.1,1.3,3.1,3.4c0,2.1-1.2,3.4-3.1,3.4S336.6,254.5,336.6,252.4z
		 M341.5,252.4c0-1.5-0.7-2.3-1.7-2.3c-1.1,0-1.8,0.8-1.8,2.3c0,1.5,0.7,2.3,1.8,2.3C340.8,254.7,341.5,253.8,341.5,252.4z"/>
	<path class="st0" d="M343.9,249.1h1.3v1.1h0c0.2-0.8,0.8-1.2,1.6-1.2c0.2,0,0.4,0,0.5,0v1.3c-0.1,0-0.3-0.1-0.6-0.1
		c-0.9,0-1.4,0.6-1.4,1.5v4h-1.4V249.1z"/>
	<path class="st0" d="M348,247.2c0-0.4,0.4-0.8,0.8-0.8c0.4,0,0.8,0.3,0.8,0.8c0,0.4-0.3,0.8-0.8,0.8C348.4,248,348,247.6,348,247.2
		z M348.2,249.1h1.4v6.6h-1.4V249.1z"/>
	<path class="st0" d="M350.8,254.8l3.5-4.6v0h-3.5v-1.1h5v0.9l-3.4,4.6v0h3.5v1.1h-5.1V254.8z"/>
	<path class="st0" d="M362.5,253.7c-0.2,1.2-1.3,2.1-2.8,2.1c-1.9,0-3.1-1.3-3.1-3.4c0-2.1,1.2-3.4,3.1-3.4c1.8,0,3,1.3,3,3.3v0.5
		h-4.7v0.1c0,1.1,0.7,1.9,1.8,1.9c0.8,0,1.3-0.4,1.5-1H362.5z M357.9,251.7h3.3c0-1-0.7-1.7-1.6-1.7
		C358.7,250,358,250.7,357.9,251.7z"/>
	<path class="st0" d="M363.6,249.1h1.3v1.1h0c0.2-0.8,0.8-1.2,1.6-1.2c0.2,0,0.4,0,0.5,0v1.3c-0.1,0-0.3-0.1-0.6-0.1
		c-0.9,0-1.4,0.6-1.4,1.5v4h-1.4V249.1z"/>
	<path class="st0" d="M283.2,274.7v-7.8h-2.8v-1.2h6.9v1.2h-2.8v7.8H283.2z"/>
	<path class="st0" d="M288.8,269.1h-0.9v-1.1h0.9v-0.6c0-1.3,0.6-1.9,1.9-1.9c0.3,0,0.6,0,0.8,0.1v1c-0.1,0-0.3,0-0.5,0
		c-0.6,0-0.9,0.3-0.9,0.9v0.6h1.3v1.1h-1.3v5.5h-1.4V269.1z"/>
	<path class="st0" d="M292.5,266.2c0-0.4,0.4-0.8,0.8-0.8c0.4,0,0.8,0.3,0.8,0.8c0,0.4-0.3,0.8-0.8,0.8
		C292.8,267,292.5,266.6,292.5,266.2z M292.6,268.1h1.4v6.6h-1.4V268.1z"/>
	<path class="st0" d="M295,271.4c0-2.1,1.1-3.4,2.8-3.4c0.9,0,1.7,0.5,2.1,1.2h0v-3.5h1.4v9h-1.3v-1.1h0c-0.4,0.8-1.1,1.2-2.1,1.2
		C296.1,274.8,295,273.4,295,271.4z M296.4,271.4c0,1.4,0.7,2.3,1.7,2.3c1,0,1.7-0.9,1.7-2.3c0-1.4-0.7-2.3-1.7-2.3
		C297.1,269.1,296.4,270,296.4,271.4z"/>
	<path class="st0" d="M303,269.1h-0.9v-1.1h0.9v-0.6c0-1.3,0.6-1.9,1.9-1.9c0.3,0,0.6,0,0.8,0.1v1c-0.1,0-0.3,0-0.5,0
		c-0.6,0-0.9,0.3-0.9,0.9v0.6h1.3v1.1h-1.3v5.5H303V269.1z"/>
	<path class="st0" d="M309.5,274.7l-3.2-9h1.5l2.5,7.5h0l2.5-7.5h1.5l-3.2,9H309.5z"/>
	<path class="st0" d="M319.8,272.7c-0.2,1.2-1.3,2.1-2.8,2.1c-1.9,0-3.1-1.3-3.1-3.4c0-2.1,1.2-3.4,3.1-3.4c1.8,0,3,1.3,3,3.3v0.5
		h-4.7v0.1c0,1.1,0.7,1.9,1.8,1.9c0.8,0,1.3-0.4,1.5-1H319.8z M315.3,270.7h3.3c0-1-0.7-1.7-1.6-1.7
		C316,269,315.3,269.7,315.3,270.7z"/>
	<path class="st0" d="M325.3,270.3c-0.1-0.7-0.7-1.3-1.5-1.3c-1,0-1.7,0.9-1.7,2.3c0,1.4,0.7,2.3,1.8,2.3c0.8,0,1.4-0.5,1.5-1.2h1.3
		c-0.1,1.4-1.3,2.4-2.9,2.4c-1.9,0-3.1-1.3-3.1-3.4c0-2.1,1.2-3.4,3.1-3.4c1.7,0,2.7,1.1,2.9,2.4H325.3z"/>
	<path class="st0" d="M329.3,266.5v1.6h1.3v1.1h-1.3v3.6c0,0.6,0.3,0.8,0.8,0.8c0.1,0,0.4,0,0.4,0v1.1c-0.2,0-0.5,0.1-0.8,0.1
		c-1.3,0-1.9-0.5-1.9-1.8v-3.8h-1v-1.1h1v-1.6H329.3z"/>
	<path class="st0" d="M331.3,271.4c0-2.1,1.2-3.4,3.1-3.4s3.1,1.3,3.1,3.4c0,2.1-1.2,3.4-3.1,3.4S331.3,273.5,331.3,271.4z
		 M336.1,271.4c0-1.5-0.7-2.3-1.7-2.3c-1.1,0-1.8,0.8-1.8,2.3c0,1.5,0.7,2.3,1.8,2.3C335.4,273.7,336.1,272.8,336.1,271.4z"/>
	<path class="st0" d="M338.6,268.1h1.3v1.1h0c0.2-0.8,0.8-1.2,1.6-1.2c0.2,0,0.4,0,0.5,0v1.3c-0.1,0-0.3-0.1-0.6-0.1
		c-0.9,0-1.4,0.6-1.4,1.5v4h-1.4V268.1z"/>
	<path class="st0" d="M342.7,266.2c0-0.4,0.4-0.8,0.8-0.8c0.4,0,0.8,0.3,0.8,0.8c0,0.4-0.3,0.8-0.8,0.8
		C343.1,267,342.7,266.6,342.7,266.2z M342.8,268.1h1.4v6.6h-1.4V268.1z"/>
	<path class="st0" d="M345.4,273.8l3.5-4.6v0h-3.5v-1.1h5v0.9l-3.4,4.6v0h3.5v1.1h-5.1V273.8z"/>
	<path class="st0" d="M357.2,272.7c-0.2,1.2-1.3,2.1-2.8,2.1c-1.9,0-3.1-1.3-3.1-3.4c0-2.1,1.2-3.4,3.1-3.4c1.8,0,3,1.3,3,3.3v0.5
		h-4.7v0.1c0,1.1,0.7,1.9,1.8,1.9c0.8,0,1.3-0.4,1.5-1H357.2z M352.6,270.7h3.3c0-1-0.7-1.7-1.6-1.7
		C353.3,269,352.7,269.7,352.6,270.7z"/>
	<path class="st0" d="M358.3,268.1h1.3v1.1h0c0.2-0.8,0.8-1.2,1.6-1.2c0.2,0,0.4,0,0.5,0v1.3c-0.1,0-0.3-0.1-0.6-0.1
		c-0.9,0-1.4,0.6-1.4,1.5v4h-1.4V268.1z"/>
</g>
<g>
	<path class="st0" d="M543.8,259.3c0-4.6,2.6-7.4,6.7-7.4c3.4,0,6,2.2,6.2,5.4h-2.9c-0.3-1.7-1.6-2.9-3.4-2.9
		c-2.2,0-3.7,1.9-3.7,4.9c0,3,1.4,4.9,3.7,4.9c1.8,0,3-1,3.4-2.7h2.9c-0.3,3.2-2.8,5.2-6.3,5.2C546.4,266.6,543.8,263.9,543.8,259.3
		z"/>
	<path class="st0" d="M558.4,252.2h2.9v14.2h-2.9V252.2z"/>
	<path class="st0" d="M562.9,263.3c0-1.9,1.5-3,4.1-3.2l2.7-0.2v-0.7c0-1-0.7-1.6-1.8-1.6c-1.1,0-1.8,0.5-1.9,1.3h-2.6
		c0.1-2,1.9-3.5,4.7-3.5c2.7,0,4.5,1.4,4.5,3.5v7.3h-2.8v-1.6h-0.1c-0.6,1.1-1.9,1.8-3.2,1.8C564.4,266.5,562.9,265.2,562.9,263.3z
		 M569.6,262.5v-0.8l-2.2,0.1c-1.1,0.1-1.7,0.6-1.7,1.3c0,0.8,0.7,1.3,1.6,1.3C568.6,264.5,569.6,263.7,569.6,262.5z"/>
	<path class="st0" d="M578.6,255.6c2.7,0,4.4,1.4,4.4,3.5h-2.7c-0.1-0.9-0.7-1.4-1.8-1.4c-1,0-1.7,0.5-1.7,1.2
		c0,0.5,0.4,0.9,1.5,1.1l1.8,0.4c2.2,0.5,3.1,1.3,3.1,2.9c0,2.1-1.9,3.5-4.6,3.5c-2.9,0-4.6-1.4-4.8-3.4h2.8c0.2,0.9,0.8,1.4,2,1.4
		c1.1,0,1.8-0.4,1.8-1.1c0-0.6-0.4-0.9-1.4-1.1l-1.8-0.4c-2-0.4-3.1-1.5-3.1-3C574.1,256.9,575.9,255.6,578.6,255.6z"/>
	<path class="st0" d="M589,255.6c2.7,0,4.4,1.4,4.4,3.5h-2.7c-0.1-0.9-0.7-1.4-1.8-1.4c-1,0-1.7,0.5-1.7,1.2c0,0.5,0.4,0.9,1.5,1.1
		l1.8,0.4c2.2,0.5,3.1,1.3,3.1,2.9c0,2.1-1.9,3.5-4.6,3.5c-2.9,0-4.6-1.4-4.8-3.4h2.8c0.2,0.9,0.8,1.4,2,1.4c1.1,0,1.8-0.4,1.8-1.1
		c0-0.6-0.4-0.9-1.4-1.1l-1.8-0.4c-2-0.4-3.1-1.5-3.1-3C584.5,256.9,586.3,255.6,589,255.6z"/>
	<path class="st0" d="M595.1,252.9c0-0.8,0.7-1.5,1.5-1.5s1.5,0.7,1.5,1.5c0,0.8-0.7,1.5-1.5,1.5S595.1,253.7,595.1,252.9z
		 M595.1,255.8h2.9v10.6h-2.9V255.8z"/>
	<path class="st0" d="M600.7,258h-1.4v-2.1h1.4v-0.8c0-2.1,1-3,3.5-3c0.5,0,1.1,0.1,1.5,0.1v1.9c-0.2,0-0.5-0.1-0.8-0.1
		c-0.9,0-1.4,0.4-1.4,1.2v0.7h2.1v2.1h-2v8.4h-2.9V258z"/>
	<path class="st0" d="M607.1,252.9c0-0.8,0.7-1.5,1.5-1.5s1.5,0.7,1.5,1.5c0,0.8-0.7,1.5-1.5,1.5S607.1,253.7,607.1,252.9z
		 M607.2,255.8h2.9v10.6h-2.9V255.8z"/>
	<path class="st0" d="M621.6,263.1c-0.3,2.1-2.2,3.5-4.8,3.5c-3.3,0-5.2-2.1-5.2-5.5c0-3.4,2-5.6,5.1-5.6c3.1,0,5,2.1,5,5.3v0.9
		h-7.3v0.2c0,1.5,1,2.5,2.4,2.5c1.1,0,1.9-0.5,2.1-1.3H621.6z M614.4,260h4.5c-0.1-1.4-0.9-2.3-2.2-2.3
		C615.5,257.7,614.5,258.7,614.4,260z"/>
	<path class="st0" d="M623.2,255.8h2.8v1.9h0.1c0.4-1.3,1.3-2.1,2.5-2.1c0.3,0,0.6,0,0.8,0.1v2.5c-0.2-0.1-0.6-0.2-1-0.2
		c-1.4,0-2.2,0.9-2.2,2.4v5.9h-2.9V255.8z"/>
</g>
</svg>
