<?xml version="1.0" encoding="utf-8"?>
<!-- Generator: Adobe Illustrator 23.0.1, SVG Export Plug-In . SVG Version: 6.00 Build 0)  -->
<svg version="1.1" id="Layer_1" xmlns="http://www.w3.org/2000/svg" xmlns:xlink="http://www.w3.org/1999/xlink" x="0px" y="0px"
	 viewBox="0 0 986.8 334.1" style="enable-background:new 0 0 986.8 334.1;" xml:space="preserve">
<style type="text/css">
	.st0{fill:#E96D26;}
	.st1{fill:none;stroke:#E98A26;stroke-width:8;stroke-linejoin:round;stroke-miterlimit:10;}
	.st2{fill:#E98A26;}
	.st3{fill:none;stroke:#E98A26;stroke-width:8;stroke-miterlimit:10;}
	.st4{fill:none;stroke:#E98A26;stroke-width:8;stroke-linecap:round;stroke-miterlimit:10;}
	.st5{fill:#F6AD17;}
	.st6{fill:#B5B5B5;}
</style>
<path class="st0" d="M166.5,119.3h79.9c2.2,0,4-1.8,4-4s-1.8-4-4-4h-79.9c-18.3,0-33.2-14.9-33.2-33.2c0-18.3,14.9-33.2,33.2-33.2
	c0.1,0,0.3,0,0.4,0c1.9,0.1,3.9,0.5,5.7,1.1c0.4,0.1,0.8,0.2,1.2,0.2c1.7,0,3.3-1.1,3.8-2.8c0.7-2.1-0.5-4.4-2.6-5
	c-2.8-0.9-5.7-1.4-8.7-1.5c4.1-6,10.8-9.9,18.4-10.3c6.3-0.3,12.4,1.9,17,6.1s7.4,10.1,7.7,16.4c0.1,2.2,1.9,3.8,4,3.8
	c0.1,0,0.1,0,0.2,0c2.2-0.1,3.9-2,3.8-4.2c0-0.2,0-0.4-0.1-0.6c2,0.2,3.9,1,5.6,2.2c2.6,1.9,4.3,4.7,4.7,7.8
	c0.6,3.9-0.8,7.9-3.7,10.6c-1.6,1.5-1.7,4.1-0.2,5.7c0.8,0.9,1.9,1.3,3,1.3c1,0,2-0.4,2.7-1.1c4.9-4.5,7.2-11.1,6.2-17.7
	c-0.8-5.3-3.6-9.9-7.9-13.1c-3.5-2.6-7.7-3.9-11.9-3.8c-1.7-5-4.6-9.5-8.7-13.2c-6.3-5.7-14.4-8.6-22.8-8.2
	c-12.4,0.6-23.1,8.3-27.8,19.6c-18,4.5-31.3,20.7-31.3,40C125.3,100.8,143.8,119.3,166.5,119.3z"/>
<path class="st0" d="M199.1,79.1c-2,1.1-2.7,3.5-1.6,5.5c0.7,1.3,2.1,2.1,3.5,2.1c0.6,0,1.3-0.2,1.9-0.5c4.5-2.4,7.3-7.1,7.3-12.2
	c0-7.7-6.2-13.9-13.9-13.9c0,0-0.1,0-0.1,0c-1-1.8-2.4-3.5-4-4.9c-3.5-3-8-4.4-12.6-4c-8,0.7-14.4,6.7-15.6,14.6
	c-1,0.3-1.9,0.7-2.8,1.2c-0.1,0-0.1,0.1-0.1,0.1c-6.2,3.1-10.4,9.5-10.4,16.9c0,10.4,8.5,18.9,18.9,18.9h54.5c2.2,0,4-1.8,4-4
	s-1.8-4-4-4h-54.5c-6,0-10.9-4.9-10.9-10.9c0-5.4,4-9.9,9.2-10.7c0.6,0,1.2,0,1.8,0.2c1.5,0.4,2.8,1.4,3.6,2.7c0.7,1.3,2.1,2,3.5,2
	c0.7,0,1.4-0.2,2-0.5c1.9-1.1,2.6-3.6,1.5-5.5c-1.8-3.2-4.7-5.3-7.9-6.3c1.1-3.6,4.2-6.2,8-6.6c2.5-0.2,4.8,0.5,6.7,2.1
	c1.9,1.6,3,3.8,3.3,6.3c0.2,2.1,1.9,3.7,4,3.7c0.1,0,0.2,0,0.4,0c1.7-0.1,3-1.3,3.5-2.9c2.3,0.8,4,3,4,5.5
	C202.2,76.1,201,78.1,199.1,79.1z"/>
<path class="st1" d="M445.6,226.7c-4.8-0.7-9.2,0.2-13,2.2c-1.7,0.9-3.7,0.9-5.5,0l-24.3-12.6c-3.1-1.6-5.6-4-7.3-7l-31.3-54.5
	c-3.3-5.8-8.3-10.3-14.3-13.1l-20.8-9.6c-10.4-4.9-22.5-4.9-33,0L275,142.1c-5.8,2.8-10.7,7.3-13.9,12.9l-31.5,54.7
	c-1.7,3-4.2,5.4-7.3,7L198,229.3c-1.7,0.9-3.8,0.9-5.5,0c-3.8-2-8.3-2.9-13-2.2c-9.1,1.4-16.3,9-17.3,18.2c-1.3,12.5,8.4,23,20.6,23
	c0,0,0,0,0,0c-1.8,3.2-2.8,7-2.8,11c0,12.5,10.2,22.7,22.7,22.7h98.1c9.6,0,17.7-5.9,21.1-14.3l91.2,11.7
	c12.4,1.6,23.8-7.2,25.4-19.6c0.6-4.5-0.2-8.8-2-12.6c1.9,0.5,3.8,0.9,5.8,0.9c12.2,0,21.9-10.5,20.6-23
	C461.9,235.7,454.7,228.1,445.6,226.7z M242.9,239.6c3-1.6,5.5-3.9,7.2-6.9l15.9-27.2v30.1c-9.7,1.5-17.6,9.3-18.9,19.5v0
	c-0.1,0.5-0.1,0.9-0.1,1.4h-36.7L242.9,239.6z M359.1,246.6v-41.4l15.9,27.1c1.7,2.9,4.2,5.3,7.2,6.9l26.5,13.8L359.1,246.6z"/>
<g>
	<path class="st0" d="M25.4,138.3c-1-0.5-2-0.8-3.2-0.8H18v13.7h4.3c1.2,0,2.3-0.3,3.2-0.8c1-0.5,1.7-1.3,2.2-2.3
		c0.5-1,0.8-2.1,0.8-3.4V144c0-1.3-0.3-2.4-0.8-3.4C27.1,139.6,26.4,138.8,25.4,138.3z M25.6,144.8c0,1.3-0.3,2.4-0.9,3.1
		s-1.4,1.1-2.5,1.1h-1.4v-9.2h1.4c1.1,0,2,0.4,2.5,1.1c0.6,0.7,0.9,1.8,0.9,3.2V144.8z"/>
	<path class="st0" d="M31.9,137c-0.5,0-0.8,0.1-1.1,0.4c-0.3,0.3-0.4,0.6-0.4,1c0,0.4,0.1,0.8,0.4,1c0.3,0.3,0.6,0.4,1.1,0.4
		s0.8-0.1,1.1-0.4s0.4-0.6,0.4-1c0-0.4-0.1-0.7-0.4-1C32.7,137.1,32.3,137,31.9,137z"/>
	<rect x="30.5" y="141" class="st0" width="2.7" height="10.2"/>
	<path class="st0" d="M43.7,144.4c0-1.1-0.4-2-1.1-2.7c-0.7-0.6-1.7-0.9-3-0.9c-0.8,0-1.6,0.1-2.2,0.4c-0.7,0.3-1.2,0.7-1.5,1.2
		c-0.4,0.5-0.5,1-0.5,1.6H38c0-0.4,0.1-0.7,0.4-0.9c0.3-0.2,0.6-0.3,1.1-0.3c0.5,0,0.9,0.1,1.1,0.4c0.2,0.3,0.4,0.7,0.4,1.1v0.6
		h-1.3c-1.5,0-2.7,0.3-3.5,0.9c-0.8,0.6-1.2,1.4-1.2,2.5c0,0.9,0.3,1.6,1,2.2s1.5,0.9,2.5,0.9c1.1,0,1.9-0.4,2.6-1.1
		c0.1,0.4,0.1,0.7,0.3,0.9h2.8v-0.2c-0.3-0.5-0.4-1.2-0.4-2.2V144.4z M41,148.3c-0.2,0.3-0.4,0.5-0.8,0.7c-0.3,0.2-0.7,0.3-1.1,0.3
		c-0.4,0-0.7-0.1-1-0.3s-0.4-0.5-0.4-0.8l0-0.2c0.1-0.9,0.8-1.4,2.2-1.4h1V148.3z"/>
	<path class="st0" d="M51,140.8c-1.1,0-1.9,0.4-2.6,1.2l-0.1-1h-2.5v14.1h2.7v-4.8c0.6,0.7,1.5,1.1,2.5,1.1c1.2,0,2.2-0.5,2.9-1.4
		s1.1-2.2,1.1-3.8v-0.1c0-1.6-0.3-2.9-1-3.8S52.3,140.8,51,140.8z M50.3,149.2c-0.9,0-1.4-0.3-1.8-1V144c0.3-0.7,0.9-1,1.8-1
		c0.6,0,1.1,0.3,1.5,0.8c0.3,0.5,0.5,1.2,0.5,2.2C52.3,148.1,51.6,149.2,50.3,149.2z"/>
	<path class="st0" d="M62.1,140.8c-1.1,0-2,0.4-2.7,1.3v-5.4h-2.7v14.5h2.7V144c0.4-0.6,0.9-0.9,1.7-0.9c0.6,0,1,0.1,1.3,0.4
		c0.3,0.3,0.4,0.7,0.4,1.3v6.5h2.7v-6.5C65.4,142.1,64.3,140.8,62.1,140.8z"/>
	<path class="st0" d="M70.2,142.2l-0.1-1.2h-2.6v10.2h2.7v-6.7c0.3-0.7,1-1,2-1c0.3,0,0.6,0,1,0.1l0-2.6c-0.3-0.1-0.5-0.1-0.8-0.1
		C71.5,140.8,70.7,141.3,70.2,142.2z"/>
	<path class="st0" d="M82.5,144.4c0-1.1-0.4-2-1.1-2.7c-0.7-0.6-1.7-0.9-3-0.9c-0.8,0-1.6,0.1-2.2,0.4c-0.7,0.3-1.2,0.7-1.5,1.2
		c-0.4,0.5-0.5,1-0.5,1.6h2.7c0-0.4,0.1-0.7,0.4-0.9c0.3-0.2,0.6-0.3,1.1-0.3c0.5,0,0.9,0.1,1.1,0.4c0.2,0.3,0.4,0.7,0.4,1.1v0.6
		h-1.3c-1.5,0-2.7,0.3-3.5,0.9c-0.8,0.6-1.2,1.4-1.2,2.5c0,0.9,0.3,1.6,1,2.2c0.7,0.6,1.5,0.9,2.5,0.9c1.1,0,1.9-0.4,2.6-1.1
		c0.1,0.4,0.1,0.7,0.3,0.9h2.8v-0.2c-0.3-0.5-0.4-1.2-0.4-2.2V144.4z M79.8,148.3c-0.2,0.3-0.4,0.5-0.8,0.7s-0.7,0.3-1.1,0.3
		c-0.4,0-0.7-0.1-1-0.3c-0.2-0.2-0.4-0.5-0.4-0.8l0-0.2c0.1-0.9,0.8-1.4,2.2-1.4h1V148.3z"/>
	<path class="st0" d="M91,142c-0.6-0.8-1.5-1.2-2.6-1.2c-1.3,0-2.3,0.5-3,1.4c-0.7,1-1.1,2.2-1.1,3.8v0.1c0,1.6,0.4,2.9,1.1,3.8
		c0.8,1,1.7,1.4,3,1.4c1,0,1.9-0.4,2.5-1.1v0.5c0,0.7-0.2,1.3-0.6,1.6c-0.4,0.4-1,0.6-1.7,0.6c-1,0-1.8-0.4-2.5-1.1l-1.2,1.7
		c0.4,0.5,0.9,0.9,1.6,1.2c0.7,0.3,1.4,0.4,2.2,0.4c1,0,1.8-0.2,2.6-0.5c0.7-0.3,1.3-0.8,1.7-1.5s0.6-1.4,0.6-2.3V141h-2.5L91,142z
		 M90.8,148.3c-0.4,0.6-1,0.9-1.8,0.9c-0.6,0-1.2-0.3-1.5-0.8c-0.4-0.5-0.6-1.3-0.6-2.2c0-1.1,0.2-1.9,0.6-2.4s0.9-0.8,1.5-0.8
		c0.8,0,1.4,0.3,1.8,0.9V148.3z"/>
	<path class="st0" d="M107,140.8c-1.3,0-2.3,0.5-3.1,1.6c-0.5-1-1.4-1.6-2.7-1.6c-1.2,0-2.2,0.4-2.9,1.3l-0.1-1.1h-2.6v10.2h2.7V144
		c0.3-0.6,0.9-1,1.7-1c0.6,0,1,0.1,1.2,0.4c0.2,0.3,0.3,0.7,0.3,1.3v6.5h2.7l0-7c0.3-0.8,0.9-1.2,1.7-1.2c0.6,0,1,0.1,1.2,0.4
		c0.2,0.3,0.3,0.7,0.3,1.3v6.5h2.7v-6.5c0-1.3-0.3-2.3-0.8-2.9C108.9,141.1,108.1,140.8,107,140.8z"/>
	<path class="st0" d="M120.6,144.4c0-1.1-0.4-2-1.1-2.7c-0.7-0.6-1.7-0.9-3-0.9c-0.8,0-1.6,0.1-2.2,0.4c-0.7,0.3-1.2,0.7-1.5,1.2
		c-0.4,0.5-0.5,1-0.5,1.6h2.7c0-0.4,0.1-0.7,0.4-0.9c0.3-0.2,0.6-0.3,1.1-0.3c0.5,0,0.9,0.1,1.1,0.4c0.2,0.3,0.4,0.7,0.4,1.1v0.6
		h-1.3c-1.5,0-2.7,0.3-3.5,0.9c-0.8,0.6-1.2,1.4-1.2,2.5c0,0.9,0.3,1.6,1,2.2c0.7,0.6,1.5,0.9,2.5,0.9c1.1,0,1.9-0.4,2.6-1.1
		c0.1,0.4,0.1,0.7,0.3,0.9h2.8v-0.2c-0.3-0.5-0.4-1.2-0.4-2.2V144.4z M117.9,148.3c-0.2,0.3-0.4,0.5-0.8,0.7s-0.7,0.3-1.1,0.3
		c-0.4,0-0.7-0.1-1-0.3c-0.2-0.2-0.4-0.5-0.4-0.8l0-0.2c0.1-0.9,0.8-1.4,2.2-1.4h1V148.3z"/>
	<path class="st0" d="M126.2,148.9c-0.1-0.2-0.2-0.4-0.2-0.8V143h1.7v-2H126v-2.5h-2.7v2.5h-1.5v2h1.5v5.5c0,1.9,1,2.9,2.9,2.9
		c0.6,0,1.1-0.1,1.7-0.2v-2.1c-0.2,0-0.5,0.1-0.8,0.1C126.6,149.2,126.3,149.1,126.2,148.9z"/>
	<rect x="129.4" y="141" class="st0" width="2.7" height="10.2"/>
	<path class="st0" d="M130.8,137c-0.5,0-0.8,0.1-1.1,0.4c-0.3,0.3-0.4,0.6-0.4,1c0,0.4,0.1,0.8,0.4,1s0.6,0.4,1.1,0.4
		c0.5,0,0.8-0.1,1.1-0.4c0.3-0.3,0.4-0.6,0.4-1c0-0.4-0.1-0.7-0.4-1C131.6,137.1,131.2,137,130.8,137z"/>
	<path class="st0" d="M137.2,143.7c0.3-0.5,0.8-0.7,1.4-0.7c0.5,0,0.9,0.2,1.2,0.5c0.3,0.3,0.5,0.8,0.5,1.3h2.6
		c0-1.2-0.4-2.2-1.2-2.9s-1.8-1.1-3.1-1.1c-1.5,0-2.6,0.5-3.4,1.4s-1.3,2.2-1.3,3.8v0.2c0,1.6,0.4,2.9,1.3,3.8s2,1.4,3.5,1.4
		c0.8,0,1.5-0.2,2.1-0.5c0.6-0.3,1.2-0.8,1.5-1.3c0.4-0.6,0.6-1.2,0.6-1.9h-2.6c0,0.5-0.2,0.8-0.5,1.1c-0.3,0.3-0.7,0.4-1.2,0.4
		c-0.7,0-1.1-0.2-1.5-0.7c-0.3-0.5-0.5-1.2-0.5-2.3V146C136.7,144.9,136.8,144.2,137.2,143.7z"/>
	<path class="st0" d="M157.4,144.1c0.6-0.2,1.1-0.6,1.4-1.1c0.3-0.5,0.5-1.1,0.5-1.8c0-1.2-0.4-2.2-1.3-2.8s-2.1-1-3.8-1h-4.8v13.7
		h5.3c1.6,0,2.8-0.4,3.6-1c0.8-0.7,1.3-1.7,1.3-3c0-0.8-0.2-1.4-0.6-2C158.6,144.7,158.1,144.3,157.4,144.1z M152.3,139.8h2
		c0.8,0,1.4,0.1,1.7,0.4c0.4,0.3,0.5,0.7,0.5,1.3c0,1.1-0.7,1.7-2.1,1.7h-2.1V139.8z M156.2,148.5c-0.4,0.3-0.9,0.5-1.6,0.5h-2.4
		v-3.7h2.6c1.3,0,2,0.7,2,1.9C156.8,147.7,156.6,148.1,156.2,148.5z"/>
	<path class="st0" d="M164.2,142.2l-0.1-1.2h-2.6v10.2h2.7v-6.7c0.3-0.7,1-1,2-1c0.3,0,0.6,0,1,0.1l0-2.6c-0.3-0.1-0.5-0.1-0.8-0.1
		C165.5,140.8,164.8,141.3,164.2,142.2z"/>
	<path class="st0" d="M177.5,145.9c0-1.6-0.4-2.9-1.2-3.7s-1.9-1.3-3.3-1.3c-0.9,0-1.8,0.2-2.5,0.7c-0.7,0.4-1.3,1.1-1.7,1.9
		c-0.4,0.8-0.6,1.7-0.6,2.7v0.3c0,1.5,0.5,2.8,1.4,3.7s2.2,1.4,3.7,1.4c0.8,0,1.6-0.2,2.3-0.5c0.7-0.3,1.3-0.8,1.7-1.4l-1.3-1.5
		c-0.6,0.8-1.4,1.1-2.5,1.1c-0.7,0-1.2-0.2-1.7-0.6c-0.4-0.4-0.7-0.9-0.8-1.6h6.5V145.9z M174.8,145.1H171c0.1-0.7,0.3-1.2,0.6-1.6
		c0.3-0.4,0.8-0.5,1.3-0.5c0.6,0,1,0.2,1.3,0.5c0.3,0.3,0.5,0.8,0.5,1.4V145.1z"/>
	<path class="st0" d="M183.3,145c-1.5,0-2.7,0.3-3.5,0.9c-0.8,0.6-1.2,1.4-1.2,2.5c0,0.9,0.3,1.6,1,2.2s1.5,0.9,2.5,0.9
		c1.1,0,1.9-0.4,2.6-1.1c0.1,0.4,0.1,0.7,0.3,0.9h2.8v-0.2c-0.3-0.5-0.4-1.2-0.4-2.2v-4.4c0-1.1-0.4-2-1.1-2.7
		c-0.7-0.6-1.7-0.9-3-0.9c-0.8,0-1.6,0.1-2.2,0.4c-0.7,0.3-1.2,0.7-1.5,1.2c-0.4,0.5-0.5,1-0.5,1.6h2.7c0-0.4,0.1-0.7,0.4-0.9
		c0.3-0.2,0.6-0.3,1.1-0.3c0.5,0,0.9,0.1,1.1,0.4c0.2,0.3,0.4,0.7,0.4,1.1v0.6H183.3z M184.6,148.3c-0.2,0.3-0.4,0.5-0.8,0.7
		c-0.3,0.2-0.7,0.3-1.1,0.3c-0.4,0-0.7-0.1-1-0.3s-0.4-0.5-0.4-0.8l0-0.2c0.1-0.9,0.8-1.4,2.2-1.4h1V148.3z"/>
	<path class="st0" d="M192.9,151.4c0.6,0,1.1-0.1,1.7-0.2v-2.1c-0.2,0-0.5,0.1-0.8,0.1c-0.4,0-0.7-0.1-0.8-0.2s-0.2-0.4-0.2-0.8V143
		h1.7v-2h-1.7v-2.5h-2.7v2.5h-1.5v2h1.5v5.5C190,150.4,191,151.4,192.9,151.4z"/>
	<path class="st0" d="M204.7,151.2v-6.5c0-2.6-1.2-3.9-3.4-3.9c-1.1,0-2,0.4-2.7,1.3v-5.4h-2.7v14.5h2.7V144
		c0.4-0.6,0.9-0.9,1.7-0.9c0.6,0,1,0.1,1.3,0.4c0.3,0.3,0.4,0.7,0.4,1.3v6.5H204.7z"/>
	<path class="st0" d="M209.4,137.4c-0.3-0.3-0.6-0.4-1.1-0.4c-0.5,0-0.8,0.1-1.1,0.4c-0.3,0.3-0.4,0.6-0.4,1c0,0.4,0.1,0.8,0.4,1
		c0.3,0.3,0.6,0.4,1.1,0.4c0.5,0,0.8-0.1,1.1-0.4s0.4-0.6,0.4-1C209.8,138,209.6,137.6,209.4,137.4z"/>
	<rect x="206.9" y="141" class="st0" width="2.7" height="10.2"/>
	<path class="st0" d="M220.6,151.2v-6.6c0-1.3-0.3-2.2-0.8-2.8c-0.5-0.6-1.3-1-2.4-1c-1.2,0-2.2,0.5-2.9,1.4l-0.1-1.2h-2.6v10.2h2.7
		V144c0.4-0.7,1-1,1.7-1c0.6,0,1,0.1,1.3,0.4c0.3,0.3,0.4,0.7,0.4,1.3v6.5H220.6z"/>
	<path class="st0" d="M228.3,152.5c-0.4,0.4-1,0.6-1.7,0.6c-1,0-1.8-0.4-2.5-1.1l-1.2,1.7c0.4,0.5,0.9,0.9,1.6,1.2
		c0.7,0.3,1.4,0.4,2.2,0.4c1,0,1.8-0.2,2.6-0.5c0.7-0.3,1.3-0.8,1.7-1.5c0.4-0.7,0.6-1.4,0.6-2.3V141h-2.5l-0.1,1
		c-0.6-0.8-1.5-1.2-2.6-1.2c-1.3,0-2.3,0.5-3,1.4s-1.1,2.2-1.1,3.8v0.1c0,1.6,0.4,2.9,1.1,3.8s1.7,1.4,3,1.4c1,0,1.9-0.4,2.5-1.1
		v0.5C228.9,151.6,228.7,152.1,228.3,152.5z M227.1,149.2c-0.6,0-1.2-0.3-1.5-0.8c-0.4-0.5-0.6-1.3-0.6-2.2c0-1.1,0.2-1.9,0.6-2.4
		c0.4-0.5,0.9-0.8,1.5-0.8c0.8,0,1.4,0.3,1.8,0.9v4.3C228.5,148.9,227.9,149.2,227.1,149.2z"/>
</g>
<g>
	<path class="st2" d="M410.7,187c-1.8,0-2.7-0.8-2.7-2.3h-2.8c0,0.9,0.2,1.7,0.7,2.3c0.5,0.7,1.1,1.2,2,1.6c0.9,0.4,1.8,0.6,2.9,0.6
		c1.5,0,2.7-0.3,3.6-1c0.9-0.7,1.3-1.6,1.3-2.8c0-1.1-0.4-2-1.1-2.7c-0.7-0.7-1.9-1.3-3.5-1.8c-0.9-0.3-1.5-0.5-2-0.8
		c-0.4-0.3-0.7-0.7-0.7-1.1c0-0.5,0.2-0.9,0.6-1.2c0.4-0.3,0.9-0.4,1.6-0.4c0.7,0,1.3,0.2,1.7,0.5c0.4,0.3,0.6,0.8,0.6,1.5h2.8
		c0-0.8-0.2-1.6-0.6-2.2s-1-1.1-1.8-1.5c-0.8-0.4-1.6-0.5-2.6-0.5c-1,0-1.9,0.2-2.6,0.5c-0.8,0.3-1.4,0.8-1.8,1.4
		c-0.4,0.6-0.6,1.2-0.6,2c0,1.4,0.8,2.6,2.3,3.4c0.6,0.3,1.3,0.6,2.3,0.9c1,0.3,1.7,0.6,2,0.9s0.6,0.7,0.6,1.2
		c0,0.5-0.2,0.9-0.6,1.1S411.3,187,410.7,187z"/>
	<path class="st2" d="M420,181.8c0.4-0.6,0.9-0.9,1.7-0.9c0.6,0,1,0.1,1.3,0.4c0.3,0.3,0.4,0.7,0.4,1.3v6.5h2.7v-6.5
		c0-2.6-1.2-3.9-3.4-3.9c-1.1,0-2,0.4-2.7,1.3v-5.4h-2.7V189h2.7V181.8z"/>
	<path class="st2" d="M432.6,189.2c1.5,0,2.6-0.5,3.5-1.4c0.9-0.9,1.3-2.2,1.3-3.8l0-0.7c-0.1-1.4-0.6-2.6-1.5-3.4
		c-0.9-0.8-2-1.3-3.4-1.3c-1,0-1.8,0.2-2.6,0.7c-0.7,0.4-1.3,1-1.7,1.8c-0.4,0.8-0.6,1.7-0.6,2.7v0.1c0,1.6,0.4,2.9,1.3,3.8
		C429.9,188.7,431.1,189.2,432.6,189.2z M431,181.6c0.4-0.5,0.9-0.8,1.5-0.8c0.7,0,1.2,0.3,1.6,0.8c0.4,0.5,0.6,1.3,0.6,2.2
		c0,1.1-0.2,1.9-0.6,2.4c-0.4,0.5-0.9,0.8-1.5,0.8c-0.7,0-1.2-0.3-1.6-0.8c-0.4-0.5-0.5-1.3-0.5-2.2
		C430.5,182.9,430.7,182.1,431,181.6z"/>
	<path class="st2" d="M441.8,182.3c0.3-0.7,1-1,2-1c0.3,0,0.6,0,1,0.1l0-2.6c-0.3-0.1-0.5-0.1-0.8-0.1c-1,0-1.7,0.5-2.3,1.4
		l-0.1-1.2h-2.6V189h2.7V182.3z"/>
	<path class="st2" d="M447.1,186.3c0,1.9,1,2.9,2.9,2.9c0.6,0,1.1-0.1,1.7-0.2v-2.1c-0.2,0-0.5,0.1-0.8,0.1c-0.4,0-0.7-0.1-0.8-0.2
		s-0.2-0.4-0.2-0.8v-5.1h1.7v-2h-1.7v-2.5h-2.7v2.5h-1.5v2h1.5V186.3z"/>
	<rect x="453.1" y="182" class="st2" width="5.3" height="2.2"/>
	<path class="st2" d="M464.1,186.7c-0.1-0.2-0.2-0.4-0.2-0.8v-5.1h1.7v-2h-1.7v-2.5h-2.7v2.5h-1.5v2h1.5v5.5c0,1.9,1,2.9,2.9,2.9
		c0.6,0,1.1-0.1,1.7-0.2v-2.1c-0.2,0-0.5,0.1-0.8,0.1C464.5,187,464.2,186.9,464.1,186.7z"/>
	<path class="st2" d="M471.5,178.6c-0.9,0-1.8,0.2-2.5,0.7c-0.7,0.4-1.3,1.1-1.7,1.9s-0.6,1.7-0.6,2.7v0.3c0,1.5,0.5,2.8,1.4,3.7
		c0.9,0.9,2.2,1.4,3.7,1.4c0.8,0,1.6-0.2,2.3-0.5c0.7-0.3,1.3-0.8,1.7-1.4l-1.3-1.5c-0.6,0.8-1.4,1.1-2.5,1.1
		c-0.7,0-1.2-0.2-1.7-0.6c-0.4-0.4-0.7-0.9-0.8-1.6h6.5v-1.1c0-1.6-0.4-2.9-1.2-3.7C474,179.1,472.9,178.6,471.5,178.6z
		 M473.4,182.9h-3.8c0.1-0.7,0.3-1.2,0.6-1.6c0.3-0.4,0.8-0.6,1.3-0.6c0.6,0,1,0.2,1.3,0.5c0.3,0.3,0.5,0.8,0.5,1.4V182.9z"/>
	<path class="st2" d="M480.2,180l-0.1-1.2h-2.6V189h2.7v-6.7c0.3-0.7,1-1,2-1c0.3,0,0.6,0,1,0.1l0-2.6c-0.3-0.1-0.5-0.1-0.8-0.1
		C481.5,178.6,480.8,179.1,480.2,180z"/>
	<path class="st2" d="M496,178.6c-1.3,0-2.3,0.5-3.1,1.6c-0.5-1-1.4-1.6-2.7-1.6c-1.2,0-2.2,0.4-2.9,1.3l-0.1-1.1h-2.6V189h2.7v-7.2
		c0.3-0.6,0.9-1,1.7-1c0.6,0,1,0.1,1.2,0.4c0.2,0.3,0.3,0.7,0.3,1.3v6.5h2.7l0-7c0.3-0.8,0.9-1.2,1.7-1.2c0.6,0,1,0.1,1.2,0.4
		c0.2,0.3,0.3,0.7,0.3,1.3v6.5h2.7v-6.5c0-1.3-0.3-2.3-0.8-2.9C497.9,178.9,497.1,178.6,496,178.6z"/>
	<polygon class="st2" points="513.6,185.2 510,175.3 506.3,175.3 506.3,189 509.2,189 509.2,185.3 508.9,178.8 512.6,189 514.5,189 
		518.2,178.8 518,185.3 518,189 520.8,189 520.8,175.3 517.1,175.3 	"/>
	<path class="st2" d="M527.5,178.6c-0.9,0-1.8,0.2-2.5,0.7c-0.7,0.4-1.3,1.1-1.7,1.9c-0.4,0.8-0.6,1.7-0.6,2.7v0.3
		c0,1.5,0.5,2.8,1.4,3.7s2.2,1.4,3.7,1.4c0.8,0,1.6-0.2,2.3-0.5c0.7-0.3,1.3-0.8,1.7-1.4l-1.3-1.5c-0.6,0.8-1.4,1.1-2.5,1.1
		c-0.7,0-1.2-0.2-1.7-0.6c-0.4-0.4-0.7-0.9-0.8-1.6h6.5v-1.1c0-1.6-0.4-2.9-1.2-3.7C530,179.1,528.9,178.6,527.5,178.6z
		 M529.3,182.9h-3.8c0.1-0.7,0.3-1.2,0.6-1.6c0.3-0.4,0.8-0.6,1.3-0.6c0.6,0,1,0.2,1.3,0.5c0.3,0.3,0.5,0.8,0.5,1.4V182.9z"/>
	<path class="st2" d="M539.6,179.7c-0.6-0.7-1.5-1.1-2.5-1.1c-1.2,0-2.2,0.5-2.9,1.4c-0.7,0.9-1.1,2.2-1.1,3.8c0,1.7,0.4,3,1.1,3.9
		c0.7,0.9,1.7,1.4,2.9,1.4c1.1,0,1.9-0.4,2.6-1.3l0.1,1.1h2.5v-14.5h-2.7V179.7z M539.6,185.9c-0.3,0.7-0.9,1.1-1.8,1.1
		c-0.6,0-1.1-0.3-1.5-0.8c-0.3-0.5-0.5-1.2-0.5-2.2c0-2.1,0.7-3.2,2-3.2c0.8,0,1.4,0.4,1.8,1.1V185.9z"/>
	<rect x="544.5" y="178.8" class="st2" width="2.7" height="10.2"/>
	<path class="st2" d="M545.9,174.8c-0.5,0-0.8,0.1-1.1,0.4c-0.3,0.3-0.4,0.6-0.4,1c0,0.4,0.1,0.8,0.4,1c0.3,0.3,0.6,0.4,1.1,0.4
		c0.5,0,0.8-0.1,1.1-0.4c0.3-0.3,0.4-0.6,0.4-1c0-0.4-0.1-0.7-0.4-1C546.7,174.9,546.4,174.8,545.9,174.8z"/>
	<path class="st2" d="M553,186.7c-0.1-0.2-0.2-0.4-0.2-0.8v-5.1h1.7v-2h-1.7v-2.5h-2.7v2.5h-1.5v2h1.5v5.5c0,1.9,1,2.9,2.9,2.9
		c0.6,0,1.1-0.1,1.7-0.2v-2.1c-0.2,0-0.5,0.1-0.8,0.1C553.4,187,553.1,186.9,553,186.7z"/>
	<path class="st2" d="M564.3,182.2c0-1.1-0.4-2-1.1-2.7c-0.7-0.6-1.7-0.9-3-0.9c-0.8,0-1.6,0.1-2.2,0.4s-1.2,0.7-1.5,1.2
		c-0.4,0.5-0.5,1-0.5,1.6h2.7c0-0.4,0.1-0.7,0.4-0.9c0.3-0.2,0.6-0.3,1.1-0.3c0.5,0,0.9,0.1,1.1,0.4c0.2,0.3,0.4,0.7,0.4,1.1v0.6
		h-1.3c-1.5,0-2.7,0.3-3.5,0.9c-0.8,0.6-1.2,1.4-1.2,2.5c0,0.9,0.3,1.6,1,2.2s1.5,0.9,2.5,0.9c1.1,0,1.9-0.4,2.6-1.1
		c0.1,0.4,0.1,0.7,0.3,0.9h2.8v-0.2c-0.3-0.5-0.4-1.2-0.4-2.2V182.2z M561.6,186.1c-0.2,0.3-0.4,0.5-0.8,0.7s-0.7,0.3-1.1,0.3
		c-0.4,0-0.7-0.1-1-0.3s-0.4-0.5-0.4-0.8l0-0.2c0.1-0.9,0.8-1.4,2.2-1.4h1V186.1z"/>
	<path class="st2" d="M569.9,186.7c-0.1-0.2-0.2-0.4-0.2-0.8v-5.1h1.7v-2h-1.7v-2.5h-2.7v2.5h-1.5v2h1.5v5.5c0,1.9,1,2.9,2.9,2.9
		c0.6,0,1.1-0.1,1.7-0.2v-2.1c-0.2,0-0.5,0.1-0.8,0.1C570.3,187,570,186.9,569.9,186.7z"/>
	<path class="st2" d="M574.4,174.8c-0.5,0-0.8,0.1-1.1,0.4c-0.3,0.3-0.4,0.6-0.4,1c0,0.4,0.1,0.8,0.4,1c0.3,0.3,0.6,0.4,1.1,0.4
		s0.8-0.1,1.1-0.4c0.3-0.3,0.4-0.6,0.4-1c0-0.4-0.1-0.7-0.4-1C575.3,174.9,574.9,174.8,574.4,174.8z"/>
	<rect x="573.1" y="178.8" class="st2" width="2.7" height="10.2"/>
	<path class="st2" d="M585.8,179.9c-0.9-0.8-2-1.3-3.4-1.3c-1,0-1.8,0.2-2.6,0.7c-0.7,0.4-1.3,1-1.7,1.8c-0.4,0.8-0.6,1.7-0.6,2.7
		v0.1c0,1.6,0.4,2.9,1.3,3.8c0.9,0.9,2.1,1.4,3.5,1.4c1.5,0,2.6-0.5,3.5-1.4c0.9-0.9,1.3-2.2,1.3-3.8l0-0.7
		C587.2,181.9,586.7,180.7,585.8,179.9z M584,186.2c-0.4,0.5-0.9,0.8-1.5,0.8c-0.7,0-1.2-0.3-1.6-0.8c-0.4-0.5-0.5-1.3-0.5-2.2
		c0-1.1,0.2-1.9,0.5-2.4c0.4-0.5,0.9-0.8,1.5-0.8c0.7,0,1.2,0.3,1.6,0.8c0.4,0.5,0.6,1.3,0.6,2.2C584.6,184.9,584.4,185.7,584,186.2
		z"/>
	<path class="st2" d="M596.9,179.6c-0.5-0.6-1.3-1-2.4-1c-1.2,0-2.2,0.5-2.9,1.4l-0.1-1.2h-2.6V189h2.7v-7.2c0.4-0.7,1-1,1.7-1
		c0.6,0,1,0.1,1.3,0.4c0.3,0.3,0.4,0.7,0.4,1.3v6.5h2.7v-6.6C597.7,181.2,597.4,180.2,596.9,179.6z"/>
</g>
<path class="st3" d="M252.4,83.5l9.2,4c7.2,16.9,24,28.8,43.6,28.8c26.1,0,47.3-21.2,47.3-47.3c0-26.1-21.2-47.3-47.3-47.3
	c-20.7,0-38.3,13.3-44.7,31.8c-1.6,4.7-2.5,9.8-2.6,15.1l-7.3,12C249.9,81.7,250.8,83.1,252.4,83.5z"/>
<path class="st4" d="M332.4,244.5l26.6,2.1"/>
<path class="st4" d="M266.1,235.6l18.6,5.6"/>
<line class="st4" x1="240.1" y1="256.2" x2="257.1" y2="256.4"/>
<line class="st4" x1="322" y1="287.3" x2="305.1" y2="282.9"/>
<ellipse transform="matrix(0.866 -0.5 0.5 0.866 -9.0633 153.6568)" class="st2" cx="282.2" cy="93.7" rx="5.2" ry="7.5"/>
<g>
	<path class="st5" d="M867.5,239.8c44.6,0,80.9-36.3,80.9-80.9c0-39.3-28.2-72.2-65.5-79.4v-4.8c11.3-1.1,20.2-10.6,20.2-22.2
		c0-12.3-10-22.3-22.3-22.3h-26.7c-12.3,0-22.3,10-22.3,22.3c0,11.6,8.9,21.2,20.2,22.2v4.8c-37.2,7.2-65.5,40.1-65.5,79.4
		C786.6,203.5,822.9,239.8,867.5,239.8z M839.8,52.4c0-7.9,6.4-14.3,14.3-14.3h26.7c7.9,0,14.3,6.4,14.3,14.3
		c0,7.2-5.3,13.1-12.2,14.2V63c0-2.2-1.8-4-4-4h-23c-2.2,0-4,1.8-4,4v3.6C845.1,65.5,839.8,59.6,839.8,52.4z M803.8,154.9h-6.1
		c2-35.4,30.4-63.8,65.8-65.8v6.4c0,2.2,1.8,4,4,4s4-1.8,4-4v-6.4c35.4,2,63.8,30.4,65.8,65.8H932c-2.2,0-4,1.8-4,4s1.8,4,4,4h5.3
		c-2,35.4-30.4,63.8-65.8,65.8v-5c0-2.2-1.8-4-4-4s-4,1.8-4,4v5c-35.4-2-63.8-30.4-65.8-65.8h6.1c2.2,0,4-1.8,4-4
		S806,154.9,803.8,154.9z"/>
	<path class="st5" d="M867.7,166.7l40.3-39.3c1.8-1.7,1.8-4.6,0.1-6.4c-1.7-1.8-4.6-1.8-6.4-0.1l-34.5,33.6l-23.7-19.7
		c-1.9-1.6-4.8-1.3-6.3,0.6c-1.6,1.9-1.3,4.7,0.6,6.3L867.7,166.7z"/>
	<g>
		<path class="st5" d="M841.9,264.5c-1.5,0-2.7,0.5-3.5,1.5c-0.8,1-1.2,2.4-1.2,4.2v2.5c0,1.8,0.4,3.2,1.2,4.2c0.8,1,2,1.5,3.5,1.5
			c1.5,0,2.7-0.5,3.5-1.5c0.8-1,1.2-2.4,1.2-4.2v-2.5c0-1.8-0.4-3.2-1.2-4.2S843.4,264.5,841.9,264.5z M843.5,273.2
			c0,1-0.1,1.7-0.4,2.1c-0.3,0.5-0.6,0.7-1.2,0.7c-0.6,0-1-0.2-1.2-0.7s-0.4-1.2-0.4-2.2v-3.5c0-0.9,0.1-1.6,0.4-2s0.6-0.7,1.2-0.7
			c0.6,0,1,0.2,1.2,0.7c0.3,0.5,0.4,1.2,0.4,2.2V273.2z"/>
		<polygon class="st5" points="793.9,266.8 793.9,269.1 797,268.2 797,278.2 800.1,278.2 800.1,264.7 799.8,264.7 		"/>
		<path class="st5" d="M808.9,264.5c-1.5,0-2.7,0.5-3.5,1.5c-0.8,1-1.2,2.4-1.2,4.2v2.5c0,1.8,0.4,3.2,1.2,4.2c0.8,1,2,1.5,3.5,1.5
			c1.5,0,2.7-0.5,3.5-1.5c0.8-1,1.2-2.4,1.2-4.2v-2.5c0-1.8-0.4-3.2-1.2-4.2S810.4,264.5,808.9,264.5z M810.5,273.2
			c0,1-0.1,1.7-0.4,2.1c-0.3,0.5-0.6,0.7-1.2,0.7c-0.6,0-1-0.2-1.2-0.7s-0.4-1.2-0.4-2.2v-3.5c0-0.9,0.1-1.6,0.4-2s0.6-0.7,1.2-0.7
			c0.6,0,1,0.2,1.2,0.7c0.3,0.5,0.4,1.2,0.4,2.2V273.2z"/>
		<path class="st5" d="M819.9,264.5c-1.5,0-2.7,0.5-3.5,1.5c-0.8,1-1.2,2.4-1.2,4.2v2.5c0,1.8,0.4,3.2,1.2,4.2c0.8,1,2,1.5,3.5,1.5
			c1.5,0,2.7-0.5,3.5-1.5c0.8-1,1.2-2.4,1.2-4.2v-2.5c0-1.8-0.4-3.2-1.2-4.2S821.4,264.5,819.9,264.5z M821.5,273.2
			c0,1-0.1,1.7-0.4,2.1c-0.3,0.5-0.6,0.7-1.2,0.7c-0.6,0-1-0.2-1.2-0.7s-0.4-1.2-0.4-2.2v-3.5c0-0.9,0.1-1.6,0.4-2s0.6-0.7,1.2-0.7
			c0.6,0,1,0.2,1.2,0.7c0.3,0.5,0.4,1.2,0.4,2.2V273.2z"/>
		<path class="st5" d="M830.9,264.5c-1.5,0-2.7,0.5-3.5,1.5c-0.8,1-1.2,2.4-1.2,4.2v2.5c0,1.8,0.4,3.2,1.2,4.2c0.8,1,2,1.5,3.5,1.5
			c1.5,0,2.7-0.5,3.5-1.5c0.8-1,1.2-2.4,1.2-4.2v-2.5c0-1.8-0.4-3.2-1.2-4.2S832.4,264.5,830.9,264.5z M832.5,273.2
			c0,1-0.1,1.7-0.4,2.1c-0.3,0.5-0.6,0.7-1.2,0.7c-0.6,0-1-0.2-1.2-0.7s-0.4-1.2-0.4-2.2v-3.5c0-0.9,0.1-1.6,0.4-2s0.6-0.7,1.2-0.7
			c0.6,0,1,0.2,1.2,0.7c0.3,0.5,0.4,1.2,0.4,2.2V273.2z"/>
		<rect x="848.8" y="271.2" class="st5" width="5.6" height="2.4"/>
		<polygon class="st5" points="865.1,270.1 860.3,270.1 860.3,264.7 857,264.7 857,278.2 860.3,278.2 860.3,272.6 865.1,272.6 
			865.1,278.2 868.3,278.2 868.3,264.7 865.1,264.7 		"/>
		<path class="st5" d="M874.7,268c-1,0-1.8,0.2-2.6,0.6c-0.7,0.4-1.3,1-1.7,1.8s-0.6,1.7-0.6,2.7l0,0.5c0.1,1.5,0.5,2.6,1.4,3.5
			c0.9,0.9,2,1.3,3.5,1.3c1.5,0,2.7-0.5,3.5-1.4c0.9-0.9,1.3-2.2,1.3-3.7v-0.1c0-1.6-0.4-2.9-1.3-3.8
			C877.4,268.5,876.2,268,874.7,268z M876.4,273.4c0,1.7-0.6,2.6-1.7,2.6c-0.6,0-1-0.2-1.3-0.7c-0.3-0.4-0.4-1.1-0.4-2l0-0.6
			c0.1-1.6,0.7-2.3,1.7-2.3c1.2,0,1.7,0.9,1.7,2.7V273.4z"/>
		<path class="st5" d="M886.8,275.2c-0.3,0.5-0.8,0.8-1.5,0.8c-0.8,0-1.3-0.4-1.3-1.3v-6.5h-3.1v6.5c0,1.2,0.3,2.1,0.9,2.8
			c0.6,0.6,1.4,1,2.5,1c1.1,0,2-0.4,2.7-1.3l0.1,1.1h2.9v-10.1h-3.2V275.2z"/>
		<path class="st5" d="M894.7,269.5l-0.1-1.3h-2.9v10.1h3.1v-6.4c0.3-0.6,0.9-0.9,1.9-0.9l1,0.1l0.1-2.9c-0.2-0.1-0.5-0.1-0.9-0.1
			C896,268,895.3,268.5,894.7,269.5z"/>
		<path class="st5" d="M913.6,271.1c0.4-0.6,0.6-1.4,0.6-2.3c0-1.3-0.5-2.3-1.4-3c-0.9-0.7-2.2-1.1-3.8-1.1h-5.3v13.5h3.3v-4.8h1.8
			l2.4,4.8h3.5v-0.1l-2.8-5.5C912.7,272.3,913.3,271.8,913.6,271.1z M910.5,270.5c-0.3,0.3-0.8,0.5-1.4,0.5H907v-3.7h2.1
			c0.6,0,1.1,0.2,1.4,0.5c0.3,0.3,0.5,0.8,0.5,1.4S910.8,270.1,910.5,270.5z"/>
		<path class="st5" d="M921.9,275.2c-0.3,0.5-0.8,0.8-1.5,0.8c-0.8,0-1.3-0.4-1.3-1.3v-6.5H916v6.5c0,1.2,0.3,2.1,0.9,2.8
			c0.6,0.6,1.4,1,2.5,1c1.1,0,2-0.4,2.7-1.3l0.1,1.1h2.9v-10.1h-3.2V275.2z"/>
		<rect x="926.9" y="264" class="st5" width="3.1" height="14.3"/>
		<path class="st5" d="M936.5,268c-1,0-1.9,0.2-2.6,0.6s-1.3,1-1.7,1.8c-0.4,0.8-0.6,1.7-0.6,2.7v0.3c0,1.5,0.5,2.7,1.4,3.6
			c1,0.9,2.2,1.4,3.7,1.4c0.8,0,1.6-0.2,2.3-0.5s1.3-0.7,1.7-1.3l-1.4-1.7c-0.6,0.7-1.3,1-2.3,1c-0.6,0-1.1-0.2-1.5-0.5
			s-0.6-0.8-0.7-1.3h6.2V273c0-1.6-0.4-2.8-1.2-3.7C939.1,268.4,938,268,936.5,268z M938.1,272.2h-3.2c0.2-1.2,0.7-1.8,1.6-1.8
			c0.5,0,0.9,0.1,1.1,0.4c0.3,0.3,0.4,0.7,0.4,1.2V272.2z"/>
	</g>
</g>
<polygon class="st6" points="704.3,162.9 690.1,162.9 690.1,148.7 677.9,148.7 677.9,162.9 663.4,162.9 663.4,175.1 677.9,175.1 
	677.9,189.6 690.1,189.6 690.1,175.1 704.3,175.1 "/>
</svg>
