<?xml version="1.0" encoding="utf-8"?>
<!-- Generator: Adobe Illustrator 23.0.3, SVG Export Plug-In . SVG Version: 6.00 Build 0)  -->
<svg version="1.1" id="Layer_1" xmlns="http://www.w3.org/2000/svg" xmlns:xlink="http://www.w3.org/1999/xlink" x="0px" y="0px"
	 viewBox="0 0 800 264.3" style="enable-background:new 0 0 800 264.3;" xml:space="preserve">
<style type="text/css">
	.st0{fill:#F04D23;}
	.st1{fill:#FFFFFF;}
</style>
<g>
	<g>
		<g>
			<g>
				<path class="st0" d="M748.6,145.4l-1.4-1.9c0.3-0.2,0.9-0.4,1.3-0.9c15-8.8,26.7-29.8,21-50.4L737.9,26c-1.2-2.7-4.3-4-6.9-3.3
					c-3.2,0.8-5.1,4.1-4.3,7.5l0.7,2.6c3.1,7.9,8.5,24.3,12.2,37c2.2,7.2,3.8,14.3,5.1,21.6c0.2,3.6-2.5,7-6.5,7.4
					c-3.4,0.3-6.6-2.2-7.7-5.4l-16.6-59.5c-0.9-3.1-4.2-5-7.3-4.2l-1.2,0.4c-3.2,0.8-5.1,4.1-4.2,7.2l16.6,59.2
					c0.8,3.4-0.6,7.3-3.6,8.7c-3.6,1.6-7.5,0.1-9.2-2.9c-2.8-6.7-5-13.6-6.9-20.8c-3.2-12.5-7.4-29.1-8.6-37.2l-0.9-3.1
					c-0.6-2.8-3.1-4.9-5.9-4.8c-3.6,0.2-6.3,3.1-6,6.4l7.5,72.8c5.8,20.6,26.8,32.8,44.4,33.2c0.5,0.1,1.1,0.2,1.4,0l-0.1,2.2
					l-5.2,65.8c-0.7,9.4,2.3,18.1,7.8,25c8,10.1,21.2,15.8,35.1,12.3c15-3.6,24.7-15.4,26.6-28.7c1.1-8.3-0.5-17-6.2-24.8
					L748.6,145.4z"/>
			</g>
		</g>
		<g>
			<g>
				<path class="st0" d="M67.8,92.3c0,0.2,0,0.7-0.1,1.7c-0.1,1-0.5,2-1.3,3.2s-2.1,2.2-4,3.1c-1.8,0.9-4.5,1.3-8,1.3
					c-4.7,0-8.4-0.3-11.1-0.8c-2.6-0.5-4.6-1.3-5.9-2.2c-1.3-0.9-2-2-2.3-3.2c-0.3-1.2-0.4-2.4-0.4-3.6c0-12.2,3.1-22.6,9.2-31.3
					s14.7-15.8,25.8-21.4c11.1-5.5,24.3-9.6,39.8-12.2s32.5-3.9,51.2-3.9c12.4,0,25.4,0.4,39,1.2c13.6,0.8,27.6,2.2,42.1,4.3
					c4.2,1.1,7,2.8,8.6,4.9c1.6,2.1,2.4,4.4,2.4,6.7c0,1.6-0.2,3.2-0.7,4.9c-0.5,1.7-1.1,3.3-2,4.8c-0.9,1.5-2.1,2.7-3.6,3.6
					c-1.5,0.9-3.3,1.4-5.3,1.4c-0.3,0-0.7,0-1-0.1c-0.4,0-0.8-0.1-1.2-0.2c-5.3-0.9-11.1-1.7-17.3-2.4c-6.2-0.7-12.7-1.3-19.5-1.7
					c-6.8-0.4-13.8-0.8-21-1c-7.2-0.2-14.6-0.3-22-0.3c-2.2,0-4.8,0.1-7.9,0.4c-3.1,0.2-6,0.5-8.9,0.9c-3.3,0.3-6.7,0.7-10.2,1.2
					c0,0.9-0.1,1.9-0.2,3.1s-0.4,2.7-0.7,4.8c-0.3,2-0.7,4.7-1.2,7.8c-0.4,3.2-1,7.3-1.7,12.3c-0.7,5-1.4,11.1-2.2,18.2
					c-0.8,7.1-1.7,15.5-2.7,25.3h67.9c2,0,3.5,0.4,4.5,1.2c1.1,0.8,1.8,1.8,2.3,2.9c0.5,1.2,0.8,2.4,0.9,3.8
					c0.1,1.3,0.1,2.6,0.1,3.9c0,3.9-0.9,6.9-2.6,8.8c-1.7,2-3.5,2.9-5.3,2.9c-0.6,0-2.4,0.1-5.6,0.2c-3.2,0.1-7.1,0.3-11.6,0.4
					c-4.6,0.2-9.6,0.3-15.1,0.6c-5.5,0.2-10.8,0.4-15.9,0.6c-5.1,0.2-9.8,0.3-14,0.4c-4.2,0.1-7.4,0.2-9.5,0.2
					c-1.5,9.9-3.1,19.4-5,28.5c-1.9,9.1-4.2,17.7-7,25.6c-2.8,8-6.1,15.2-10,21.7c-3.8,6.5-8.4,12.1-13.7,16.8
					c-5.3,4.7-11.4,8.3-18.4,10.8c-6.9,2.6-14.9,3.9-23.9,3.9c-1.9,0-4.1-0.1-6.7-0.4c-2.6-0.2-5.3-0.7-8.2-1.2
					c-2.9-0.6-5.7-1.3-8.5-2.3c-2.8-0.9-5.3-2.1-7.5-3.5c-2.2-1.4-4-3-5.4-4.8c-1.4-1.8-2.1-3.9-2.1-6.3c0-1.2,0.3-2.8,0.8-4.8
					c0.5-2,1.3-3.9,2.4-5.8c1.1-1.9,2.5-3.5,4.2-4.9c1.7-1.4,3.7-2.1,6.1-2.1c2.7,0,5.5,0.4,8.5,1.3c3,0.9,6.1,1.9,9.2,3
					c3.2,1.1,6.5,2.1,9.8,3c3.3,0.9,6.7,1.3,10.2,1.3c2.7,0,5.3-1.1,7.8-3.2c2.5-2.2,4.9-5.1,7.2-8.9c2.2-3.8,4.4-8.2,6.4-13.3
					c2-5.1,4-10.6,5.7-16.5c1.8-5.9,3.5-12.1,5-18.5c1.6-6.4,3-12.9,4.3-19.3H76c-1.4,0-3.1-0.2-5.1-0.5c-2-0.3-4-0.9-5.9-1.7
					c-1.9-0.8-3.5-1.8-4.8-3.1s-2-2.9-2-4.9c0-1.4,0.4-2.7,1.1-3.9c0.7-1.2,2-2.1,3.7-2.7c4.6-1,8.6-1.8,12-2.6
					c3.4-0.7,6.5-1.4,9.1-1.9c2.6-0.5,5-1,7-1.4c2-0.4,3.9-0.7,5.6-1c2-8.7,3.5-16.3,4.6-22.8c1.1-6.4,2.1-12.3,2.9-17.6
					c0.8-5.3,1.6-10.2,2.3-14.9c0.7-4.7,1.6-9.6,2.6-14.8c-7.1,2-13.3,4.5-18.5,7.3c-5.2,2.9-9.6,5.9-13,9.2
					c-3.4,3.3-6,6.7-7.6,10.2C68.6,85.5,67.8,89,67.8,92.3z"/>
			</g>
			<g>
				<path class="st0" d="M249.5,149c2.4,4.7,4.1,9.7,5.3,15s1.8,10.3,1.8,15.1c0,4.8-0.5,9.7-1.6,14.6c-1.1,4.9-2.6,9.6-4.6,14.2
					c-2,4.6-4.5,8.9-7.3,12.9c-2.9,4-6.2,7.5-9.9,10.4c-3.7,2.9-7.8,5.3-12.2,7c-4.4,1.7-9.1,2.6-14.1,2.6c-7.2,0-13.3-1.6-18.4-4.7
					c-5.1-3.1-9.3-7.2-12.6-12.3c-3.3-5.1-5.7-10.8-7.2-17.1c-1.5-6.4-2.3-12.8-2.3-19.3c0-9,1.3-17.4,4-25.2
					c2.7-7.8,6.6-14.6,11.6-20.3c5-5.8,11.2-10.3,18.4-13.6c7.3-3.3,15.4-5,24.5-5c7.8,0,15,1.2,21.8,3.6c6.8,2.4,13.1,5.6,19,9.7
					c5.9,4,11.4,8.7,16.5,13.9c5.1,5.2,9.9,10.6,14.3,16.2l-2.3,17.3c-2.2-2.9-5.2-6.1-8.9-9.6c-3.8-3.4-7.7-6.8-11.9-10
					c-4.2-3.3-8.3-6.3-12.4-9.2c-4.1-2.9-7.6-5.3-10.5-7.3L249.5,149z M211.7,217.2c2.8,0,5.5-1.4,8.1-4.2c2.6-2.8,4.9-6.4,6.9-10.7
					c2-4.3,3.5-9,4.7-14.2c1.2-5.2,1.8-10.1,1.8-14.9c0-3.8-0.3-7.2-0.9-10.5c-0.6-3.2-1.4-6-2.6-8.4c-1.1-2.4-2.6-4.2-4.4-5.6
					c-1.8-1.4-4-2.1-6.5-2.1c-3.4,0-6.5,1.4-9.5,4.3c-3,2.9-5.7,6.5-8,11c-2.3,4.4-4.1,9.4-5.4,14.8s-2,10.6-2,15.5
					c0,3.4,0.3,6.7,1,9.7c0.7,3,1.7,5.7,3.1,7.9c1.4,2.2,3.2,4,5.5,5.4C205.8,216.5,208.5,217.2,211.7,217.2z"/>
			</g>
			<g>
				<path class="st0" d="M283.8,215.1c0-3.6,0.2-7.8,0.6-12.6c0.4-4.8,1-9.8,1.7-15.1c0.7-5.3,1.5-10.7,2.4-16.2
					c0.9-5.5,1.9-10.8,3-15.7s2.1-9.6,3.2-13.7c1.1-4.2,2.1-7.6,3.2-10.3c0.7-1.8,1.3-3.2,2-4.3c0.7-1.1,1.4-1.9,2.3-2.5
					c0.9-0.6,1.9-1,3.2-1.2c1.3-0.2,2.8-0.3,4.7-0.3c2.1,0,3.8,0.1,5,0.3c1.2,0.2,2.1,0.7,2.6,1.5c0.6,0.8,0.9,1.9,1,3.4
					c0.1,1.5,0.2,3.5,0.2,6c0,3,0,6.7,0,11c0,4.3,0.1,8.5,0.2,12.7h1.3c1.6-3.3,3.5-6.9,5.5-11c2-4,4.4-7.8,7.1-11.3
					c2.7-3.5,5.7-6.5,9.2-8.9c3.4-2.4,7.4-3.6,11.9-3.6c1.5,0,3.1,0.3,4.5,0.8c1.5,0.5,2.8,1.3,3.9,2.3c1.1,1,2,2.2,2.6,3.6
					c0.7,1.4,1,3,1,4.8c0,1.4-0.2,3.3-0.6,5.8c-0.4,2.5-0.9,5.1-1.3,7.8c-0.5,2.7-0.9,5.4-1.3,8c-0.4,2.6-0.6,4.7-0.6,6.4
					c0,2.9,0.3,5.4,0.9,7.3c0.6,2,1.3,3.5,2.3,4.7c0.9,1.2,2,2,3.2,2.5c1.2,0.5,2.4,0.7,3.7,0.7c3.7,0,7.5-0.8,11.4-2.4
					c3.9-1.6,7.5-3.5,10.8-5.5c3.8-2.4,7.6-5.1,11.3-8.1l-1.8,28.6c-2.1,1.4-4.5,2.9-7.2,4.7c-2.7,1.7-5.6,3.3-8.6,4.8
					c-3.1,1.5-6.2,2.8-9.6,3.8c-3.3,1-6.7,1.5-10.1,1.5c-6.1,0-11.1-1.2-14.8-3.7c-3.8-2.5-6.7-5.8-8.9-9.8c-2.2-4-3.8-8.6-4.9-13.6
					c-1.1-5-1.9-10.1-2.6-15.2h-2l-21.9,61.1c-1.1,3.2-2.2,5.8-3.2,7.9c-1,2.1-2.1,3.8-3.1,5.1c-1.1,1.3-2.2,2.2-3.4,2.8
					c-1.2,0.5-2.6,0.8-4,0.8c-3.4,0-6-0.7-8.1-2.1c-2-1.4-3.6-3.3-4.7-5.8c-1.1-2.4-1.8-5.1-2.2-8.2
					C283.9,221.5,283.8,218.4,283.8,215.1z"/>
			</g>
			<g>
				<path class="st0" d="M431.3,172.3c2.9-3.8,6.2-7.9,9.7-12.4s7-8.8,10.3-12.9s6.5-7.7,9.3-10.9c2.8-3.2,5-5.3,6.7-6.5
					c2.5-1.8,5.6-3.3,9.3-4.6c3.7-1.3,7.8-1.9,12.2-1.9c2.3,0,4.5,0.5,6.5,1.6c2.1,1.1,3.9,2.6,5.5,4.5c1.5,2,2.8,4.3,3.7,7.1
					c0.9,2.8,1.3,5.9,1.3,9.3c0,3.4-0.8,6.7-2.4,10.1c-1.6,3.4-3.7,6.8-6.1,10.2c-2.4,3.4-5.1,6.9-8,10.3c-2.9,3.4-5.5,6.9-8,10.3
					c-2.4,3.5-4.5,6.9-6.1,10.3c-1.6,3.4-2.4,6.9-2.4,10.3c0,2.9,0.7,5,2.1,6.3c1.4,1.3,3.7,1.9,6.7,1.9c1.6,0,3.4-0.6,5.3-1.7
					c1.9-1.1,3.9-2.6,5.9-4.3c2-1.8,4.1-3.8,6.2-6c2.1-2.2,4.1-4.4,6-6.7c1.9-2.3,3.7-4.5,5.4-6.5c1.7-2.1,3.3-3.9,4.7-5.3l7.3,30
					c-2.5,3.7-5.7,7.1-9.6,10.2c-3.9,3.1-8.1,5.9-12.6,8.2c-4.5,2.3-9.2,4.1-14.1,5.4c-4.9,1.3-9.5,2-14,2c-5.9,0-10.7-0.7-14.4-2.1
					c-3.7-1.4-6.6-3.3-8.8-5.7c-2.1-2.4-3.6-5-4.3-8c-0.8-3-1.2-6.1-1.2-9.2c0-1.9,0.2-4.2,0.7-6.9c0.4-2.7,1.3-5.8,2.6-9.2
					c1.3-3.4,3-7.2,5.3-11.3c2.3-4.1,5.3-8.5,8.9-13.3c1.5-1.5,2.8-2.8,4-4c1.2-1.2,2.3-2.2,3.2-3.2c0.9-0.9,1.6-1.8,2.1-2.6
					c0.5-0.8,0.7-1.7,0.7-2.6c0-1.7-0.3-3.1-0.9-4.2c-0.6-1.1-1.5-1.6-2.6-1.6c-1.4,0-3.2,0.9-5.4,2.7c-2.2,1.8-4.6,4.9-7.2,9.4
					L419,232c-1.9,3.3-3.8,5.5-5.8,6.8c-2,1.3-4.3,1.9-6.9,1.9c-3.5,0-6.3-0.8-8.3-2.3c-2-1.5-3.6-3.5-4.6-6.1
					c-1.1-2.6-1.7-5.5-2-8.9c-0.3-3.4-0.4-7-0.4-10.8c0-4.7,0.2-10.8,0.5-18.5c0.3-7.7,0.8-16.1,1.5-25.3c0.7-9.2,1.5-18.8,2.6-28.8
					c1.1-10,2.4-19.8,4-29.3c0.6-3.3,1.3-7.4,2.2-12.2c0.9-4.8,2-9.9,3.4-15.4c1.3-5.5,2.9-11.2,4.8-17.1c1.8-5.9,4-11.7,6.4-17.3
					c2.4-5.6,5.1-10.9,8.1-16c3-5.1,6.4-9.5,10.2-13.3c3.8-3.8,7.9-6.8,12.4-9c4.5-2.2,9.4-3.3,14.7-3.3c4.2,0,7.6,0.7,10.3,2
					c2.7,1.3,4.8,3.2,6.4,5.6c1.6,2.4,2.7,5.3,3.4,8.6c0.7,3.3,1,7,1,10.9c0,6.9-0.9,14.4-2.6,22.4c-1.8,8-4,16-6.7,24.1
					c-2.7,8-5.6,15.9-8.8,23.4c-3.2,7.6-6.2,14.4-9.2,20.6c-2.9,6.1-5.5,11.3-7.8,15.5c-2.3,4.2-3.7,7-4.5,8.3l-14.6,21.8
					L431.3,172.3z M455.3,34.8c-2.6,0-4.9,0.8-6.7,2.4c-1.9,1.6-3.6,4-5.3,7c-1.7,3-3.3,6.7-5,11s-3.6,9.1-5.7,14.4
					c-1.3,4.7-2.5,9.5-3.6,14.4c-1.1,5-2.1,9.9-3,14.9c-0.9,4.9-1.7,9.8-2.4,14.6c-0.7,4.8-1.3,9.3-1.8,13.6
					c-1.2,10-2.2,19.9-2.9,29.6c1.8-5.4,3.7-11.2,5.9-17.6c2.1-6.3,4.2-12.6,6.3-18.7c2.1-6.2,4-12,5.9-17.5
					c1.8-5.5,3.4-10.2,4.6-14c0.6-1.8,1.4-4,2.4-6.7s2.2-5.6,3.4-8.7c1.2-3.1,2.4-6.3,3.7-9.7c1.2-3.3,2.3-6.6,3.4-9.7
					c1-3.1,1.9-6,2.5-8.7s1-5,1-6.9C457.9,36.1,457,34.8,455.3,34.8z"/>
			</g>
			<g>
				<path class="st0" d="M590.3,214.6c-2.9,2.7-6.6,5.6-11,8.6c-4.4,3.1-9.1,5.9-14.1,8.4c-5.1,2.6-10.2,4.7-15.5,6.4
					c-5.3,1.7-10.3,2.6-15,2.6c-4.2,0-7.8-0.6-10.7-1.8c-2.9-1.2-5.2-2.8-7-5c-1.8-2.1-3.1-4.7-3.9-7.8c-0.8-3.1-1.2-6.4-1.2-10.1
					c0-5.1,0.6-11.1,1.8-17.9c1.2-6.8,2.6-13.9,4.3-21.2c1.7-7.3,3.5-14.6,5.4-21.9c1.9-7.3,3.6-14,5.1-20.1
					c0.6-2.1,1.7-3.9,3.4-5.4c1.7-1.5,3.7-2.7,5.8-3.7c2.2-0.9,4.4-1.6,6.7-2.1c2.3-0.4,4.4-0.7,6.3-0.7c3.4,0,5.8,0.6,7,1.9
					c1.2,1.3,1.8,3,1.8,5.1c0,1.8-0.4,4.4-1.2,7.8c-0.8,3.4-1.8,7.2-3.1,11.5c-1.2,4.3-2.5,8.9-3.9,13.8c-1.4,4.9-2.7,9.9-3.9,14.8
					c-1.2,4.9-2.2,9.8-3.1,14.4c-0.8,4.7-1.2,8.9-1.2,12.7c0,3.7,0.4,6.6,1.2,8.8c0.8,2.2,2.5,3.2,5,3.2c2.9,0,6.2-1,9.8-3.1
					c3.6-2,7.2-4.5,10.9-7.4c3.7-2.9,7.3-5.9,10.8-9c3.5-3.1,6.6-5.8,9.3-8V214.6z M535.6,88.8c0-1.9,0.4-4,1.2-6.4
					c0.8-2.4,2.1-4.6,4-6.7c1.8-2.1,4.3-3.8,7.3-5.3c3.1-1.4,6.9-2.1,11.5-2.1c2.9,0,5.5,0.3,8.1,1c2.5,0.7,4.7,1.7,6.6,3
					c1.9,1.3,3.4,3.1,4.5,5.3c1.1,2.2,1.6,4.8,1.6,7.8c0,2.8-0.4,5.5-1.3,8.1c-0.9,2.6-2.3,4.9-4.3,7c-2,2-4.4,3.7-7.4,5
					c-3,1.3-6.6,1.9-10.7,1.9c-7.2,0-12.5-1.7-15.9-5.1C537.3,98.9,535.6,94.4,535.6,88.8z"/>
			</g>
			<g>
				<path class="st0" d="M625.5,240.7c-7.7,0-14.4-1.4-20.1-4.2c-5.8-2.8-10.5-6.5-14.4-11.2c-3.8-4.7-6.7-10.1-8.6-16.3
					s-2.9-12.6-2.9-19.4c0-4.6,0.4-9.4,1.3-14.5c0.9-5.1,2.3-10.1,4.1-15c1.8-4.9,4.1-9.6,6.9-14c2.8-4.4,6-8.4,9.7-11.8
					c3.7-3.4,7.9-6.1,12.5-8.1c4.6-2,9.7-3,15.4-3c4.6,0,8.8,0.7,12.7,2.2c3.9,1.5,7.3,3.5,10.2,6.2c2.9,2.7,5.2,5.9,6.8,9.6
					c1.6,3.8,2.4,8,2.4,12.6c0,5.1-1.2,10.1-3.7,15.2c-2.5,5.1-5.9,9.8-10.3,14.3c-4.4,4.5-9.7,8.5-15.7,12
					c-6.1,3.5-12.7,6.2-19.8,8.2c1.2,2.2,2.4,4,3.6,5.5c1.2,1.5,2.4,2.6,3.6,3.4c1.2,0.8,2.5,1.4,3.9,1.7c1.3,0.3,2.8,0.5,4.3,0.5
					c4.9,0,10.1-1,15.5-2.9c5.4-2,10.7-4.4,15.9-7.3c5.1-2.9,10-6.1,14.6-9.6c1.3-1,2.6-2,3.8-3c4.7-3.8,11.4-3.2,15.6,1.1v0
					c4.6,4.7,4.3,12.4-0.6,16.8c-4.6,4.1-9.3,7.9-14.2,11.4c-3.5,2.4-7.3,4.9-11.3,7.2c-4,2.4-8.3,4.5-12.7,6.3
					c-4.4,1.8-9.1,3.3-13.8,4.4C635.2,240.1,630.4,240.7,625.5,240.7z M609.2,183.1c2.9,0,6.1-0.8,9.6-2.3c3.5-1.5,6.7-3.4,9.7-5.8
					c3-2.4,5.5-4.9,7.5-7.7s3.1-5.5,3.1-8.1c0-3.7-0.7-6.7-2-9.1c-1.3-2.4-3-3.6-5-3.6c-3.5,0-6.5,0.7-9,2c-2.5,1.3-4.6,3-6.2,5.1
					c-1.7,2.1-3,4.4-4,7.1c-1,2.7-1.8,5.3-2.3,8c-0.5,2.7-0.9,5.3-1,7.8C609.3,179.2,609.2,181.4,609.2,183.1z"/>
			</g>
		</g>
	</g>
	<g>
		<path class="st1" d="M43.3,93.6c-1.6,0-2.9-1.3-2.9-2.9c0-11.1,2.6-19.4,9-28.5c5.9-8.4,14.3-15.4,25-20.7
			c10.5-5.3,23.2-9.2,37.7-11.6c24-4,52.5-4.4,84.4-2.5c12.6,0.8,25.8,2.1,39.3,4c1.6,0.2,2.7,1.7,2.4,3.2c-0.2,1.6-1.7,2.7-3.2,2.4
			c-13.3-1.9-26.3-3.2-38.8-4c-31.4-1.9-59.6-1.5-83.1,2.5C99.1,37.9,87,41.6,77,46.6c-9.8,4.9-17.5,11.3-22.9,18.9
			c-5.8,8.2-8,15.3-8,25.2C46.2,92.3,44.9,93.6,43.3,93.6z"/>
	</g>
	<g>
		<path class="st1" d="M179,166.2c-0.3,0-0.6-0.1-0.9-0.2c-1.5-0.5-2.3-2.2-1.8-3.7c2.4-7,5.9-13.1,10.4-18.3
			c4.5-5.2,10.2-9.4,16.7-12.3c6.6-3,14-4.5,22.1-4.5c6.9,0,13.5,1.1,19.6,3.3c1.5,0.5,2.3,2.2,1.7,3.7c-0.5,1.5-2.2,2.3-3.7,1.7
			c-5.4-1.9-11.4-2.9-17.6-2.9c-7.3,0-13.9,1.3-19.7,4c-5.8,2.6-10.8,6.3-14.8,10.9c-4,4.6-7.2,10.1-9.3,16.4
			C181.3,165.5,180.2,166.2,179,166.2z"/>
	</g>
	<g>
		<path class="st1" d="M371,188.3c-1.5,0-2.8-1.2-2.9-2.8c-0.1-1.6,1.2-2.9,2.8-3c2.4-0.1,4.8-0.4,6.9-0.8c2.6-0.5,5.2-1.2,7.8-2.1
			c1.5-0.5,3.1,0.3,3.7,1.8c0.5,1.5-0.3,3.1-1.8,3.7c-2.8,1-5.7,1.8-8.5,2.3c-2.4,0.5-5.1,0.8-7.8,0.9
			C371.1,188.3,371,188.3,371,188.3z M331.2,155c-0.4,0-0.9-0.1-1.3-0.3c-1.4-0.7-2-2.4-1.3-3.9l3.4-6.8c1.3-2.6,2.9-5.1,4.7-7.4
			c1.8-2.4,3.9-4.4,6.3-6.1c3.6-2.5,8.3-3.7,12.7-2.1c1.2,0.5,2.4,1.1,3.3,1.9c1,0.9,1.8,1.9,2.3,3.2c0.7,1.4,0,3.2-1.4,3.8
			c-1.5,0.7-3.2,0-3.8-1.4c-0.2-0.5-0.5-0.9-0.9-1.3c-0.4-0.4-0.9-0.6-1.4-0.8c-2.6-0.9-5.4-0.1-7.5,1.4c-1.9,1.3-3.5,2.9-5,4.9
			c-1.5,2-2.9,4.2-4.1,6.5l-3.4,6.7C333.3,154.5,332.3,155,331.2,155z M300,154.4c-0.2,0-0.4,0-0.6-0.1c-1.6-0.3-2.5-1.9-2.2-3.4
			c0.7-3.2,1.4-6.2,2.1-8.9c0.7-2.8,1.4-5.1,2.2-7c0.5-1.3,1-2.4,1.5-3.2c0.6-1,1.4-1.8,2.2-2.4c0.9-0.6,2-1.1,3.2-1.3
			c0.9-0.2,2.1-0.2,3.5-0.2c1.6,0,2.9,1.3,2.9,2.9s-1.3,2.9-2.9,2.9c-1,0-1.9,0-2.6,0.2c-0.4,0.1-0.7,0.2-0.8,0.3
			c-0.2,0.2-0.5,0.4-0.7,0.8s-0.6,1-1,2.2c-0.7,1.7-1.3,3.8-2,6.3c-0.7,2.6-1.3,5.5-2,8.7C302.6,153.5,301.4,154.4,300,154.4z"/>
	</g>
	<g>
		<path class="st1" d="M490.7,223.7c-1.1,0-2.1-0.6-2.6-1.6c-0.7-1.4-0.1-3.2,1.3-3.8c1.1-0.6,2.4-1.3,3.6-2.3
			c1.4-1,2.7-2.2,4.1-3.5c1.4-1.3,2.8-2.7,4.1-4.1l3.8-4c1.1-1.2,2.9-1.2,4.1-0.1c1.2,1.1,1.2,2.9,0.1,4.1l-3.9,4.1
			c-1.4,1.5-2.9,2.9-4.4,4.3c-1.5,1.4-3.1,2.7-4.5,3.9c-1.6,1.2-3.1,2.2-4.6,2.9C491.5,223.6,491.1,223.7,490.7,223.7z M402.8,156.2
			c-0.1,0-0.2,0-0.3,0c-1.6-0.1-2.7-1.5-2.6-3.1c0.7-7.9,1.7-16.4,2.9-25.2c1.1-8.7,2.5-17.3,4-25.6c0.6-2.9,1.3-6.5,2.2-10.6
			c0.9-4.2,2-8.7,3.3-13.5c1.3-4.8,2.8-9.8,4.5-15c1.7-5.2,3.7-10.3,6-15.2c2.2-4.9,4.8-9.6,7.6-14.1c2.8-4.5,6.1-8.5,9.5-11.9
			c3.6-3.5,7.5-6.2,11.7-8.1c4.3-2,9.1-3,14.1-2.9c1.6,0,2.8,1.4,2.8,2.9s-1.3,2.9-2.9,2.8c-4.1-0.1-8.1,0.7-11.6,2.3
			c-3.6,1.7-7.1,4.1-10.2,7.1c-3.2,3.1-6.1,6.7-8.7,10.8c-2.7,4.2-5.1,8.8-7.2,13.4c-2.2,4.7-4.1,9.7-5.8,14.6
			c-1.7,5-3.2,10-4.4,14.6c-1.3,4.7-2.3,9.1-3.2,13.2c-0.9,4.1-1.6,7.6-2.1,10.5c-1.5,8.1-2.9,16.6-4,25.2c-1.1,8.7-2.1,17.1-2.8,25
			C405.5,155.1,404.3,156.2,402.8,156.2z M470.7,139.7c-0.9,0-1.8-0.4-2.3-1.2c-0.9-1.3-0.6-3.1,0.7-4c2.3-1.6,5.1-3,8.4-4.1
			c3.3-1.1,7-1.7,11-1.7c2.3,0,4.6,0.5,6.7,1.6c1.4,0.7,2,2.5,1.3,3.9c-0.7,1.4-2.5,2-3.9,1.3c-1.3-0.7-2.6-1-4.1-1
			c-3.4,0-6.4,0.5-9.1,1.4c-2.8,1-5.1,2.1-6.9,3.4C471.8,139.5,471.2,139.7,470.7,139.7z"/>
	</g>
	<g>
		<path class="st1" d="M562.8,223.5c-0.9,0-1.8-0.4-2.4-1.2c-0.9-1.3-0.6-3.1,0.7-4c2.6-1.8,5.2-3.8,7.7-5.8c2.6-2,4.9-3.8,6.8-5.2
			c1.3-0.9,3.1-0.7,4,0.6c0.9,1.3,0.7,3.1-0.6,4c-1.9,1.4-4.1,3.1-6.7,5.1c-2.6,2.1-5.2,4-7.9,6C564,223.4,563.4,223.5,562.8,223.5z
			 M519.6,218.1c-1.6,0-2.9-1.3-2.9-2.9c0-4.9,0.6-10.7,1.7-17.2c1.1-6.2,2.4-12.9,4.1-19.9c1.6-6.8,3.3-13.6,5.1-20.4
			c1.8-6.7,3.3-12.9,4.7-18.6c0.7-2.6,2.1-4.8,4.1-6.6c1.8-1.6,3.9-2.9,6.2-3.9c2.2-0.9,4.5-1.7,6.9-2.1c1.5-0.3,3.1,0.7,3.4,2.3
			c0.3,1.6-0.7,3.1-2.3,3.4c-2,0.4-3.9,1-5.7,1.8c-1.7,0.7-3.3,1.7-4.6,2.9c-1.2,1-1.9,2.2-2.3,3.7c-1.4,5.6-2.9,11.9-4.7,18.7
			c-1.8,6.7-3.5,13.5-5,20.3c-1.6,6.9-3,13.4-4,19.5c-1.1,6.1-1.6,11.6-1.6,16.2C522.5,216.8,521.2,218.1,519.6,218.1z M543.7,93
			c-1.6,0-2.9-1.3-2.9-2.9c0-1.7,0.3-3.5,1-5.5c0.7-2,1.8-4,3.4-5.7c1.6-1.8,3.6-3.3,6.2-4.5c4.1-1.9,10.5-2.4,15.9-1
			c1.5,0.4,2.5,2,2.1,3.5c-0.4,1.5-2,2.5-3.5,2.1c-4-1-9.1-0.7-12,0.6c-1.8,0.8-3.3,1.9-4.3,3.1c-1.1,1.2-1.8,2.5-2.3,3.8
			c-0.5,1.4-0.7,2.6-0.7,3.6C546.5,91.7,545.3,93,543.7,93z"/>
	</g>
	<g>
		<path class="st1" d="M648.3,222.3c-1.2,0-2.3-0.7-2.7-1.9c-0.5-1.5,0.2-3.1,1.7-3.7c4.5-1.6,8.9-3.7,13.1-6.1
			c4.3-2.4,8.4-5.1,12.1-8c3.8-2.9,7-5.6,9.7-8.2c1.1-1.1,3-1.1,4.1,0.1c1.1,1.1,1.1,3-0.1,4.1c-2.8,2.7-6.2,5.6-10.2,8.6
			c-4,3-8.2,5.8-12.7,8.4c-4.5,2.6-9.2,4.8-14,6.5C649,222.2,648.6,222.3,648.3,222.3z M588.5,190.7c-1.6,0-2.9-1.3-2.9-2.9
			c0-4.1,0.4-8.4,1.2-12.9c0.8-4.5,2-9,3.6-13.3c1.6-4.3,3.7-8.5,6.1-12.5c2.5-4,5.5-7.6,8.8-10.6c3.4-3.1,7.2-5.6,11.4-7.4
			c7.8-3.4,18-3.8,26.1-0.7c1.5,0.6,2.2,2.2,1.7,3.7c-0.6,1.5-2.2,2.2-3.7,1.7c-6.7-2.5-15.4-2.2-21.8,0.6c-3.6,1.6-6.9,3.7-9.9,6.4
			c-3,2.7-5.6,5.9-7.8,9.4c-2.3,3.6-4.2,7.5-5.6,11.4c-1.5,4-2.6,8.1-3.4,12.3c-0.7,4.2-1.1,8.2-1.1,11.9
			C591.4,189.4,590.1,190.7,588.5,190.7z"/>
	</g>
	<g>
		<path class="st1" d="M66.4,142.1c-0.5,0-1-0.1-1.5-0.4c-1.4-0.8-1.8-2.6-1-3.9c0.8-1.4,2.2-2.4,4-3l8.2-1.8c2.3-0.5,4.3-0.9,6-1.3
			l4.6-0.9c1.4-0.3,3.8-0.7,4.9-0.9c1.6-0.2,3,0.9,3.3,2.4c0.2,1.6-0.9,3-2.4,3.3c-1.1,0.2-3.3,0.6-4.6,0.8l-4.6,0.9
			c-1.7,0.3-3.7,0.8-5.9,1.2l-7.9,1.7c0,0-0.4,0.2-0.6,0.4C68.3,141.6,67.4,142.1,66.4,142.1z M184.3,133h-56.7
			c-1.6,0-2.9-1.3-2.9-2.9c0-1.6,1.3-2.9,2.9-2.9h56.7c1.6,0,2.9,1.3,2.9,2.9C187.2,131.7,185.9,133,184.3,133z"/>
	</g>
	<g>
		<path class="st1" d="M67.7,235.2c-0.9,0-1.7-0.4-2.3-1.1c-1-1.2-0.8-3.1,0.5-4c2-1.6,4-3.9,5.9-6.8c2-3.1,4-6.8,5.8-11
			c1.9-4.2,3.7-8.9,5.5-13.9c0.5-1.5,2.1-2.3,3.7-1.8c1.5,0.5,2.3,2.2,1.8,3.7c-1.8,5.1-3.7,10-5.7,14.4c-2,4.5-4.1,8.4-6.3,11.7
			c-2.2,3.5-4.7,6.2-7.2,8.2C68.9,235,68.3,235.2,67.7,235.2z"/>
	</g>
	<g>
		<g>
			<path class="st1" d="M744.1,135.9c-1,0-2-0.5-2.5-1.4c-0.8-1.4-0.3-3.1,1-3.9c10.7-6.2,19.2-21.5,15.1-36.2
				c-0.4-1.5,0.5-3.1,2-3.5c1.5-0.4,3.1,0.5,3.5,2c5.1,18.1-5.4,35.5-17.7,42.8C745.1,135.8,744.6,135.9,744.1,135.9z"/>
		</g>
		<g>
			<path class="st1" d="M773.7,244.5c-0.9,0-1.9-0.5-2.4-1.3c-0.9-1.3-0.5-3.1,0.9-4c5.7-3.6,9.5-9.6,10.5-16.3
				c0.8-6.1-0.7-11.9-4.2-16.8l-16-22.3c-0.9-1.3-0.6-3.1,0.7-4c1.3-0.9,3.1-0.6,4,0.7l16,22.3c4.4,6,6.2,13.3,5.2,20.9
				c-1.2,8.4-6,15.8-13.1,20.4C774.8,244.4,774.2,244.5,773.7,244.5z"/>
		</g>
	</g>
</g>
</svg>
