<?xml version="1.0" encoding="utf-8"?>
<!-- Generator: Adobe Illustrator 23.0.1, SVG Export Plug-In . SVG Version: 6.00 Build 0)  -->
<svg version="1.1" id="Layer_1" xmlns="http://www.w3.org/2000/svg" xmlns:xlink="http://www.w3.org/1999/xlink" x="0px" y="0px"
	 viewBox="0 0 272.5 266" style="enable-background:new 0 0 272.5 266;" xml:space="preserve">
<style type="text/css">
	.st0{fill:#446630;}
	.st1{fill:#FFFFFF;}
	.st2{fill:#9BB360;}
	.st3{fill:#57886E;}
	.st4{fill:none;stroke:#6D7862;stroke-width:2;stroke-miterlimit:10;stroke-dasharray:12.1584,12.1584;}
</style>
<circle class="st0" cx="166.9" cy="106.4" r="23.1"/>
<g>
	<path class="st1" d="M175.7,99.7c0,1.3-0.3,2.5-0.8,3.6c-0.6,1.1-1.3,2-2.3,2.7s-2.1,1-3.3,1c-1,0-2.1-0.3-3.2-0.9v4.2h-1.9v-6.7
		h1.6c0.3,0.4,0.6,0.7,0.7,0.8c0.3,0.2,0.7,0.3,1.3,0.3c0.9,0,1.6-0.5,2.1-1.4c0.5-0.9,0.8-2.2,0.8-3.8c0-1.5-0.2-2.8-0.6-3.7
		c-0.4-0.9-0.9-1.5-1.5-1.9c-0.6-0.4-1.2-0.5-1.8-0.5c-0.9,0-1.6,0.2-2,0.7c-0.4,0.5-0.7,1.1-1,1.7c-0.2,0.5-0.4,0.9-0.6,1.2
		c-0.3,0.3-0.7,0.5-1.2,0.5c-0.5,0-0.9-0.2-1.3-0.6c-0.4-0.4-0.5-0.8-0.5-1.3c0-0.8,0.4-1.5,1.1-2.2c0.7-0.6,1.6-1.1,2.8-1.5
		c1.1-0.4,2.3-0.5,3.6-0.5c1.4,0,2.6,0.2,3.6,0.7c1,0.5,1.9,1.1,2.6,1.9c0.7,0.8,1.2,1.6,1.5,2.6C175.5,97.7,175.7,98.7,175.7,99.7z
		 M168.2,116.9c0,0.9-0.3,1.6-0.9,2.2c-0.6,0.6-1.4,0.9-2.2,0.9c-0.9,0-1.6-0.3-2.2-0.9s-0.9-1.3-0.9-2.2c0-0.5,0.1-1.1,0.4-1.6
		c0.3-0.5,0.7-0.9,1.1-1.2c0.5-0.3,1-0.4,1.5-0.4c0.6,0,1.1,0.1,1.6,0.4c0.5,0.3,0.9,0.7,1.1,1.2
		C168.1,115.8,168.2,116.4,168.2,116.9z"/>
</g>
<rect x="169.3" y="25.1" class="st2" width="25.7" height="25.7"/>
<rect x="222.7" y="95.2" class="st2" width="25.7" height="25.7"/>
<polygon class="st3" points="130,138.3 111.5,138.3 102.3,154.3 111.5,170.3 130,170.3 139.2,154.3 "/>
<polygon class="st3" points="171.7,224.4 153.3,224.4 144.1,240.3 153.3,256.3 171.7,256.3 181,240.3 "/>
<polygon class="st3" points="36.5,87.5 18.1,87.5 8.9,103.5 18.1,119.4 36.5,119.4 45.8,103.5 "/>
<g>
	<circle class="st4" cx="166.9" cy="106.4" r="100.6"/>
</g>
</svg>
