<?xml version="1.0" encoding="utf-8"?>
<!-- Generator: Adobe Illustrator 23.0.1, SVG Export Plug-In . SVG Version: 6.00 Build 0)  -->
<svg version="1.1" id="Layer_1" xmlns="http://www.w3.org/2000/svg" xmlns:xlink="http://www.w3.org/1999/xlink" x="0px" y="0px"
	 viewBox="0 0 272.5 266" style="enable-background:new 0 0 272.5 266;" xml:space="preserve">
<style type="text/css">
	.st0{fill:none;stroke:#6D7862;stroke-width:2;stroke-miterlimit:10;stroke-dasharray:12;}
	.st1{fill:#446630;}
	.st2{fill:#FFFFFF;}
	.st3{fill:#9BB360;}
	.st4{fill:#57886E;}
</style>
<path class="st0" d="M22.9,53.3l61.1,18.8c13.9,4.3,25.7,13.3,33.2,25.3l9.5,15.2c9.3,14.9,25.1,25,43.1,27.5h0
	c18.9,2.6,35.3,13.6,44.4,29.8l31,55.1"/>
<circle class="st1" cx="146.3" cy="126.7" r="23.1"/>
<g>
	<path class="st2" d="M155.1,120c0,1.3-0.3,2.5-0.8,3.6c-0.6,1.1-1.3,2-2.3,2.7s-2.1,1-3.3,1c-1,0-2.1-0.3-3.2-0.9v4.2h-1.9v-6.7
		h1.6c0.3,0.4,0.6,0.7,0.7,0.8c0.3,0.2,0.7,0.3,1.3,0.3c0.9,0,1.6-0.5,2.1-1.4c0.5-0.9,0.8-2.2,0.8-3.8c0-1.5-0.2-2.8-0.6-3.7
		c-0.4-0.9-0.9-1.5-1.5-1.9c-0.6-0.4-1.2-0.5-1.8-0.5c-0.9,0-1.6,0.2-2,0.7c-0.4,0.5-0.7,1.1-0.9,1.7c-0.2,0.5-0.4,0.9-0.6,1.2
		c-0.3,0.3-0.7,0.5-1.2,0.5c-0.5,0-0.9-0.2-1.3-0.6c-0.4-0.4-0.5-0.8-0.5-1.3c0-0.8,0.4-1.5,1.1-2.2c0.7-0.6,1.6-1.1,2.8-1.5
		s2.3-0.5,3.6-0.5c1.4,0,2.6,0.2,3.6,0.7c1,0.5,1.9,1.1,2.6,1.9c0.7,0.8,1.2,1.6,1.5,2.6C155,118,155.1,119,155.1,120z M147.6,137.2
		c0,0.9-0.3,1.6-0.9,2.2c-0.6,0.6-1.4,0.9-2.2,0.9c-0.9,0-1.6-0.3-2.2-0.9c-0.6-0.6-0.9-1.3-0.9-2.2c0-0.5,0.1-1.1,0.4-1.6
		s0.7-0.9,1.1-1.2c0.5-0.3,1-0.4,1.5-0.4c0.6,0,1.1,0.1,1.6,0.4s0.9,0.7,1.1,1.2C147.5,136.1,147.6,136.7,147.6,137.2z"/>
</g>
<rect x="140" y="52" class="st3" width="18.8" height="18.8"/>
<rect x="188.2" y="99.6" class="st3" width="18.8" height="18.8"/>
<rect x="239.7" y="119.6" class="st3" width="18.8" height="18.8"/>
<rect x="189.9" y="48.7" class="st3" width="18.8" height="18.8"/>
<rect x="96.7" y="25" class="st3" width="18.8" height="18.8"/>
<polygon class="st4" points="168.4,206.5 155.2,206.5 148.7,217.9 155.2,229.3 168.4,229.3 174.9,217.9 "/>
<polygon class="st4" points="138.6,171.4 125.5,171.4 118.9,182.8 125.5,194.2 138.6,194.2 145.2,182.8 "/>
<polygon class="st4" points="72.7,183.5 59.5,183.5 52.9,194.9 59.5,206.3 72.7,206.3 79.2,194.9 "/>
<polygon class="st4" points="93.3,130.4 80.2,130.4 73.6,141.7 80.2,153.1 93.3,153.1 99.9,141.7 "/>
<polygon class="st4" points="33.1,109 20,109 13.4,120.4 20,131.7 33.1,131.7 39.7,120.4 "/>
</svg>
