<?xml version="1.0" encoding="utf-8"?>
<!-- Generator: Adobe Illustrator 23.0.1, SVG Export Plug-In . SVG Version: 6.00 Build 0)  -->
<svg version="1.1" id="Layer_1" xmlns="http://www.w3.org/2000/svg" xmlns:xlink="http://www.w3.org/1999/xlink" x="0px" y="0px"
	 viewBox="0 0 71 57" style="enable-background:new 0 0 71 57;" xml:space="preserve">
<style type="text/css">
	.st0{opacity:0.8;}
	.st1{opacity:0.3;}
	.st2{fill:#F89E75;}
	.st3{opacity:0.32;}
	.st4{fill:#18469D;}
	.st5{fill:#769AD5;}
	.st6{fill:#A93235;}
</style>
<g class="st0">
	<g>
		<path d="M37,3v24H13V3H37 M38,2H12v26h26V2L38,2z"/>
	</g>
</g>
<g class="st1">
	<circle class="st2" cx="26.5" cy="30.5" r="25.5"/>
</g>
<g class="st0">
	<g>
		<path d="M69,3v24H45V3H69 M70,2H44v26h26V2L70,2z"/>
	</g>
</g>
<g class="st3">
	<g>
		<path class="st4" d="M26.17,29.17c1.1,0,2,0.9,2,2s-0.9,2-2,2s-2-0.9-2-2S25.06,29.17,26.17,29.17 M26.17,28.17
			c-1.66,0-3,1.34-3,3c0,1.66,1.34,3,3,3c1.66,0,3-1.34,3-3C29.17,29.51,27.82,28.17,26.17,28.17L26.17,28.17z"/>
	</g>
</g>
<g>
	<path class="st2" d="M26.17,29.67c0.83,0,1.5,0.67,1.5,1.5s-0.67,1.5-1.5,1.5s-1.5-0.67-1.5-1.5S25.34,29.67,26.17,29.67
		 M26.17,28.67c-1.38,0-2.5,1.12-2.5,2.5s1.12,2.5,2.5,2.5s2.5-1.12,2.5-2.5S27.55,28.67,26.17,28.67L26.17,28.67z"/>
</g>
<g>
	<path class="st2" d="M26.17,30.17c-0.55,0-1,0.45-1,1s0.45,1,1,1s1-0.45,1-1S26.72,30.17,26.17,30.17L26.17,30.17z"/>
</g>
<g>
	<circle class="st5" cx="40.93" cy="10.19" r="2.5"/>
</g>
<g>
	<path class="st2" d="M42.18,7.51l-1.85-1.85c-0.2-0.2-0.2-0.51,0-0.71s0.51-0.2,0.71,0l0.14,0.14V1.5c0-0.28,0.22-0.5,0.5-0.5
		s0.5,0.22,0.5,0.5V7.51z"/>
</g>
<g>
	<path class="st2" d="M41.68,27.3c-0.28,0-0.5-0.22-0.5-0.5v-11.6l-0.8,0.8c-0.2,0.2-0.51,0.2-0.71,0s-0.2-0.51,0-0.71l2.5-2.5V26.8
		C42.18,27.08,41.96,27.3,41.68,27.3z"/>
</g>
<g>
	<path class="st6" d="M41.73,23c-1.1,0-2-0.9-2-2s0.9-2,2-2s2,0.9,2,2S42.83,23,41.73,23z M41.73,20c-0.55,0-1,0.45-1,1s0.45,1,1,1
		s1-0.45,1-1S42.28,20,41.73,20z"/>
</g>
<g>
	<g>
		<path class="st6" d="M42.73,4.5c-0.13,0-0.26-0.05-0.35-0.15l-2-2c-0.2-0.2-0.2-0.51,0-0.71s0.51-0.2,0.71,0l2,2
			c0.2,0.2,0.2,0.51,0,0.71C42.98,4.45,42.85,4.5,42.73,4.5z"/>
	</g>
	<g>
		<path class="st6" d="M40.73,4.5c-0.13,0-0.26-0.05-0.35-0.15c-0.2-0.2-0.2-0.51,0-0.71l2-2c0.2-0.2,0.51-0.2,0.71,0
			s0.2,0.51,0,0.71l-2,2C40.98,4.45,40.85,4.5,40.73,4.5z"/>
	</g>
</g>
</svg>
