<?xml version="1.0" encoding="utf-8"?>
<!-- Generator: Adobe Illustrator 23.0.1, SVG Export Plug-In . SVG Version: 6.00 Build 0)  -->
<svg version="1.1" id="Layer_1" xmlns="http://www.w3.org/2000/svg" xmlns:xlink="http://www.w3.org/1999/xlink" x="0px" y="0px"
	 viewBox="0 0 666 383.6" style="enable-background:new 0 0 666 383.6;" xml:space="preserve">
<style type="text/css">
	.st0{enable-background:new    ;}
	.st1{fill:#1A1A1A;}
	.st2{fill:#A5BB81;}
	.st3{fill:#56876D;}
	.st4{fill:#6C7861;}
	.st5{fill:#333333;}
</style>
<title>Artboard 2</title>
<g class="st0">
	<path class="st1" d="M182.5,46.9c0.1,1,1.1,1.7,2.4,1.7c1.2,0,2.1-0.5,2.1-1.5c0-0.8-0.4-1.1-1.7-1.5l-0.8-0.3
		c-1.8-0.5-2.6-1.4-2.6-2.9c0-1.9,1.6-3.2,3.9-3.2c2.3,0,3.9,1.2,3.9,3.2h-1.8c0-0.9-0.8-1.6-2.1-1.6c-1.3,0-2,0.7-2,1.4
		c0,0.7,0.5,1.1,1.6,1.5l0.8,0.3c1.8,0.5,2.7,1.4,2.7,2.8c0,1.9-1.5,3.4-4.1,3.4c-2.4,0-4.2-1.2-4.2-3.3H182.5z"/>
	<path class="st1" d="M191.3,42.3h1.7l-0.3,1.2h0c0.4-0.8,1.3-1.4,2.3-1.4c1.1,0,1.8,0.6,2,1.4h0c0.5-0.8,1.4-1.4,2.6-1.4
		c1.3,0,2.2,0.9,2.2,2.1c0,0.3,0,0.6-0.1,0.9l-1,4.9h-1.8l1-4.6c0.1-0.2,0.1-0.4,0.1-0.6c0-0.7-0.4-1.2-1.2-1.2
		c-0.8,0-1.5,0.6-1.7,1.6l-1,4.8h-1.8l1-4.6c0.1-0.2,0.1-0.4,0.1-0.6c0-0.7-0.4-1.2-1.2-1.2c-0.8,0-1.5,0.7-1.7,1.6l-1,4.8h-1.8
		L191.3,42.3z"/>
	<path class="st1" d="M202.4,48c0-1.6,1.2-2.5,3.3-2.6l2.1-0.1l0.1-0.5c0-0.1,0-0.2,0-0.3c0-0.6-0.5-1-1.3-1c-0.9,0-1.4,0.4-1.6,1
		h-1.7c0.3-1.5,1.6-2.5,3.4-2.5c1.8,0,3,0.9,3,2.3c0,0.2,0,0.5-0.1,0.6l-1.1,5h-1.7l0.2-0.9h0c-0.5,0.6-1.3,1.1-2.3,1.1
		C203.4,50.2,202.4,49.3,202.4,48z M207.4,47.3l0.2-0.7l-1.8,0.1c-1,0-1.6,0.5-1.6,1.1c0,0.6,0.5,1,1.3,1
		C206.4,48.8,207.2,48.2,207.4,47.3z"/>
</g>
<g class="st0">
	<path class="st1" d="M211.7,42.3h1.7l-0.2,1.1h0c0.4-0.7,1.1-1.2,2.1-1.2c0.4,0,0.7,0.1,1,0.2l-0.4,1.7c-0.2-0.1-0.6-0.2-1-0.2
		c-1.2,0-1.9,0.7-2.1,1.9l-0.9,4.3H210L211.7,42.3z"/>
</g>
<g class="st0">
	<path class="st1" d="M216.9,48.5c0-0.2,0-0.5,0.1-0.7l0.9-4h-1.2l0.3-1.4h1.2l0.4-1.9h1.8l-0.4,1.9h1.6l-0.3,1.4h-1.6l-0.8,3.6
		c-0.1,0.2-0.1,0.4-0.1,0.6c0,0.5,0.4,0.7,1,0.7c0.2,0,0.4,0,0.5,0L220,50c-0.2,0.1-0.6,0.1-0.9,0.1
		C217.8,50.1,216.9,49.6,216.9,48.5z"/>
	<path class="st1" d="M226.7,46.9c0.1,1,1.1,1.7,2.4,1.7c1.2,0,2.1-0.5,2.1-1.5c0-0.8-0.4-1.1-1.7-1.5l-0.8-0.3
		c-1.8-0.5-2.6-1.4-2.6-2.9c0-1.9,1.6-3.2,3.9-3.2c2.3,0,3.9,1.2,3.9,3.2h-1.8c0-0.9-0.8-1.6-2.1-1.6c-1.3,0-2,0.7-2,1.4
		c0,0.7,0.5,1.1,1.6,1.5l0.8,0.3c1.8,0.5,2.7,1.4,2.7,2.8c0,1.9-1.5,3.4-4.1,3.4c-2.4,0-4.2-1.2-4.2-3.3H226.7z"/>
	<path class="st1" d="M233.3,52.6l2.2-10.3h1.8l-0.3,1.2h0c0.5-0.8,1.4-1.3,2.4-1.3c1.7,0,2.8,1.3,2.8,3.2c0,2.8-1.7,4.8-3.9,4.8
		c-1.2,0-2.1-0.7-2.4-1.6h0l-0.9,4.1H233.3z M240.4,45.6c0-1.2-0.6-1.9-1.6-1.9c-1.4,0-2.4,1.5-2.4,3.1c0,1.1,0.7,1.9,1.7,1.9
		C239.4,48.6,240.4,47.3,240.4,45.6z"/>
	<path class="st1" d="M243.1,46.7c0-2.6,1.6-4.6,4-4.6c2,0,3.3,1.3,3.3,3.3c0,0.4,0,0.8-0.1,1.2h-5.5c0,0.1,0,0.2,0,0.2
		c0,1.2,0.7,1.9,1.7,1.9c0.9,0,1.6-0.5,1.8-1.2h1.7c-0.4,1.5-1.8,2.6-3.6,2.6C244.3,50.2,243.1,48.8,243.1,46.7z M248.7,45.4
		c0-0.1,0-0.1,0-0.2c0-0.8-0.5-1.6-1.6-1.6c-1,0-1.8,0.8-2.1,1.8H248.7z"/>
	<path class="st1" d="M250.9,48c0-1.6,1.2-2.5,3.3-2.6l2.1-0.1l0.1-0.5c0-0.1,0-0.2,0-0.3c0-0.6-0.5-1-1.3-1c-0.9,0-1.4,0.4-1.6,1
		h-1.7c0.3-1.5,1.6-2.5,3.4-2.5c1.8,0,3,0.9,3,2.3c0,0.2,0,0.5-0.1,0.6l-1.1,5h-1.7l0.2-0.9h0c-0.5,0.6-1.3,1.1-2.3,1.1
		C252,50.2,250.9,49.3,250.9,48z M255.9,47.3l0.2-0.7l-1.8,0.1c-1,0-1.6,0.5-1.6,1.1c0,0.6,0.5,1,1.3,1
		C254.9,48.8,255.8,48.2,255.9,47.3z"/>
</g>
<g class="st0">
	<path class="st1" d="M258.6,50l2.3-10.6h1.8l-1.3,5.9h0l3.5-3.1h2.2l-3.7,3.3l2.3,4.5h-2l-1.7-3.5l-0.9,0.8l-0.6,2.7H258.6z"/>
</g>
<g class="st0">
	<path class="st1" d="M266.4,46.7c0-2.6,1.6-4.6,4-4.6c2,0,3.3,1.3,3.3,3.3c0,0.4,0,0.8-0.1,1.2h-5.5c0,0.1,0,0.2,0,0.2
		c0,1.2,0.7,1.9,1.7,1.9c0.9,0,1.6-0.5,1.8-1.2h1.7c-0.4,1.5-1.8,2.6-3.6,2.6C267.6,50.2,266.4,48.8,266.4,46.7z M271.9,45.4
		c0-0.1,0-0.1,0-0.2c0-0.8-0.5-1.6-1.6-1.6c-1,0-1.8,0.8-2.1,1.8H271.9z"/>
	<path class="st1" d="M275.7,42.3h1.7l-0.2,1.1h0c0.4-0.7,1.1-1.2,2.1-1.2c0.4,0,0.7,0.1,1,0.2l-0.4,1.7c-0.2-0.1-0.6-0.2-1-0.2
		c-1.2,0-1.9,0.7-2.1,1.9l-0.9,4.3H274L275.7,42.3z"/>
	<path class="st1" d="M284,46.8c0-0.3,0-0.6,0.1-0.9l1.3-6.4h1.9l-1.3,6.4c-0.1,0.3-0.1,0.6-0.1,0.8c0,1.1,0.8,1.9,2.2,1.9
		c1.4,0,2.4-0.8,2.7-2.3l1.4-6.8h1.9l-1.5,7.2c-0.5,2.2-2.1,3.6-4.7,3.6C285.5,50.2,284,48.8,284,46.8z"/>
	<path class="st1" d="M297.8,42.1c1.8,0,3,1,3.1,2.5h-1.7c-0.1-0.7-0.6-1.1-1.4-1.1c-0.8,0-1.4,0.4-1.4,0.9c0,0.5,0.3,0.7,1.2,1
		l0.7,0.2c1.4,0.5,2,1.1,2,2.1c0,1.5-1.3,2.5-3.2,2.5c-2,0-3.3-1-3.3-2.5h1.7c0.1,0.7,0.7,1.2,1.6,1.2c0.8,0,1.4-0.4,1.4-1
		c0-0.4-0.2-0.6-1.1-0.9l-0.7-0.2c-1.4-0.5-2-1.1-2-2.2C294.7,43.1,296,42.1,297.8,42.1z"/>
	<path class="st1" d="M301.6,46.7c0-2.6,1.6-4.6,4-4.6c2,0,3.3,1.3,3.3,3.3c0,0.4,0,0.8-0.1,1.2h-5.5c0,0.1,0,0.2,0,0.2
		c0,1.2,0.7,1.9,1.7,1.9c0.9,0,1.6-0.5,1.8-1.2h1.7c-0.4,1.5-1.8,2.6-3.6,2.6C302.8,50.2,301.6,48.8,301.6,46.7z M307.2,45.4
		c0-0.1,0-0.1,0-0.2c0-0.8-0.5-1.6-1.6-1.6c-1,0-1.8,0.8-2.1,1.8H307.2z"/>
	<path class="st1" d="M321.6,43c-0.1-1.2-1.1-2-2.4-2c-2.1,0-3.6,1.9-3.6,4.6c0,1.8,1,3,2.6,3c1.3,0,2.3-0.7,2.8-1.9h1.9
		c-0.5,2.2-2.4,3.6-4.7,3.6c-2.7,0-4.5-1.8-4.5-4.5c0-3.7,2.3-6.4,5.7-6.4c2.4,0,4.1,1.4,4.2,3.6c0,0.1,0,0.2,0,0.3h-1.9
		C321.6,43.1,321.6,43.1,321.6,43z"/>
	<path class="st1" d="M323.5,48c0-1.6,1.2-2.5,3.3-2.6l2.1-0.1l0.1-0.5c0-0.1,0-0.2,0-0.3c0-0.6-0.5-1-1.3-1c-0.9,0-1.4,0.4-1.6,1
		h-1.7c0.3-1.5,1.6-2.5,3.4-2.5c1.8,0,3,0.9,3,2.3c0,0.2,0,0.5-0.1,0.6l-1.1,5h-1.7l0.2-0.9h0c-0.5,0.6-1.3,1.1-2.3,1.1
		C324.5,50.2,323.5,49.3,323.5,48z M328.5,47.3l0.2-0.7l-1.8,0.1c-1,0-1.6,0.5-1.6,1.1c0,0.6,0.5,1,1.3,1
		C327.5,48.8,328.3,48.2,328.5,47.3z"/>
	<path class="st1" d="M335.3,42.1c1.8,0,3,1,3.1,2.5h-1.7c-0.1-0.7-0.6-1.1-1.4-1.1c-0.8,0-1.4,0.4-1.4,0.9c0,0.5,0.3,0.7,1.2,1
		l0.7,0.2c1.4,0.5,2,1.1,2,2.1c0,1.5-1.3,2.5-3.2,2.5c-2,0-3.3-1-3.3-2.5h1.7c0.1,0.7,0.7,1.2,1.6,1.2c0.8,0,1.4-0.4,1.4-1
		c0-0.4-0.2-0.6-1.1-0.9l-0.7-0.2c-1.4-0.5-2-1.1-2-2.2C332.2,43.1,333.4,42.1,335.3,42.1z"/>
	<path class="st1" d="M339.1,46.7c0-2.6,1.6-4.6,4-4.6c2,0,3.3,1.3,3.3,3.3c0,0.4,0,0.8-0.1,1.2h-5.5c0,0.1,0,0.2,0,0.2
		c0,1.2,0.7,1.9,1.7,1.9c0.9,0,1.6-0.5,1.8-1.2h1.7c-0.4,1.5-1.8,2.6-3.6,2.6C340.3,50.2,339.1,48.8,339.1,46.7z M344.6,45.4
		c0-0.1,0-0.1,0-0.2c0-0.8-0.5-1.6-1.6-1.6c-1,0-1.8,0.8-2.1,1.8H344.6z"/>
	<path class="st1" d="M350.4,50l2.2-10.6h6.7l-0.3,1.6h-4.8l-0.7,3.1h4.4l-0.3,1.6h-4.4l-0.9,4.3H350.4z"/>
</g>
<g class="st0">
	<path class="st1" d="M359.9,42.3h1.7l-0.2,1.1h0c0.4-0.7,1.2-1.2,2.1-1.2c0.4,0,0.7,0.1,1,0.2l-0.4,1.7c-0.2-0.1-0.6-0.2-1-0.2
		c-1.2,0-1.9,0.7-2.1,1.9l-0.9,4.3h-1.8L359.9,42.3z"/>
</g>
<g class="st0">
	<path class="st1" d="M364.3,46.7c0-2.6,1.6-4.6,4-4.6c2,0,3.3,1.3,3.3,3.3c0,0.4,0,0.8-0.1,1.2H366c0,0.1,0,0.2,0,0.2
		c0,1.2,0.7,1.9,1.7,1.9c0.9,0,1.6-0.5,1.8-1.2h1.7c-0.4,1.5-1.8,2.6-3.6,2.6C365.5,50.2,364.3,48.8,364.3,46.7z M369.8,45.4
		c0-0.1,0-0.1,0-0.2c0-0.8-0.5-1.6-1.6-1.6c-1,0-1.8,0.8-2.1,1.8H369.8z"/>
	<path class="st1" d="M376.9,52.6l0.8-3.8h0c-0.5,0.8-1.4,1.3-2.5,1.3c-1.7,0-2.8-1.2-2.8-3.2c0-2.7,1.7-4.8,3.9-4.8
		c1.2,0,2.1,0.7,2.4,1.6h0l0.3-1.5h1.7l-2.2,10.3H376.9z M378.2,45.5c0-1.1-0.7-1.9-1.7-1.9c-1.3,0-2.3,1.3-2.3,3.1
		c0,1.2,0.6,1.9,1.6,1.9C377.2,48.7,378.2,47.3,378.2,45.5z"/>
	<path class="st1" d="M387.6,50h-1.7l0.3-1.2h0c-0.4,0.7-1.4,1.3-2.5,1.3c-1.5,0-2.4-0.9-2.4-2.2c0-0.3,0-0.7,0.1-1.1l1-4.7h1.8
		l-0.9,4.4c-0.1,0.2-0.1,0.5-0.1,0.7c0,0.9,0.5,1.3,1.4,1.3c1,0,1.8-0.7,2.1-1.8l1-4.6h1.8L387.6,50z"/>
	<path class="st1" d="M389.7,46.7c0-2.6,1.6-4.6,4-4.6c2,0,3.3,1.3,3.3,3.3c0,0.4,0,0.8-0.1,1.2h-5.5c0,0.1,0,0.2,0,0.2
		c0,1.2,0.7,1.9,1.7,1.9c0.9,0,1.6-0.5,1.8-1.2h1.7c-0.4,1.5-1.8,2.6-3.6,2.6C390.9,50.2,389.7,48.8,389.7,46.7z M395.2,45.4
		c0-0.1,0-0.1,0-0.2c0-0.8-0.5-1.6-1.6-1.6c-1,0-1.8,0.8-2.1,1.8H395.2z"/>
	<path class="st1" d="M399,42.3h1.7l-0.2,1.2h0c0.5-0.8,1.4-1.4,2.5-1.4c1.4,0,2.4,0.9,2.4,2.3c0,0.3,0,0.6-0.1,1l-1,4.7h-1.8
		l0.9-4.4c0.1-0.3,0.1-0.5,0.1-0.7c0-0.8-0.6-1.3-1.4-1.3c-1,0-1.8,0.7-2,1.8l-1,4.6h-1.8L399,42.3z"/>
</g>
<g class="st0">
	<path class="st1" d="M413.7,44.9c0,0.1,0,0.1,0,0.2h-1.7c0-0.8-0.6-1.4-1.6-1.4c-1.3,0-2.3,1.3-2.3,3.1c0,1.2,0.6,1.9,1.6,1.9
		c0.9,0,1.5-0.5,1.8-1.3h1.7c-0.3,1.7-1.8,2.9-3.6,2.9c-2.1,0-3.3-1.4-3.3-3.4c0-2.7,1.7-4.7,4.1-4.7
		C412.5,42.1,413.7,43.4,413.7,44.9z"/>
</g>
<g class="st0">
	<path class="st1" d="M413.1,52.8l0.3-1.5c0.1,0,0.5,0.1,0.7,0.1c0.6,0,1.1-0.3,1.4-1.1c0,0,0.2-0.4,0.2-0.4l-1.1-7.7h1.8l0.6,6.1h0
		l3.1-6.1h1.9l-4.6,8.3c-1,1.8-2,2.3-3.5,2.3C413.8,52.9,413.2,52.8,413.1,52.8z"/>
</g>
<g class="st0">
	<path class="st1" d="M424.9,47.1h1.9v0.1c0,0.8,0.5,1.4,1.4,1.4c0.9,0,1.4-0.6,1.7-1.7l1.6-7.3h1.9l-1.6,7.6
		c-0.4,2-1.7,3.1-3.6,3.1c-1.9,0-3.2-1.2-3.2-2.9C424.9,47.3,424.9,47.2,424.9,47.1z"/>
</g>
<g class="st0">
	<path class="st1" d="M432.9,48c0-1.6,1.2-2.5,3.3-2.6l2.1-0.1l0.1-0.5c0-0.1,0-0.2,0-0.3c0-0.6-0.5-1-1.3-1c-0.9,0-1.4,0.4-1.6,1
		h-1.7c0.3-1.5,1.6-2.5,3.4-2.5c1.8,0,3,0.9,3,2.3c0,0.2,0,0.5-0.1,0.6l-1.1,5h-1.7l0.2-0.9h0c-0.5,0.6-1.3,1.1-2.3,1.1
		C433.9,50.2,432.9,49.3,432.9,48z M437.9,47.3l0.2-0.7l-1.8,0.1c-1,0-1.6,0.5-1.6,1.1c0,0.6,0.5,1,1.3,1
		C436.9,48.8,437.7,48.2,437.9,47.3z"/>
	<path class="st1" d="M442.2,42.3h1.7l-0.2,1.2h0c0.5-0.8,1.4-1.4,2.5-1.4c1.4,0,2.4,0.9,2.4,2.3c0,0.3,0,0.6-0.1,1l-1,4.7h-1.8
		l0.9-4.4c0.1-0.3,0.1-0.5,0.1-0.7c0-0.8-0.6-1.3-1.4-1.3c-1,0-1.8,0.7-2,1.8l-1,4.6h-1.8L442.2,42.3z"/>
	<path class="st1" d="M457.9,39.3c2,0,3.4,1.2,3.4,2.8c0,1.3-0.6,2.1-3,4.1l-2.8,2.2l0,0h4.9L460,50h-7.5l0.3-1.4l4.2-3.4
		c1.9-1.5,2.3-2.1,2.3-2.9c0-0.8-0.7-1.4-1.6-1.4c-1.1,0-1.8,0.6-2,1.7H454C454.2,40.6,455.8,39.3,457.9,39.3z"/>
</g>
<g class="st0">
	<path class="st1" d="M462.4,46.3c0-4.1,2.1-7,5-7c2.2,0,3.7,1.6,3.7,4c0,4.1-2.1,6.9-5,6.9C463.8,50.2,462.4,48.7,462.4,46.3z
		 M466.1,48.7c1.6,0,2.9-2.4,2.9-5.3c0-1.5-0.7-2.4-1.8-2.4c-1.6,0-3,2.4-3,5.3C464.3,47.7,465,48.7,466.1,48.7z"/>
</g>
<g class="st0">
	<path class="st1" d="M475.7,41.4L475.7,41.4l-3.2,1.9l0.4-1.9l3.2-1.9h1.9L475.8,50h-1.9L475.7,41.4z"/>
	<path class="st1" d="M482.7,50.2c-2.3,0-4-1.2-4-2.9c0-1.5,1.2-2.7,2.9-3l0,0c-0.9-0.4-1.4-1.1-1.4-2c0-1.7,1.7-3,3.9-3
		c2.1,0,3.6,1.1,3.6,2.6c0,1.3-1,2.4-2.4,2.7l0,0c1.1,0.4,1.8,1.3,1.8,2.3C487,48.9,485.2,50.2,482.7,50.2z M480.7,47.1
		c0,0.9,0.8,1.6,2.1,1.6c1.3,0,2.3-0.8,2.3-1.9c0-0.9-0.8-1.6-2.1-1.6C481.7,45.3,480.7,46.1,480.7,47.1z M483.8,43.9
		c1.1,0,2-0.7,2-1.7c0-0.8-0.7-1.4-1.8-1.4c-1.1,0-1.9,0.7-1.9,1.7C482,43.3,482.7,43.9,483.8,43.9z"/>
</g>
<rect x="177.3" y="178.1" class="st2" width="259.4" height="15.1"/>
<rect x="177.3" y="202.4" class="st3" width="210.4" height="15.1"/>
<rect x="177.3" y="226.7" class="st4" width="126" height="15.1"/>
<g class="st0">
	<path class="st5" d="M61.4,211.8c0-2.8,1.5-4.5,3.9-4.5c1.9,0,3.3,1.2,3.6,2.9h-0.8c-0.2-1.3-1.4-2.2-2.7-2.2
		c-1.9,0-3.1,1.5-3.1,3.7c0,2.3,1.2,3.8,3.1,3.8c1.4,0,2.5-0.8,2.7-2h0.8c-0.3,1.7-1.7,2.7-3.6,2.7C63,216.4,61.4,214.6,61.4,211.8z
		"/>
	<path class="st5" d="M70.1,207.4h0.8v3.6h0c0.3-0.8,1.1-1.3,2.1-1.3c1.4,0,2.3,0.9,2.3,2.3v4.1h-0.8v-4c0-1.1-0.6-1.8-1.7-1.8
		c-1.1,0-1.9,0.8-1.9,2v3.7h-0.8V207.4z"/>
	<path class="st5" d="M81.8,214.4c-0.2,1.1-1.2,1.9-2.6,1.9c-1.8,0-2.9-1.2-2.9-3.3c0-2,1.1-3.3,2.8-3.3c1.7,0,2.7,1.2,2.7,3.1v0.3
		h-4.8v0c0,1.4,0.8,2.3,2.1,2.3c1,0,1.6-0.5,1.8-1.2H81.8z M77.2,212.6h3.9c0-1.3-0.8-2.1-1.9-2.1C78,210.5,77.2,211.3,77.2,212.6z"
		/>
	<path class="st5" d="M87.4,211.9c-0.2-0.8-0.8-1.4-1.8-1.4c-1.2,0-2.1,1-2.1,2.6c0,1.6,0.8,2.6,2.1,2.6c1,0,1.6-0.5,1.8-1.4h0.8
		c-0.2,1.2-1.2,2.1-2.6,2.1c-1.7,0-2.9-1.2-2.9-3.3c0-2,1.1-3.3,2.9-3.3c1.5,0,2.5,1,2.6,2.1H87.4z"/>
	<path class="st5" d="M93.2,209.9h1l-2.9,2.7l2.9,3.6h-0.9l-2.5-3.1l-0.7,0.7v2.5h-0.8v-8.8H90v5.5L93.2,209.9z"/>
	<path class="st5" d="M98.7,208.3v1.6h1.3v0.7h-1.3v4.1c0,0.7,0.3,0.9,0.8,0.9c0.1,0,0.4,0,0.4,0v0.7c-0.1,0-0.4,0-0.6,0
		c-1.1,0-1.5-0.5-1.5-1.6v-4.1H97v-0.7h0.9v-1.6H98.7z"/>
	<path class="st5" d="M101.2,207.4h0.8v3.6h0c0.3-0.8,1.1-1.3,2.1-1.3c1.4,0,2.3,0.9,2.3,2.3v4.1h-0.8v-4c0-1.1-0.6-1.8-1.7-1.8
		c-1.1,0-1.9,0.8-1.9,2v3.7h-0.8V207.4z"/>
	<path class="st5" d="M112.9,214.4c-0.2,1.1-1.2,1.9-2.6,1.9c-1.8,0-2.9-1.2-2.9-3.3c0-2,1.1-3.3,2.8-3.3c1.7,0,2.7,1.2,2.7,3.1v0.3
		h-4.8v0c0,1.4,0.8,2.3,2.1,2.3c1,0,1.6-0.5,1.8-1.2H112.9z M108.2,212.6h3.9c0-1.3-0.8-2.1-1.9-2.1
		C109.1,210.5,108.3,211.3,108.2,212.6z"/>
	<path class="st5" d="M122.7,216.2h-0.9l-1.6-5.3h0l-1.6,5.3h-0.9l-1.8-6.3h0.8l1.4,5.4h0l1.6-5.4h0.8l1.6,5.4h0l1.4-5.4h0.8
		L122.7,216.2z"/>
	<path class="st5" d="M130.5,214.4c-0.2,1.1-1.2,1.9-2.6,1.9c-1.8,0-2.9-1.2-2.9-3.3c0-2,1.1-3.3,2.8-3.3c1.7,0,2.7,1.2,2.7,3.1v0.3
		h-4.8v0c0,1.4,0.8,2.3,2.1,2.3c1,0,1.6-0.5,1.8-1.2H130.5z M125.9,212.6h3.9c0-1.3-0.8-2.1-1.9-2.1
		C126.7,210.5,125.9,211.3,125.9,212.6z"/>
	<path class="st5" d="M131.5,214.5c0-1.1,0.8-1.7,2.3-1.8l2-0.1v-0.5c0-0.9-0.6-1.5-1.6-1.5c-0.9,0-1.5,0.5-1.7,1.2h-0.8
		c0.1-1.1,1-1.9,2.5-1.9s2.4,0.8,2.4,2.1v4.3h-0.8V215h0c-0.4,0.8-1.2,1.3-2.2,1.3C132.3,216.3,131.5,215.6,131.5,214.5z
		 M135.7,213.8v-0.7l-1.9,0.1c-1,0.1-1.6,0.5-1.6,1.2c0,0.7,0.6,1.2,1.5,1.2C134.9,215.6,135.7,214.8,135.7,213.8z"/>
	<path class="st5" d="M139.1,208.3v1.6h1.3v0.7h-1.3v4.1c0,0.7,0.3,0.9,0.8,0.9c0.1,0,0.4,0,0.4,0v0.7c-0.1,0-0.4,0-0.6,0
		c-1.1,0-1.5-0.5-1.5-1.6v-4.1h-0.9v-0.7h0.9v-1.6H139.1z"/>
	<path class="st5" d="M141.5,207.4h0.8v3.6h0c0.3-0.8,1.1-1.3,2.1-1.3c1.4,0,2.3,0.9,2.3,2.3v4.1h-0.8v-4c0-1.1-0.6-1.8-1.7-1.8
		c-1.1,0-1.9,0.8-1.9,2v3.7h-0.8V207.4z"/>
	<path class="st5" d="M153.2,214.4c-0.2,1.1-1.2,1.9-2.6,1.9c-1.8,0-2.9-1.2-2.9-3.3c0-2,1.1-3.3,2.8-3.3c1.7,0,2.7,1.2,2.7,3.1v0.3
		h-4.8v0c0,1.4,0.8,2.3,2.1,2.3c1,0,1.6-0.5,1.8-1.2H153.2z M148.6,212.6h3.9c0-1.3-0.8-2.1-1.9-2.1
		C149.4,210.5,148.6,211.3,148.6,212.6z"/>
	<path class="st5" d="M154.4,209.9h0.8v1.1h0c0.2-0.8,0.8-1.2,1.6-1.2c0.2,0,0.4,0,0.5,0.1v0.8c-0.1,0-0.3-0.1-0.6-0.1
		c-0.9,0-1.5,0.7-1.5,1.7v4h-0.8V209.9z"/>
</g>
<g class="st0">
	<path class="st5" d="M442.6,186.6c0-0.9,0.6-1.6,1.6-1.8v0c-0.8-0.2-1.3-0.8-1.3-1.6c0-1.1,0.9-1.8,2.3-1.8c1.3,0,2.3,0.8,2.3,1.8
		c0,0.7-0.5,1.3-1.3,1.6v0c0.9,0.2,1.6,0.9,1.6,1.8c0,1.2-1,2-2.5,2C443.7,188.7,442.6,187.8,442.6,186.6z M447,186.6
		c0-0.8-0.7-1.4-1.8-1.4c-1.1,0-1.8,0.6-1.8,1.4c0,0.8,0.7,1.5,1.8,1.5S447,187.4,447,186.6z M446.7,183.3c0-0.8-0.6-1.3-1.6-1.3
		c-0.9,0-1.6,0.6-1.6,1.3c0,0.7,0.7,1.3,1.6,1.3C446.1,184.5,446.7,184,446.7,183.3z"/>
</g>
<g class="st0">
	<path class="st5" d="M448.7,186.7h0.7c0.1,0.8,0.8,1.4,1.7,1.4c1,0,1.8-0.7,1.8-1.8c0-1-0.7-1.8-1.8-1.8c-0.7,0-1.3,0.3-1.7,0.9
		h-0.6l0.4-4h3.9v0.6h-3.4l-0.3,2.7h0c0.4-0.5,1-0.8,1.7-0.8c1.3,0,2.3,1,2.3,2.3c0,1.4-1,2.4-2.5,2.4
		C449.8,188.7,448.8,187.8,448.7,186.7z"/>
</g>
<g class="st0">
	<path class="st5" d="M454.6,188.1c0-0.3,0.2-0.5,0.5-0.5s0.5,0.2,0.5,0.5c0,0.3-0.2,0.5-0.5,0.5S454.6,188.4,454.6,188.1z"/>
</g>
<g class="st0">
	<path class="st5" d="M459.1,181.4c1.3,0,2.2,0.9,2.2,1.9c0,0.8-0.3,1.3-1.6,2.6l-1.9,2v0h3.7v0.6h-4.6v-0.5l2.5-2.6
		c1-1.1,1.3-1.5,1.3-2.1c0-0.8-0.6-1.4-1.5-1.4c-0.9,0-1.6,0.6-1.6,1.5h-0.6C456.9,182.3,457.8,181.4,459.1,181.4z"/>
	<path class="st5" d="M462.1,183.1c0-1,0.6-1.7,1.4-1.7s1.4,0.7,1.4,1.7c0,1-0.5,1.6-1.4,1.6S462.1,184.1,462.1,183.1z M464.4,183.1
		c0-0.7-0.4-1.2-0.9-1.2s-0.9,0.5-0.9,1.2c0,0.7,0.4,1.2,0.9,1.2C464.1,184.3,464.4,183.8,464.4,183.1z M462.9,188.5l4.8-7h0.6
		l-4.8,7H462.9z M466.4,187c0-1,0.6-1.7,1.4-1.7s1.4,0.7,1.4,1.7s-0.5,1.7-1.4,1.7S466.4,188,466.4,187z M468.6,187
		c0-0.7-0.4-1.2-0.9-1.2s-0.9,0.5-0.9,1.2s0.4,1.2,0.9,1.2C468.3,188.2,468.6,187.7,468.6,187z"/>
</g>
<g class="st0">
	<path class="st5" d="M313.8,235.5h-3.6v-0.6c0.8-1.3,1.7-2.7,3.2-4.9h1v4.9h1v0.6h-1v1.6h-0.6V235.5z M310.9,234.9h2.9v-4.3h0
		C312.5,232.5,311.6,233.8,310.9,234.9L310.9,234.9z"/>
</g>
<g class="st0">
	<path class="st5" d="M318.1,230.8L318.1,230.8c-0.2,0.1-1.7,1.1-1.9,1.3v-0.7c0.2-0.1,1.7-1.2,1.9-1.3h0.7v7h-0.6V230.8z"/>
</g>
<g class="st0">
	<path class="st5" d="M320.4,236.7c0-0.3,0.2-0.5,0.5-0.5s0.5,0.2,0.5,0.5c0,0.3-0.2,0.5-0.5,0.5S320.4,237,320.4,236.7z"/>
</g>
<g class="st0">
	<path class="st5" d="M325.9,235.5h-3.6v-0.6c0.8-1.3,1.7-2.7,3.2-4.9h1v4.9h1v0.6h-1v1.6h-0.6V235.5z M323,234.9h2.9v-4.3h0
		C324.6,232.5,323.7,233.8,323,234.9L323,234.9z"/>
	<path class="st5" d="M328.1,231.7c0-1,0.6-1.7,1.4-1.7s1.4,0.7,1.4,1.7c0,1-0.5,1.6-1.4,1.6S328.1,232.7,328.1,231.7z M330.4,231.7
		c0-0.7-0.4-1.2-0.9-1.2s-0.9,0.5-0.9,1.2c0,0.7,0.4,1.2,0.9,1.2C330,232.9,330.4,232.4,330.4,231.7z M328.9,237.1l4.8-7h0.6l-4.8,7
		H328.9z M332.4,235.5c0-1,0.6-1.7,1.4-1.7c0.8,0,1.4,0.7,1.4,1.7s-0.5,1.7-1.4,1.7C332.9,237.2,332.4,236.5,332.4,235.5z
		 M334.6,235.5c0-0.7-0.4-1.2-0.9-1.2s-0.9,0.5-0.9,1.2s0.4,1.2,0.9,1.2C334.3,236.7,334.6,236.3,334.6,235.5z"/>
</g>
<g class="st0">
	<path class="st5" d="M393.5,209.5c0-2.4,1-3.8,2.7-3.8c1.2,0,2.1,0.7,2.3,1.8h-0.7c-0.2-0.7-0.8-1.2-1.6-1.2c-1.3,0-2,1.2-2,3.3h0
		c0.3-0.8,1.1-1.3,2.1-1.3c1.3,0,2.3,1,2.3,2.3c0,1.4-1,2.4-2.4,2.4C394.9,212.9,393.5,212.1,393.5,209.5z M397.9,210.6
		c0-1-0.7-1.8-1.8-1.8c-1,0-1.8,0.8-1.8,1.7c0,1,0.8,1.8,1.8,1.8C397.1,212.3,397.9,211.6,397.9,210.6z"/>
</g>
<g class="st0">
	<path class="st5" d="M399.4,211.2h0.7c0.2,0.7,0.8,1.2,1.6,1.2c1.2,0,2-1,2-3.3h0c-0.3,0.8-1.1,1.3-2.1,1.3c-1.3,0-2.3-1-2.3-2.3
		c0-1.4,1-2.4,2.4-2.4c1.2,0,2.6,0.8,2.6,3.5c0,2.4-1,3.8-2.7,3.8C400.5,212.9,399.6,212.2,399.4,211.2z M403.5,208.1
		c0-1-0.8-1.8-1.8-1.8c-1,0-1.8,0.8-1.8,1.8c0,1,0.7,1.7,1.8,1.7C402.8,209.8,403.5,209,403.5,208.1z"/>
</g>
<g class="st0">
	<path class="st5" d="M405.3,212.4c0-0.3,0.2-0.5,0.5-0.5s0.5,0.2,0.5,0.5c0,0.3-0.2,0.5-0.5,0.5S405.3,212.7,405.3,212.4z"/>
</g>
<g class="st0">
	<path class="st5" d="M408.7,206.5L408.7,206.5c-0.2,0.1-1.7,1.1-1.9,1.3v-0.7c0.2-0.1,1.7-1.2,1.9-1.3h0.7v7h-0.6V206.5z"/>
	<path class="st5" d="M410.8,207.4c0-1,0.6-1.7,1.4-1.7s1.4,0.7,1.4,1.7c0,1-0.5,1.6-1.4,1.6S410.8,208.4,410.8,207.4z M413.1,207.4
		c0-0.7-0.4-1.2-0.9-1.2s-0.9,0.5-0.9,1.2c0,0.7,0.4,1.2,0.9,1.2C412.7,208.6,413.1,208.1,413.1,207.4z M411.6,212.8l4.8-7h0.6
		l-4.8,7H411.6z M415.1,211.2c0-1,0.6-1.7,1.4-1.7s1.4,0.7,1.4,1.7s-0.5,1.7-1.4,1.7S415.1,212.2,415.1,211.2z M417.3,211.2
		c0-0.7-0.4-1.2-0.9-1.2s-0.9,0.5-0.9,1.2s0.4,1.2,0.9,1.2C417,212.4,417.3,212,417.3,211.2z"/>
</g>
<rect x="177.3" y="269.3" class="st2" width="272.5" height="15.1"/>
<rect x="177.3" y="293.8" class="st3" width="232" height="15.1"/>
<rect x="177.3" y="318.2" class="st4" width="127.6" height="15.1"/>
<g class="st0">
	<path class="st5" d="M67.4,295h-5.2v-8.8H63v8.1h4.4V295z"/>
	<path class="st5" d="M68.4,286.8c0-0.3,0.2-0.5,0.5-0.5c0.3,0,0.5,0.2,0.5,0.5s-0.2,0.5-0.5,0.5C68.6,287.3,68.4,287.1,68.4,286.8z
		 M68.5,288.6h0.8v6.3h-0.8V288.6z"/>
	<path class="st5" d="M72.9,288.5c1.4,0,2.3,0.8,2.3,1.9h-0.8c-0.1-0.8-0.7-1.3-1.6-1.3c-0.9,0-1.5,0.5-1.5,1.1c0,0.5,0.4,0.8,1.2,1
		l1,0.2c1.3,0.3,1.7,0.8,1.7,1.7c0,1.1-1,1.8-2.4,1.8c-1.4,0-2.4-0.8-2.5-1.9h0.8c0.1,0.8,0.7,1.3,1.7,1.3s1.6-0.4,1.6-1.1
		c0-0.5-0.3-0.9-1.2-1.1l-1-0.2c-1.2-0.3-1.8-0.8-1.8-1.7C70.6,289.3,71.6,288.5,72.9,288.5z"/>
</g>
<g class="st0">
	<path class="st5" d="M77.6,287.1v1.6h1.3v0.7h-1.3v4.1c0,0.7,0.3,0.9,0.8,0.9c0.1,0,0.4,0,0.4,0v0.7c-0.1,0-0.4,0-0.6,0
		c-1.1,0-1.5-0.5-1.5-1.6v-4.1h-0.9v-0.7h0.9v-1.6H77.6z"/>
</g>
<g class="st0">
	<path class="st5" d="M84.9,293.2c-0.2,1.1-1.2,1.9-2.6,1.9c-1.8,0-2.9-1.2-2.9-3.3c0-2,1.1-3.3,2.8-3.3c1.7,0,2.7,1.2,2.7,3.1v0.3
		h-4.8v0c0,1.4,0.8,2.3,2.1,2.3c1,0,1.6-0.5,1.8-1.2H84.9z M80.3,291.4h3.9c0-1.3-0.8-2.1-1.9-2.1C81.1,289.2,80.3,290.1,80.3,291.4
		z"/>
	<path class="st5" d="M86.1,288.6h0.8v1.2h0c0.3-0.8,1.1-1.3,2.1-1.3c1.4,0,2.2,0.9,2.2,2.3v4.1h-0.8v-4c0-1.1-0.6-1.7-1.7-1.7
		c-1.1,0-1.8,0.8-1.8,2v3.8h-0.8V288.6z"/>
</g>
<g class="st0">
	<path class="st5" d="M96.3,287.1v1.6h1.3v0.7h-1.3v4.1c0,0.7,0.3,0.9,0.8,0.9c0.1,0,0.4,0,0.4,0v0.7c-0.1,0-0.4,0-0.6,0
		c-1.1,0-1.5-0.5-1.5-1.6v-4.1h-0.9v-0.7h0.9v-1.6H96.3z"/>
</g>
<g class="st0">
	<path class="st5" d="M98.2,291.8c0-2,1.2-3.3,2.9-3.3c1.7,0,2.9,1.3,2.9,3.3c0,2-1.2,3.3-2.9,3.3S98.2,293.8,98.2,291.8z
		 M103.1,291.8c0-1.6-0.8-2.6-2.1-2.6s-2.1,1-2.1,2.6s0.8,2.6,2.1,2.6S103.1,293.4,103.1,291.8z"/>
	<path class="st5" d="M109.7,288.5c1.4,0,2.3,0.8,2.3,1.9h-0.8c-0.1-0.8-0.7-1.3-1.6-1.3c-0.9,0-1.5,0.5-1.5,1.1
		c0,0.5,0.4,0.8,1.2,1l1,0.2c1.3,0.3,1.7,0.8,1.7,1.7c0,1.1-1,1.8-2.4,1.8c-1.4,0-2.4-0.8-2.5-1.9h0.8c0.1,0.8,0.7,1.3,1.7,1.3
		s1.6-0.4,1.6-1.1c0-0.5-0.3-0.9-1.2-1.1l-1-0.2c-1.2-0.3-1.8-0.8-1.8-1.7C107.4,289.3,108.4,288.5,109.7,288.5z"/>
	<path class="st5" d="M114.4,287.1v1.6h1.3v0.7h-1.3v4.1c0,0.7,0.3,0.9,0.8,0.9c0.1,0,0.4,0,0.4,0v0.7c-0.1,0-0.4,0-0.6,0
		c-1.1,0-1.5-0.5-1.5-1.6v-4.1h-0.9v-0.7h0.9v-1.6H114.4z"/>
</g>
<g class="st0">
	<path class="st5" d="M116.8,288.6h0.8v1.1h0c0.2-0.8,0.8-1.2,1.6-1.2c0.2,0,0.4,0,0.5,0.1v0.8c-0.1,0-0.3-0.1-0.6-0.1
		c-0.9,0-1.5,0.7-1.5,1.7v4h-0.8V288.6z"/>
</g>
<g class="st0">
	<path class="st5" d="M125.4,293.2c-0.2,1.1-1.2,1.9-2.6,1.9c-1.8,0-2.9-1.2-2.9-3.3c0-2,1.1-3.3,2.8-3.3c1.7,0,2.7,1.2,2.7,3.1v0.3
		h-4.8v0c0,1.4,0.8,2.3,2.1,2.3c1,0,1.6-0.5,1.8-1.2H125.4z M120.7,291.4h3.9c0-1.3-0.8-2.1-1.9-2.1
		C121.5,289.2,120.8,290.1,120.7,291.4z"/>
	<path class="st5" d="M126.3,293.2c0-1.1,0.8-1.7,2.3-1.8l2-0.1v-0.5c0-0.9-0.6-1.5-1.6-1.5c-0.9,0-1.5,0.5-1.7,1.2h-0.8
		c0.1-1.1,1-1.9,2.5-1.9s2.4,0.8,2.4,2.1v4.3h-0.8v-1.2h0c-0.4,0.8-1.2,1.3-2.2,1.3C127.2,295.1,126.3,294.3,126.3,293.2z
		 M130.6,292.6v-0.7l-1.9,0.1c-1,0.1-1.6,0.5-1.6,1.2c0,0.7,0.6,1.2,1.5,1.2C129.7,294.4,130.6,293.6,130.6,292.6z"/>
	<path class="st5" d="M132.7,288.6h0.8v1.2h0c0.3-0.7,0.9-1.3,1.8-1.3c0.9,0,1.6,0.5,1.8,1.3h0c0.3-0.8,1-1.3,2-1.3
		c1.2,0,2.1,0.8,2.1,2.1v4.3h-0.8v-4.2c0-1-0.5-1.6-1.5-1.6c-0.9,0-1.6,0.7-1.6,1.7v4h-0.8v-4.2c0-0.9-0.6-1.5-1.5-1.5
		c-0.9,0-1.6,0.8-1.6,1.8v3.9h-0.8V288.6z"/>
	<path class="st5" d="M142.5,286.8c0-0.3,0.2-0.5,0.5-0.5c0.3,0,0.5,0.2,0.5,0.5s-0.2,0.5-0.5,0.5
		C142.8,287.3,142.5,287.1,142.5,286.8z M142.7,288.6h0.8v6.3h-0.8V288.6z"/>
	<path class="st5" d="M144.9,288.6h0.8v1.2h0c0.3-0.8,1.1-1.3,2.1-1.3c1.4,0,2.2,0.9,2.2,2.3v4.1h-0.8v-4c0-1.1-0.6-1.7-1.7-1.7
		c-1.1,0-1.8,0.8-1.8,2v3.8h-0.8V288.6z"/>
	<path class="st5" d="M151.4,295.6h0.8c0.2,0.6,0.9,1.1,1.8,1.1c1.2,0,1.9-0.7,1.9-1.7v-1.3h0c-0.3,0.8-1.2,1.4-2.2,1.4
		c-1.6,0-2.7-1.3-2.7-3.3c0-2,1.1-3.3,2.7-3.3c1,0,1.8,0.6,2.2,1.4h0v-1.3h0.8v6.2c0,1.5-1.1,2.5-2.8,2.5
		C152.6,297.3,151.6,296.6,151.4,295.6z M155.9,291.8c0-1.5-0.8-2.5-2-2.5c-1.2,0-2,1-2,2.6c0,1.5,0.8,2.5,2,2.5
		C155.1,294.3,155.9,293.3,155.9,291.8z"/>
</g>
<g class="st0">
	<path class="st5" d="M88.7,303.6h0.8v1.2h0c0.3-0.7,0.9-1.3,1.8-1.3c0.9,0,1.6,0.5,1.8,1.3h0c0.3-0.8,1-1.3,2-1.3
		c1.2,0,2.1,0.8,2.1,2.1v4.3h-0.8v-4.2c0-1-0.5-1.6-1.5-1.6c-0.9,0-1.6,0.7-1.6,1.7v4h-0.8v-4.2c0-0.9-0.6-1.5-1.5-1.5
		c-0.9,0-1.6,0.8-1.6,1.8v3.9h-0.8V303.6z"/>
	<path class="st5" d="M103.7,310h-0.8v-1.2h0c-0.3,0.8-1.1,1.3-2.1,1.3c-1.4,0-2.2-0.9-2.2-2.3v-4.1h0.8v4c0,1.1,0.6,1.7,1.7,1.7
		c1.1,0,1.8-0.8,1.8-2v-3.8h0.8V310z"/>
	<path class="st5" d="M107.2,303.5c1.4,0,2.3,0.8,2.3,1.9h-0.8c-0.1-0.8-0.7-1.3-1.6-1.3c-0.9,0-1.5,0.5-1.5,1.1
		c0,0.5,0.4,0.8,1.2,1l1,0.2c1.3,0.3,1.7,0.8,1.7,1.7c0,1.1-1,1.8-2.4,1.8c-1.4,0-2.4-0.8-2.5-1.9h0.8c0.1,0.8,0.7,1.3,1.7,1.3
		s1.6-0.4,1.6-1.1c0-0.5-0.3-0.9-1.2-1.1l-1-0.2c-1.2-0.3-1.8-0.8-1.8-1.7C105,304.3,105.9,303.5,107.2,303.5z"/>
	<path class="st5" d="M110.7,301.8c0-0.3,0.2-0.5,0.5-0.5c0.3,0,0.5,0.2,0.5,0.5s-0.2,0.5-0.5,0.5
		C110.9,302.3,110.7,302.1,110.7,301.8z M110.8,303.6h0.8v6.3h-0.8V303.6z"/>
	<path class="st5" d="M117.4,305.7c-0.2-0.8-0.8-1.4-1.8-1.4c-1.2,0-2.1,1-2.1,2.6c0,1.6,0.8,2.6,2.1,2.6c1,0,1.6-0.5,1.8-1.4h0.8
		c-0.2,1.2-1.2,2.1-2.6,2.1c-1.7,0-2.9-1.2-2.9-3.3c0-2,1.1-3.3,2.9-3.3c1.5,0,2.5,1,2.6,2.1H117.4z"/>
	<path class="st5" d="M123.9,303.5c1.4,0,2.3,0.8,2.3,1.9h-0.8c-0.1-0.8-0.7-1.3-1.6-1.3c-0.9,0-1.5,0.5-1.5,1.1
		c0,0.5,0.4,0.8,1.2,1l1,0.2c1.3,0.3,1.7,0.8,1.7,1.7c0,1.1-1,1.8-2.4,1.8c-1.4,0-2.4-0.8-2.5-1.9h0.8c0.1,0.8,0.7,1.3,1.7,1.3
		s1.6-0.4,1.6-1.1c0-0.5-0.3-0.9-1.2-1.1l-1-0.2c-1.2-0.3-1.8-0.8-1.8-1.7C121.7,304.3,122.6,303.5,123.9,303.5z"/>
	<path class="st5" d="M132.6,308.2c-0.2,1.1-1.2,1.9-2.6,1.9c-1.8,0-2.9-1.2-2.9-3.3c0-2,1.1-3.3,2.8-3.3c1.7,0,2.7,1.2,2.7,3.1v0.3
		H128v0c0,1.4,0.8,2.3,2.1,2.3c1,0,1.6-0.5,1.8-1.2H132.6z M128,306.4h3.9c0-1.3-0.8-2.1-1.9-2.1C128.8,304.2,128,305.1,128,306.4z"
		/>
	<path class="st5" d="M133.8,303.6h0.8v1.1h0c0.2-0.8,0.8-1.2,1.6-1.2c0.2,0,0.4,0,0.5,0.1v0.8c-0.1,0-0.3-0.1-0.6-0.1
		c-0.9,0-1.5,0.7-1.5,1.7v4h-0.8V303.6z"/>
	<path class="st5" d="M140.2,310h-0.9l-2.4-6.3h0.9l1.9,5.5h0l1.9-5.5h0.8L140.2,310z"/>
	<path class="st5" d="M143.2,301.8c0-0.3,0.2-0.5,0.5-0.5c0.3,0,0.5,0.2,0.5,0.5s-0.2,0.5-0.5,0.5
		C143.5,302.3,143.2,302.1,143.2,301.8z M143.4,303.6h0.8v6.3h-0.8V303.6z"/>
	<path class="st5" d="M150,305.7c-0.2-0.8-0.8-1.4-1.8-1.4c-1.2,0-2.1,1-2.1,2.6c0,1.6,0.8,2.6,2.1,2.6c1,0,1.6-0.5,1.8-1.4h0.8
		c-0.2,1.2-1.2,2.1-2.6,2.1c-1.7,0-2.9-1.2-2.9-3.3c0-2,1.1-3.3,2.9-3.3c1.5,0,2.5,1,2.6,2.1H150z"/>
	<path class="st5" d="M157,308.2c-0.2,1.1-1.2,1.9-2.6,1.9c-1.8,0-2.9-1.2-2.9-3.3c0-2,1.1-3.3,2.8-3.3c1.7,0,2.7,1.2,2.7,3.1v0.3
		h-4.8v0c0,1.4,0.8,2.3,2.1,2.3c1,0,1.6-0.5,1.8-1.2H157z M152.3,306.4h3.9c0-1.3-0.8-2.1-1.9-2.1
		C153.2,304.2,152.4,305.1,152.3,306.4z"/>
</g>
<g class="st0">
	<path class="st5" d="M456.5,277.8c0-0.9,0.6-1.6,1.6-1.8v0c-0.8-0.2-1.3-0.8-1.3-1.6c0-1.1,0.9-1.8,2.3-1.8c1.3,0,2.3,0.8,2.3,1.8
		c0,0.7-0.5,1.3-1.3,1.6v0c0.9,0.2,1.6,0.9,1.6,1.8c0,1.2-1,2-2.5,2C457.5,279.8,456.5,279,456.5,277.8z M460.8,277.7
		c0-0.8-0.7-1.4-1.8-1.4c-1.1,0-1.8,0.6-1.8,1.4c0,0.8,0.7,1.5,1.8,1.5S460.8,278.6,460.8,277.7z M460.6,274.4
		c0-0.8-0.6-1.3-1.6-1.3c-0.9,0-1.6,0.6-1.6,1.3c0,0.7,0.7,1.3,1.6,1.3C459.9,275.7,460.6,275.2,460.6,274.4z"/>
</g>
<g class="st0">
	<path class="st5" d="M462.4,278.1h0.7c0.2,0.7,0.8,1.2,1.6,1.2c1.2,0,2-1,2-3.3h0c-0.3,0.8-1.1,1.3-2.1,1.3c-1.3,0-2.3-1-2.3-2.3
		c0-1.4,1-2.4,2.4-2.4c1.2,0,2.6,0.8,2.6,3.5c0,2.4-1,3.8-2.7,3.8C463.5,279.8,462.6,279.1,462.4,278.1z M466.6,275
		c0-1-0.8-1.8-1.8-1.8c-1,0-1.8,0.8-1.8,1.8c0,1,0.7,1.7,1.8,1.7C465.8,276.7,466.6,275.9,466.6,275z"/>
</g>
<g class="st0">
	<path class="st5" d="M468.3,279.3c0-0.3,0.2-0.5,0.5-0.5s0.5,0.2,0.5,0.5c0,0.3-0.2,0.5-0.5,0.5S468.3,279.5,468.3,279.3z"/>
</g>
<g class="st0">
	<path class="st5" d="M470.6,277.9h0.7c0.1,0.8,0.8,1.4,1.7,1.4c1,0,1.8-0.7,1.8-1.8c0-1-0.7-1.8-1.8-1.8c-0.7,0-1.3,0.3-1.7,0.9
		h-0.6l0.4-4h3.9v0.6h-3.4l-0.3,2.7h0c0.4-0.5,1-0.8,1.7-0.8c1.3,0,2.3,1,2.3,2.3c0,1.4-1,2.4-2.5,2.4
		C471.7,279.8,470.7,279,470.6,277.9z"/>
	<path class="st5" d="M476,274.2c0-1,0.6-1.7,1.4-1.7s1.4,0.7,1.4,1.7c0,1-0.5,1.6-1.4,1.6S476,275.2,476,274.2z M478.3,274.2
		c0-0.7-0.4-1.2-0.9-1.2s-0.9,0.5-0.9,1.2c0,0.7,0.4,1.2,0.9,1.2C478,275.4,478.3,274.9,478.3,274.2z M476.8,279.7l4.8-7h0.6l-4.8,7
		H476.8z M480.3,278.1c0-1,0.6-1.7,1.4-1.7s1.4,0.7,1.4,1.7s-0.5,1.7-1.4,1.7S480.3,279.1,480.3,278.1z M482.6,278.1
		c0-0.7-0.4-1.2-0.9-1.2s-0.9,0.5-0.9,1.2s0.4,1.2,0.9,1.2C482.2,279.3,482.6,278.8,482.6,278.1z"/>
</g>
<g class="st0">
	<path class="st5" d="M314.2,327h-3.6v-0.6c0.8-1.3,1.7-2.7,3.2-4.9h1v4.9h1v0.6h-1v1.6h-0.6V327z M311.3,326.4h2.9v-4.3h0
		C312.9,323.9,312,325.3,311.3,326.4L311.3,326.4z"/>
</g>
<g class="st0">
	<path class="st5" d="M318.5,322.3L318.5,322.3c-0.2,0.1-1.7,1.1-1.9,1.3v-0.7c0.2-0.1,1.7-1.2,1.9-1.3h0.7v7h-0.6V322.3z"/>
</g>
<g class="st0">
	<path class="st5" d="M320.8,328.2c0-0.3,0.2-0.5,0.5-0.5s0.5,0.2,0.5,0.5c0,0.3-0.2,0.5-0.5,0.5S320.8,328.5,320.8,328.2z"/>
	<path class="st5" d="M323,327h0.7c0.2,0.7,0.8,1.2,1.6,1.2c1.2,0,2-1,2-3.3h0c-0.3,0.8-1.1,1.3-2.1,1.3c-1.3,0-2.3-1-2.3-2.3
		c0-1.4,1-2.4,2.4-2.4c1.2,0,2.6,0.8,2.6,3.5c0,2.4-1,3.8-2.7,3.8C324.1,328.7,323.2,328,323,327z M327.1,323.9c0-1-0.8-1.8-1.8-1.8
		c-1,0-1.8,0.8-1.8,1.8c0,1,0.7,1.7,1.8,1.7C326.3,325.6,327.1,324.8,327.1,323.9z"/>
	<path class="st5" d="M328.6,323.2c0-1,0.6-1.7,1.4-1.7s1.4,0.7,1.4,1.7c0,1-0.5,1.6-1.4,1.6S328.6,324.1,328.6,323.2z M330.9,323.2
		c0-0.7-0.4-1.2-0.9-1.2s-0.9,0.5-0.9,1.2c0,0.7,0.4,1.2,0.9,1.2C330.5,324.4,330.9,323.9,330.9,323.2z M329.4,328.6l4.8-7h0.6
		l-4.8,7H329.4z M332.8,327c0-1,0.6-1.7,1.4-1.7s1.4,0.7,1.4,1.7s-0.5,1.7-1.4,1.7S332.8,328,332.8,327z M335.1,327
		c0-0.7-0.4-1.2-0.9-1.2s-0.9,0.5-0.9,1.2s0.4,1.2,0.9,1.2C334.8,328.2,335.1,327.8,335.1,327z"/>
</g>
<g class="st0">
	<path class="st5" d="M419.8,297.7L419.8,297.7l-3.9,0v-0.6h4.6v0.6l-3.2,6.4h-0.7L419.8,297.7z"/>
</g>
<g class="st0">
	<path class="st5" d="M421.1,300.8c0-2.4,1-3.8,2.7-3.8c1.2,0,2.1,0.7,2.3,1.8h-0.7c-0.2-0.7-0.8-1.2-1.6-1.2c-1.3,0-2,1.2-2,3.3h0
		c0.3-0.8,1.1-1.3,2.1-1.3c1.3,0,2.3,1,2.3,2.3c0,1.4-1,2.4-2.4,2.4C422.5,304.3,421.1,303.5,421.1,300.8z M425.5,301.9
		c0-1-0.7-1.8-1.8-1.8c-1,0-1.8,0.8-1.8,1.7c0,1,0.8,1.8,1.8,1.8C424.7,303.7,425.5,302.9,425.5,301.9z"/>
</g>
<g class="st0">
	<path class="st5" d="M427.3,303.7c0-0.3,0.2-0.5,0.5-0.5s0.5,0.2,0.5,0.5c0,0.3-0.2,0.5-0.5,0.5S427.3,304,427.3,303.7z"/>
</g>
<g class="st0">
	<path class="st5" d="M431.8,297c1.3,0,2.2,0.9,2.2,1.9c0,0.8-0.3,1.3-1.6,2.6l-1.9,2v0h3.7v0.6h-4.6v-0.5l2.5-2.6
		c1-1.1,1.3-1.5,1.3-2.1c0-0.8-0.6-1.4-1.5-1.4c-0.9,0-1.6,0.6-1.6,1.5h-0.6C429.5,297.9,430.5,297,431.8,297z"/>
	<path class="st5" d="M434.8,298.7c0-1,0.6-1.7,1.4-1.7s1.4,0.7,1.4,1.7c0,1-0.5,1.6-1.4,1.6S434.8,299.7,434.8,298.7z M437.1,298.7
		c0-0.7-0.4-1.2-0.9-1.2s-0.9,0.5-0.9,1.2c0,0.7,0.4,1.2,0.9,1.2C436.7,299.9,437.1,299.4,437.1,298.7z M435.6,304.2l4.8-7h0.6
		l-4.8,7H435.6z M439.1,302.6c0-1,0.6-1.7,1.4-1.7s1.4,0.7,1.4,1.7s-0.5,1.7-1.4,1.7S439.1,303.6,439.1,302.6z M441.3,302.6
		c0-0.7-0.4-1.2-0.9-1.2s-0.9,0.5-0.9,1.2s0.4,1.2,0.9,1.2C441,303.8,441.3,303.3,441.3,302.6z"/>
</g>
<rect x="177.3" y="86.4" class="st2" width="150.7" height="15.1"/>
<rect x="177.3" y="111.1" class="st3" width="80.7" height="15.1"/>
<rect x="177.3" y="135.8" class="st4" width="15.5" height="15.1"/>
<g class="st0">
	<path d="M338.2,95.5h-3.5v-1.2c0.6-1.2,1.4-2.4,2.8-4.5h2.1v4.6h0.9v1.2h-0.9v1.3h-1.4V95.5z M336,94.4h2.3v-3.6h0
		C337.2,92.3,336.5,93.3,336,94.4L336,94.4z"/>
</g>
<g class="st0">
	<path d="M341.3,95h1.5c0.2,0.5,0.6,0.8,1.2,0.8c1.1,0,1.5-1,1.5-2.5h0c-0.3,0.7-1,1.1-1.9,1.1c-1.3,0-2.3-0.9-2.3-2.3
		c0-1.5,1.1-2.5,2.7-2.5c1.6,0,2.9,1,2.9,3.6c0,2.3-1.1,3.7-2.9,3.7C342.5,97,341.4,96.2,341.3,95z M345.2,92.1
		c0-0.7-0.6-1.3-1.3-1.3c-0.7,0-1.3,0.6-1.3,1.3c0,0.7,0.5,1.3,1.3,1.3C344.6,93.3,345.2,92.8,345.2,92.1z"/>
</g>
<g class="st0">
	<path d="M347.6,96.1c0-0.4,0.3-0.8,0.8-0.8c0.4,0,0.8,0.3,0.8,0.8c0,0.4-0.4,0.8-0.8,0.8C348,96.9,347.6,96.5,347.6,96.1z"/>
</g>
<g class="st0">
	<path d="M350.3,94.8h1.4c0.1,0.6,0.6,1,1.3,1c0.8,0,1.3-0.5,1.3-1.3c0-0.8-0.5-1.3-1.3-1.3c-0.6,0-1,0.3-1.2,0.7h-1.3l0.3-4.1h4.5
		v1.2h-3.3l-0.2,2h0c0.3-0.5,0.9-0.8,1.6-0.8c1.3,0,2.3,1,2.3,2.3c0,1.5-1.1,2.5-2.7,2.5C351.4,97,350.3,96.1,350.3,94.8z"/>
	<path d="M356.2,91.5c0-1.1,0.7-1.8,1.7-1.8c1,0,1.7,0.7,1.7,1.8c0,1.1-0.7,1.8-1.7,1.8C356.9,93.3,356.2,92.6,356.2,91.5z
		 M358.5,91.5c0-0.7-0.3-1-0.6-1s-0.7,0.3-0.7,1c0,0.7,0.3,1,0.7,1C358.3,92.5,358.5,92.2,358.5,91.5z M357.4,96.8l4.8-7h1.1l-4.8,7
		H357.4z M361.2,95.1c0-1.1,0.7-1.8,1.7-1.8c1,0,1.7,0.7,1.7,1.8c0,1.1-0.7,1.8-1.7,1.8C361.8,96.9,361.2,96.2,361.2,95.1z
		 M363.5,95.1c0-0.7-0.3-1-0.6-1s-0.7,0.3-0.7,1c0,0.7,0.3,1,0.7,1C363.2,96.1,363.5,95.8,363.5,95.1z"/>
</g>
<g class="st0">
	<path d="M72.3,113.9v-8.8h5.8v1.5h-3.9v2.4h3.6v1.5h-3.6v3.5H72.3z"/>
	<path d="M79,105.6c0-0.5,0.4-0.9,0.9-0.9c0.5,0,0.9,0.4,0.9,0.9c0,0.5-0.4,0.9-0.9,0.9C79.4,106.5,79,106.1,79,105.6z M79,107.4
		h1.8v6.5H79V107.4z"/>
	<path d="M82,107.4h1.7v1.2h0c0.3-0.8,1-1.3,2-1.3c1.5,0,2.3,0.9,2.3,2.4v4.2h-1.8v-3.8c0-0.9-0.4-1.3-1.2-1.3
		c-0.8,0-1.3,0.6-1.3,1.4v3.8H82V107.4z"/>
	<path d="M89,110.6c0-2.1,1-3.4,2.7-3.4c0.9,0,1.7,0.5,2,1.2h0v-3.4h1.8v8.8h-1.8v-1.1h0c-0.3,0.7-1.1,1.2-2,1.2
		C90,114,89,112.7,89,110.6z M90.8,110.6c0,1.2,0.5,1.9,1.4,1.9c0.9,0,1.5-0.7,1.5-1.9c0-1.2-0.6-1.9-1.5-1.9
		C91.3,108.7,90.8,109.4,90.8,110.6z"/>
	<path d="M98.9,112c0-1.2,0.9-1.9,2.5-2l1.6-0.1v-0.4c0-0.6-0.4-1-1.1-1c-0.7,0-1.1,0.3-1.2,0.8h-1.6c0.1-1.3,1.1-2.1,2.9-2.1
		c1.7,0,2.8,0.9,2.8,2.2v4.5h-1.7v-1h0c-0.4,0.7-1.2,1.1-2,1.1C99.8,114,98.9,113.2,98.9,112z M103.1,111.5V111l-1.4,0.1
		c-0.7,0-1,0.3-1,0.8c0,0.5,0.4,0.8,1,0.8C102.4,112.7,103.1,112.2,103.1,111.5z"/>
</g>
<g class="st0">
	<path d="M108.4,107.4h1.7v1.2h0c0.2-0.8,0.8-1.3,1.6-1.3c0.2,0,0.4,0,0.5,0.1v1.6c-0.1-0.1-0.4-0.1-0.6-0.1c-0.9,0-1.4,0.5-1.4,1.5
		v3.7h-1.8V107.4z"/>
</g>
<g class="st0">
	<path d="M118.7,111.9c-0.2,1.3-1.4,2.1-3,2.1c-2,0-3.2-1.3-3.2-3.4c0-2.1,1.2-3.4,3.2-3.4c1.9,0,3.1,1.3,3.1,3.3v0.5h-4.5v0.1
		c0,0.9,0.6,1.6,1.5,1.6c0.7,0,1.2-0.3,1.3-0.8H118.7z M114.3,109.9h2.8c0-0.8-0.6-1.4-1.4-1.4C114.9,108.5,114.4,109.1,114.3,109.9
		z"/>
	<path d="M124,109.8c-0.1-0.7-0.6-1.2-1.3-1.2c-0.9,0-1.4,0.7-1.4,2c0,1.3,0.5,2,1.4,2c0.7,0,1.2-0.4,1.3-1.1h1.7
		c-0.1,1.5-1.2,2.5-3,2.5c-2,0-3.2-1.3-3.2-3.4c0-2.1,1.3-3.4,3.2-3.4c1.8,0,2.9,1.1,3,2.6H124z"/>
	<path d="M126.5,105.6c0-0.5,0.4-0.9,0.9-0.9c0.5,0,0.9,0.4,0.9,0.9c0,0.5-0.4,0.9-0.9,0.9C126.9,106.5,126.5,106.1,126.5,105.6z
		 M126.5,107.4h1.8v6.5h-1.8V107.4z"/>
	<path d="M136,110.6c0,2.1-1,3.4-2.6,3.4c-1,0-1.7-0.5-2-1.2h0v3.2h-1.8v-8.7h1.8v1.1h0c0.4-0.8,1.1-1.2,2-1.2
		C135,107.3,136,108.5,136,110.6z M134.2,110.6c0-1.2-0.6-1.9-1.5-1.9c-0.9,0-1.4,0.8-1.4,1.9c0,1.2,0.6,1.9,1.4,1.9
		C133.6,112.6,134.2,111.8,134.2,110.6z"/>
	<path d="M142.9,111.9c-0.2,1.3-1.4,2.1-3,2.1c-2,0-3.2-1.3-3.2-3.4c0-2.1,1.2-3.4,3.2-3.4c1.9,0,3.1,1.3,3.1,3.3v0.5h-4.5v0.1
		c0,0.9,0.6,1.6,1.5,1.6c0.7,0,1.2-0.3,1.3-0.8H142.9z M138.5,109.9h2.8c0-0.8-0.6-1.4-1.4-1.4C139.1,108.5,138.5,109.1,138.5,109.9
		z"/>
	<path d="M146.1,110.6c0-2.1,1.3-3.4,3.2-3.4c2,0,3.2,1.3,3.2,3.4c0,2.2-1.3,3.4-3.2,3.4S146.1,112.8,146.1,110.6z M150.8,110.6
		c0-1.3-0.6-2.1-1.4-2.1c-0.9,0-1.4,0.8-1.4,2.1c0,1.3,0.6,2.1,1.4,2.1C150.2,112.7,150.8,111.9,150.8,110.6z"/>
	<path d="M153.5,107.4h1.7v1.2h0c0.2-0.8,0.8-1.3,1.6-1.3c0.2,0,0.4,0,0.5,0.1v1.6c-0.1-0.1-0.4-0.1-0.6-0.1c-0.9,0-1.4,0.5-1.4,1.5
		v3.7h-1.8V107.4z"/>
</g>
<g class="st0">
	<path d="M46.5,124.8c-0.1-0.7-0.6-1.2-1.3-1.2c-0.9,0-1.4,0.7-1.4,2c0,1.3,0.5,2,1.4,2c0.7,0,1.2-0.4,1.3-1.1h1.7
		c-0.1,1.5-1.2,2.5-3,2.5c-2,0-3.2-1.3-3.2-3.4c0-2.1,1.3-3.4,3.2-3.4c1.8,0,2.9,1.1,3,2.6H46.5z"/>
	<path d="M48.8,125.6c0-2.1,1.3-3.4,3.2-3.4c2,0,3.2,1.3,3.2,3.4c0,2.2-1.3,3.4-3.2,3.4S48.8,127.8,48.8,125.6z M53.5,125.6
		c0-1.3-0.6-2.1-1.4-2.1c-0.9,0-1.4,0.8-1.4,2.1c0,1.3,0.6,2.1,1.4,2.1C52.9,127.7,53.5,126.9,53.5,125.6z"/>
	<path d="M56,125.6c0-2.1,1.3-3.4,3.2-3.4c2,0,3.2,1.3,3.2,3.4c0,2.2-1.3,3.4-3.2,3.4S56,127.8,56,125.6z M60.6,125.6
		c0-1.3-0.6-2.1-1.4-2.1c-0.9,0-1.4,0.8-1.4,2.1c0,1.3,0.6,2.1,1.4,2.1C60.1,127.7,60.6,126.9,60.6,125.6z"/>
	<path d="M67.4,122.4h2l-2.5,2.8l2.6,3.7h-2.1l-1.9-2.7l-0.5,0.5v2.2h-1.8v-8.8h1.8v4.9h0L67.4,122.4z"/>
	<path d="M70.1,120.6c0-0.5,0.4-0.9,0.9-0.9c0.5,0,0.9,0.4,0.9,0.9c0,0.5-0.4,0.9-0.9,0.9C70.5,121.5,70.1,121.1,70.1,120.6z
		 M70.1,122.4h1.8v6.5h-1.8V122.4z"/>
	<path d="M73.1,122.4h1.7v1.2h0c0.3-0.8,1-1.3,2-1.3c1.5,0,2.3,0.9,2.3,2.4v4.2h-1.8v-3.8c0-0.9-0.4-1.3-1.2-1.3
		c-0.8,0-1.3,0.6-1.3,1.4v3.8h-1.8V122.4z"/>
	<path d="M80.2,129.4H82c0.1,0.5,0.7,0.8,1.3,0.8c0.9,0,1.4-0.5,1.4-1.3v-1.1h0c-0.3,0.7-1.1,1.2-2,1.2c-1.6,0-2.7-1.2-2.7-3.3
		c0-2.1,1-3.4,2.7-3.4c0.9,0,1.7,0.5,2,1.2h0v-1.1h1.8v6.5c0,1.6-1.3,2.6-3.3,2.6C81.6,131.4,80.4,130.5,80.2,129.4z M84.8,125.6
		c0-1.2-0.6-1.9-1.5-1.9c-0.9,0-1.4,0.7-1.4,1.9c0,1.2,0.5,1.9,1.4,1.9C84.2,127.5,84.8,126.8,84.8,125.6z"/>
	<path d="M90.2,120.6c0-0.5,0.4-0.9,0.9-0.9c0.5,0,0.9,0.4,0.9,0.9c0,0.5-0.4,0.9-0.9,0.9C90.6,121.5,90.2,121.1,90.2,120.6z
		 M90.2,122.4H92v6.5h-1.8V122.4z"/>
	<path d="M93.2,122.4h1.7v1.2h0c0.3-0.8,1-1.3,2-1.3c1.5,0,2.3,0.9,2.3,2.4v4.2h-1.8v-3.8c0-0.9-0.4-1.3-1.2-1.3
		c-0.8,0-1.3,0.6-1.3,1.4v3.8h-1.8V122.4z"/>
	<path d="M103,122.2c1.7,0,2.7,0.9,2.8,2.1h-1.6c-0.1-0.5-0.5-0.9-1.1-0.9c-0.6,0-1,0.3-1,0.7c0,0.3,0.2,0.6,0.9,0.7l1.1,0.2
		c1.4,0.3,1.9,0.8,1.9,1.8c0,1.3-1.2,2.1-2.9,2.1c-1.8,0-2.9-0.8-3-2.1h1.7c0.1,0.6,0.5,0.9,1.2,0.9c0.7,0,1.1-0.3,1.1-0.7
		c0-0.3-0.2-0.5-0.9-0.7l-1.1-0.2c-1.3-0.3-1.9-0.9-1.9-1.9C100.3,123,101.3,122.2,103,122.2z"/>
	<path d="M109.1,120.8v1.5h1.2v1.3h-1.2v3.1c0,0.5,0.2,0.7,0.8,0.7c0.2,0,0.3,0,0.4,0v1.3c-0.2,0-0.5,0.1-0.8,0.1
		c-1.5,0-2.1-0.5-2.1-1.8v-3.4h-0.9v-1.3h0.9v-1.5H109.1z"/>
	<path d="M111.2,122.4h1.7v1.2h0c0.2-0.8,0.8-1.3,1.6-1.3c0.2,0,0.4,0,0.5,0.1v1.6c-0.1-0.1-0.4-0.1-0.6-0.1c-0.9,0-1.4,0.5-1.4,1.5
		v3.7h-1.8V122.4z"/>
	<path d="M121.8,128.9h-1.7v-1.2h0c-0.3,0.8-1,1.3-2,1.3c-1.4,0-2.4-0.9-2.4-2.4v-4.2h1.8v3.8c0,0.9,0.4,1.3,1.2,1.3
		c0.8,0,1.3-0.6,1.3-1.4v-3.7h1.8V128.9z"/>
	<path d="M127.3,124.8c-0.1-0.7-0.6-1.2-1.3-1.2c-0.9,0-1.4,0.7-1.4,2c0,1.3,0.5,2,1.4,2c0.7,0,1.2-0.4,1.3-1.1h1.7
		c-0.1,1.5-1.2,2.5-3,2.5c-2,0-3.2-1.3-3.2-3.4c0-2.1,1.3-3.4,3.2-3.4c1.8,0,2.9,1.1,3,2.6H127.3z"/>
	<path d="M132.1,120.8v1.5h1.2v1.3h-1.2v3.1c0,0.5,0.2,0.7,0.8,0.7c0.2,0,0.3,0,0.4,0v1.3c-0.2,0-0.5,0.1-0.8,0.1
		c-1.5,0-2.1-0.5-2.1-1.8v-3.4h-0.9v-1.3h0.9v-1.5H132.1z"/>
	<path d="M134.2,120.6c0-0.5,0.4-0.9,0.9-0.9c0.5,0,0.9,0.4,0.9,0.9c0,0.5-0.4,0.9-0.9,0.9C134.6,121.5,134.2,121.1,134.2,120.6z
		 M134.3,122.4h1.8v6.5h-1.8V122.4z"/>
	<path d="M137,125.6c0-2.1,1.3-3.4,3.2-3.4c2,0,3.2,1.3,3.2,3.4c0,2.2-1.3,3.4-3.2,3.4S137,127.8,137,125.6z M141.7,125.6
		c0-1.3-0.6-2.1-1.4-2.1c-0.9,0-1.4,0.8-1.4,2.1c0,1.3,0.6,2.1,1.4,2.1C141.1,127.7,141.7,126.9,141.7,125.6z"/>
	<path d="M144.4,122.4h1.7v1.2h0c0.3-0.8,1-1.3,2-1.3c1.5,0,2.3,0.9,2.3,2.4v4.2h-1.8v-3.8c0-0.9-0.4-1.3-1.2-1.3
		c-0.8,0-1.3,0.6-1.3,1.4v3.8h-1.8V122.4z"/>
	<path d="M154.2,122.2c1.7,0,2.7,0.9,2.8,2.1h-1.6c-0.1-0.5-0.5-0.9-1.1-0.9c-0.6,0-1,0.3-1,0.7c0,0.3,0.2,0.6,0.9,0.7l1.1,0.2
		c1.4,0.3,1.9,0.8,1.9,1.8c0,1.3-1.2,2.1-2.9,2.1c-1.8,0-2.9-0.8-3-2.1h1.7c0.1,0.6,0.5,0.9,1.2,0.9c0.7,0,1.1-0.3,1.1-0.7
		c0-0.3-0.2-0.5-0.9-0.7l-1.1-0.2c-1.3-0.3-1.9-0.9-1.9-1.9C151.5,123,152.6,122.2,154.2,122.2z"/>
</g>
<g class="st0">
	<path d="M268.4,114.3c1.5,0,2.5,0.9,2.5,2.1c0,0.9-0.4,1.4-1.6,2.5l-1.5,1.4v0h3.2v1.2h-5.1v-1l2.5-2.4c0.9-0.9,1.1-1.2,1.1-1.7
		c0-0.6-0.4-1-1.1-1c-0.7,0-1.2,0.5-1.2,1.2h-1.4C265.8,115.2,266.9,114.3,268.4,114.3z"/>
</g>
<g class="st0">
	<path d="M271.8,118c0-2.3,1.1-3.7,2.9-3.7c1.4,0,2.4,0.8,2.6,2h-1.5c-0.2-0.5-0.6-0.8-1.2-0.8c-1,0-1.5,1-1.5,2.5h0
		c0.3-0.7,1-1.1,1.9-1.1c1.4,0,2.3,1,2.3,2.3c0,1.5-1.1,2.5-2.7,2.5C273.1,121.7,271.8,120.5,271.8,118z M276,119.2
		c0-0.7-0.5-1.3-1.3-1.3c-0.7,0-1.3,0.5-1.3,1.2c0,0.7,0.6,1.3,1.3,1.3S276,119.9,276,119.2z"/>
</g>
<g class="st0">
	<path d="M278.3,120.8c0-0.4,0.3-0.8,0.8-0.8c0.4,0,0.8,0.3,0.8,0.8c0,0.4-0.4,0.8-0.8,0.8C278.7,121.6,278.3,121.2,278.3,120.8z"/>
</g>
<g class="st0">
	<path d="M281,119.5h1.4c0.1,0.6,0.6,1,1.3,1c0.8,0,1.3-0.5,1.3-1.3c0-0.8-0.5-1.3-1.3-1.3c-0.6,0-1,0.3-1.2,0.7h-1.3l0.3-4.1h4.5
		v1.2h-3.3l-0.2,2h0c0.3-0.5,0.9-0.8,1.6-0.8c1.3,0,2.3,1,2.3,2.3c0,1.5-1.1,2.5-2.7,2.5C282.2,121.7,281.1,120.8,281,119.5z"/>
	<path d="M286.9,116.2c0-1.1,0.7-1.8,1.7-1.8c1,0,1.7,0.7,1.7,1.8c0,1.1-0.7,1.8-1.7,1.8C287.6,118,286.9,117.3,286.9,116.2z
		 M289.3,116.2c0-0.7-0.3-1-0.6-1s-0.7,0.3-0.7,1c0,0.7,0.3,1,0.7,1C289,117.2,289.3,116.9,289.3,116.2z M288.2,121.5l4.8-7h1.1
		l-4.8,7H288.2z M291.9,119.8c0-1.1,0.7-1.8,1.7-1.8c1,0,1.7,0.7,1.7,1.8c0,1.1-0.7,1.8-1.7,1.8
		C292.5,121.6,291.9,120.9,291.9,119.8z M294.2,119.8c0-0.7-0.3-1-0.6-1s-0.7,0.3-0.7,1c0,0.7,0.3,1,0.7,1
		C294,120.8,294.2,120.5,294.2,119.8z"/>
</g>
<g class="st0">
	<path d="M198.8,144.2h1.4c0.1,0.6,0.6,1,1.3,1c0.8,0,1.3-0.5,1.3-1.3c0-0.8-0.5-1.3-1.3-1.3c-0.6,0-1,0.3-1.2,0.7h-1.3l0.3-4.1h4.5
		v1.2h-3.3l-0.2,2h0c0.3-0.5,0.9-0.8,1.6-0.8c1.3,0,2.3,1,2.3,2.3c0,1.5-1.1,2.5-2.7,2.5C199.9,146.4,198.8,145.5,198.8,144.2z"/>
</g>
<g class="st0">
	<path d="M205,145.5c0-0.4,0.3-0.8,0.8-0.8c0.4,0,0.8,0.3,0.8,0.8c0,0.4-0.4,0.8-0.8,0.8C205.4,146.3,205,145.9,205,145.5z"/>
</g>
<g class="st0">
	<path d="M208.9,140.5L208.9,140.5l-1.8,1.2v-1.3l1.8-1.3h1.5v7h-1.5V140.5z"/>
	<path d="M211.7,140.9c0-1.1,0.7-1.8,1.7-1.8c1,0,1.7,0.7,1.7,1.8c0,1.1-0.7,1.8-1.7,1.8C212.4,142.7,211.7,142,211.7,140.9z
		 M214,140.9c0-0.7-0.3-1-0.6-1s-0.7,0.3-0.7,1c0,0.7,0.3,1,0.7,1C213.8,141.9,214,141.6,214,140.9z M212.9,146.2l4.8-7h1.1l-4.8,7
		H212.9z M216.6,144.5c0-1.1,0.7-1.8,1.7-1.8c1,0,1.7,0.7,1.7,1.8c0,1.1-0.7,1.8-1.7,1.8C217.3,146.3,216.6,145.6,216.6,144.5z
		 M219,144.5c0-0.7-0.3-1-0.6-1s-0.7,0.3-0.7,1c0,0.7,0.3,1,0.7,1C218.7,145.5,219,145.1,219,144.5z"/>
</g>
<rect x="532.1" y="154.1" class="st2" width="16.5" height="16.5"/>
<rect x="532.1" y="180.7" class="st3" width="16.5" height="16.5"/>
<rect x="532.1" y="207.4" class="st4" width="16.5" height="16.5"/>
<g class="st0">
	<path class="st5" d="M561.4,165.1v-3.2h-3.9v3.2h-0.9v-7h0.9v3h3.9v-3h0.9v7H561.4z"/>
</g>
<g class="st0">
	<path class="st5" d="M563.2,163.7c0-0.9,0.7-1.4,1.8-1.5l1.5-0.1v-0.4c0-0.6-0.4-1-1.1-1c-0.7,0-1.1,0.3-1.2,0.8h-0.8
		c0.1-0.9,0.8-1.6,2-1.6c1.2,0,1.9,0.6,1.9,1.7v3.5h-0.8v-0.9h0c-0.3,0.6-0.9,1-1.6,1C563.9,165.2,563.2,164.6,563.2,163.7z
		 M566.5,163.2v-0.4l-1.4,0.1c-0.7,0-1.1,0.3-1.1,0.8c0,0.5,0.4,0.8,1,0.8C565.9,164.5,566.5,164,566.5,163.2z"/>
</g>
<g class="st0">
	<path class="st5" d="M570.7,165.1h-0.9l-1.9-5.1h0.9l1.4,4.2h0l1.4-4.2h0.9L570.7,165.1z"/>
</g>
<g class="st0">
	<path class="st5" d="M577.3,163.7c-0.1,0.9-1,1.5-2.1,1.5c-1.5,0-2.3-1-2.3-2.6c0-1.6,0.9-2.6,2.3-2.6c1.4,0,2.2,1,2.2,2.5v0.3
		h-3.6v0c0,1,0.6,1.6,1.5,1.6c0.6,0,1.1-0.3,1.3-0.8H577.3z M573.7,162.2h2.8c0-0.8-0.6-1.5-1.4-1.5
		C574.4,160.7,573.8,161.3,573.7,162.2z"/>
	<path class="st5" d="M584.8,165.1h-4.4v-7h4.4v0.8h-3.5v2.3h3.3v0.8h-3.3v2.4h3.5V165.1z"/>
</g>
<g class="st0">
	<path class="st5" d="M588.1,165.1h-0.9l-1.9-5.1h0.9l1.4,4.2h0l1.4-4.2h0.9L588.1,165.1z"/>
</g>
<g class="st0">
	<path class="st5" d="M594.7,163.7c-0.1,0.9-1,1.5-2.1,1.5c-1.5,0-2.3-1-2.3-2.6c0-1.6,0.9-2.6,2.3-2.6c1.4,0,2.2,1,2.2,2.5v0.3
		h-3.6v0c0,1,0.6,1.6,1.5,1.6c0.6,0,1.1-0.3,1.3-0.8H594.7z M591.1,162.2h2.8c0-0.8-0.6-1.5-1.4-1.5
		C591.7,160.7,591.2,161.3,591.1,162.2z"/>
	<path class="st5" d="M595.6,160.1h0.8v0.8h0c0.2-0.6,0.6-0.9,1.2-0.9c0.1,0,0.3,0,0.3,0v0.8c-0.1,0-0.2,0-0.5,0
		c-0.7,0-1.1,0.5-1.1,1.2v3.2h-0.8V160.1z"/>
</g>
<g class="st0">
	<path class="st5" d="M602.7,165.1v-6.3h-2.2v-0.8h5.3v0.8h-2.2v6.3H602.7z"/>
</g>
<g class="st0">
	<path class="st5" d="M605.4,160.1h0.8v0.8h0c0.2-0.6,0.6-0.9,1.2-0.9c0.1,0,0.3,0,0.3,0v0.8c-0.1,0-0.2,0-0.5,0
		c-0.7,0-1.1,0.5-1.1,1.2v3.2h-0.8V160.1z"/>
	<path class="st5" d="M608.4,158.6c0-0.3,0.2-0.5,0.5-0.5c0.3,0,0.5,0.2,0.5,0.5c0,0.3-0.2,0.5-0.5,0.5
		C608.7,159.2,608.4,158.9,608.4,158.6z M608.6,160.1h0.8v5.1h-0.8V160.1z"/>
	<path class="st5" d="M614.8,163.7c-0.1,0.9-1,1.5-2.1,1.5c-1.5,0-2.3-1-2.3-2.6c0-1.6,0.9-2.6,2.3-2.6c1.4,0,2.2,1,2.2,2.5v0.3
		h-3.6v0c0,1,0.6,1.6,1.5,1.6c0.6,0,1.1-0.3,1.3-0.8H614.8z M611.2,162.2h2.8c0-0.8-0.6-1.5-1.4-1.5
		C611.8,160.7,611.2,161.3,611.2,162.2z"/>
	<path class="st5" d="M615.4,162.6c0-1.6,0.9-2.6,2.2-2.6c0.7,0,1.3,0.4,1.6,0.9h0v-2.8h0.8v7h-0.8v-0.9h0c-0.3,0.6-0.9,0.9-1.6,0.9
		C616.3,165.2,615.4,164.2,615.4,162.6z M616.3,162.6c0,1.2,0.6,1.9,1.5,1.9c0.9,0,1.5-0.7,1.5-1.9c0-1.1-0.6-1.9-1.5-1.9
		C616.9,160.7,616.3,161.5,616.3,162.6z"/>
</g>
<g class="st0">
	<path class="st5" d="M562.8,191.8v-5.4h0l-2.2,5.4h-0.7l-2.2-5.4h0v5.4h-0.8v-7h1l2.4,5.9h0l2.4-5.9h1v7H562.8z"/>
	<path class="st5" d="M564.6,189.3c0-1.6,0.9-2.6,2.4-2.6c1.4,0,2.3,1,2.3,2.6c0,1.6-0.9,2.6-2.3,2.6
		C565.6,191.9,564.6,190.9,564.6,189.3z M568.5,189.3c0-1.2-0.6-1.9-1.5-1.9s-1.5,0.7-1.5,1.9s0.6,1.9,1.5,1.9
		S568.5,190.4,568.5,189.3z"/>
	<path class="st5" d="M570.2,186.7h0.8v0.8h0c0.3-0.5,0.8-0.9,1.6-0.9c1.1,0,1.8,0.7,1.8,1.9v3.3h-0.8v-3.1c0-0.8-0.4-1.3-1.2-1.3
		c-0.8,0-1.3,0.6-1.3,1.4v3h-0.8V186.7z"/>
	<path class="st5" d="M576.6,185.5v1.2h1v0.7h-1v3c0,0.5,0.2,0.7,0.6,0.7c0.1,0,0.3,0,0.4,0v0.7c-0.1,0-0.3,0-0.5,0
		c-0.9,0-1.3-0.4-1.3-1.4v-3.1H575v-0.7h0.8v-1.2H576.6z"/>
	<path class="st5" d="M578.5,184.7h0.8v2.8h0c0.3-0.6,0.8-0.9,1.6-0.9c1.1,0,1.8,0.8,1.8,1.9v3.3h-0.8v-3.1c0-0.8-0.4-1.3-1.2-1.3
		c-0.8,0-1.4,0.6-1.4,1.5v3h-0.8V184.7z"/>
	<path class="st5" d="M583.9,184.7h0.8v7h-0.8V184.7z"/>
	<path class="st5" d="M586,193.7v-0.7c0.1,0,0.2,0,0.3,0c0.5,0,0.7-0.2,0.9-0.8l0.1-0.4l-1.9-5.1h0.9l1.4,4.2h0l1.4-4.2h0.9l-2,5.4
		c-0.4,1.2-0.9,1.5-1.8,1.5C586.2,193.7,586,193.7,586,193.7z"/>
	<path class="st5" d="M593.8,189.3c0,1.1,0.7,1.8,1.9,1.8s1.9-0.8,1.9-1.8v-4.5h0.9v4.6c0,1.5-1,2.6-2.8,2.6s-2.8-1.1-2.8-2.6v-4.6
		h0.9V189.3z"/>
	<path class="st5" d="M601.5,186.6c1.1,0,1.9,0.7,1.9,1.6h-0.8c-0.1-0.5-0.5-0.9-1.1-0.9c-0.6,0-1,0.3-1,0.8c0,0.4,0.3,0.6,0.8,0.7
		l0.8,0.2c1,0.2,1.4,0.6,1.4,1.4c0,0.9-0.8,1.5-2,1.5c-1.2,0-1.9-0.6-2-1.6h0.8c0.1,0.6,0.5,0.9,1.2,0.9s1.1-0.3,1.1-0.8
		c0-0.4-0.2-0.6-0.8-0.7l-0.8-0.2c-1-0.2-1.4-0.7-1.4-1.4C599.7,187.2,600.4,186.6,601.5,186.6z"/>
	<path class="st5" d="M608.6,190.3c-0.1,0.9-1,1.5-2.1,1.5c-1.5,0-2.3-1-2.3-2.6c0-1.6,0.9-2.6,2.3-2.6c1.4,0,2.2,1,2.2,2.5v0.3H605
		v0c0,1,0.6,1.6,1.5,1.6c0.6,0,1.1-0.3,1.3-0.8H608.6z M605.1,188.8h2.8c0-0.8-0.6-1.5-1.4-1.5C605.7,187.4,605.1,188,605.1,188.8z"
		/>
</g>
<g class="st0">
	<path class="st5" d="M558.4,211.4c2.1,0,3.3,1.3,3.3,3.5c0,2.2-1.2,3.5-3.3,3.5H556v-7H558.4z M556.9,217.6h1.4
		c1.6,0,2.5-1,2.5-2.7c0-1.8-0.9-2.7-2.5-2.7h-1.4V217.6z"/>
	<path class="st5" d="M562.5,217c0-0.9,0.7-1.4,1.8-1.5l1.5-0.1V215c0-0.6-0.4-1-1.1-1c-0.7,0-1.1,0.3-1.2,0.8h-0.8
		c0.1-0.9,0.8-1.6,2-1.6c1.2,0,1.9,0.6,1.9,1.7v3.5h-0.8v-0.9h0c-0.3,0.6-0.9,1-1.6,1C563.1,218.5,562.5,217.9,562.5,217z
		 M565.8,216.5v-0.4l-1.4,0.1c-0.7,0-1.1,0.3-1.1,0.8c0,0.5,0.4,0.8,1,0.8C565.1,217.8,565.8,217.2,565.8,216.5z"/>
	<path class="st5" d="M567.6,211.9c0-0.3,0.2-0.5,0.5-0.5c0.3,0,0.5,0.2,0.5,0.5c0,0.3-0.2,0.5-0.5,0.5
		C567.9,212.5,567.6,212.2,567.6,211.9z M567.7,213.4h0.8v5.1h-0.8V213.4z"/>
	<path class="st5" d="M569.8,211.4h0.8v7h-0.8V211.4z"/>
	<path class="st5" d="M571.8,220.3v-0.7c0.1,0,0.2,0,0.3,0c0.5,0,0.7-0.2,0.9-0.8l0.1-0.4l-1.9-5.1h0.9l1.4,4.2h0l1.4-4.2h0.9
		l-2,5.4c-0.4,1.2-0.9,1.5-1.8,1.5C572.1,220.3,571.9,220.3,571.8,220.3z"/>
	<path class="st5" d="M579.7,215.9c0,1.1,0.7,1.8,1.9,1.8s1.9-0.8,1.9-1.8v-4.5h0.9v4.6c0,1.5-1,2.6-2.8,2.6s-2.8-1.1-2.8-2.6v-4.6
		h0.9V215.9z"/>
	<path class="st5" d="M587.4,213.3c1.1,0,1.9,0.7,1.9,1.6h-0.8c-0.1-0.5-0.5-0.9-1.1-0.9c-0.6,0-1,0.3-1,0.8c0,0.4,0.3,0.6,0.8,0.7
		l0.8,0.2c1,0.2,1.4,0.6,1.4,1.4c0,0.9-0.8,1.5-2,1.5c-1.2,0-1.9-0.6-2-1.6h0.8c0.1,0.6,0.5,0.9,1.2,0.9s1.1-0.3,1.1-0.8
		c0-0.4-0.2-0.6-0.8-0.7l-0.8-0.2c-1-0.2-1.4-0.7-1.4-1.4C585.6,213.9,586.3,213.3,587.4,213.3z"/>
	<path class="st5" d="M594.5,217c-0.1,0.9-1,1.5-2.1,1.5c-1.5,0-2.3-1-2.3-2.6c0-1.6,0.9-2.6,2.3-2.6c1.4,0,2.2,1,2.2,2.5v0.3h-3.6
		v0c0,1,0.6,1.6,1.5,1.6c0.6,0,1.1-0.3,1.3-0.8H594.5z M590.9,215.5h2.8c0-0.8-0.6-1.5-1.4-1.5C591.5,214,591,214.6,590.9,215.5z"/>
</g>
</svg>
