<?xml version="1.0" encoding="utf-8"?>
<!-- Generator: Adobe Illustrator 23.0.1, SVG Export Plug-In . SVG Version: 6.00 Build 0)  -->
<svg version="1.1" id="Layer_1" xmlns="http://www.w3.org/2000/svg" xmlns:xlink="http://www.w3.org/1999/xlink" x="0px" y="0px"
	 viewBox="0 0 375 252.2" style="enable-background:new 0 0 375 252.2;" xml:space="preserve">
<style type="text/css">
	.st0{fill:#9AB260;}
	.st1{fill:#43651F;}
	.st2{enable-background:new    ;}
	.st3{fill:#333333;}
</style>
<title>Artboard 1</title>
<rect x="113.2" y="98.7" class="st0" width="143" height="23.3"/>
<rect x="113.2" y="134.7" class="st1" width="160.8" height="23.3"/>
<rect x="113.2" y="170.3" class="st0" width="178.3" height="23.3"/>
<g class="st2">
	<path d="M45.9,53.6H44L43.5,43h1.9l0.2,7.9h0l3.8-7.9h1.6l0.6,7.9h0l3.5-7.9h2l-5.1,10.7h-1.8L49.7,46h0L45.9,53.6z"/>
	<path d="M58.2,43h1.8l-0.9,4h0c0.5-0.8,1.4-1.4,2.5-1.4c1.5,0,2.5,1,2.5,2.3c0,0.3,0,0.6-0.1,0.9l-1,4.8h-1.8l1-4.5
		c0.1-0.3,0.1-0.5,0.1-0.7c0-0.8-0.6-1.3-1.5-1.3c-1,0-1.9,0.7-2.1,1.8l-1,4.7H56L58.2,43z"/>
	<path d="M65.1,50.3c0-2.6,1.7-4.7,4.1-4.7c2,0,3.3,1.3,3.3,3.3c0,0.4,0,0.8-0.1,1.2h-5.5c0,0.1,0,0.2,0,0.3c0,1.2,0.7,2,1.7,2
		c0.9,0,1.6-0.5,1.9-1.2h1.7c-0.4,1.5-1.8,2.6-3.6,2.6C66.3,53.8,65.1,52.4,65.1,50.3z M70.7,48.9c0-0.1,0-0.1,0-0.2
		c0-0.8-0.5-1.6-1.6-1.6c-1.1,0-1.8,0.8-2.1,1.8H70.7z"/>
</g>
<g class="st2">
	<path d="M74.5,45.8h1.7L76,46.9h0c0.4-0.7,1.2-1.2,2.1-1.2c0.4,0,0.7,0.1,1,0.2l-0.4,1.7c-0.2-0.1-0.6-0.2-1-0.2
		c-1.2,0-1.9,0.7-2.1,2l-0.9,4.3h-1.8L74.5,45.8z"/>
</g>
<g class="st2">
	<path d="M78.8,50.3c0-2.6,1.7-4.7,4.1-4.7c2,0,3.3,1.3,3.3,3.3c0,0.4,0,0.8-0.1,1.2h-5.5c0,0.1,0,0.2,0,0.3c0,1.2,0.7,2,1.7,2
		c0.9,0,1.6-0.5,1.9-1.2h1.7c-0.4,1.5-1.8,2.6-3.6,2.6C80,53.8,78.8,52.4,78.8,50.3z M84.5,48.9c0-0.1,0-0.1,0-0.2
		c0-0.8-0.5-1.6-1.6-1.6c-1.1,0-1.8,0.8-2.1,1.8H84.5z"/>
	<path d="M90.5,50.5c0-2.8,1.7-4.9,3.9-4.9c1.2,0,2.2,0.7,2.4,1.6h0l0.9-4.3h1.8l-2.3,10.7h-1.8l0.3-1.2h0c-0.5,0.8-1.4,1.3-2.5,1.3
		C91.6,53.8,90.5,52.5,90.5,50.5z M96.4,49.1c0-1.1-0.7-1.9-1.7-1.9c-1.3,0-2.3,1.3-2.3,3.1c0,1.2,0.6,1.9,1.6,1.9
		C95.3,52.3,96.4,50.9,96.4,49.1z"/>
	<path d="M107.1,49.1c0,2.7-1.8,4.7-4.2,4.7c-2.1,0-3.4-1.4-3.4-3.5c0-2.7,1.8-4.7,4.2-4.7C105.8,45.6,107.1,47,107.1,49.1z
		 M105.3,49.2c0-1.2-0.6-2-1.7-2c-1.4,0-2.4,1.3-2.4,3.1c0,1.2,0.6,2,1.7,2C104.3,52.3,105.3,50.9,105.3,49.2z"/>
	<path d="M110.4,56.2l2.2-10.4h1.8l-0.3,1.2h0c0.5-0.8,1.5-1.3,2.5-1.3c1.7,0,2.8,1.3,2.8,3.2c0,2.8-1.7,4.9-3.9,4.9
		c-1.2,0-2.1-0.7-2.4-1.6h0l-0.9,4.1H110.4z M117.6,49.1c0-1.2-0.6-2-1.6-2c-1.4,0-2.4,1.5-2.4,3.2c0,1.1,0.7,1.9,1.7,1.9
		C116.6,52.2,117.6,50.9,117.6,49.1z"/>
	<path d="M120.3,50.3c0-2.6,1.7-4.7,4.1-4.7c2,0,3.3,1.3,3.3,3.3c0,0.4,0,0.8-0.1,1.2H122c0,0.1,0,0.2,0,0.3c0,1.2,0.7,2,1.7,2
		c0.9,0,1.6-0.5,1.9-1.2h1.7c-0.4,1.5-1.8,2.6-3.6,2.6C121.5,53.8,120.3,52.4,120.3,50.3z M125.9,48.9c0-0.1,0-0.1,0-0.2
		c0-0.8-0.5-1.6-1.6-1.6c-1.1,0-1.8,0.8-2.1,1.8H125.9z"/>
	<path d="M136.2,49.1c0,2.7-1.8,4.7-4.2,4.7c-2.1,0-3.4-1.4-3.4-3.5c0-2.7,1.8-4.7,4.2-4.7C134.8,45.6,136.2,47,136.2,49.1z
		 M134.4,49.2c0-1.2-0.6-2-1.7-2c-1.4,0-2.4,1.3-2.4,3.1c0,1.2,0.6,2,1.7,2C133.4,52.3,134.4,50.9,134.4,49.2z"/>
	<path d="M136,56.2l2.2-10.4h1.8l-0.3,1.2h0c0.5-0.8,1.5-1.3,2.5-1.3c1.7,0,2.8,1.3,2.8,3.2c0,2.8-1.7,4.9-3.9,4.9
		c-1.2,0-2.1-0.7-2.4-1.6h0l-0.9,4.1H136z M143.2,49.1c0-1.2-0.6-2-1.6-2c-1.4,0-2.4,1.5-2.4,3.2c0,1.1,0.7,1.9,1.7,1.9
		C142.2,52.2,143.2,50.9,143.2,49.1z"/>
	<path d="M147.7,43h1.8l-2.3,10.7h-1.8L147.7,43z"/>
	<path d="M149.4,50.3c0-2.6,1.7-4.7,4.1-4.7c2,0,3.3,1.3,3.3,3.3c0,0.4,0,0.8-0.1,1.2h-5.5c0,0.1,0,0.2,0,0.3c0,1.2,0.7,2,1.7,2
		c0.9,0,1.6-0.5,1.9-1.2h1.7c-0.4,1.5-1.8,2.6-3.6,2.6C150.6,53.8,149.4,52.4,149.4,50.3z M155,48.9c0-0.1,0-0.1,0-0.2
		c0-0.8-0.5-1.6-1.6-1.6c-1.1,0-1.8,0.8-2.1,1.8H155z"/>
	<path d="M160,56.2l2.2-10.4h1.8l-0.3,1.2h0c0.5-0.8,1.5-1.3,2.5-1.3c1.7,0,2.8,1.3,2.8,3.2c0,2.8-1.7,4.9-3.9,4.9
		c-1.2,0-2.1-0.7-2.4-1.6h0l-0.9,4.1H160z M167.2,49.1c0-1.2-0.6-2-1.6-2c-1.4,0-2.4,1.5-2.4,3.2c0,1.1,0.7,1.9,1.7,1.9
		C166.2,52.2,167.2,50.9,167.2,49.1z"/>
	<path d="M176.4,53.6h-1.7l0.3-1.2h0c-0.4,0.7-1.4,1.3-2.5,1.3c-1.5,0-2.4-1-2.4-2.2c0-0.3,0-0.8,0.1-1.1l1-4.7h1.8l-0.9,4.4
		c-0.1,0.2-0.1,0.6-0.1,0.7c0,0.9,0.5,1.3,1.4,1.3c1.1,0,1.8-0.7,2.1-1.8l1-4.6h1.8L176.4,53.6z"/>
	<path d="M178.9,52.1c0-0.2,0-0.5,0.1-0.7l0.9-4h-1.2l0.3-1.4h1.2l0.4-1.9h1.8l-0.4,1.9h1.6l-0.3,1.4h-1.6l-0.8,3.6
		c-0.1,0.2-0.1,0.4-0.1,0.6c0,0.5,0.4,0.7,1,0.7c0.3,0,0.4,0,0.5,0l-0.3,1.4c-0.2,0.1-0.6,0.1-0.9,0.1
		C179.7,53.7,178.9,53.2,178.9,52.1z"/>
	<path d="M187.5,52.1c0-0.2,0-0.5,0.1-0.7l0.9-4h-1.2l0.3-1.4h1.2l0.4-1.9h1.8l-0.4,1.9h1.6l-0.3,1.4h-1.6l-0.8,3.6
		c-0.1,0.2-0.1,0.4-0.1,0.6c0,0.5,0.4,0.7,1,0.7c0.3,0,0.4,0,0.5,0l-0.3,1.4c-0.2,0.1-0.6,0.1-0.9,0.1
		C188.3,53.7,187.5,53.2,187.5,52.1z"/>
	<path d="M193.9,43h1.8l-0.9,4h0c0.5-0.8,1.4-1.4,2.5-1.4c1.5,0,2.5,1,2.5,2.3c0,0.3,0,0.6-0.1,0.9l-1,4.8H197l1-4.5
		c0.1-0.3,0.1-0.5,0.1-0.7c0-0.8-0.6-1.3-1.5-1.3c-1,0-1.9,0.7-2.1,1.8l-1,4.7h-1.8L193.9,43z"/>
	<path d="M200.8,50.3c0-2.6,1.7-4.7,4.1-4.7c2,0,3.3,1.3,3.3,3.3c0,0.4,0,0.8-0.1,1.2h-5.5c0,0.1,0,0.2,0,0.3c0,1.2,0.7,2,1.7,2
		c0.9,0,1.6-0.5,1.9-1.2h1.7c-0.4,1.5-1.8,2.6-3.6,2.6C202,53.8,200.8,52.4,200.8,50.3z M206.4,48.9c0-0.1,0-0.1,0-0.2
		c0-0.8-0.5-1.6-1.6-1.6c-1.1,0-1.8,0.8-2.1,1.8H206.4z"/>
	<path d="M210.2,45.8h1.8l-1.7,7.8h-1.8L210.2,45.8z M210.6,43.8c0-0.6,0.5-1,1-1c0.6,0,1,0.5,1,1s-0.5,1-1,1
		C211,44.8,210.6,44.3,210.6,43.8z"/>
	<path d="M213.6,45.8h1.7l-0.2,1.1h0c0.4-0.7,1.2-1.2,2.1-1.2c0.4,0,0.7,0.1,1,0.2l-0.4,1.7c-0.2-0.1-0.6-0.2-1-0.2
		c-1.2,0-1.9,0.7-2.1,2l-0.9,4.3h-1.8L213.6,45.8z"/>
	<path d="M225.2,45.6c1.8,0,3.1,1,3.1,2.5h-1.7c-0.1-0.7-0.6-1.1-1.4-1.1c-0.8,0-1.4,0.4-1.4,0.9c0,0.5,0.3,0.7,1.2,1l0.7,0.2
		c1.4,0.5,2,1.1,2,2.1c0,1.5-1.3,2.5-3.3,2.5c-2,0-3.3-1.1-3.4-2.5h1.8c0.1,0.7,0.7,1.2,1.7,1.2c0.8,0,1.4-0.4,1.4-1
		c0-0.4-0.2-0.6-1.1-0.9l-0.7-0.2c-1.4-0.5-2.1-1.1-2.1-2.2C222.1,46.6,223.3,45.6,225.2,45.6z"/>
	<path d="M230.1,45.8h1.7l-0.3,1.2h0c0.4-0.8,1.3-1.4,2.3-1.4c1.1,0,1.8,0.6,2,1.4h0c0.5-0.8,1.4-1.4,2.6-1.4c1.3,0,2.2,0.9,2.2,2.2
		c0,0.3,0,0.6-0.1,0.9l-1,4.9h-1.8l1-4.6c0.1-0.2,0.1-0.5,0.1-0.7c0-0.7-0.4-1.2-1.2-1.2c-0.8,0-1.5,0.6-1.8,1.6l-1,4.8h-1.8l1-4.6
		c0.1-0.2,0.1-0.5,0.1-0.7c0-0.7-0.4-1.2-1.2-1.2c-0.8,0-1.6,0.7-1.8,1.6l-1,4.8h-1.8L230.1,45.8z"/>
	<path d="M241.3,51.6c0-1.6,1.2-2.5,3.3-2.6l2.1-0.1l0.1-0.5c0-0.1,0-0.2,0-0.3c0-0.6-0.5-1-1.4-1c-0.9,0-1.4,0.4-1.6,1h-1.8
		c0.3-1.5,1.6-2.5,3.5-2.5c1.8,0,3,0.9,3,2.3c0,0.2,0,0.5-0.1,0.7l-1.1,5.1h-1.7l0.2-0.9h0c-0.5,0.7-1.3,1.1-2.3,1.1
		C242.4,53.8,241.3,52.9,241.3,51.6z M246.4,50.9l0.2-0.7l-1.8,0.1c-1,0-1.6,0.5-1.6,1.1c0,0.6,0.5,1,1.3,1
		C245.4,52.4,246.2,51.8,246.4,50.9z"/>
</g>
<g class="st2">
	<path d="M250.7,45.8h1.7l-0.2,1.1h0c0.4-0.7,1.2-1.2,2.1-1.2c0.4,0,0.7,0.1,1,0.2l-0.4,1.7c-0.2-0.1-0.6-0.2-1-0.2
		c-1.2,0-1.9,0.7-2.1,2l-0.9,4.3H249L250.7,45.8z"/>
</g>
<g class="st2">
	<path d="M256,52.1c0-0.2,0-0.5,0.1-0.7l0.9-4h-1.2l0.3-1.4h1.2l0.4-1.9h1.8l-0.4,1.9h1.6l-0.3,1.4h-1.6l-0.8,3.6
		c-0.1,0.2-0.1,0.4-0.1,0.6c0,0.5,0.4,0.7,1,0.7c0.3,0,0.4,0,0.5,0l-0.3,1.4c-0.2,0.1-0.6,0.1-0.9,0.1C256.8,53.7,256,53.2,256,52.1
		z"/>
	<path d="M267.8,45.6c1.8,0,3.1,1,3.1,2.5h-1.7c-0.1-0.7-0.6-1.1-1.4-1.1c-0.8,0-1.4,0.4-1.4,0.9c0,0.5,0.3,0.7,1.2,1l0.7,0.2
		c1.4,0.5,2,1.1,2,2.1c0,1.5-1.3,2.5-3.3,2.5c-2,0-3.3-1.1-3.4-2.5h1.8c0.1,0.7,0.7,1.2,1.7,1.2c0.8,0,1.4-0.4,1.4-1
		c0-0.4-0.2-0.6-1.1-0.9l-0.7-0.2c-1.4-0.5-2.1-1.1-2.1-2.2C264.7,46.6,265.9,45.6,267.8,45.6z"/>
	<path d="M270.5,56.2l2.2-10.4h1.8l-0.3,1.2h0c0.5-0.8,1.5-1.3,2.5-1.3c1.7,0,2.8,1.3,2.8,3.2c0,2.8-1.7,4.9-3.9,4.9
		c-1.2,0-2.1-0.7-2.4-1.6h0l-0.9,4.1H270.5z M277.7,49.1c0-1.2-0.6-2-1.6-2c-1.4,0-2.4,1.5-2.4,3.2c0,1.1,0.7,1.9,1.7,1.9
		C276.7,52.2,277.7,50.9,277.7,49.1z"/>
	<path d="M280.4,50.3c0-2.6,1.7-4.7,4.1-4.7c2,0,3.3,1.3,3.3,3.3c0,0.4,0,0.8-0.1,1.2h-5.5c0,0.1,0,0.2,0,0.3c0,1.2,0.7,2,1.7,2
		c0.9,0,1.6-0.5,1.9-1.2h1.7c-0.4,1.5-1.8,2.6-3.6,2.6C281.6,53.8,280.4,52.4,280.4,50.3z M286,48.9c0-0.1,0-0.1,0-0.2
		c0-0.8-0.5-1.6-1.6-1.6c-1.1,0-1.8,0.8-2.1,1.8H286z"/>
	<path d="M288.3,51.6c0-1.6,1.2-2.5,3.3-2.6l2.1-0.1l0.1-0.5c0-0.1,0-0.2,0-0.3c0-0.6-0.5-1-1.4-1c-0.9,0-1.4,0.4-1.6,1h-1.8
		c0.3-1.5,1.6-2.5,3.5-2.5c1.8,0,3,0.9,3,2.3c0,0.2,0,0.5-0.1,0.7l-1.1,5.1h-1.7l0.2-0.9h0c-0.5,0.7-1.3,1.1-2.3,1.1
		C289.4,53.8,288.3,52.9,288.3,51.6z M293.4,50.9l0.2-0.7l-1.8,0.1c-1,0-1.6,0.5-1.6,1.1c0,0.6,0.5,1,1.3,1
		C292.3,52.4,293.2,51.8,293.4,50.9z"/>
</g>
<g class="st2">
	<path d="M296.1,53.6l2.3-10.7h1.8l-1.3,5.9h0l3.5-3.1h2.2l-3.8,3.3l2.3,4.5h-2l-1.8-3.5l-1,0.8l-0.6,2.7H296.1z"/>
</g>
<g class="st2">
	<path d="M303.9,50.3c0-2.6,1.7-4.7,4.1-4.7c2,0,3.3,1.3,3.3,3.3c0,0.4,0,0.8-0.1,1.2h-5.5c0,0.1,0,0.2,0,0.3c0,1.2,0.7,2,1.7,2
		c0.9,0,1.6-0.5,1.9-1.2h1.7c-0.4,1.5-1.8,2.6-3.6,2.6C305.1,53.8,303.9,52.4,303.9,50.3z M309.5,48.9c0-0.1,0-0.1,0-0.2
		c0-0.8-0.5-1.6-1.6-1.6c-1.1,0-1.8,0.8-2.1,1.8H309.5z"/>
</g>
<g class="st2">
	<path d="M313.3,45.8h1.7l-0.2,1.1h0c0.4-0.7,1.2-1.2,2.1-1.2c0.4,0,0.7,0.1,1,0.2l-0.4,1.7c-0.2-0.1-0.6-0.2-1-0.2
		c-1.2,0-1.9,0.7-2.1,2l-0.9,4.3h-1.8L313.3,45.8z"/>
</g>
<g class="st2">
	<path d="M321.3,45.6c1.8,0,3.1,1,3.1,2.5h-1.7c-0.1-0.7-0.6-1.1-1.4-1.1c-0.8,0-1.4,0.4-1.4,0.9c0,0.5,0.3,0.7,1.2,1l0.7,0.2
		c1.4,0.5,2,1.1,2,2.1c0,1.5-1.3,2.5-3.3,2.5c-2,0-3.3-1.1-3.4-2.5h1.8c0.1,0.7,0.7,1.2,1.7,1.2c0.8,0,1.4-0.4,1.4-1
		c0-0.4-0.2-0.6-1.1-0.9l-0.7-0.2c-1.4-0.5-2.1-1.1-2.1-2.2C318.1,46.6,319.4,45.6,321.3,45.6z"/>
	<path d="M329.4,42.9c2,0,3.3,1.1,3.3,2.6c0,1.3-0.8,2.4-2.1,2.9c-1.1,0.5-1.5,0.8-1.6,1.6l-0.1,0.4h-1.8l0.1-0.5
		c0.2-1.3,0.8-1.8,1.9-2.3c1.2-0.5,1.6-1.1,1.6-1.8c0-0.6-0.5-1.2-1.5-1.2c-0.8,0-1.5,0.5-1.7,1.3h-1.8
		C326.1,44.1,327.4,42.9,329.4,42.9z M326.4,52.7c0-0.6,0.5-1.1,1.1-1.1c0.6,0,1.1,0.5,1.1,1.1c0,0.6-0.5,1.1-1.1,1.1
		C326.9,53.8,326.4,53.3,326.4,52.7z"/>
</g>
<g class="st2">
	<path d="M53.3,150.5v-9.1h1.9v4.2h0.1l3.4-4.2h2.1l-3.4,4.1l3.6,5.1h-2.3l-2.7-3.8l-0.9,1v2.8H53.3z"/>
	<path d="M61.7,141.9c0-0.5,0.4-1,1-1c0.5,0,1,0.4,1,1c0,0.5-0.4,1-1,1C62.1,142.8,61.7,142.4,61.7,141.9z M61.7,143.8h1.8v6.8h-1.8
		V143.8z"/>
</g>
<g class="st2">
	<path d="M67.1,142.2v1.6h1.3v1.4h-1.3v3.2c0,0.5,0.3,0.8,0.8,0.8c0.2,0,0.3,0,0.4,0v1.4c-0.2,0-0.5,0.1-0.9,0.1
		c-1.6,0-2.2-0.5-2.2-1.9v-3.6h-1v-1.4h1v-1.6H67.1z"/>
</g>
<g class="st2">
	<path d="M73.8,146.3c-0.1-0.7-0.6-1.2-1.3-1.2c-0.9,0-1.5,0.8-1.5,2.1c0,1.3,0.6,2.1,1.5,2.1c0.7,0,1.2-0.4,1.3-1.2h1.7
		c-0.1,1.6-1.3,2.6-3.1,2.6c-2,0-3.3-1.3-3.3-3.5c0-2.2,1.3-3.5,3.3-3.5c1.8,0,3,1.1,3.1,2.7H73.8z"/>
	<path d="M76.4,141.4h1.8v3.6h0c0.4-0.9,1.1-1.3,2.1-1.3c1.5,0,2.4,1,2.4,2.5v4.4h-1.8v-4c0-0.9-0.4-1.4-1.3-1.4
		c-0.9,0-1.4,0.6-1.4,1.5v3.9h-1.8V141.4z"/>
	<path d="M90.2,148.5c-0.2,1.3-1.4,2.2-3.1,2.2c-2.1,0-3.3-1.3-3.3-3.5c0-2.2,1.3-3.6,3.3-3.6c2,0,3.2,1.3,3.2,3.4v0.6h-4.7v0.1
		c0,1,0.6,1.6,1.6,1.6c0.7,0,1.2-0.3,1.4-0.9H90.2z M85.5,146.4h2.9c0-0.9-0.6-1.5-1.4-1.5C86.2,145,85.6,145.6,85.5,146.4z"/>
	<path d="M91.2,143.8h1.8v1.2h0c0.4-0.8,1.1-1.3,2.1-1.3c1.5,0,2.4,1,2.4,2.5v4.4h-1.8v-4c0-0.9-0.4-1.4-1.2-1.4s-1.4,0.6-1.4,1.5
		v3.9h-1.8V143.8z"/>
</g>
<g class="st2">
	<path d="M286.1,148h-4.5v-1.6c0.8-1.5,1.8-3.1,3.7-5.9h2.7v5.9h1.2v1.5H288v1.7h-1.8V148z M283.3,146.5h2.9v-4.6h0
		C284.8,143.8,284,145.1,283.3,146.5L283.3,146.5z"/>
</g>
<g class="st2">
	<path d="M292.4,142.2L292.4,142.2l-2.4,1.6v-1.7l2.4-1.6h1.9v9.1h-1.9V142.2z"/>
</g>
<g class="st2">
	<path d="M296.3,148.7c0-0.6,0.4-1,1-1c0.6,0,1,0.4,1,1c0,0.6-0.5,1-1,1C296.8,149.7,296.3,149.2,296.3,148.7z"/>
</g>
<g class="st2">
	<path d="M304.3,148h-4.5v-1.6c0.8-1.5,1.8-3.1,3.7-5.9h2.7v5.9h1.2v1.5h-1.2v1.7h-1.8V148z M301.4,146.5h2.9v-4.6h0
		C302.9,143.8,302.1,145.1,301.4,146.5L301.4,146.5z"/>
	<path d="M308,142.7c0-1.5,0.9-2.4,2.2-2.4c1.3,0,2.2,0.9,2.2,2.4c0,1.5-0.9,2.4-2.2,2.4C308.8,145.1,308,144.2,308,142.7z
		 M311,142.7c0-0.9-0.3-1.3-0.8-1.3c-0.5,0-0.8,0.4-0.8,1.3c0,0.9,0.3,1.3,0.8,1.3C310.6,144.1,311,143.6,311,142.7z M309.6,149.6
		l6.2-9.1h1.4l-6.2,9.1H309.6z M314.4,147.4c0-1.5,0.9-2.4,2.2-2.4c1.3,0,2.2,0.9,2.2,2.4c0,1.5-0.9,2.4-2.2,2.4
		C315.2,149.8,314.4,148.8,314.4,147.4z M317.4,147.4c0-0.9-0.3-1.3-0.8-1.3c-0.5,0-0.8,0.4-0.8,1.3c0,0.9,0.3,1.3,0.8,1.3
		C317,148.7,317.4,148.3,317.4,147.4z"/>
</g>
<g class="st2">
	<path class="st3" d="M303.1,183.6h-4.6v-0.8c1-1.7,2.2-3.5,4.2-6.3h1.3v6.3h1.4v0.8h-1.4v2.1h-0.8V183.6z M299.3,182.8h3.8v-5.6h0
		C301.4,179.6,300.3,181.3,299.3,182.8L299.3,182.8z"/>
</g>
<g class="st2">
	<path class="st3" d="M306.4,183.3h0.8c0.1,1,1.1,1.8,2.2,1.8c1.4,0,2.3-1,2.3-2.3c0-1.3-1-2.3-2.3-2.3c-0.9,0-1.7,0.4-2.2,1.2h-0.8
		l0.5-5.1h5.1v0.8h-4.4l-0.4,3.4h0c0.5-0.7,1.3-1.1,2.2-1.1c1.7,0,3,1.3,3,3c0,1.8-1.3,3.1-3.2,3.1
		C307.8,185.8,306.6,184.7,306.4,183.3z"/>
</g>
<g class="st2">
	<path class="st3" d="M314.1,185.1c0-0.3,0.3-0.6,0.6-0.6s0.6,0.3,0.6,0.6c0,0.3-0.3,0.6-0.6,0.6S314.1,185.4,314.1,185.1z"/>
	<path class="st3" d="M316.9,183.5h0.9c0.2,0.9,1,1.5,2.1,1.5c1.5,0,2.6-1.3,2.6-4.3h0c-0.3,1-1.4,1.7-2.7,1.7c-1.7,0-3-1.3-3-3
		c0-1.8,1.3-3.1,3.2-3.1c1.5,0,3.4,1,3.4,4.5c0,3.1-1.3,4.9-3.5,4.9C318.4,185.8,317.2,184.9,316.9,183.5z M322.3,179.5
		c0-1.3-1-2.4-2.3-2.4c-1.3,0-2.3,1-2.3,2.3c0,1.3,1,2.3,2.3,2.3C321.3,181.7,322.3,180.7,322.3,179.5z"/>
	<path class="st3" d="M324.2,178.6c0-1.3,0.7-2.1,1.8-2.1c1.1,0,1.8,0.8,1.8,2.1c0,1.3-0.7,2.1-1.8,2.1
		C324.9,180.7,324.2,179.8,324.2,178.6z M327.2,178.6c0-0.9-0.5-1.6-1.2-1.6c-0.7,0-1.2,0.6-1.2,1.6c0,0.9,0.5,1.6,1.2,1.6
		C326.7,180.1,327.2,179.5,327.2,178.6z M325.3,185.6l6.2-9.1h0.8l-6.2,9.1H325.3z M329.7,183.6c0-1.3,0.7-2.1,1.8-2.1
		c1.1,0,1.8,0.8,1.8,2.1s-0.7,2.1-1.8,2.1C330.4,185.7,329.7,184.9,329.7,183.6z M332.7,183.6c0-0.9-0.5-1.6-1.2-1.6
		c-0.7,0-1.2,0.6-1.2,1.6s0.5,1.6,1.2,1.6C332.2,185.1,332.7,184.5,332.7,183.6z"/>
</g>
<g class="st2">
	<path class="st3" d="M266,108.5h1.1c1.2,0,2.1-0.7,2.1-1.7c0-1-0.7-1.7-2-1.7c-1.2,0-2,0.7-2.1,1.7h-0.8c0.1-1.5,1.3-2.5,2.9-2.5
		c1.7,0,2.8,1,2.8,2.3c0,1.1-0.8,1.9-2,2.2v0c1.4,0.1,2.3,1,2.3,2.3c0,1.5-1.3,2.6-3.1,2.6c-1.8,0-3.1-1.1-3.2-2.5h0.8
		c0.1,1,1,1.8,2.3,1.8c1.3,0,2.2-0.8,2.2-1.9c0-1.2-0.9-1.9-2.3-1.9H266V108.5z"/>
</g>
<g class="st2">
	<path class="st3" d="M271.5,109.2c0-3.1,1.3-4.9,3.5-4.9c1.5,0,2.7,0.9,2.9,2.3h-0.9c-0.2-0.9-1-1.5-2.1-1.5
		c-1.7,0-2.6,1.6-2.6,4.3h0c0.3-1,1.4-1.7,2.7-1.7c1.7,0,3,1.3,3,3c0,1.8-1.3,3.1-3.2,3.1C273.4,113.8,271.5,112.7,271.5,109.2z
		 M277.2,110.7c0-1.3-1-2.3-2.3-2.3c-1.3,0-2.3,1-2.3,2.2c0,1.3,1,2.4,2.3,2.4C276.2,113,277.2,112,277.2,110.7z"/>
</g>
<g class="st2">
	<path class="st3" d="M279.5,113.1c0-0.3,0.3-0.6,0.6-0.6s0.6,0.3,0.6,0.6c0,0.3-0.3,0.6-0.6,0.6S279.5,113.4,279.5,113.1z"/>
</g>
<g class="st2">
	<path class="st3" d="M282.3,111.1c0-1.2,0.8-2.1,2-2.3v0c-1-0.3-1.7-1.1-1.7-2c0-1.4,1.2-2.4,2.9-2.4c1.7,0,2.9,1,2.9,2.4
		c0,1-0.7,1.7-1.7,2v0c1.2,0.3,2,1.2,2,2.3c0,1.5-1.3,2.6-3.3,2.6C283.6,113.8,282.3,112.7,282.3,111.1z M287.9,111.1
		c0-1.1-1-1.9-2.4-1.9c-1.4,0-2.4,0.8-2.4,1.9c0,1.1,1,1.9,2.4,1.9S287.9,112.2,287.9,111.1z M287.6,106.8c0-1-0.8-1.7-2.1-1.7
		c-1.2,0-2.1,0.7-2.1,1.7c0,1,0.9,1.6,2.1,1.6C286.7,108.4,287.6,107.8,287.6,106.8z"/>
	<path class="st3" d="M289.6,106.5c0-1.3,0.7-2.1,1.8-2.1c1.1,0,1.8,0.8,1.8,2.1c0,1.3-0.7,2.1-1.8,2.1
		C290.4,108.7,289.6,107.8,289.6,106.5z M292.6,106.5c0-0.9-0.5-1.6-1.2-1.6c-0.7,0-1.2,0.6-1.2,1.6c0,0.9,0.5,1.6,1.2,1.6
		C292.2,108.1,292.6,107.5,292.6,106.5z M290.7,113.6l6.2-9.1h0.8l-6.2,9.1H290.7z M295.2,111.6c0-1.3,0.7-2.1,1.8-2.1
		c1.1,0,1.8,0.8,1.8,2.1s-0.7,2.1-1.8,2.1C295.9,113.7,295.2,112.9,295.2,111.6z M298.1,111.6c0-0.9-0.5-1.6-1.2-1.6
		c-0.7,0-1.2,0.6-1.2,1.6s0.5,1.6,1.2,1.6C297.7,113.1,298.1,112.5,298.1,111.6z"/>
</g>
<g class="st2">
	<path class="st3" d="M39.2,186.5h-5.4v-9.1h0.9v8.4h4.6V186.5z"/>
	<path class="st3" d="M40.2,178c0-0.3,0.3-0.6,0.6-0.6c0.3,0,0.6,0.2,0.6,0.6s-0.3,0.6-0.6,0.6C40.5,178.6,40.2,178.3,40.2,178z
		 M40.4,180h0.8v6.6h-0.8V180z"/>
	<path class="st3" d="M45.4,186.5h-0.9l-2.5-6.6H43l2,5.7h0l2-5.7h0.9L45.4,186.5z"/>
	<path class="st3" d="M48.6,178c0-0.3,0.3-0.6,0.6-0.6c0.3,0,0.6,0.2,0.6,0.6s-0.3,0.6-0.6,0.6C48.8,178.6,48.6,178.3,48.6,178z
		 M48.7,180h0.8v6.6h-0.8V180z"/>
	<path class="st3" d="M51.1,180h0.8v1.2h0c0.3-0.8,1.1-1.3,2.2-1.3c1.4,0,2.3,0.9,2.3,2.4v4.3h-0.8v-4.1c0-1.2-0.6-1.8-1.7-1.8
		c-1.1,0-1.9,0.8-1.9,2v3.9h-0.8V180z"/>
	<path class="st3" d="M57.8,187.2h0.9c0.2,0.6,0.9,1.1,1.9,1.1c1.2,0,2-0.7,2-1.8v-1.3h0c-0.4,0.8-1.2,1.5-2.3,1.5
		c-1.7,0-2.8-1.3-2.8-3.4c0-2,1.1-3.4,2.8-3.4c1.1,0,1.9,0.6,2.3,1.5h0V180h0.8v6.5c0,1.5-1.1,2.5-2.9,2.5
		C59,189,58,188.2,57.8,187.2z M62.5,183.2c0-1.6-0.9-2.6-2.1-2.6c-1.2,0-2.1,1-2.1,2.6c0,1.6,0.8,2.6,2.1,2.6
		C61.7,185.9,62.5,184.8,62.5,183.2z"/>
</g>
<g class="st2">
	<path class="st3" d="M68.5,186.5h-0.9v-9.1h3.2c1.8,0,2.9,1,2.9,2.7c0,1.3-0.7,2.3-2,2.6l2.2,3.9h-1l-2.1-3.7c0,0-0.1,0-0.1,0h-2.3
		V186.5z M68.5,182h2.3c1.3,0,2.1-0.7,2.1-1.9c0-1.2-0.8-1.9-2.1-1.9h-2.3V182z"/>
</g>
<g class="st2">
	<path class="st3" d="M74.6,183.3c0-2.1,1.2-3.4,3-3.4c1.8,0,3,1.3,3,3.4c0,2.1-1.2,3.4-3,3.4S74.6,185.3,74.6,183.3z M79.7,183.3
		c0-1.7-0.9-2.7-2.2-2.7c-1.3,0-2.1,1-2.1,2.7s0.9,2.7,2.1,2.7C78.9,185.9,79.7,184.9,79.7,183.3z"/>
	<path class="st3" d="M81.4,183.3c0-2.1,1.2-3.4,3-3.4c1.8,0,3,1.3,3,3.4c0,2.1-1.2,3.4-3,3.4S81.4,185.3,81.4,183.3z M86.5,183.3
		c0-1.7-0.9-2.7-2.2-2.7c-1.3,0-2.1,1-2.1,2.7s0.9,2.7,2.1,2.7C85.7,185.9,86.5,184.9,86.5,183.3z"/>
	<path class="st3" d="M88.5,180h0.8v1.2h0c0.3-0.8,1-1.3,1.9-1.3c1,0,1.7,0.6,1.9,1.4h0c0.3-0.8,1.1-1.4,2.1-1.4
		c1.3,0,2.1,0.9,2.1,2.2v4.5h-0.8v-4.3c0-1-0.6-1.6-1.5-1.6c-1,0-1.6,0.7-1.6,1.8v4.1h-0.8v-4.4c0-0.9-0.6-1.6-1.5-1.6
		c-1,0-1.7,0.8-1.7,1.9v4h-0.8V180z"/>
</g>
<g class="st2">
	<path class="st3" d="M50.2,114.5v-9.1h3.3c1.6,0,2.6,0.9,2.6,2.3c0,1-0.7,1.9-1.7,2.1v0c1.3,0.2,2.1,1,2.1,2.3
		c0,1.6-1.2,2.5-3.1,2.5H50.2z M51.1,109.5h2c1.4,0,2.2-0.6,2.2-1.7c0-1-0.7-1.6-1.9-1.6h-2.2V109.5z M53.4,113.8
		c1.5,0,2.3-0.7,2.3-1.8c0-1.1-0.9-1.8-2.4-1.8h-2.2v3.6H53.4z"/>
	<path class="st3" d="M63.1,112.7c-0.2,1.1-1.3,2-2.7,2c-1.8,0-3-1.3-3-3.4c0-2,1.2-3.4,2.9-3.4c1.7,0,2.8,1.3,2.8,3.2v0.4h-4.9v0.1
		c0,1.5,0.8,2.4,2.2,2.4c1,0,1.7-0.5,1.9-1.2H63.1z M58.2,110.8h4.1c0-1.3-0.8-2.2-2-2.2C59.1,108.6,58.3,109.5,58.2,110.8z"/>
	<path class="st3" d="M64,111.2c0-2.1,1.1-3.4,2.8-3.4c1.1,0,1.9,0.6,2.3,1.5h0v-3.9h0.8v9.1h-0.8v-1.4h0c-0.4,0.9-1.2,1.5-2.3,1.5
		C65.1,114.6,64,113.3,64,111.2z M64.8,111.2c0,1.6,0.8,2.7,2.1,2.7c1.3,0,2.1-1.1,2.1-2.7c0-1.6-0.9-2.7-2.1-2.7
		C65.7,108.6,64.8,109.6,64.8,111.2z"/>
</g>
<g class="st2">
	<path class="st3" d="M71.4,107.9h0.8v1.2h0c0.2-0.8,0.9-1.3,1.7-1.3c0.2,0,0.4,0,0.5,0.1v0.8c-0.1-0.1-0.3-0.1-0.6-0.1
		c-0.9,0-1.5,0.7-1.5,1.8v4.1h-0.8V107.9z"/>
</g>
<g class="st2">
	<path class="st3" d="M74.6,111.2c0-2.1,1.2-3.4,3-3.4c1.8,0,3,1.3,3,3.4c0,2.1-1.2,3.4-3,3.4S74.6,113.3,74.6,111.2z M79.7,111.2
		c0-1.7-0.9-2.7-2.2-2.7c-1.3,0-2.1,1-2.1,2.7s0.9,2.7,2.1,2.7C78.9,113.9,79.7,112.9,79.7,111.2z"/>
	<path class="st3" d="M81.4,111.2c0-2.1,1.2-3.4,3-3.4c1.8,0,3,1.3,3,3.4c0,2.1-1.2,3.4-3,3.4S81.4,113.3,81.4,111.2z M86.5,111.2
		c0-1.7-0.9-2.7-2.2-2.7c-1.3,0-2.1,1-2.1,2.7s0.9,2.7,2.1,2.7C85.7,113.9,86.5,112.9,86.5,111.2z"/>
	<path class="st3" d="M88.5,107.9h0.8v1.2h0c0.3-0.8,1-1.3,1.9-1.3c1,0,1.7,0.6,1.9,1.4h0c0.3-0.8,1.1-1.4,2.1-1.4
		c1.3,0,2.1,0.9,2.1,2.2v4.5h-0.8v-4.3c0-1-0.6-1.6-1.5-1.6c-1,0-1.6,0.7-1.6,1.8v4.1h-0.8v-4.4c0-0.9-0.6-1.6-1.5-1.6
		c-1,0-1.7,0.8-1.7,1.9v4h-0.8V107.9z"/>
</g>
</svg>
