<?xml version="1.0" encoding="utf-8"?>
<!-- Generator: Adobe Illustrator 21.0.0, SVG Export Plug-In . SVG Version: 6.00 Build 0)  -->
<svg version="1.1" id="Layer_1" xmlns="http://www.w3.org/2000/svg" xmlns:xlink="http://www.w3.org/1999/xlink" x="0px" y="0px"
	 viewBox="0 0 480 72" style="enable-background:new 0 0 480 72;" xml:space="preserve">
<style type="text/css">
	.st0{fill:#FFFFFF;}
</style>
<g>
	<g>
		<path class="st0" d="M0.1,12.4C2,18.5,6.4,23.8,11.3,27.9c4.6,3.9,11.5,8.5,17.8,8.6c4.4,0.1,8.2-6.5,3.3-9.1
			c-4.7-2.5-9.8-3.6-14.2-6.7c-4.6-3.3-7.4-7.4-11-11.6C4.8,6.3-1.1,8.5,0.1,12.4L0.1,12.4z"/>
	</g>
	<g>
		<path class="st0" d="M43.1,7.7c-6.3,8.4-17.2,12.4-19.3,23.7c-2,10.8-0.4,27.4,4.1,37.2c2.7,6,11.5,4,12.3-2.2
			c1.5-10.8-3.8-21.9-2.2-32.7c1.3-8.6,11.2-13,13.6-21.5C53,7,46.5,3.1,43.1,7.7L43.1,7.7z"/>
	</g>
	<g>
		<path class="st0" d="M59,18c-5.2,14.1-5.5,35.9,5,48c9.3,10.7,23.2,5,27.5-7.1c4.6-13,2.2-31.9-5.8-43.2
			c-6.3-8.8-22.5-10.9-25.6,2c-1.3,5.6,5.3,9.7,9.2,4.8c3.1-3.9,7.9-7.6,12.8,0.2C84.1,26,84.2,33,84,36.4c-0.2,5.6-1,15.7-5.1,20
			c-9.8,10.1-12.3-32-12.4-36.7C66.5,15.6,60.7,13.5,59,18L59,18z"/>
	</g>
	<g>
		<path class="st0" d="M154.5,63.4c-0.2-8.4-0.7-17,1.3-25.2c1.5-6.1,5.8-16.3,12.9-18.2c5.5-1.5,5.6,1,7,6.2
			c0.9,3.3,1.2,7,1.5,10.4c0.7,8.8,0,17.6-2,26.2c-2.1,9.3,14.5,11.4,15.1,1.4c0.8-13.6-0.2-26.7-4.1-39.8
			c-2.7-9.1-5.6-17.1-16.8-15.4c-25.9,3.8-26.4,35.1-23,54.8C147.1,68.2,154.7,68.2,154.5,63.4L154.5,63.4z"/>
	</g>
	<g>
		<path class="st0" d="M232.5,8.2c-9.9-12.8-27.8-8.5-35.1,4.6c-7.9,14.2-5.9,40.1,6.4,51.6c13.2,12.3,30.1,4.5,33.7-11.8
			c1.6-7,4.7-16.8,0.4-23.3c-4.6-7.1-14.9-5.5-22.1-4.4c-7.7,1.2-7.3,13.2,0.6,13.8c6.2,0.5,9.4-2.5,8,5.1c-0.4,2-0.4,6.6-1.8,8.3
			c-5.7,6.9-9.9,1-12.2-3.5c-2.8-5.4-3.8-13.4-3.8-19.4c0.1-8.5,8.4-29.3,19.8-16C229.8,17.2,235.6,12.2,232.5,8.2L232.5,8.2z"/>
	</g>
	<g>
		<path class="st0" d="M98.1,13.3c-1.3,13.6,0.7,28.5,4.4,41.6c2.4,8.7,7.5,16.1,17.4,15.6c25.8-1.4,19-39.1,17.4-55.3
			c-0.5-5.6-9.9-3.9-8.6,1.5c2,7.7,2.7,15,1.7,23c-0.9,6.9-4.5,25.6-14.3,17.9c-5.1-4-5.6-15.6-6.5-21.7c-1.1-7.7-1.4-15.4-2.2-23.1
			C106.9,7.6,98.6,8.1,98.1,13.3L98.1,13.3z"/>
	</g>
</g>
<g>
	<g>
		<path d="M240.1,12.4c1.9,6.1,6.3,11.4,11.1,15.5c4.6,3.9,11.5,8.5,17.8,8.6c4.4,0.1,8.2-6.5,3.3-9.1c-4.7-2.5-9.8-3.6-14.2-6.7
			c-4.6-3.3-7.4-7.4-11-11.6C244.8,6.3,238.9,8.5,240.1,12.4L240.1,12.4z"/>
	</g>
	<g>
		<path d="M283.1,7.7c-6.3,8.4-17.2,12.4-19.3,23.7c-2,10.8-0.4,27.4,4.1,37.2c2.7,6,11.5,4,12.3-2.2c1.5-10.8-3.8-21.9-2.2-32.7
			c1.3-8.6,11.2-13,13.6-21.5C293,7,286.5,3.1,283.1,7.7L283.1,7.7z"/>
	</g>
	<g>
		<path d="M299,18c-5.2,14.1-5.5,35.9,5,48c9.3,10.7,23.2,5,27.5-7.1c4.6-13,2.2-31.9-5.8-43.2c-6.3-8.8-22.5-10.9-25.6,2
			c-1.3,5.6,5.3,9.7,9.2,4.8c3.1-3.9,7.9-7.6,12.8,0.2c2.1,3.3,2.1,10.2,1.9,13.7c-0.2,5.6-1,15.7-5.1,20
			c-9.8,10.1-12.3-32-12.4-36.7C306.5,15.6,300.7,13.5,299,18L299,18z"/>
	</g>
	<g>
		<path d="M394.5,63.4c-0.2-8.4-0.7-17,1.3-25.2c1.5-6.1,5.8-16.3,12.9-18.2c5.5-1.5,5.6,1,7,6.2c0.9,3.3,1.2,7,1.5,10.4
			c0.7,8.8,0,17.6-2,26.2c-2.1,9.3,14.5,11.4,15.1,1.4c0.8-13.6-0.2-26.7-4.1-39.8c-2.7-9.1-5.6-17.1-16.8-15.4
			c-25.9,3.8-26.4,35.1-23,54.8C387.1,68.2,394.7,68.2,394.5,63.4L394.5,63.4z"/>
	</g>
	<g>
		<path d="M472.5,8.2c-9.9-12.8-27.8-8.5-35.1,4.6c-7.9,14.2-5.9,40.1,6.4,51.6c13.2,12.3,30.1,4.5,33.7-11.8
			c1.6-7,4.7-16.8,0.4-23.3c-4.6-7.1-14.9-5.5-22.1-4.4c-7.7,1.2-7.3,13.2,0.6,13.8c6.2,0.5,9.4-2.5,8,5.1c-0.4,2-0.4,6.6-1.8,8.3
			c-5.7,6.9-9.9,1-12.2-3.5c-2.8-5.4-3.8-13.4-3.8-19.4c0.1-8.5,8.4-29.3,19.8-16C469.8,17.2,475.6,12.2,472.5,8.2L472.5,8.2z"/>
	</g>
	<g>
		<path d="M338.1,13.3c-1.3,13.6,0.7,28.5,4.4,41.6c2.4,8.7,7.5,16.1,17.4,15.6c25.8-1.4,19-39.1,17.4-55.3
			c-0.5-5.6-9.9-3.9-8.6,1.5c2,7.7,2.7,15,1.7,23c-0.9,6.9-4.5,25.6-14.3,17.9c-5.1-4-5.6-15.6-6.5-21.7c-1.1-7.7-1.4-15.4-2.2-23.1
			C346.9,7.6,338.6,8.1,338.1,13.3L338.1,13.3z"/>
	</g>
</g>
</svg>
